<svg version="1.1" id="Layer_1" xmlns="http://www.w3.org/2000/svg" xmlns:xlink="http://www.w3.org/1999/xlink" x="0px" y="0px"
	 width="100%" viewBox="0 0 640 640" enable-background="new 0 0 640 640" xml:space="preserve">
<path fill="#000000" opacity="1.000000" stroke="none" 
	d="
M448.874908,267.944397 
	C445.915131,262.372528 443.128113,257.117249 439.829712,250.897675 
	C435.872559,257.630829 432.410706,263.521240 428.948853,269.411621 
	C432.780090,265.864380 436.297913,261.917786 441.646942,260.054138 
	C425.649475,283.617310 407.630981,305.675354 393.606964,330.584198 
	C393.763245,324.637390 396.953094,319.886414 399.339783,314.879608 
	C401.837372,309.640167 404.598969,304.526611 407.497620,298.864929 
	C404.956635,299.152985 404.588745,300.821991 404.033722,302.245819 
	C399.637024,313.525421 393.349457,323.688049 385.765747,333.071442 
	C384.334991,334.841705 383.918701,336.893372 383.338531,338.991821 
	C377.383392,360.530426 375.052917,382.728668 371.370117,404.675507 
	C367.518311,427.629761 361.146362,450.065643 357.548340,473.066345 
	C357.307831,474.603577 357.483673,476.747284 355.145081,476.822906 
	C353.537415,476.874878 353.230774,475.255219 352.688538,474.055664 
	C341.442841,449.176910 330.136475,424.325409 318.958344,399.416382 
	C314.049500,388.477631 309.402466,377.421478 304.628418,366.422180 
	C302.009674,360.388672 295.063843,358.251740 289.590515,361.897461 
	C273.820190,372.401978 262.594086,386.962463 253.194107,403.087799 
	C242.294525,421.785522 232.819443,441.301361 220.711151,459.308716 
	C213.176559,470.514130 204.864441,481.104401 195.819046,491.462280 
	C213.618866,507.670135 226.336624,527.755005 240.033707,547.921814 
	C243.996292,543.290894 245.769272,538.672974 247.598648,534.134644 
	C253.152054,520.357849 259.374298,506.919922 267.560760,494.482605 
	C269.568726,491.432007 271.973053,488.641235 274.212402,485.744385 
	C275.241852,484.412720 276.335144,482.920349 278.250458,483.305450 
	C280.353973,483.728363 280.324615,485.709564 280.477478,487.319397 
	C281.156158,494.465912 280.326111,501.587189 279.877014,508.701538 
	C278.499756,530.519104 272.495392,551.560730 268.946625,573.015442 
	C268.080597,578.251343 267.876221,583.595032 267.313385,588.883423 
	C267.115265,590.744629 267.903412,593.690186 265.262177,593.780518 
	C262.328644,593.880737 262.909729,590.836731 262.615295,588.799866 
	C261.301910,579.714966 263.317413,570.884460 265.127502,562.148987 
	C268.768921,544.575256 272.414825,527.012695 274.459564,509.170288 
	C275.139862,503.233978 275.306183,497.238770 275.802094,489.863434 
	C267.723480,503.421722 260.486511,515.904236 255.134644,529.430603 
	C252.324203,536.533752 250.051453,543.870117 245.911057,550.432007 
	C243.310654,554.553223 240.473877,554.725464 236.849472,552.074951 
	C232.854004,549.153076 230.326935,545.007935 227.522034,541.082153 
	C222.016205,533.376038 216.476822,525.693787 210.072266,516.777832 
	C207.568390,525.514038 202.585739,531.170715 197.217285,536.569092 
	C195.185349,538.612427 192.964890,540.273071 190.255554,541.279358 
	C187.075165,542.460571 184.027145,542.565308 181.416122,540.040894 
	C178.915970,537.623657 179.011993,534.739807 180.173447,531.726257 
	C180.398880,531.141357 180.533142,530.521301 180.822830,529.529175 
	C175.648376,529.072083 170.982544,530.520020 166.242447,530.872864 
	C163.401169,531.084351 160.593628,531.436523 157.834427,530.500305 
	C156.907608,530.185852 155.247742,529.641907 155.269440,529.284668 
	C155.542297,524.791748 148.650742,521.759949 152.668396,516.547729 
	C153.027634,516.081726 153.082458,515.313232 153.118118,514.676208 
	C153.436615,508.987488 155.331909,507.370239 162.170868,507.244629 
	C161.197891,510.110229 157.023804,508.914185 156.429169,512.020325 
	C158.426956,513.940796 162.273849,511.404846 163.822662,515.109924 
	C161.856857,517.564209 157.602676,515.079041 156.082596,518.598633 
	C157.180801,520.757874 159.928268,518.720703 161.231644,520.515747 
	C161.259262,520.749084 161.425735,521.124390 161.313812,521.375793 
	C160.539368,523.114868 157.572937,523.960144 158.572647,526.263977 
	C159.680359,528.816711 162.429672,527.684387 164.411972,527.618286 
	C171.087402,527.395813 177.516754,525.519653 184.024948,524.210815 
	C186.311508,523.750977 188.463501,523.293701 190.579391,524.546875 
	C190.180893,527.536194 187.744812,527.447754 186.180023,528.457520 
	C183.975464,529.880188 182.090271,531.857544 183.095169,534.569397 
	C184.129822,537.361572 186.846207,536.848511 189.159637,536.316040 
	C196.522705,534.621582 206.313614,524.205017 207.585983,516.857971 
	C207.863663,515.254578 207.504227,513.897095 206.492905,512.668640 
	C205.222153,511.125061 203.801361,509.679199 202.713867,508.015594 
	C199.976440,503.828156 197.194992,501.855652 191.703781,504.377747 
	C186.105438,506.949097 179.918274,504.992249 174.034546,503.830231 
	C171.677902,503.364777 169.258896,502.493774 167.086456,504.242584 
	C167.314606,507.541992 171.433777,506.025116 172.058640,509.006836 
	C168.949814,510.170624 166.289413,509.597931 164.134521,507.124298 
	C162.744415,505.528473 161.999207,503.456635 163.295990,501.599701 
	C165.102173,499.013336 167.921494,498.452179 170.882172,499.140503 
	C174.768311,500.044037 178.627945,501.072296 182.471588,502.145081 
	C186.966583,503.399597 190.922852,502.002502 194.888123,500.196381 
	C194.838913,499.375153 195.000641,498.735809 194.752579,498.439087 
	C191.454330,494.494202 192.759995,491.368652 195.641785,487.588257 
	C214.192139,463.253479 228.981934,436.548676 243.081741,409.533691 
	C253.958862,388.693268 267.165344,370.075073 286.690979,355.613922 
	C282.357056,352.106171 278.293549,349.079865 274.546570,345.702423 
	C271.494720,342.951569 268.991089,340.927917 264.060120,340.947174 
	C250.906204,340.998657 238.549652,326.679138 239.193604,313.368439 
	C239.277267,311.639252 238.772903,310.595306 237.699173,309.433990 
	C230.242264,301.368896 224.673248,292.198700 221.571136,281.597565 
	C220.689682,278.585266 218.701080,275.998413 215.513596,277.285614 
	C209.479935,279.722107 207.555939,276.143280 205.567627,271.787445 
	C197.753738,254.669327 189.681656,237.665726 182.125534,220.435394 
	C179.952438,215.480042 176.954941,213.779541 171.845551,214.120193 
	C168.825394,214.321548 168.034866,215.614395 168.471237,218.227661 
	C171.369446,235.583420 172.496628,253.206757 176.794586,270.363770 
	C178.600632,277.573364 179.880035,285.023865 178.309265,292.562042 
	C178.145432,293.348328 178.168488,294.240936 176.721878,294.582336 
	C174.485367,291.628723 175.969162,287.982391 175.336899,284.740387 
	C172.346100,269.404205 167.088852,254.564163 165.342529,238.963486 
	C164.621964,232.526459 163.695572,226.106354 164.498642,219.586243 
	C164.686600,218.060211 165.271210,216.291641 163.689499,214.717361 
	C161.739502,215.755249 162.405670,217.524994 162.489273,218.997803 
	C163.443298,235.802765 166.492157,252.293625 169.754074,268.772339 
	C171.685959,278.532013 173.381119,288.366272 174.064590,298.314392 
	C174.223114,300.621826 174.843094,303.263855 172.690140,305.509735 
	C169.858902,301.876434 170.420578,297.621155 170.053101,293.850159 
	C168.387878,276.761261 164.155960,260.142944 161.279831,243.282532 
	C159.984283,235.687805 159.161896,228.092789 159.706268,220.442505 
	C160.043121,215.708588 158.714569,213.781128 153.705154,214.202942 
	C146.382309,214.819565 139.083359,213.952667 131.870911,212.578140 
	C130.860687,212.385620 129.424423,212.705338 128.766373,210.135071 
	C144.282516,209.977798 159.384140,207.534622 175.512756,206.378372 
	C172.158386,200.751373 172.014679,194.116333 165.372833,190.842834 
	C162.270676,189.313904 164.761826,186.803284 166.297699,185.138596 
	C174.915817,175.797653 184.767365,167.831268 194.657074,159.917068 
	C226.923355,134.096054 262.256378,113.750069 301.328888,100.026817 
	C321.171021,93.057770 341.692566,90.380791 362.581146,89.690422 
	C366.530426,89.559891 370.224854,91.529785 374.381866,90.466827 
	C376.097534,90.028137 377.386353,92.815437 378.488312,94.421898 
	C380.357056,97.146126 381.983673,100.036430 383.959808,103.261162 
	C394.419586,94.192307 402.109711,83.110481 411.623413,72.721466 
	C412.378906,75.656517 410.830841,76.855232 409.875732,78.155434 
	C403.160767,87.296410 396.045410,96.109695 387.627472,103.758675 
	C385.264557,105.905785 384.804657,107.671150 387.574585,109.837120 
	C398.159729,95.480476 410.631805,82.830193 422.841614,69.004791 
	C417.574280,66.830879 412.807587,64.571304 407.431000,64.480026 
	C365.935394,63.775543 324.448975,64.843109 282.968323,65.598190 
	C269.985229,65.834526 256.993439,66.174797 244.003098,66.307823 
	C242.309387,66.325165 240.361374,66.979538 238.644165,65.067520 
	C240.644806,62.832058 243.327911,63.790283 245.560028,63.501263 
	C261.568024,61.428520 277.671387,60.481041 293.783539,59.680828 
	C322.752014,58.242096 351.751160,58.156837 380.715912,59.072227 
	C394.628265,59.511909 408.713562,58.559998 422.476349,61.814613 
	C425.889526,62.621758 429.679993,62.876530 430.240051,67.443062 
	C430.777771,71.827156 428.584015,74.358917 424.420258,75.387115 
	C423.029480,75.730560 422.267883,76.874435 421.374115,77.860435 
	C411.205078,89.079254 401.916016,101.103821 390.746796,111.404129 
	C389.072968,112.947723 389.155365,114.445602 390.048798,116.307487 
	C399.487518,135.977875 408.380798,155.888748 416.638397,176.088303 
	C419.506409,183.103821 419.730927,182.998352 412.459534,185.597427 
	C411.229828,186.036957 410.054810,186.629425 408.673126,187.230133 
	C408.534546,190.179916 410.454285,192.292679 411.335052,194.697250 
	C414.941498,204.543427 415.256592,214.903946 416.236786,225.134964 
	C417.108551,234.234329 418.633575,243.534180 417.582123,252.476501 
	C416.638336,260.503235 421.842072,267.405975 419.627777,275.233154 
	C426.072998,266.941071 430.610779,257.657990 435.784790,248.760361 
	C437.430481,245.930252 439.152161,243.677429 442.533600,248.634888 
	C441.116913,242.058273 439.090729,237.212646 435.376465,232.879730 
	C430.045563,226.660843 429.111145,219.385635 432.376465,211.845016 
	C433.737549,208.701859 433.552673,206.044815 432.395782,202.818878 
	C428.597656,192.228058 422.649963,182.756317 417.363312,172.953537 
	C415.045166,168.655167 414.495514,164.753067 416.182709,160.138168 
	C420.923096,147.171829 430.093353,140.710709 444.395477,140.675537 
	C457.686829,140.642868 457.259155,140.687363 458.445496,154.011612 
	C459.578308,166.734650 462.509552,179.225906 465.046051,191.752365 
	C465.596802,194.472183 467.060089,195.234421 469.423767,195.487061 
	C473.354156,195.907196 475.988251,197.873352 476.321808,202.031403 
	C476.462646,203.787125 477.256866,204.789703 478.790131,205.386536 
	C480.280487,205.966675 481.711670,207.069778 481.767914,208.512817 
	C481.995300,214.348557 486.790649,216.820511 490.036041,220.463821 
	C492.418915,223.138779 493.401001,226.409714 490.037964,228.671906 
	C485.829102,231.503021 484.512909,236.125488 482.323853,240.030136 
	C480.634674,243.043045 483.435791,246.631577 485.872314,248.527832 
	C487.684509,249.938263 488.899048,251.448166 489.942413,253.266937 
	C498.807098,268.719849 507.586060,284.222870 518.171631,298.605988 
	C520.339355,301.551422 522.295410,304.204010 519.187500,308.219727 
	C517.574219,310.304321 518.056458,313.956482 517.423096,316.863678 
	C515.329834,326.471893 508.719788,332.423279 500.502655,336.685883 
	C494.369141,339.867645 488.177246,338.416687 482.333191,335.283875 
	C478.215118,333.076263 474.610291,330.145630 470.897400,326.607788 
	C461.732117,335.829987 454.976318,346.407532 449.510651,357.849396 
	C437.777832,382.411011 434.575348,408.322571 436.998627,435.242157 
	C438.221100,448.822327 438.585541,462.479675 439.340759,476.101959 
	C440.583740,498.522888 441.867126,520.941650 443.043793,543.366028 
	C443.305481,548.353271 443.224030,553.359985 443.232391,558.357849 
	C443.234192,559.437439 443.502808,560.782410 441.596375,561.304504 
	C440.142395,558.894714 440.057098,556.066406 439.840698,553.423767 
	C438.319489,534.847290 437.498993,516.229370 436.581055,497.613831 
	C435.352264,472.693420 433.393036,447.808990 432.168671,422.888428 
	C430.687408,392.738708 438.438751,364.883270 454.313873,339.283417 
	C458.259552,332.920715 462.250092,326.546570 467.429474,321.062286 
	C468.482330,319.947418 468.784088,318.838806 468.285736,317.446503 
	C462.786011,302.080383 459.257050,286.128937 454.409058,270.194214 
	C451.757172,271.723938 450.308868,270.206818 448.874908,267.944397 
M405.778870,250.887939 
	C410.887543,252.111694 412.828308,249.956833 413.061646,244.859909 
	C413.627258,232.507294 412.043304,220.373917 409.990082,208.266800 
	C408.876801,201.702423 407.004242,195.392502 403.321045,189.316498 
	C393.553955,192.980362 385.029144,198.152878 376.323517,203.976105 
	C387.932983,214.004074 394.457825,226.382874 399.182861,240.763992 
	C400.044769,244.595795 400.906647,248.427582 401.841064,252.581757 
	C403.252838,251.871002 404.126556,251.431122 405.778870,250.887939 
M196.108719,238.766510 
	C200.883133,249.914337 205.655624,261.062988 210.434677,272.208832 
	C210.976425,273.472321 211.567078,274.862488 213.313690,273.864655 
	C215.194855,272.789948 213.881531,271.563538 213.201019,270.557159 
	C209.648254,265.303284 206.956375,259.587219 204.057861,253.973633 
	C201.320282,248.671753 199.451950,242.934891 195.897827,237.244202 
	C190.179871,222.447968 182.563675,208.341812 178.532990,192.248474 
	C181.459244,192.858612 181.763702,194.544876 182.324326,195.810211 
	C193.058609,220.037537 205.622925,243.336761 217.992844,266.741241 
	C219.745453,270.057220 221.296494,270.608490 224.526337,269.134338 
	C230.884125,266.232635 237.384338,263.643860 243.815094,260.901001 
	C269.046356,250.139191 294.710571,241.242157 322.746185,242.580734 
	C324.489136,242.663956 325.431030,241.664749 326.441559,240.474091 
	C342.876160,221.109924 362.509583,205.565628 383.989258,192.197632 
	C390.186737,188.340607 396.807953,185.330109 403.371124,182.501663 
	C403.143890,179.515549 401.777191,177.567291 400.792175,175.495804 
	C390.631195,154.127731 382.140778,132.068649 373.665405,110.003670 
	C373.097748,108.525764 371.805939,106.622429 373.790771,105.551262 
	C376.137970,104.284554 376.499939,106.820877 377.078949,108.143265 
	C384.154541,124.302788 392.397919,139.940170 398.659668,156.463806 
	C401.430756,163.776276 404.342010,171.035645 407.111938,178.348541 
	C407.644745,179.755112 408.233887,180.872757 409.913208,180.399200 
	C411.722443,179.888992 411.465973,178.527924 410.969452,177.170837 
	C410.683716,176.389938 410.413025,175.602966 410.106445,174.830276 
	C400.214081,149.895584 389.008789,125.561874 376.629303,101.767067 
	C376.041870,100.637978 375.749237,98.844292 374.093719,99.066147 
	C366.846313,100.037415 359.917572,97.626755 352.788818,97.252228 
	C327.706238,95.934433 304.379272,102.467018 281.703003,112.351288 
	C242.060913,129.630707 206.304611,152.618713 175.951569,183.686813 
	C173.132141,186.572662 172.228271,188.622009 174.319717,192.587173 
	C178.655640,200.807693 182.872421,209.111221 186.444519,217.743164 
	C189.294891,224.631073 191.901932,231.694382 196.108719,238.766510 
M303.688568,247.270004 
	C283.129395,248.920990 264.314392,256.484894 245.601028,264.397095 
	C243.785812,265.164581 243.429382,266.615051 243.316589,268.423584 
	C242.734955,277.748322 244.088379,286.649872 248.520737,295.002777 
	C249.310364,296.490845 250.882919,297.893005 250.107849,299.913666 
	C248.501175,300.615997 247.915802,299.410309 247.246674,298.535400 
	C240.337631,289.501587 238.502136,279.082275 239.631989,267.049194 
	C234.215561,269.414917 229.694016,271.376587 225.184357,273.365173 
	C223.029068,274.315582 223.615646,275.900879 224.190155,277.568604 
	C227.360641,286.772034 231.668381,295.326202 237.892303,302.902130 
	C240.064377,305.546021 241.901489,306.845581 245.364059,304.811066 
	C248.128311,303.186890 251.315979,302.827911 253.491379,306.444946 
	C246.355667,309.061920 243.992599,311.760254 244.363495,316.688202 
	C245.063141,325.983948 256.617340,335.373474 265.771362,334.083069 
	C267.950867,333.775848 270.322418,333.419312 271.851624,335.311218 
	C276.966644,341.639465 283.808289,345.845734 290.414642,350.204254 
	C301.929871,357.801453 314.545624,362.192993 328.632843,360.692505 
	C338.649200,359.625610 347.419647,354.943481 355.941345,350.175568 
	C381.191650,336.047791 398.101746,315.536713 402.794373,286.255829 
	C403.208923,283.669067 404.457184,282.423981 406.758881,281.829437 
	C411.328033,280.649139 413.061035,277.119354 413.614929,272.976562 
	C414.169098,268.831512 413.845215,264.650238 412.445496,260.650116 
	C411.566559,258.138367 410.787933,255.292542 407.356293,255.353836 
	C403.964691,255.414383 402.593628,257.979248 401.533142,260.717346 
	C400.945831,262.233765 401.756653,264.631989 398.906158,264.787109 
	C397.159515,263.408417 397.804382,261.448700 397.683228,259.721191 
	C397.427887,256.079437 397.841492,252.437485 397.191223,248.773621 
	C394.436951,233.253952 385.282471,221.156830 376.259064,208.958054 
	C374.163605,206.125244 372.182312,206.552155 369.539368,208.362976 
	C356.154053,217.533936 343.889252,228.017212 332.914215,239.929245 
	C327.831757,245.445663 322.381195,248.587891 314.613708,247.173920 
	C311.401947,246.589264 307.976715,247.177032 303.688568,247.270004 
M451.389618,212.977249 
	C452.530060,210.953064 453.241089,208.444382 454.884491,206.987717 
	C462.411041,200.316711 463.393646,193.201660 459.978394,183.543777 
	C456.250397,173.001633 455.041504,161.565720 452.784943,150.509109 
	C452.405823,148.651367 452.101898,147.018295 449.835205,146.429520 
	C438.201660,143.407608 424.276154,149.803116 418.959412,160.650620 
	C418.101013,162.401855 418.005402,163.815414 418.906006,165.757797 
	C424.759277,178.382050 432.330658,190.190094 436.705170,203.901413 
	C439.318970,200.828461 442.240540,199.383102 445.729340,200.986816 
	C449.141418,202.555237 449.969513,205.798111 450.348022,209.253006 
	C450.500488,210.644760 449.558777,212.311874 451.389618,212.977249 
M462.277252,252.782669 
	C461.487122,253.392609 460.762451,254.123932 459.895569,254.591690 
	C455.935730,256.728333 454.747833,259.633179 456.368805,264.037720 
	C458.027588,268.544891 459.174133,273.248444 460.409058,277.902100 
	C463.276947,288.709015 466.062958,299.537598 468.882141,310.357422 
	C471.547028,297.027313 479.644623,289.194641 493.358368,286.278076 
	C486.931091,276.623444 483.319061,266.994202 480.490112,256.607178 
	C483.250793,256.942200 483.376617,258.698547 484.003845,259.930023 
	C487.850525,267.482483 491.617157,275.075714 495.442902,282.638916 
	C496.291595,284.316711 496.907135,286.577759 500.072601,284.869720 
	C491.421509,271.966705 484.317719,258.384247 479.618408,243.013153 
	C473.510864,246.423737 468.191132,249.394409 462.277252,252.782669 
M375.735107,357.457642 
	C376.672302,352.506378 377.609528,347.555115 378.613434,342.251587 
	C375.970154,343.302490 375.035767,345.102417 374.643799,347.055511 
	C371.145111,364.488464 367.643646,381.921722 364.311127,399.386963 
	C360.965607,416.920410 357.812500,434.490570 354.576111,452.039124 
	C352.179718,452.314392 351.752838,450.429901 350.904999,449.100555 
	C347.018005,443.006134 344.863770,436.127716 342.208557,429.491852 
	C333.855560,408.616150 325.523804,387.746796 314.277100,368.180450 
	C312.869843,365.732239 311.360443,364.881622 308.047882,365.310150 
	C323.037903,399.629730 336.993317,434.059235 353.432678,467.599335 
	C357.865295,449.889832 363.514343,432.697479 366.581177,414.892365 
	C369.823425,396.068939 372.644745,377.172974 375.735107,357.457642 
M515.040527,301.006775 
	C514.450012,299.859711 513.859497,298.712677 512.992859,297.029236 
	C514.586182,312.128723 508.435638,322.056793 495.295227,325.902527 
	C491.162018,317.949432 488.353760,309.428558 485.578552,300.842407 
	C491.159210,306.654999 493.371063,314.277496 496.549896,321.253601 
	C501.282104,320.008240 503.861298,318.320587 506.197083,315.086670 
	C510.480438,309.156250 510.641022,301.807892 506.626892,295.415588 
	C503.675415,290.715546 499.386963,289.170044 492.652313,290.379456 
	C479.828949,292.682373 469.437134,307.224915 471.523010,320.111725 
	C471.850403,322.134064 472.054291,325.036743 474.884735,324.865540 
	C477.637146,324.699066 479.056305,326.429291 481.053619,327.489838 
	C487.310669,330.812439 493.849518,335.264404 501.038940,331.138824 
	C512.230713,324.716553 516.684814,314.459259 515.040527,301.006775 
M479.403076,237.915222 
	C481.451935,235.893738 482.650513,233.306732 484.112854,230.889572 
	C488.105530,224.289856 485.651215,218.549118 478.061920,217.005661 
	C476.850098,214.300507 480.467377,210.564285 476.491150,208.459488 
	C474.243988,207.269974 473.874878,205.594254 473.758514,203.197174 
	C473.521362,198.312119 470.100403,196.616653 465.935394,198.995010 
	C459.192169,202.845627 455.226379,208.795502 453.184540,216.138794 
	C451.096710,223.647308 452.173187,224.996979 459.709015,224.488190 
	C459.084076,229.697876 464.928284,229.980713 466.796692,233.515213 
	C467.545685,234.932098 470.317657,235.199097 469.750549,238.157150 
	C469.158020,241.247894 471.482971,241.757446 473.865906,241.488724 
	C475.946686,241.254074 477.435333,239.810486 479.403076,237.915222 
M340.219666,369.922729 
	C339.828491,370.461578 339.475098,371.033203 339.040619,371.534485 
	C330.780609,381.063843 332.238861,379.201324 339.243011,387.557190 
	C341.279236,389.986359 341.763062,392.151855 341.450439,395.213806 
	C340.809723,401.489349 339.459534,408.111542 340.767639,414.071655 
	C342.881317,423.702209 347.513550,432.641998 352.504974,441.993561 
	C352.970337,440.489777 353.274780,439.719757 353.445648,438.921204 
	C355.454773,429.531067 352.291107,420.557587 351.150574,411.429993 
	C349.740570,400.145752 345.060303,388.650391 353.797516,378.189026 
	C353.900146,378.066162 353.927216,377.883087 354.006165,377.737091 
	C355.223724,375.485748 353.845612,374.034698 352.119354,373.362213 
	C348.409790,371.917267 346.671448,366.410400 341.475006,368.197357 
	C341.090027,368.329742 340.880615,368.972534 340.219666,369.922729 
M448.800079,250.533981 
	C447.265137,245.610367 446.037872,240.561508 444.100891,235.801514 
	C442.459473,231.767960 442.803070,228.013306 444.139526,224.185944 
	C445.458069,220.409897 446.741302,216.630066 447.312744,212.666061 
	C447.777588,209.441467 446.850433,206.432251 443.885254,205.007202 
	C440.671814,203.462830 439.051941,206.439529 437.576141,208.506210 
	C431.647339,216.809021 431.867340,224.400482 438.380341,232.732941 
	C441.089935,236.199448 444.402924,239.784866 444.089233,244.101715 
	C443.447540,252.933105 449.956726,258.233002 453.098572,265.165192 
	C451.751373,260.542938 450.404144,255.920670 448.800079,250.533981 
M356.350616,380.121796 
	C352.997803,384.852112 349.311523,389.369537 351.389923,395.940308 
	C352.223419,398.575439 351.990051,401.531464 352.422241,404.313477 
	C353.403076,410.626923 353.763123,417.070404 356.206055,423.935791 
	C359.103210,410.402252 361.803894,397.657227 364.573944,384.927338 
	C365.381134,381.217987 361.927948,380.820038 360.242889,379.040405 
	C358.809082,377.526093 357.663513,377.927307 356.350616,380.121796 
M345.207764,364.775574 
	C351.779938,368.851624 358.352142,372.927673 364.924316,377.003723 
	C365.135132,376.657074 365.345917,376.310455 365.556732,375.963806 
	C360.850800,372.626099 355.114532,370.656158 351.548004,365.656433 
	C357.152893,365.958923 361.146301,369.969635 366.434113,372.200439 
	C368.944275,364.642303 369.555359,357.077515 370.825012,348.695770 
	C362.227051,354.248413 353.984985,358.149445 345.674103,361.924774 
	C344.767273,362.336700 341.713776,362.372284 345.207764,364.775574 
M449.285095,225.077087 
	C449.036713,223.821030 448.788330,222.564972 448.530060,221.258987 
	C444.546844,228.795456 447.735535,235.274933 450.600006,242.119293 
	C454.347443,239.069580 457.614807,236.410568 460.611572,233.971756 
	C458.214050,229.140457 451.802246,230.453552 449.285095,225.077087 
M329.668732,371.755493 
	C333.307800,368.555634 331.673065,372.730164 332.408875,373.756775 
	C334.821228,370.634979 337.213318,367.539429 340.450470,363.350311 
	C332.917389,367.339325 325.792725,365.854584 318.364899,366.769958 
	C320.811035,371.120941 322.880371,374.801666 325.141144,378.822906 
	C326.693817,376.366638 327.992279,374.312500 329.668732,371.755493 
M451.945984,247.451660 
	C452.531219,249.631592 452.616180,251.985001 454.205994,254.119003 
	C458.475403,251.109039 461.865906,247.172714 466.313660,244.603729 
	C468.099640,243.572174 467.261230,242.022629 466.673859,240.652481 
	C466.006592,239.096130 464.611786,238.048004 463.132446,238.656631 
	C458.764954,240.453400 454.056274,241.929520 451.945984,247.451660 
M333.356659,386.307434 
	C332.221741,385.634552 332.046082,383.138153 330.039734,384.237030 
	C328.036224,385.334412 328.959930,387.011414 329.647797,388.559357 
	C332.104767,394.088806 334.530304,399.632263 336.967773,405.170441 
	C336.998779,398.810089 341.207855,391.736542 333.356659,386.307434 
z"/>
<path fill="#000000" opacity="1.000000" stroke="none" 
	d="
M419.515442,51.100563 
	C421.409393,52.039787 423.761932,51.029022 424.637817,53.583439 
	C421.572357,56.008484 417.964478,55.174347 414.644806,54.923748 
	C390.876221,53.129498 367.077820,52.568432 343.267700,53.382710 
	C313.326752,54.406654 283.397156,55.762924 253.461990,56.959099 
	C247.810699,57.184921 241.245941,55.618141 236.760056,57.999973 
	C232.298294,60.368996 230.047821,66.764534 226.613571,71.229744 
	C206.714264,97.102638 187.919235,123.782402 168.720810,150.168365 
	C155.112549,168.871307 142.559814,188.339935 128.010254,206.356415 
	C126.281525,208.497086 124.722198,210.993988 121.450294,211.788040 
	C120.046860,209.424316 121.645103,207.629990 122.508545,205.861343 
	C126.917503,196.830032 133.030884,188.889267 138.881592,180.799316 
	C168.451035,139.912811 198.695862,99.530258 229.726776,59.741219 
	C231.353134,57.655834 230.794785,56.371716 229.309784,54.716045 
	C231.988678,51.806889 235.559097,52.069614 238.653976,51.815929 
	C249.593796,50.919201 260.564087,50.369469 271.528900,49.806519 
	C305.291229,48.073116 339.073181,47.051689 372.882019,47.720242 
	C388.340271,48.025925 403.808868,48.453598 419.515442,51.100563 
z"/>
<path fill="#000000" opacity="1.000000" stroke="none" 
	d="
M188.500473,327.478607 
	C189.050247,339.258820 188.209488,350.248199 180.028854,359.243500 
	C179.581345,359.735565 179.249649,360.374939 178.723282,360.746124 
	C176.282623,362.467133 174.382431,366.638275 170.933868,364.630890 
	C167.878143,362.852173 170.471695,359.390869 171.014984,356.857697 
	C173.025192,347.484558 171.504272,338.751617 167.140671,330.203308 
	C164.951141,332.217316 162.676636,333.278656 161.301102,329.754669 
	C159.209976,324.397339 161.542831,308.892395 170.311157,304.822632 
	C169.098740,310.081543 164.870453,313.984802 165.565811,319.719604 
	C169.183167,320.265076 170.058533,323.063843 171.054047,326.369843 
	C172.514923,331.221191 174.906937,335.792114 177.227615,341.247498 
	C178.508316,330.701447 177.382294,320.999725 176.250107,311.251648 
	C181.449951,321.682556 181.182037,332.895416 181.680618,343.860535 
	C185.337082,338.539429 186.739227,333.033295 185.434586,326.537750 
	C184.243423,320.607086 182.605347,314.766205 181.897614,308.659760 
	C186.051498,314.095917 187.974503,320.307983 188.500473,327.478607 
z"/>
<path fill="#000000" opacity="1.000000" stroke="none" 
	d="
M156.023193,171.061920 
	C178.032974,141.994888 200.236740,113.529366 222.691635,85.259499 
	C226.415863,80.570824 230.217697,75.939064 234.132614,71.409752 
	C235.172714,70.206421 236.356323,67.739014 238.465118,69.660889 
	C240.177216,71.221222 238.362061,72.749649 237.409088,73.950134 
	C229.446808,83.980598 221.437912,93.974358 213.396957,103.941971 
	C188.639328,134.631607 164.692093,165.950897 140.757370,197.280838 
	C138.398621,200.368378 136.435989,203.888031 132.351547,205.517853 
	C139.000198,193.323715 147.838486,182.625122 156.023193,171.061920 
z"/>
<path fill="#000000" opacity="1.000000" stroke="none" 
	d="
M423.666260,499.999939 
	C423.676819,479.174835 423.305481,458.840546 423.795685,438.527008 
	C424.397369,413.591888 425.486237,388.638336 432.729401,364.485046 
	C433.829956,360.815094 434.185883,356.723755 437.085938,353.770111 
	C438.592590,354.584991 438.220154,355.630371 437.958191,356.538086 
	C429.622894,385.415222 427.728027,415.067322 427.354340,444.894287 
	C426.957916,476.535980 426.646637,508.178802 426.256348,539.820557 
	C426.237457,541.354675 426.828491,543.179871 423.666412,545.150391 
	C423.666412,529.687683 423.666412,515.093811 423.666260,499.999939 
z"/>
<path fill="#000000" opacity="1.000000" stroke="none" 
	d="
M322.457062,431.422668 
	C318.937073,420.536865 315.544250,410.025757 312.151398,399.514679 
	C312.782593,399.299500 313.413818,399.084351 314.045013,398.869171 
	C319.460754,414.182434 324.840973,429.508392 330.302124,444.805450 
	C335.843201,460.326385 341.717865,475.733307 346.978088,491.347961 
	C352.144714,506.684784 359.238312,521.446411 361.944580,537.620728 
	C357.681702,536.557007 356.848663,533.180847 355.801361,530.206909 
	C349.498932,512.309937 343.236969,494.397217 337.165497,476.420807 
	C332.158417,461.595886 327.433899,446.675507 322.457062,431.422668 
z"/>
<path fill="#000000" opacity="1.000000" stroke="none" 
	d="
M250.367859,424.325897 
	C242.792465,436.501404 235.803452,448.589783 229.614700,461.134338 
	C228.903885,462.575134 228.505768,465.395721 226.011047,464.054138 
	C224.093140,463.022736 225.613419,460.994446 226.251694,459.613617 
	C239.655426,430.616089 256.588043,403.837097 277.030609,379.289703 
	C279.794189,375.971222 282.754425,372.810516 285.728149,369.675934 
	C286.933502,368.405334 288.155640,366.897766 290.483948,367.121002 
	C291.715332,370.609070 288.888641,372.367889 287.295441,374.293671 
	C276.900452,386.858429 266.682953,399.546722 257.721252,413.197388 
	C255.347412,416.813263 252.950470,420.413940 250.367859,424.325897 
z"/>
<path fill="#000000" opacity="1.000000" stroke="none" 
	d="
M381.305542,407.438904 
	C382.268829,400.592072 383.482666,394.242981 385.644684,388.110596 
	C386.179077,386.594849 386.563751,384.463440 388.819489,385.214691 
	C390.653137,385.825439 390.024445,387.699280 389.773132,389.135803 
	C387.228699,403.678802 384.595673,418.206635 382.117371,432.760834 
	C378.606750,453.377686 376.194122,474.136902 374.293060,494.958862 
	C374.221985,495.737396 373.926086,496.495422 373.692352,497.434113 
	C370.142151,493.693542 373.738403,452.088623 381.305542,407.438904 
z"/>
<path fill="#000000" opacity="1.000000" stroke="none" 
	d="
M291.002991,519.636108 
	C287.034943,542.085083 282.618164,563.981323 277.184265,585.701843 
	C274.806458,585.076660 274.698639,584.031067 274.857574,583.040283 
	C278.559723,559.964600 281.590912,536.769348 286.826141,513.966370 
	C287.392487,511.499481 287.308960,506.779205 290.528595,507.416321 
	C294.206818,508.144196 291.307922,512.163269 291.383179,514.729553 
	C291.426880,516.218384 291.206299,517.714966 291.002991,519.636108 
z"/>
<path fill="#000000" opacity="1.000000" stroke="none" 
	d="
M240.872925,536.851746 
	C235.637131,534.608704 233.700836,529.715454 230.806717,525.774109 
	C223.345917,515.613586 216.178528,505.237488 208.907913,494.937622 
	C208.354172,494.153137 207.489761,493.461029 207.841141,492.244171 
	C209.084061,490.997986 209.906631,492.130524 210.673111,492.886017 
	C221.570709,503.627502 231.740768,514.998779 239.923843,527.980286 
	C241.538971,530.542542 244.032349,533.444641 240.872925,536.851746 
z"/>
<path fill="#000000" opacity="1.000000" stroke="none" 
	d="
M159.636810,200.902893 
	C163.330688,201.966095 167.133163,201.075684 169.927551,203.733398 
	C167.457825,207.237976 146.619019,207.130676 139.804642,203.232712 
	C146.529984,201.114624 152.792801,200.566559 159.636810,200.902893 
z"/>
<path fill="#000000" opacity="1.000000" stroke="none" 
	d="
M189.868622,318.107574 
	C188.692368,314.503632 186.674057,311.583984 186.260406,308.152039 
	C186.829758,307.908966 187.279526,307.590332 187.397186,307.684906 
	C194.166946,313.126160 198.351959,327.488342 195.399307,335.379517 
	C194.830978,336.898376 193.882553,338.307251 192.927460,339.636047 
	C192.422302,340.338898 191.475266,340.416077 190.704086,339.819702 
	C189.932587,339.223053 189.751678,338.300903 190.336395,337.626312 
	C195.973679,331.122559 191.442749,324.826019 189.868622,318.107574 
z"/>
<path fill="#000000" opacity="1.000000" stroke="none" 
	d="
M282.289612,122.342087 
	C264.975006,130.596451 248.229660,139.140396 232.108597,148.841934 
	C219.824051,156.234680 208.057663,164.351105 198.005463,174.712875 
	C197.129898,175.615402 196.326645,176.872055 194.445770,176.364822 
	C193.687347,174.149475 195.676132,173.243561 196.796570,172.075226 
	C212.040924,156.179245 229.747925,143.527405 249.284424,133.572296 
	C272.092438,121.950142 294.725006,109.866081 319.329956,102.202682 
	C325.257690,100.356461 331.342926,99.617599 337.448608,98.947533 
	C339.869629,98.681854 342.263733,99.203339 344.498779,101.195412 
	C322.518646,104.460533 302.435822,112.920876 282.289612,122.342087 
z"/>
<path fill="#000000" opacity="1.000000" stroke="none" 
	d="
M368.095642,192.111908 
	C352.764343,204.442078 338.959808,217.851868 326.156158,232.312683 
	C324.585510,234.086639 323.158997,236.394363 320.119324,235.921570 
	C318.900909,233.450714 320.322418,231.599716 321.547729,229.936630 
	C336.005432,210.312851 353.702637,194.179337 374.395630,181.337387 
	C375.988586,180.348801 377.741547,179.032654 381.031403,180.390869 
	C377.435883,185.281509 372.568634,188.263107 368.095642,192.111908 
z"/>
<path fill="#000000" opacity="1.000000" stroke="none" 
	d="
M303.500610,238.794617 
	C276.776428,242.491989 251.003036,248.042801 227.202972,260.736237 
	C233.616760,246.503525 295.602844,228.540283 309.858307,236.079971 
	C308.634552,238.773621 305.964417,238.069550 303.500610,238.794617 
z"/>
<path fill="#000000" opacity="1.000000" stroke="none" 
	d="
M234.817780,288.792725 
	C233.039642,278.278290 233.713013,273.564789 238.139694,269.216339 
	C236.699142,280.282684 236.637222,290.506439 242.668060,300.467896 
	C238.288177,298.743958 237.352158,297.224274 234.817780,288.792725 
z"/>
<path fill="#000000" opacity="1.000000" stroke="none" 
	d="
M447.674835,159.111572 
	C448.000000,157.057495 446.894714,154.402679 449.676849,154.440735 
	C451.977112,154.472214 451.269928,157.000610 451.532990,158.462234 
	C453.817383,171.154922 456.041504,183.859039 458.159546,196.580399 
	C458.434631,198.232758 458.984070,200.190155 456.485901,202.374817 
	C450.050720,188.495132 449.321991,173.924271 447.674835,159.111572 
z"/>
<path fill="#000000" opacity="1.000000" stroke="none" 
	d="
M468.342468,284.860016 
	C469.122955,287.916504 469.949066,290.560547 468.821625,293.500214 
	C462.867767,284.594147 461.096405,274.477631 460.527740,263.976318 
	C464.239197,270.394287 465.989166,277.527222 468.342468,284.860016 
z"/>
<path fill="#000000" opacity="1.000000" stroke="none" 
	d="
M507.975830,306.453796 
	C505.407623,312.520325 505.220276,312.781647 501.513397,314.680542 
	C502.968048,309.775940 503.581299,304.614563 506.347229,299.724884 
	C509.199310,301.595734 508.179901,303.957214 507.975830,306.453796 
z"/>
<path fill="#000000" opacity="1.000000" stroke="none" 
	d="
M405.098999,250.563248 
	C401.934021,250.747238 402.039917,248.052460 401.285736,246.041931 
	C400.608124,244.235580 400.038513,242.388733 399.202881,240.283386 
	C396.243683,226.099075 388.693268,214.299500 381.142853,201.875977 
	C392.489594,202.929886 406.065918,231.503586 405.098999,250.563248 
z"/>
</svg>