<svg version="1.1" id="Layer_1" xmlns="http://www.w3.org/2000/svg" xmlns:xlink="http://www.w3.org/1999/xlink" x="0px" y="0px"
	 width="100%" viewBox="0 0 736 736" enable-background="new 0 0 736 736" xml:space="preserve">
<path fill="#000000" opacity="1.000000" stroke="none" 
	d="
M308.689697,69.494141 
	C331.527527,66.748672 352.421509,69.926582 369.697540,85.812447 
	C374.366547,90.105766 378.941772,91.084084 385.105560,89.771797 
	C409.578278,84.561516 428.994232,93.714699 444.821320,112.002472 
	C448.704926,116.489891 452.247467,121.272484 456.252136,126.302864 
	C458.429230,122.108742 457.150513,118.245941 456.552979,114.741829 
	C453.693146,97.970634 445.104797,84.262894 430.752075,75.482155 
	C421.156158,69.611588 409.751343,69.849930 398.798737,73.215126 
	C397.529999,73.604950 396.312592,74.159241 395.061981,74.611259 
	C393.462402,75.189438 392.080322,74.806953 391.045380,73.481071 
	C389.864807,71.968613 389.988159,70.330078 391.038208,68.840004 
	C392.814301,66.319588 395.175903,64.302002 398.179565,63.704166 
	C420.458099,59.269928 447.433929,62.737843 462.660004,84.677910 
	C470.010437,95.269470 473.253021,107.118958 471.678253,120.098427 
	C471.163788,124.338531 470.747925,128.590591 470.257202,133.111115 
	C473.422699,133.027206 474.501495,130.975220 475.659332,129.294388 
	C489.696167,108.917534 510.424286,104.044609 533.382996,109.481361 
	C544.729248,112.168228 554.337463,117.620346 562.030823,126.500542 
	C564.638672,129.510712 566.284241,132.868286 567.148560,136.619949 
	C567.691528,138.977310 568.569885,141.874664 565.361267,143.098999 
	C562.278015,144.275513 560.409851,142.308060 558.903687,139.845596 
	C555.154968,133.716843 549.989380,129.171219 543.454407,126.165909 
	C530.500366,120.208641 517.460693,122.092590 504.413147,125.735359 
	C498.538422,127.375542 493.359955,130.251343 489.030945,134.622803 
	C486.469757,137.209076 485.059448,140.225540 484.764557,144.344635 
	C491.369202,143.026276 497.683105,141.417633 504.114777,142.687515 
	C523.302246,146.475983 540.160461,154.405548 551.884521,170.782623 
	C557.488770,178.611115 563.204041,186.424240 567.047119,195.362778 
	C567.439697,196.275909 568.122314,197.181076 568.161560,198.111420 
	C568.585876,208.165955 575.549011,211.547943 583.841431,213.180740 
	C591.561584,214.700867 598.996826,213.985199 605.737427,209.172089 
	C610.891357,205.491928 613.584595,200.726868 613.721069,194.436249 
	C613.746277,193.277832 613.762329,192.063950 614.107239,190.978851 
	C614.901184,188.480988 616.762207,187.080612 619.370789,187.214020 
	C621.886719,187.342667 623.039856,188.938705 623.397278,191.466919 
	C624.390015,198.488251 623.376892,205.334824 619.737488,211.207382 
	C614.522522,219.622086 609.230408,228.211609 599.058960,231.940216 
	C593.617920,233.934753 588.181458,234.565018 581.186096,233.040680 
	C584.379822,236.802872 586.679993,239.562302 589.033081,242.275909 
	C601.453796,256.599762 606.775879,273.233612 605.198364,292.084747 
	C605.076599,293.540863 604.878479,295.398285 603.961182,296.308746 
	C600.205688,300.035950 602.380371,302.400543 605.496704,304.677216 
	C608.450378,306.834991 611.307373,309.174377 614.455994,311.005798 
	C621.194580,314.925354 628.010620,316.262360 635.035217,311.222687 
	C636.601257,310.099182 639.033630,307.658661 641.101807,310.537842 
	C642.922302,313.072327 642.676697,315.964264 640.502808,318.356598 
	C636.701965,322.539429 632.103149,325.252197 626.412964,326.214081 
	C616.913086,327.819916 607.536926,327.716278 597.807678,324.477814 
	C598.185608,330.166229 600.931396,334.641144 602.012207,339.563904 
	C603.879822,348.070557 603.981934,356.379791 601.255615,364.677673 
	C601.048523,365.307709 601.003418,366.133331 600.571777,366.525696 
	C595.083557,371.514343 599.367371,373.884186 603.047974,376.760406 
	C607.346497,380.119598 611.822815,382.654022 617.424377,383.067810 
	C620.076172,383.263733 623.053833,384.067596 623.337463,387.378265 
	C623.628662,390.776672 621.038086,392.326843 618.195679,393.261810 
	C610.877380,395.669128 603.722656,393.958679 596.608093,392.196777 
	C594.389282,391.647308 592.263306,390.723328 590.098755,389.972198 
	C588.720154,392.126801 589.177368,394.171295 589.474426,396.052032 
	C590.953064,405.411133 589.841309,414.329071 585.117310,422.620270 
	C579.542664,432.404297 575.867981,443.186371 568.131958,451.855621 
	C560.181396,460.765259 551.603760,468.239838 539.577759,470.667664 
	C534.180420,471.757263 534.393494,476.391907 533.052979,480.170898 
	C532.036499,483.036224 533.469238,486.568390 530.332581,488.877472 
	C524.589783,493.105194 518.985840,491.872681 515.596802,485.536011 
	C514.758301,483.968109 514.426208,482.031219 512.493530,480.841492 
	C509.299561,482.780304 508.466003,486.702606 505.714142,489.095947 
	C495.341583,498.116974 487.050934,508.952728 479.269379,520.205566 
	C477.129059,523.300781 474.322449,525.601807 470.663605,526.718262 
	C465.724182,528.225403 463.844330,526.828674 463.816437,521.658752 
	C463.807556,520.012573 463.815063,518.366333 463.815063,516.226562 
	C449.398102,522.924194 434.966797,528.565674 429.906586,545.482788 
	C428.004028,551.843323 421.259705,552.855042 416.899628,548.015991 
	C415.457336,546.415222 414.703217,542.346741 412.274658,543.833069 
	C409.139496,545.751953 404.897705,547.765686 404.450745,552.184570 
	C403.830627,558.314758 404.453796,564.489624 405.053619,570.622742 
	C405.338348,573.534363 407.222961,575.378418 409.538544,576.889893 
	C418.460876,582.713745 427.654205,588.058838 437.066498,593.064026 
	C448.137634,598.951538 457.526794,607.320984 467.730011,614.491638 
	C486.644867,627.784668 502.537476,644.370789 518.055908,661.335449 
	C519.290344,662.684998 520.347778,664.194946 521.554626,665.571472 
	C523.432129,667.713013 523.541260,670.076538 522.496094,672.567444 
	C521.374573,675.240295 519.147034,676.074585 516.432861,676.067322 
	C508.434845,676.045898 500.436768,676.038452 492.438721,676.038025 
	C462.951874,676.036621 433.464844,676.106934 403.978241,676.019897 
	C382.343109,675.956116 360.708771,675.580933 339.073730,675.545288 
	C321.130951,675.515686 303.178711,676.199158 285.246735,675.815552 
	C257.268585,675.217102 229.292664,675.616821 201.317368,675.351135 
	C198.135925,675.320923 195.742355,674.121704 194.551422,671.208130 
	C193.399170,668.389038 194.772690,665.954468 196.582397,663.916504 
	C207.531265,651.586792 219.579056,640.386108 231.490509,628.991821 
	C252.689545,608.712952 278.190613,594.967651 302.636841,579.565979 
	C310.622894,574.534607 314.925446,562.655334 311.478394,554.170532 
	C311.063843,553.150024 310.357666,552.613770 309.356323,552.259766 
	C300.637970,549.178223 292.563995,545.058167 286.611328,537.744812 
	C284.397186,538.395996 283.830811,540.305237 282.814301,541.735229 
	C280.938782,544.373718 278.659393,546.491089 275.739258,547.904968 
	C273.582001,548.949402 271.429565,548.728821 269.616669,547.338257 
	C267.866364,545.995789 268.496338,544.055908 268.991058,542.258179 
	C272.098633,530.965515 269.621185,526.824097 258.269470,524.029541 
	C246.469971,521.124695 237.680832,513.507263 229.241791,505.340363 
	C224.189178,500.450653 224.145966,500.495300 221.363113,506.603912 
	C218.926453,511.952606 213.801941,515.158386 209.208786,514.222595 
	C206.279068,513.625732 204.434128,512.014465 205.723236,508.967316 
	C207.561142,504.622864 205.815811,501.073578 203.611206,497.744873 
	C198.476593,489.992310 191.473740,483.673523 186.897614,475.583282 
	C184.244308,476.393585 183.699493,478.422455 182.805893,480.144531 
	C180.526962,484.536346 176.512772,485.863129 172.008286,485.980682 
	C169.937134,486.034698 168.172348,484.958252 167.268768,482.874084 
	C166.397675,480.864807 167.890884,479.819489 168.960327,478.581818 
	C174.212982,472.503113 173.802338,471.227386 166.010742,468.666504 
	C153.052719,464.407562 144.539062,454.952942 137.939056,443.679626 
	C134.240692,437.362518 130.821014,430.982971 125.994736,425.366852 
	C119.752296,418.102783 119.256920,408.973846 118.858307,399.932800 
	C118.743515,397.329071 119.519859,394.628662 118.068443,392.031677 
	C114.476120,391.837799 111.236160,393.473907 107.795166,393.832672 
	C100.253120,394.619049 93.139969,393.608032 87.301491,388.249268 
	C85.304337,386.416199 83.439507,384.127777 85.087410,381.243896 
	C86.544258,378.694336 89.162292,379.411774 91.409004,379.995636 
	C102.735634,382.939087 113.458412,373.166443 118.406464,365.832916 
	C119.798416,363.769958 119.719772,361.091980 119.427650,358.534637 
	C118.252190,348.244385 118.135620,337.963928 119.652367,327.677277 
	C120.433678,322.378387 122.846436,317.632568 125.259224,311.316711 
	C117.645493,314.925018 113.266357,319.804016 109.897873,325.777344 
	C105.391502,333.768463 105.712448,342.779358 104.576164,351.468536 
	C104.246216,353.991608 104.448914,357.067505 101.392799,357.469727 
	C98.646309,357.831207 97.227066,355.138824 96.026688,352.909882 
	C90.592033,342.818573 91.506432,332.189301 94.318810,321.802948 
	C97.054779,311.698792 100.963280,301.898224 107.500443,293.498810 
	C110.516891,289.623077 113.998901,286.109650 117.210663,282.498444 
	C115.904419,280.774445 114.818321,281.585052 113.760246,281.873016 
	C100.594162,285.456635 88.798042,282.027344 77.891235,274.627045 
	C75.109795,272.739838 73.062660,269.942627 72.265228,266.591095 
	C71.765305,264.489990 71.714226,262.200470 73.915451,260.751801 
	C75.704216,259.574585 77.540276,259.926117 79.012436,261.209076 
	C87.888596,268.944366 97.623199,267.062500 106.507530,262.340424 
	C117.036003,256.744476 127.378288,250.480118 135.525131,241.400818 
	C138.518784,238.064560 141.133087,234.466751 143.382263,229.517624 
	C137.048309,232.446182 133.638138,237.429840 129.350616,241.388504 
	C127.585052,243.018692 126.058105,246.899048 123.067902,244.654709 
	C119.865257,242.250885 122.457611,239.256760 124.016075,236.743301 
	C128.138367,230.094986 133.780563,224.993774 140.339249,220.842560 
	C141.723114,219.966705 143.386124,219.474319 144.641876,217.356125 
	C137.121750,218.294876 129.887222,219.304459 122.886093,217.265701 
	C108.309906,213.021072 97.659950,204.117065 92.155525,189.743256 
	C91.282051,187.462326 90.469978,184.117218 93.955772,182.907364 
	C97.031792,181.839737 99.473816,183.299576 100.821434,186.318207 
	C104.488213,194.531693 111.828667,197.470840 119.808701,198.089081 
	C140.331543,199.679047 157.304840,191.037308 172.615448,178.322067 
	C172.817871,178.153961 172.789658,177.708115 173.001755,176.863632 
	C168.933014,176.328079 164.827332,176.174561 160.923157,175.207504 
	C143.039581,170.777908 131.442673,159.426926 125.414238,142.183517 
	C124.798485,140.422241 124.282814,138.387222 126.260223,137.237778 
	C128.474716,135.950546 130.511688,136.962646 131.999466,138.765015 
	C134.988159,142.385635 138.369431,145.456619 142.290359,148.117935 
	C147.213760,151.459686 152.695770,152.080841 158.304001,153.004776 
	C176.603088,156.019592 191.812057,148.211029 206.651062,139.401764 
	C213.655548,135.243500 220.687012,131.334579 229.526367,129.174667 
	C225.537994,126.748192 222.364929,125.000275 219.382126,122.972504 
	C203.675034,112.294426 195.433731,97.580780 195.537491,78.419914 
	C195.556000,75.002228 196.102753,71.810471 200.446915,71.804581 
	C204.828522,71.798637 205.137741,75.020912 205.342743,78.427635 
	C205.882980,87.405853 211.257706,93.702393 218.295639,98.050392 
	C233.515991,107.453453 250.512100,108.930176 267.897064,107.134476 
	C279.387268,105.947655 290.152435,101.630470 301.276794,98.853485 
	C319.090851,94.406548 336.825439,94.831154 354.557281,100.078407 
	C347.026550,92.859596 338.139465,87.904327 328.511322,84.368225 
	C308.779388,77.121338 290.256378,80.016838 272.910461,91.635414 
	C270.637390,93.157936 268.031067,94.473244 265.796997,91.665565 
	C263.659943,88.979767 265.233551,86.416603 267.090240,84.534363 
	C268.926971,82.672348 271.249359,81.163872 273.590729,79.946648 
	C284.468567,74.291519 295.922668,70.456161 308.689697,69.494141 
M493.707733,426.908142 
	C500.716156,426.154480 505.189545,421.281006 509.978729,416.910828 
	C520.424622,407.378845 526.918335,395.524384 529.424683,381.747009 
	C530.299133,376.939941 532.283447,375.446625 536.629944,375.809235 
	C539.383789,376.039001 541.551331,375.024323 542.893311,372.585449 
	C546.894409,365.314087 543.131226,355.989532 535.167236,354.518860 
	C530.945496,353.739227 529.405823,351.720490 528.567383,347.824310 
	C524.923767,330.893555 515.452942,317.589813 502.520752,306.399384 
	C498.042694,302.524414 492.361450,299.581665 489.869476,293.915771 
	C486.627838,286.545563 482.441437,279.796722 477.953735,273.186127 
	C477.241608,272.137177 476.667847,270.757751 474.637177,271.164856 
	C473.463715,276.191437 473.560974,281.556244 471.716919,286.560730 
	C470.385315,290.174438 468.323792,291.734589 464.494385,290.446991 
	C460.296448,289.035492 455.911682,288.907288 451.648254,289.587097 
	C447.477844,290.252014 445.925720,288.602753 445.263214,284.773285 
	C443.814514,276.400116 441.684845,268.168854 439.007324,260.108612 
	C433.595490,243.817108 423.568359,229.978088 414.943817,215.398254 
	C414.434174,214.536713 413.820892,213.699341 412.572479,214.054886 
	C411.305084,215.188019 411.460175,216.738190 411.317352,218.221573 
	C409.573700,236.332687 405.257111,253.620667 394.924805,268.952637 
	C386.104370,282.041290 376.603394,294.441040 361.223694,300.496552 
	C357.640778,301.907288 356.064606,304.378876 355.982697,308.116699 
	C355.888336,312.423187 355.284271,316.750549 355.566345,321.024994 
	C355.904846,326.154999 356.979431,331.121918 360.210236,335.536194 
	C361.842743,337.766724 366.757660,339.205780 364.047882,343.002747 
	C361.292297,346.863983 356.966797,344.139648 353.317749,343.895660 
	C352.556824,343.844788 351.861237,343.120056 351.094696,342.805359 
	C333.744659,335.683105 323.029175,321.913422 314.784546,305.932831 
	C311.043579,298.681610 309.016693,290.862762 308.475739,282.490051 
	C307.786804,271.826874 307.822479,261.182159 307.627106,250.526108 
	C307.596222,248.840729 308.346954,246.771744 305.402679,245.432831 
	C297.092590,254.999313 290.811737,265.965393 284.380676,277.548401 
	C289.770447,279.553253 294.842560,278.957062 299.685577,279.594910 
	C304.092957,280.175415 306.550629,281.818756 306.261749,286.471680 
	C305.993317,290.794617 303.933655,292.991821 299.329315,293.192963 
	C289.349304,293.628998 279.632202,291.727631 270.331512,288.819946 
	C263.774536,286.770050 257.432007,286.720917 251.134750,287.656311 
	C242.059311,289.004395 241.648239,288.651031 241.963608,278.554504 
	C241.999664,277.400452 242.486237,276.258087 242.504211,275.106262 
	C242.571594,270.787598 242.531174,266.467224 242.531174,261.451233 
	C238.381805,264.035004 236.896423,267.387299 235.632095,270.474640 
	C229.988525,284.255402 220.664780,294.788818 209.211075,304.172394 
	C195.380951,315.502869 184.743118,329.631897 179.527466,347.040436 
	C178.082489,351.863464 176.567886,354.452545 171.084091,355.219666 
	C164.670242,356.116913 163.172501,360.085693 164.176987,368.938171 
	C164.661758,373.210266 167.831863,375.665497 173.647339,375.618011 
	C177.097046,375.589874 179.087524,376.790802 179.536240,380.204010 
	C181.668228,396.421448 191.483765,408.909576 200.006912,421.966705 
	C202.711609,426.110168 206.317276,429.759491 211.707001,430.638184 
	C215.784363,431.302948 216.430740,432.889679 214.008179,436.130798 
	C212.369598,438.322968 210.111496,439.182098 207.490463,439.224976 
	C204.567947,439.272797 201.644058,439.235962 198.729889,439.235962 
	C197.817612,441.514496 198.411713,443.553345 199.001083,445.666473 
	C206.042725,470.914520 222.693619,488.530212 244.527679,501.486664 
	C270.090912,516.656006 297.727936,526.148621 327.253357,530.605591 
	C344.581238,533.221313 361.877045,532.921326 379.020844,531.317627 
	C395.172363,529.806763 411.010834,525.707703 426.590790,520.570740 
	C446.140137,514.125061 463.727722,504.185333 480.521637,492.734222 
	C496.332611,481.953339 506.115906,466.506378 511.851318,448.432831 
	C513.370728,443.644745 516.077026,438.983429 514.429199,433.198120 
	C509.242188,434.484833 504.108215,434.553528 498.995911,434.807404 
	C493.019592,435.104218 491.149658,432.553345 492.987396,426.989868 
	C492.987396,426.989868 492.945190,427.020325 493.707733,426.908142 
M331.426758,565.363098 
	C328.689301,564.701538 326.891418,562.001587 323.599182,561.742249 
	C321.687622,564.761658 322.654846,568.198303 322.179535,571.380737 
	C321.498962,575.937744 321.295898,580.640503 316.388489,583.300903 
	C307.308380,588.223511 298.712006,593.915955 290.386719,600.043457 
	C285.491394,603.646423 285.345764,603.797852 289.874146,607.843994 
	C301.209381,617.972229 314.881348,623.673889 329.227112,627.582092 
	C353.909454,634.306335 378.079803,631.381714 401.427216,621.607788 
	C410.020447,618.010376 417.804535,612.739868 424.825226,606.519287 
	C428.773193,603.021240 428.568970,602.017456 424.296417,599.256287 
	C416.329590,594.107666 408.406708,588.889282 400.528748,583.605652 
	C397.813019,581.784241 396.157593,579.253845 395.593231,575.857117 
	C394.350861,568.379700 393.963837,560.811829 393.390137,553.335754 
	C391.563965,553.191406 390.943359,554.336121 390.038513,554.989624 
	C372.437286,567.700378 352.969055,570.235596 331.426758,565.363098 
M561.885437,443.401123 
	C574.497925,425.957092 571.304199,397.238861 555.774231,389.143250 
	C555.523682,389.539337 555.138184,389.910400 555.033508,390.348541 
	C551.377747,405.649902 543.088074,417.587036 529.483154,425.697540 
	C528.133972,426.501831 527.301758,427.653046 527.223877,429.338959 
	C526.819519,438.099609 523.949524,446.242645 520.938599,454.358215 
	C519.863892,457.254974 518.012268,459.922485 517.923340,463.167236 
	C531.353149,465.449310 552.537537,458.173004 561.885437,443.401123 
M180.468948,463.135712 
	C184.676804,463.659424 188.884659,464.183136 193.104095,464.708282 
	C193.312546,463.461914 193.605469,462.889282 193.440872,462.521332 
	C189.822250,454.433319 187.528992,445.972382 186.140045,437.240417 
	C185.848618,435.408386 185.156189,433.997284 183.192322,433.008087 
	C167.009613,424.857239 156.054611,412.617401 153.271454,394.098694 
	C153.148605,393.281158 153.298416,392.050201 152.128418,391.589355 
	C141.295334,402.406708 139.167252,423.423859 145.950195,436.311340 
	C153.214340,450.113098 164.328278,459.230835 180.468948,463.135712 
M594.522766,274.218292 
	C592.107788,264.791046 587.775085,256.423096 580.583374,248.657181 
	C580.809082,249.959702 580.829529,250.434418 580.975403,250.866821 
	C584.684509,261.863403 589.323242,272.581360 590.497009,284.324036 
	C590.687500,286.230042 591.632141,288.329468 594.255127,289.326447 
	C595.102905,284.303955 594.569397,279.686981 594.522766,274.218292 
M282.512238,165.096130 
	C285.112793,163.032654 287.789551,161.056030 290.282318,158.869614 
	C291.559265,157.749573 292.463806,156.118301 291.400421,154.414078 
	C290.310425,152.667221 288.364380,153.055145 286.851593,153.523178 
	C282.088776,154.996704 278.591003,158.393600 275.165985,161.810013 
	C273.831665,163.140961 272.620605,164.798981 273.945770,166.659790 
	C275.214478,168.441299 277.210999,168.049332 278.962830,167.361618 
	C280.026825,166.943954 280.954163,166.178146 282.512238,165.096130 
M362.863464,282.759888 
	C362.546417,283.699921 361.582428,284.519592 362.218323,285.960388 
	C371.598755,278.523682 374.934845,268.357147 377.085480,257.577972 
	C371.656647,265.355072 366.354004,273.181366 362.863464,282.759888 
M182.388809,254.128891 
	C183.401337,257.067169 185.118668,259.452332 187.914810,256.254913 
	C190.271362,253.560181 191.767471,250.056244 192.627014,246.459747 
	C192.934860,245.171753 193.016296,243.763000 191.607132,242.899033 
	C190.282578,242.086929 189.020706,242.533218 187.860626,243.257507 
	C184.127808,245.588074 182.910202,249.312637 182.388809,254.128891 
M218.297134,188.848206 
	C219.691498,186.990005 221.230713,185.219391 222.426865,183.241318 
	C223.163681,182.022812 223.872650,180.391998 222.221466,179.208832 
	C220.391144,177.897293 218.420837,178.094482 216.600113,179.236023 
	C213.615768,181.107117 212.351227,184.130905 212.870605,187.348953 
	C213.230133,189.576401 215.489273,190.120453 218.297134,188.848206 
M590.680176,339.640747 
	C588.309692,346.142365 589.008179,352.402069 591.975830,358.490265 
	C593.851074,352.087799 595.061584,345.731384 590.680176,339.640747 
M200.835648,250.549042 
	C199.741302,253.213272 197.322113,255.634308 199.029572,258.839447 
	C199.558701,259.832672 200.772888,259.863495 201.684357,259.279633 
	C204.471436,257.494293 204.994827,254.449326 205.632538,251.560333 
	C205.920929,250.253876 205.656982,248.682816 204.287888,248.085083 
	C202.663467,247.375885 202.083481,249.053604 200.835648,250.549042 
z"/>
<path fill="#000000" opacity="1.000000" stroke="none" 
	d="
M493.005127,426.970825 
	C488.774902,430.246552 483.646729,431.887451 478.942200,434.435883 
	C481.043457,435.859131 481.093384,437.612030 479.842651,439.607422 
	C477.189941,443.839508 474.632599,448.133881 471.881409,452.300568 
	C470.667542,454.138947 468.997437,455.924530 466.513763,454.421173 
	C464.039612,452.923523 464.990112,450.606567 465.813904,448.618347 
	C467.535919,444.462158 470.318024,440.902832 473.229889,436.511627 
	C468.990387,437.753632 465.771606,438.040039 464.253174,442.845917 
	C462.910126,447.096558 460.451935,451.350525 457.192169,454.798004 
	C455.746918,456.326477 454.286224,457.498474 452.012604,455.972656 
	C449.750183,454.454315 449.605743,452.734283 450.629456,450.400818 
	C452.080109,447.094116 454.903900,444.493042 455.788788,440.788818 
	C452.148956,439.509216 450.348907,440.512939 449.525970,444.178650 
	C448.664093,448.017853 445.716980,450.751587 443.202271,453.608521 
	C441.892883,455.096069 440.041901,455.505005 438.208282,454.387024 
	C436.155609,453.135498 436.675507,451.285645 437.306274,449.510437 
	C438.555908,445.993500 441.660858,443.719330 443.862976,440.141388 
	C436.039276,438.702637 428.484894,437.867310 421.284729,435.183960 
	C398.386688,426.650452 383.855347,410.629181 377.387268,387.171509 
	C376.371307,383.486938 375.467743,379.767914 374.638031,376.036835 
	C374.152283,373.852570 373.044434,372.747864 370.794220,372.087280 
	C359.318573,368.718689 348.065979,370.396301 336.815582,373.159424 
	C334.547546,373.716400 333.697571,375.192383 333.311035,377.419708 
	C327.449249,411.198120 305.755554,431.926544 273.304932,438.865448 
	C266.019379,440.423370 258.492004,441.268097 250.904465,438.955414 
	C251.310745,447.244415 245.106979,451.483398 241.338318,457.007172 
	C240.474274,458.273560 238.558121,458.037170 237.319519,456.785828 
	C235.944641,455.396881 236.040604,453.777588 236.972626,452.198212 
	C239.490265,447.931854 241.750076,443.505402 245.136642,439.863708 
	C243.477341,438.121765 241.911957,438.116821 240.266327,438.600861 
	C238.403625,445.014008 234.175201,449.994507 230.631989,455.365326 
	C229.597794,456.932953 228.145218,457.636414 226.340759,456.742310 
	C224.338699,455.750275 223.972946,454.044434 224.759354,452.093933 
	C227.148682,446.167694 230.618057,441.010773 235.794449,436.704346 
	C222.563431,432.649811 211.115005,425.566650 201.723618,415.369171 
	C192.396561,405.241547 186.216400,393.370331 183.436569,379.885468 
	C182.325562,374.496033 180.581726,371.191528 174.061523,372.101532 
	C169.729233,372.706177 167.271744,369.440979 167.362381,364.775055 
	C167.444794,360.532898 169.380997,358.182861 173.900970,358.669067 
	C178.970581,359.214447 181.651550,357.386536 182.792328,351.971863 
	C186.879074,332.574310 197.409714,317.077118 213.463333,305.673187 
	C225.294907,297.268463 238.421356,292.049683 253.354630,291.661346 
	C272.489441,291.163818 290.217316,295.092896 305.227356,307.355652 
	C320.602417,319.916626 329.888153,336.309204 333.229797,355.950562 
	C333.597137,358.109650 333.350830,360.752808 336.761230,359.815002 
	C347.503418,356.860992 358.209747,358.095276 368.944885,359.790039 
	C370.542938,360.042328 372.215057,359.825165 374.278320,359.825165 
	C376.019012,350.084076 378.555756,340.710022 383.076660,331.887543 
	C392.176819,314.128723 405.723785,301.451569 424.898651,295.725342 
	C451.645477,287.737854 477.088257,290.088867 499.125763,308.677063 
	C512.642395,320.078064 522.650879,334.154297 525.130981,352.283325 
	C525.770630,356.959320 527.980286,358.476471 532.208862,358.818359 
	C535.706848,359.101227 539.261597,359.600464 540.119263,364.164825 
	C541.174255,369.779755 539.797974,371.943481 534.090942,372.319336 
	C529.006592,372.654205 526.775330,374.485687 525.604675,380.113159 
	C521.480896,399.936768 509.877014,415.030853 493.187256,426.785339 
	C492.945190,427.020325 492.987396,426.989868 493.005127,426.970825 
M193.797455,375.545074 
	C197.463913,387.406616 202.290665,398.658417 211.093460,407.746552 
	C220.297562,417.249115 230.958359,424.969116 244.029373,427.325806 
	C264.806396,431.071899 284.359955,428.056519 301.330627,413.875549 
	C314.053711,403.243958 321.446350,389.905945 322.514679,373.599548 
	C323.695435,355.576782 318.846344,339.093292 307.066406,324.942230 
	C299.608063,315.982574 290.106110,310.049316 279.502441,305.688171 
	C276.557495,304.476929 275.105865,305.760590 275.276062,308.985504 
	C275.568848,314.533569 276.171844,319.955994 280.036102,324.397003 
	C282.110077,326.780548 284.234192,329.128967 286.171631,331.620728 
	C288.560669,334.693390 287.204285,337.849182 283.318756,338.309906 
	C282.199371,338.442657 280.962524,338.262787 279.878815,337.916016 
	C264.692810,333.056885 254.526886,322.497314 247.639206,308.624695 
	C245.781616,304.883301 244.161652,303.664703 240.060089,304.966370 
	C231.517334,307.677460 223.814270,311.671692 217.142807,317.698212 
	C215.126068,319.519989 214.299988,321.512878 214.244141,324.232941 
	C214.134155,329.589996 215.071487,334.853638 215.248993,340.167175 
	C215.329758,342.584290 216.484680,345.979431 212.514938,346.625946 
	C209.093246,347.183167 207.547653,344.609650 206.132065,342.040314 
	C205.052826,340.081512 205.164780,337.424927 202.858551,336.160858 
	C201.507278,336.864075 200.976517,338.090881 200.226807,339.181641 
	C192.755356,350.051849 192.561646,362.267273 193.797455,375.545074 
M463.173798,427.779602 
	C491.103607,420.798523 512.702026,398.086304 513.062927,378.949982 
	C509.341095,379.641724 505.661896,380.609406 501.927124,380.930115 
	C498.922516,381.188080 496.426147,379.938354 495.551361,376.555420 
	C494.678284,373.179138 496.617645,371.727631 499.219421,370.424988 
	C510.178894,364.937897 513.665466,356.921539 510.282410,345.265991 
	C509.725281,343.346588 509.201050,341.415894 508.729156,339.473969 
	C507.973145,336.362793 506.451141,335.634277 503.767517,337.645020 
	C499.854767,340.576721 495.509216,342.662384 490.731689,343.735992 
	C486.186310,344.757416 481.818756,344.132935 477.733826,341.868713 
	C476.378906,341.117767 475.219666,340.023621 475.270630,338.360809 
	C475.325775,336.563141 476.803345,336.043671 478.269226,335.475952 
	C481.523834,334.215363 484.879700,333.090393 487.909393,331.399658 
	C495.513824,327.156128 495.767273,318.713013 488.457336,314.156128 
	C482.386810,310.371887 476.219238,306.786743 469.356018,304.448395 
	C465.534424,303.146332 462.812775,303.637665 460.060852,306.630402 
	C453.297821,313.985168 445.042267,319.163208 435.694580,322.697357 
	C431.999054,324.094543 428.305817,324.782593 424.466156,323.822052 
	C422.464783,323.321381 419.624329,323.485291 419.234009,320.788605 
	C418.841400,318.076294 421.602295,317.338287 423.423462,316.512543 
	C429.409912,313.798218 433.742920,309.321838 438.255829,304.013275 
	C407.806885,309.338013 381.608551,336.686310 385.683472,371.248444 
	C390.484344,411.968109 424.916107,433.966034 463.173798,427.779602 
z"/>
<path fill="#000000" opacity="1.000000" stroke="none" 
	d="
M366.994873,476.304779 
	C356.499176,476.377350 346.502319,476.470581 336.505310,476.508636 
	C334.847656,476.514954 333.076691,476.608521 331.555115,476.087006 
	C328.680145,475.101593 326.750061,473.105316 326.914490,469.759125 
	C327.083313,466.323151 329.446472,465.158264 332.335266,465.127258 
	C347.827454,464.960999 363.321045,464.867523 378.814056,464.878448 
	C382.492432,464.881042 385.662476,466.471741 385.696350,470.579071 
	C385.733185,475.050201 382.453278,476.319855 378.491302,476.297455 
	C374.825562,476.276703 371.159576,476.301941 366.994873,476.304779 
z"/>
<path fill="#000000" opacity="1.000000" stroke="none" 
	d="
M426.954712,291.202576 
	C419.816406,292.342499 413.063232,293.090118 406.264099,293.138245 
	C404.142731,293.153229 401.952454,292.761475 399.907959,292.164581 
	C396.699524,291.227875 394.718719,288.865173 395.071259,285.513092 
	C395.438629,282.019958 397.646118,279.812103 401.388824,279.697327 
	C413.136200,279.337189 424.876007,278.028259 436.639557,279.611481 
	C439.427216,279.986664 442.346771,280.434357 442.692261,283.566162 
	C443.002045,286.374725 440.390320,287.947571 438.013062,288.690826 
	C434.551849,289.773010 430.931152,290.345245 426.954712,291.202576 
z"/>
<path fill="#000000" opacity="1.000000" stroke="none" 
	d="
M216.776031,442.838074 
	C218.860367,440.225403 220.641968,437.820404 222.645142,435.616852 
	C223.773407,434.375763 225.268204,433.468475 227.049408,434.708740 
	C228.773346,435.909180 228.745087,437.567505 227.848511,439.110260 
	C225.181580,443.699219 222.455154,448.258759 219.581299,452.719879 
	C218.309509,454.694092 216.332916,455.771057 214.035400,454.326355 
	C211.703384,452.859894 212.016922,450.706390 213.174591,448.635193 
	C214.225189,446.755493 215.429474,444.961700 216.776031,442.838074 
z"/>
<path fill="#000000" opacity="1.000000" stroke="none" 
	d="
M482.315979,443.484467 
	C484.107269,441.045471 485.671448,438.892731 487.854736,437.308350 
	C489.333130,436.235443 490.996368,435.882721 492.455658,437.074768 
	C494.089569,438.409393 494.257202,440.260040 493.023834,441.970428 
	C491.089508,444.652863 489.091797,447.299835 486.960205,449.826233 
	C485.520538,451.532532 483.708282,452.944153 481.365814,451.337036 
	C479.142365,449.811615 480.190186,447.832520 480.949463,445.991089 
	C481.263916,445.228455 481.719208,444.523895 482.315979,443.484467 
z"/>
<path fill="#000000" opacity="1.000000" stroke="none" 
	d="
M257.435120,453.397156 
	C256.902863,454.076660 256.611908,454.480133 256.300323,454.866913 
	C254.842773,456.676056 253.335022,459.043335 250.671539,457.430054 
	C247.607178,455.574066 249.414734,452.974854 250.626938,450.929443 
	C252.305313,448.097351 254.239746,445.391357 256.303406,442.823303 
	C257.468903,441.372925 259.221008,440.376678 261.107666,441.726410 
	C262.805756,442.941223 262.346710,444.752899 261.616821,446.233917 
	C260.450195,448.601013 258.998260,450.827484 257.435120,453.397156 
z"/>
<path fill="#000000" opacity="1.000000" stroke="none" 
	d="
M296.070374,377.802124 
	C292.386932,391.399567 278.737976,399.264893 265.180176,400.230743 
	C253.523682,401.061127 243.217819,397.955627 233.943405,390.909119 
	C227.286728,385.851501 223.931824,378.893951 222.874191,370.975372 
	C222.259186,366.370728 220.280502,364.511810 215.957001,364.333435 
	C214.649765,364.279480 213.270981,364.063934 212.077072,363.561188 
	C209.727966,362.571930 208.546631,360.758026 208.604996,358.066681 
	C208.661102,355.479218 210.056229,353.905640 212.260742,353.306305 
	C214.962311,352.571838 217.791138,351.980438 220.576126,351.928650 
	C245.184052,351.470734 269.783295,350.350281 294.403259,350.790588 
	C297.548340,350.846832 300.685730,351.327423 303.826965,351.608002 
	C306.925079,351.884735 308.690033,353.636505 309.094452,356.644226 
	C309.481476,359.522736 307.832214,362.284576 305.514191,362.534668 
	C298.728149,363.266846 298.304047,368.229492 297.309814,373.084595 
	C297.010773,374.544861 296.563690,375.974854 296.070374,377.802124 
z"/>
<path fill="#000000" opacity="1.000000" stroke="none" 
	d="
M465.291260,351.605347 
	C475.402649,351.834900 485.066284,351.093231 494.667267,352.678925 
	C498.700134,353.345001 502.600494,354.092987 502.262970,359.291931 
	C501.943939,364.206116 498.413605,365.402557 494.118042,365.221130 
	C491.679962,365.118164 489.689514,365.063110 489.283356,368.557404 
	C487.524902,383.685669 479.026459,393.740814 464.543640,397.712433 
	C451.125336,401.392120 437.775024,401.918610 425.458405,392.891174 
	C416.994873,386.687866 412.730988,378.586029 411.839935,368.550964 
	C411.516113,364.904419 410.674255,362.975830 406.691742,363.040955 
	C402.757812,363.105225 399.865234,361.552490 399.702087,357.028259 
	C399.518341,351.932770 403.160889,350.799805 406.962189,350.743134 
	C419.106567,350.562134 431.256714,350.653290 443.403290,350.773651 
	C450.545471,350.844360 457.715576,350.403992 465.291260,351.605347 
z"/>
</svg>