<svg version="1.1" id="Layer_1" xmlns="http://www.w3.org/2000/svg" xmlns:xlink="http://www.w3.org/1999/xlink" x="0px" y="0px"
	 width="100%" viewBox="0 0 1024 1024" enable-background="new 0 0 1024 1024" xml:space="preserve">
<path fill="#000000" opacity="1.000000" stroke="none" 
	d="
M695.793579,228.347137 
	C691.603455,244.200775 683.986633,258.150940 676.921570,272.263580 
	C654.221924,317.606781 627.793091,360.807037 600.511108,403.497589 
	C595.218811,411.778931 589.928345,420.061462 584.619385,428.332092 
	C583.065002,430.753540 581.522766,433.115479 577.946716,432.464844 
	C575.930115,432.097961 575.083374,433.863403 574.199951,435.248566 
	C550.904846,471.774658 526.757812,507.727417 501.659973,543.039734 
	C500.653748,544.455444 500.103699,545.937195 499.926788,547.634521 
	C499.571320,551.044312 497.464325,553.268066 494.352692,553.936401 
	C491.626343,554.522095 490.056854,556.038818 488.461456,558.061951 
	C474.020966,576.373901 459.514038,594.633545 445.017761,612.901489 
	C443.055237,615.374634 441.433197,617.696533 441.507477,621.309326 
	C441.586212,625.138245 439.045593,628.140625 434.846924,627.811523 
	C432.003906,627.588623 431.423035,628.932983 430.772949,630.951233 
	C427.763458,640.293945 424.059265,649.429749 422.238373,659.125427 
	C421.693634,662.025879 420.233246,663.803711 417.452637,664.919617 
	C403.555878,670.497009 391.105072,678.417725 380.025085,688.486816 
	C378.478058,689.892700 376.842987,691.200378 374.703003,690.035217 
	C372.264221,688.707336 373.397980,686.494446 373.890289,684.679077 
	C378.052063,669.332825 380.939758,653.839355 379.362823,637.839783 
	C379.083466,635.005432 380.722504,633.571899 382.591766,632.110291 
	C389.566711,626.656799 395.927765,620.545349 402.009308,614.122925 
	C403.831787,612.198303 404.941895,610.424377 404.023132,607.491760 
	C402.812134,603.626282 404.451355,600.489075 408.202362,598.995117 
	C410.649536,598.020386 411.798126,596.224426 412.863220,594.112671 
	C423.665100,572.695984 434.483093,551.287415 445.296570,529.876526 
	C444.634674,518.893188 453.799774,512.828369 458.198395,504.391052 
	C462.812927,495.539612 468.085083,487.017639 473.319733,478.505371 
	C489.202209,452.678314 505.030304,426.814819 521.820984,401.560059 
	C523.170044,399.530914 524.125916,397.664917 522.908325,395.115540 
	C521.794800,392.784119 522.847656,390.548950 524.165833,388.537354 
	C558.324585,336.410004 592.679321,284.414917 632.770020,236.536163 
	C640.891052,226.837524 649.008240,217.071457 658.201721,208.346512 
	C670.707092,196.478424 690.729248,201.783966 695.595398,218.041306 
	C696.579834,221.330154 696.452454,224.611832 695.793579,228.347137 
M576.800049,318.263397 
	C564.798279,336.092773 552.861267,353.966400 540.733459,371.709564 
	C538.618530,374.803772 538.880859,376.284363 542.127625,378.295837 
	C551.898193,384.348907 561.432373,390.783203 571.065735,397.058044 
	C577.573792,401.297180 584.093689,405.518158 590.719604,409.819550 
	C591.699951,408.540527 592.358826,407.807129 592.877930,406.985443 
	C612.098694,376.558380 631.310059,346.126526 648.900879,314.708374 
	C660.624084,293.769928 672.082458,272.703552 682.104919,250.873810 
	C683.796448,247.189560 683.368286,244.988068 679.959717,243.149902 
	C678.534363,242.381195 677.402832,240.964096 675.146423,241.173447 
	C673.998840,242.690720 672.616699,244.344559 671.421570,246.123962 
	C647.084839,282.355835 622.773926,318.605011 598.442139,354.840179 
	C596.367493,357.929840 595.034729,361.026123 595.104553,365.006042 
	C595.221313,371.662018 590.160828,376.608673 583.565308,377.210693 
	C577.748474,377.741638 571.190796,372.894684 569.782410,367.023285 
	C568.207336,360.457184 571.242493,354.175659 577.580566,352.280914 
	C580.669067,351.357635 582.314758,349.516754 583.853149,347.089905 
	C605.082825,313.598358 626.330139,280.118011 647.568604,246.632019 
	C651.198669,240.908600 654.807007,235.171387 658.361755,229.541290 
	C651.343262,222.914642 650.585754,223.091034 645.085754,229.338150 
	C620.489563,257.275543 598.567261,287.255463 576.800049,318.263397 
M531.072754,402.480804 
	C528.516052,400.475555 526.906738,401.694672 525.450012,404.003479 
	C521.275146,410.620483 516.999146,417.173645 512.816284,423.785706 
	C494.662048,452.483154 476.575317,481.218842 459.661346,510.680328 
	C457.218781,514.934875 457.970886,516.899475 461.872162,519.284363 
	C470.533539,524.578979 478.909790,530.337769 487.485596,535.776001 
	C490.526855,537.704590 493.375824,540.059937 496.784729,541.100708 
	C497.273438,540.745056 497.613220,540.604492 497.794556,540.350769 
	C522.970032,505.129974 546.947144,469.101868 570.390686,432.712006 
	C572.358582,429.657410 570.916687,428.408478 568.491272,426.848938 
	C556.170837,418.926910 543.932556,410.876984 531.072754,402.480804 
M424.509369,580.997864 
	C421.879333,586.382202 419.307770,591.796265 416.592224,597.137146 
	C415.404083,599.473938 415.612396,601.046326 418.011566,602.497925 
	C422.422485,605.166809 426.656830,608.125488 431.007080,610.896973 
	C436.828064,614.605347 437.407806,614.515686 441.627838,609.250610 
	C455.893311,591.452393 470.082947,573.592773 484.448242,555.875488 
	C486.773132,553.008118 486.318726,551.338440 483.476532,549.528442 
	C477.158112,545.504700 470.905121,541.378357 464.608917,537.319580 
	C460.190094,534.471008 455.743927,531.664734 450.945404,528.607239 
	C442.078552,546.196472 433.472168,563.269104 424.509369,580.997864 
M633.146912,294.679260 
	C635.807861,290.852692 638.514221,287.056824 641.121582,283.194092 
	C650.898560,268.709625 660.633362,254.196686 670.404785,239.708450 
	C674.178589,234.113068 674.335388,234.144287 680.108398,237.890350 
	C681.924866,239.069031 683.506531,241.174667 686.233826,240.281876 
	C685.131042,235.616028 658.689026,218.379074 654.630920,219.565048 
	C654.664490,222.066742 656.884705,222.650299 658.430603,223.677048 
	C665.021545,228.054718 664.996643,227.980911 660.620850,234.847931 
	C636.474792,272.740784 612.335205,310.637878 588.262329,348.577240 
	C586.001404,352.140564 584.000427,355.407867 579.319275,356.530731 
	C575.000671,357.566620 573.244629,361.802826 574.387329,366.058899 
	C575.470520,370.093231 579.437683,373.022095 583.283875,372.627075 
	C587.275391,372.217133 590.984131,368.680450 590.546204,364.513733 
	C590.041077,359.708710 592.117493,356.195587 594.523926,352.587708 
	C607.266174,333.483215 620.007324,314.378082 633.146912,294.679260 
M392.013489,657.572083 
	C393.713135,653.783447 397.907043,651.144348 396.844696,646.058899 
	C395.996979,642.000671 397.967957,639.076599 401.950195,638.235413 
	C405.685303,637.446472 408.069397,639.828613 408.887665,643.191101 
	C409.823547,647.037048 407.795990,649.621277 404.117615,650.721741 
	C402.311035,651.262207 400.664551,651.779358 399.616943,653.507629 
	C394.990662,661.140015 389.831085,668.457214 385.522980,677.258667 
	C394.731354,671.521179 403.130432,665.904053 412.294250,661.683472 
	C415.263214,660.316040 416.964447,658.503418 417.898560,655.316162 
	C420.562744,646.225769 423.513458,637.216980 426.490387,628.222107 
	C427.213593,626.036865 427.240753,624.535034 425.038116,623.185181 
	C420.645538,620.493286 416.361633,617.619751 412.091064,614.735046 
	C409.889954,613.248230 408.369995,613.554260 406.600037,615.635315 
	C400.880432,622.360229 394.571899,628.516602 387.796875,634.192139 
	C386.156952,635.565857 384.236755,636.918030 384.324738,639.391357 
	C384.728943,650.755615 383.756195,662.017700 382.208771,673.373352 
	C385.344879,668.307312 388.480957,663.241211 392.013489,657.572083 
M534.327576,381.263702 
	C532.382996,384.361176 530.499573,387.499390 528.473511,390.542572 
	C526.988586,392.773010 527.153931,394.526367 529.473877,396.007141 
	C530.733826,396.811371 531.921509,397.728058 533.166809,398.556274 
	C547.011536,407.763763 560.662109,417.272400 575.006836,425.705444 
	C576.725281,426.715729 578.921631,428.810669 580.544739,425.911621 
	C582.881165,421.738678 587.631470,418.692413 586.895813,413.066193 
	C586.817871,412.469574 585.730164,411.948486 585.042480,411.496460 
	C570.037170,401.632751 555.043457,391.751007 539.975586,381.983643 
	C538.501953,381.028381 536.971558,378.936066 534.327576,381.263702 
M663.038391,210.407135 
	C661.806885,211.475494 660.230042,212.261246 659.964600,214.111664 
	C662.688782,217.410843 685.548767,232.229401 689.155823,233.046326 
	C693.285889,224.207382 692.175903,216.693176 685.943359,211.299011 
	C678.900024,205.203156 671.375305,204.760040 663.038391,210.407135 
M461.992004,530.469604 
	C471.375305,536.436951 480.745422,542.425293 490.158356,548.345459 
	C491.350891,549.095459 492.887299,550.300171 494.139099,548.641479 
	C495.562164,546.755981 493.972687,545.582458 492.599884,544.626770 
	C489.875854,542.730347 487.092163,540.918884 484.317566,539.095947 
	C475.161224,533.080078 466.024475,527.033447 456.811005,521.106201 
	C455.287354,520.126038 453.192291,518.243164 451.710632,520.888428 
	C450.403381,523.222290 452.548187,524.419922 454.252625,525.508667 
	C456.631073,527.027954 459.010223,528.546082 461.992004,530.469604 
M415.097137,611.350159 
	C420.472351,614.696350 425.821594,618.085510 431.239990,621.360352 
	C432.703796,622.244995 434.605225,623.949402 435.982635,621.654785 
	C437.178680,619.662231 434.919739,618.836060 433.672668,617.906372 
	C432.072601,616.713562 430.341431,615.697327 428.673737,614.594482 
	C423.809784,611.377991 418.973175,608.119324 414.073730,604.957947 
	C412.477783,603.928162 410.475403,602.019226 408.930939,604.513123 
	C407.445221,606.912170 410.068268,607.905029 411.535706,609.085693 
	C412.438141,609.811829 413.495850,610.344849 415.097137,611.350159 
z"/>
<path fill="#000000" opacity="1.000000" stroke="none" 
	d="
M609.872742,612.260132 
	C616.981689,624.008301 616.700745,635.369324 609.016235,646.213257 
	C605.002075,651.877747 601.340210,657.446106 601.227539,664.690369 
	C601.184082,667.485168 599.085327,668.252930 596.721558,668.256470 
	C589.565125,668.267273 582.408508,668.206970 575.252136,668.153320 
	C572.364197,668.131653 570.221924,666.887024 570.287292,663.804688 
	C570.436218,656.784180 566.663330,651.640198 562.851868,646.284180 
	C553.952148,633.778137 555.336182,617.665527 565.851929,607.563660 
	C576.102966,597.716064 592.111267,596.993652 603.870422,605.803223 
	C606.172241,607.527649 607.987000,609.664185 609.872742,612.260132 
M587.529968,637.152222 
	C588.035645,636.297180 588.588989,635.466370 589.038330,634.582703 
	C590.569031,631.571899 592.527893,629.199463 596.367554,629.832886 
	C599.039429,630.273560 600.440979,632.197693 600.785339,634.641663 
	C601.271667,638.092896 599.224182,640.570801 596.349365,641.729980 
	C592.712769,643.196350 591.862000,645.606506 592.093628,649.140503 
	C592.333008,652.792053 592.172791,656.468567 592.238464,660.133240 
	C592.265198,661.623779 592.173523,663.370178 594.302856,663.477783 
	C595.976318,663.562317 596.564087,662.311829 596.721802,660.860657 
	C597.496338,653.737305 601.509033,648.222107 605.608276,642.717834 
	C608.776123,638.464111 610.579102,633.591553 610.552490,628.310974 
	C610.501404,618.197815 603.412781,608.860229 593.468079,605.298523 
	C584.897522,602.228882 574.150330,605.072266 567.878052,612.068848 
	C561.112732,619.615356 559.386597,631.198303 564.447021,639.984924 
	C568.493652,647.011230 574.157715,653.159241 575.134705,661.695190 
	C575.285522,663.012756 576.292053,663.677795 577.667175,663.534485 
	C578.815613,663.414856 579.748535,662.628296 579.544678,661.603149 
	C578.106689,654.371948 584.239014,645.170532 573.686768,640.197083 
	C571.169922,639.010864 570.131348,635.865356 571.600403,632.739685 
	C572.768433,630.254700 574.744202,629.353088 577.320923,629.857422 
	C580.030396,630.387878 581.560730,632.389587 582.597290,634.749451 
	C583.452454,636.696472 584.246521,638.518555 587.529968,637.152222 
M584.276123,652.544922 
	C584.817688,656.161072 583.100952,660.201538 585.951965,663.989075 
	C588.662415,658.769226 588.204651,645.976990 585.464172,643.545471 
	C583.227051,645.985596 584.691101,648.946655 584.276123,652.544922 
z"/>
<path fill="#000000" opacity="1.000000" stroke="none" 
	d="
M958.245605,988.721802 
	C957.148071,982.742493 956.325562,977.003479 955.454712,970.926941 
	C951.564636,971.739624 949.934326,975.957764 945.828979,976.454163 
	C945.377319,972.626709 949.748108,971.329834 950.165527,967.841553 
	C945.111572,965.364685 939.253723,966.044617 933.023987,963.936707 
	C939.135071,961.044250 945.299988,962.690674 950.425354,959.847229 
	C949.981018,956.412964 946.922913,954.477112 946.034485,951.079407 
	C949.945374,950.753357 951.381653,955.062317 954.935120,955.284241 
	C957.419800,949.744629 956.010925,943.453613 958.597717,937.312561 
	C961.900513,943.413025 960.142883,950.100769 962.518799,955.863770 
	C966.080139,954.856262 967.758362,951.344299 971.556213,950.723511 
	C970.875610,954.518494 967.316284,956.269836 966.705933,959.884766 
	C972.239258,962.146851 978.380920,961.350220 985.203613,963.624207 
	C978.617615,966.060486 972.553162,964.998047 967.133118,967.349609 
	C967.365784,970.921265 971.053894,972.694885 971.656494,976.565247 
	C967.777771,975.776306 966.068359,972.348511 962.699768,971.264648 
	C960.679260,975.656189 961.317139,980.425842 960.300415,984.868652 
	C959.963928,986.339050 960.906311,988.378967 958.245605,988.721802 
z"/>
<path fill="#000000" opacity="1.000000" stroke="none" 
	d="
M573.065063,681.353638 
	C571.147156,678.314270 572.899048,677.177734 575.124878,677.115784 
	C582.110046,676.921204 589.103943,676.995972 596.093872,677.049133 
	C597.663269,677.061035 599.237427,677.626831 599.298645,679.505676 
	C599.359863,681.383057 597.860657,682.135681 596.267700,682.108948 
	C588.639099,681.980835 580.986755,682.899963 573.065063,681.353638 
z"/>
<path fill="#000000" opacity="1.000000" stroke="none" 
	d="
M595.609253,675.178711 
	C589.022339,675.201477 582.896118,675.233704 576.770264,675.202759 
	C574.982971,675.193726 572.736572,675.446838 572.532776,672.912720 
	C572.318604,670.249756 574.707153,670.249939 576.404114,670.208740 
	C582.690918,670.055908 588.983276,670.062622 595.272522,670.121216 
	C596.927979,670.136658 598.808350,670.435425 599.011780,672.579285 
	C599.196533,674.525391 597.659607,674.985596 595.609253,675.178711 
z"/>
<path fill="#000000" opacity="1.000000" stroke="none" 
	d="
M585.178101,690.342407 
	C582.390747,690.116943 580.228271,689.366028 578.463806,687.752686 
	C577.449280,686.825012 576.660034,685.649841 577.663757,684.289062 
	C578.495178,683.161926 579.792236,683.218994 580.764465,683.967529 
	C583.936951,686.410156 587.176086,686.083557 590.535095,684.516235 
	C591.633484,684.003601 592.885254,683.661682 593.651184,684.859375 
	C594.569275,686.295166 593.450195,687.339722 592.497131,688.252563 
	C590.566467,690.101868 588.151672,690.471130 585.178101,690.342407 
z"/>
<path fill="#000000" opacity="1.000000" stroke="none" 
	d="
M617.427734,657.548767 
	C615.597473,655.257141 611.202026,653.521179 613.800293,650.778870 
	C616.574219,647.851135 618.189575,652.560059 620.353760,653.841003 
	C620.630859,654.005127 620.877197,654.262451 621.066101,654.527588 
	C622.272156,656.220459 625.819580,657.542603 623.308411,660.019470 
	C620.887573,662.407166 619.496948,658.848755 617.427734,657.548767 
z"/>
<path fill="#000000" opacity="1.000000" stroke="none" 
	d="
M611.460938,597.339050 
	C612.958008,595.762207 614.175049,594.393494 615.492554,593.129456 
	C616.616516,592.051086 617.973389,591.129700 619.404236,592.503784 
	C620.709473,593.757202 619.689941,594.958008 618.859253,595.990173 
	C617.505310,597.672668 616.125000,599.339294 614.665161,600.929321 
	C613.551331,602.142456 612.215088,603.761108 610.490479,602.261597 
	C608.600830,600.618469 609.878723,598.988220 611.460938,597.339050 
z"/>
<path fill="#000000" opacity="1.000000" stroke="none" 
	d="
M559.264465,602.864380 
	C556.666443,600.359192 554.348145,598.018982 552.201050,595.531006 
	C551.327454,594.518738 550.804138,593.039429 552.119385,591.996033 
	C553.402954,590.977722 554.634094,591.774170 555.573792,592.806458 
	C557.459351,594.877808 559.391052,596.920837 561.107727,599.127991 
	C562.579285,601.019836 562.206848,602.504150 559.264465,602.864380 
z"/>
<path fill="#000000" opacity="1.000000" stroke="none" 
	d="
M558.728516,651.089844 
	C557.728210,655.548035 554.135925,657.625305 551.296021,660.285278 
	C549.930725,661.564148 548.377075,661.130554 547.964478,659.144043 
	C547.344788,656.160767 555.284424,649.953979 558.728516,651.089844 
z"/>
<path fill="#000000" opacity="1.000000" stroke="none" 
	d="
M587.366699,591.744812 
	C584.948364,592.976746 583.875671,592.003235 583.781006,589.952515 
	C583.652344,587.165710 583.728271,584.367065 583.788086,581.575012 
	C583.814819,580.325378 584.372498,579.240112 585.744202,579.152832 
	C587.407104,579.046997 588.112427,580.268738 588.136475,581.682434 
	C588.191895,584.943970 588.702698,588.241882 587.366699,591.744812 
z"/>
<path fill="#000000" opacity="1.000000" stroke="none" 
	d="
M631.640991,623.717773 
	C633.819519,623.830811 635.689636,624.059082 635.480652,626.345642 
	C635.304443,628.273865 633.498657,628.290100 631.993286,628.329224 
	C630.002319,628.380981 628.008362,628.403870 626.017822,628.355347 
	C624.524841,628.319031 622.751709,628.348633 622.706238,626.259766 
	C622.655884,623.945618 624.509583,623.799927 626.222412,623.742126 
	C627.880798,623.686157 629.542175,623.714966 631.640991,623.717773 
z"/>
<path fill="#000000" opacity="1.000000" stroke="none" 
	d="
M538.428467,628.212646 
	C536.762329,627.766052 535.902588,626.997314 536.129028,625.655884 
	C536.354675,624.319458 537.475891,623.844910 538.703674,623.822266 
	C541.166626,623.776794 543.634399,623.745789 546.093994,623.851685 
	C547.445801,623.909851 548.857971,624.374878 548.906494,626.015930 
	C548.967957,628.097229 547.256775,628.197266 545.772217,628.247009 
	C543.474243,628.324097 541.171997,628.271362 538.428467,628.212646 
z"/>
<path fill="#000000" opacity="1.000000" stroke="none" 
	d="
M503.776733,726.598877 
	C506.698914,725.851746 507.871429,727.141785 507.554565,729.579041 
	C507.358215,731.089478 505.909790,731.772766 504.514313,731.332581 
	C501.809814,730.479614 501.953583,728.737915 503.776733,726.598877 
z"/>
<path fill="#000000" opacity="1.000000" stroke="none" 
	d="
M497.767548,722.328613 
	C500.181763,723.212158 501.242004,724.570129 499.524261,726.509827 
	C498.522949,727.640625 496.983185,727.449158 496.003265,726.255249 
	C494.386108,724.284973 494.989746,722.918518 497.767548,722.328613 
z"/>
<path fill="#000000" opacity="1.000000" stroke="none" 
	d="
M476.522156,702.677185 
	C477.453247,705.304443 476.589905,706.526794 474.158600,706.178650 
	C472.711639,705.971313 471.752075,704.654663 472.147797,703.320435 
	C472.866089,700.898254 474.578400,701.166504 476.522156,702.677185 
z"/>
<path fill="#000000" opacity="1.000000" stroke="none" 
	d="
M516.145020,677.849731 
	C518.942688,676.410767 519.723450,677.975159 519.947144,680.044189 
	C520.066345,681.146240 519.309143,682.075684 518.172119,682.000244 
	C515.650452,681.832886 515.303467,680.197632 516.145020,677.849731 
z"/>
<path fill="#000000" opacity="1.000000" stroke="none" 
	d="
M472.747833,748.953735 
	C474.878174,749.984375 475.520508,751.307861 473.902588,752.836548 
	C472.856750,753.824646 471.277283,753.908875 470.467285,752.666382 
	C469.142303,750.634033 470.122955,749.349304 472.747833,748.953735 
z"/>
<path fill="#000000" opacity="1.000000" stroke="none" 
	d="
M403.846497,749.279175 
	C405.028534,751.472778 404.456055,752.801331 402.301514,753.024719 
	C400.842133,753.176086 399.542694,752.220886 399.665619,750.732361 
	C399.885712,748.066772 401.699982,748.222900 403.846497,749.279175 
z"/>
<path fill="#000000" opacity="1.000000" stroke="none" 
	d="
M483.166199,748.090698 
	C481.000366,749.424072 479.513885,748.924988 479.173981,746.838989 
	C478.884094,745.060181 480.290802,743.959167 481.946106,744.203308 
	C484.047943,744.513428 484.614227,745.931519 483.166199,748.090698 
z"/>
<path fill="#000000" opacity="1.000000" stroke="none" 
	d="
M571.332764,720.877808 
	C571.891052,718.482910 572.983032,717.262573 575.141907,718.683716 
	C576.263611,719.422119 576.294617,720.661865 575.498596,721.680420 
	C573.961121,723.647583 572.550415,723.328247 571.332764,720.877808 
z"/>
<path fill="#000000" opacity="1.000000" stroke="none" 
	d="
M381.885468,727.758667 
	C382.829010,729.844177 382.736511,731.512878 380.531067,731.799927 
	C378.724030,732.035156 377.811523,730.495117 378.056793,728.921326 
	C378.381989,726.834778 379.798004,726.326599 381.885468,727.758667 
z"/>
<path fill="#000000" opacity="1.000000" stroke="none" 
	d="
M565.478271,725.062378 
	C568.195862,725.218506 568.708191,726.469604 567.477173,728.356934 
	C566.792786,729.406189 565.500061,730.013916 564.459595,729.096191 
	C562.797302,727.629761 563.241150,726.191040 565.478271,725.062378 
z"/>
<path fill="#000000" opacity="1.000000" stroke="none" 
	d="
M537.418701,733.906494 
	C538.546997,735.939453 538.336670,737.364441 536.106750,737.713623 
	C534.792847,737.919434 533.863586,737.217834 533.830505,735.823242 
	C533.774170,733.442261 535.249634,733.232483 537.418701,733.906494 
z"/>
<path fill="#000000" opacity="1.000000" stroke="none" 
	d="
M513.227478,731.098755 
	C515.460449,730.167908 517.134094,730.406738 517.527771,732.789795 
	C517.746460,734.113831 516.682617,735.041199 515.434265,734.936646 
	C513.332397,734.760559 512.074097,733.696533 513.227478,731.098755 
z"/>
<path fill="#000000" opacity="1.000000" stroke="none" 
	d="
M521.053833,689.323120 
	C520.878174,692.184631 519.419312,692.838318 517.415344,691.794617 
	C516.306641,691.217285 516.301697,689.648560 516.967957,688.722107 
	C518.275024,686.904541 519.791931,686.663757 521.053833,689.323120 
z"/>
<path fill="#000000" opacity="1.000000" stroke="none" 
	d="
M509.588806,716.840942 
	C512.044922,718.171204 511.909790,719.715942 510.285797,721.172913 
	C509.273163,722.081482 507.964050,721.754883 507.358582,720.664795 
	C506.266144,718.698120 506.876190,717.261902 509.588806,716.840942 
z"/>
<path fill="#000000" opacity="1.000000" stroke="none" 
	d="
M578.059814,710.667480 
	C580.249878,709.348389 581.537903,710.058716 581.805176,712.105652 
	C581.991821,713.535034 581.030029,714.854248 579.523132,714.660156 
	C577.365112,714.382202 577.163452,712.757202 578.059814,710.667480 
z"/>
<path fill="#000000" opacity="1.000000" stroke="none" 
	d="
M482.527893,710.888672 
	C483.404755,713.154602 482.792419,714.547852 480.627045,714.449036 
	C478.868744,714.368713 478.054657,712.893982 478.596130,711.273071 
	C479.327667,709.083069 480.801331,709.233154 482.527893,710.888672 
z"/>
<path fill="#000000" opacity="1.000000" stroke="none" 
	d="
M519.394897,699.820801 
	C519.027222,702.200317 517.934143,703.247498 516.001160,702.014587 
	C514.789856,701.241882 514.441040,699.702393 515.565552,698.602417 
	C517.061768,697.138733 518.494263,697.430908 519.394897,699.820801 
z"/>
<path fill="#000000" opacity="1.000000" stroke="none" 
	d="
M371.639252,699.545654 
	C371.761719,696.775757 373.210449,696.368835 374.995392,697.383118 
	C376.120270,698.022339 376.183380,699.579041 375.418060,700.500366 
	C374.041565,702.157532 372.607208,702.067688 371.639252,699.545654 
z"/>
<path fill="#000000" opacity="1.000000" stroke="none" 
	d="
M469.583191,692.353516 
	C472.061279,692.004089 472.914490,693.209351 472.560211,695.129517 
	C472.332733,696.362366 471.166229,697.106323 469.956055,696.508362 
	C468.097565,695.590149 468.057251,694.098694 469.583191,692.353516 
z"/>
<path fill="#000000" opacity="1.000000" stroke="none" 
	d="
M573.236328,612.127014 
	C575.874451,610.333496 578.237366,608.782898 581.172791,608.562317 
	C582.391968,608.470642 583.584045,608.616821 583.967102,610.015137 
	C584.364868,611.467224 583.363892,612.154541 582.200745,612.554321 
	C576.530823,614.502747 572.493347,618.136536 570.429077,623.834595 
	C569.974976,625.087952 569.201660,625.879456 567.812195,625.342957 
	C566.338074,624.773804 565.904785,623.587463 566.370117,622.106995 
	C567.595825,618.207092 569.827087,614.977600 573.236328,612.127014 
z"/>
</svg>