<svg version="1.1" id="Layer_1" xmlns="http://www.w3.org/2000/svg" xmlns:xlink="http://www.w3.org/1999/xlink" x="0px" y="0px"
	 width="100%" viewBox="0 0 1024 1024" enable-background="new 0 0 1024 1024" xml:space="preserve">
<path fill="#000000" opacity="1.000000" stroke="none" 
	d="
M711.105164,647.117676 
	C716.843689,672.725281 721.678650,698.037537 721.338684,724.030273 
	C721.290161,727.740906 723.115112,729.282898 726.683899,729.858704 
	C748.526428,733.383179 770.347290,737.042603 792.170471,740.686279 
	C814.641663,744.438049 837.112732,748.191467 859.568115,752.036194 
	C862.195007,752.485962 865.398865,752.438904 865.471619,756.653198 
	C865.511475,758.957520 867.744690,758.684082 869.351624,758.760803 
	C872.845703,758.927551 876.349365,758.918274 879.839844,759.131897 
	C882.868469,759.317383 885.235962,760.593384 886.470947,763.604919 
	C888.182251,767.778015 886.692017,770.398987 882.274170,770.100647 
	C857.641785,768.437561 832.960876,769.862366 808.330627,768.860962 
	C793.351318,768.252014 778.385193,768.384644 763.407288,768.275330 
	C799.267822,769.217163 835.063782,771.237915 870.843201,773.959351 
	C798.759033,779.518555 726.623474,776.502625 654.367737,775.710388 
	C654.236145,777.282654 656.135681,776.932251 655.522766,779.020935 
	C624.325745,779.871094 592.815063,778.845825 559.965881,778.971863 
	C562.048462,779.997437 562.947449,780.440186 563.846436,780.882874 
	C563.819763,781.332825 563.793091,781.782837 563.766418,782.232788 
	C523.816895,784.606934 483.801636,784.167847 443.769135,783.909790 
	C458.997864,785.242310 474.373474,783.762634 490.118774,786.308838 
	C488.321167,788.495422 486.386597,788.120239 484.703186,788.119324 
	C441.207794,788.096191 397.711823,788.145142 354.217194,787.930542 
	C323.240631,787.777710 292.390106,783.857727 261.391907,784.466370 
	C254.845749,784.594788 247.985580,783.012512 241.709015,786.521301 
	C241.111786,786.855164 240.080261,786.433289 239.253860,786.333252 
	C212.962509,783.151733 186.703384,786.686035 160.427567,786.769165 
	C154.006958,786.789429 147.592941,787.365784 140.636032,786.940002 
	C141.752609,784.080017 143.809311,784.247375 145.383072,783.919983 
	C162.192810,780.424194 179.246002,778.565247 196.289368,776.770752 
	C246.713150,771.461365 297.341522,771.070129 347.973145,770.456726 
	C361.078735,770.298035 374.223511,769.979431 387.368286,769.110596 
	C380.227417,767.665344 373.217651,765.548157 365.772186,766.477356 
	C362.143616,766.930176 358.466064,767.111938 354.806488,767.175415 
	C331.153870,767.585449 307.500519,767.956543 283.846649,768.288940 
	C232.202164,769.014709 180.569885,770.620056 128.912674,770.451843 
	C126.918259,770.445312 124.924568,770.733459 122.927917,770.788269 
	C119.329239,770.887207 117.326088,768.980835 116.801186,765.533508 
	C116.227028,761.762817 119.371063,761.946106 122.011131,761.154297 
	C120.472862,755.405457 124.110039,753.837158 128.744141,752.705688 
	C172.269196,742.079163 215.009109,728.748352 257.646973,715.077087 
	C260.543304,714.148438 263.424713,713.679321 266.466492,713.695251 
	C283.297974,713.783630 300.130463,713.726746 316.961334,713.867249 
	C320.834442,713.899536 322.429108,713.187866 322.179901,708.550903 
	C321.741241,700.387512 324.233429,692.682983 329.479279,686.254395 
	C331.484680,683.796875 331.275177,682.120239 329.594940,679.746643 
	C307.840515,649.015625 286.195801,618.206787 264.385651,587.515442 
	C262.358582,584.662903 261.655365,582.127075 262.545380,578.747192 
	C264.406403,571.679871 268.214691,566.315247 275.205566,563.810669 
	C279.684662,562.205933 283.126190,563.804016 285.820801,567.902710 
	C301.290375,591.433167 316.064880,615.393921 330.467987,639.585388 
	C335.665192,648.314514 340.694214,657.145264 345.696198,665.988281 
	C347.129944,668.523010 348.685852,670.094788 351.960144,669.712219 
	C367.319061,667.917847 378.400482,674.210449 385.468323,687.844055 
	C385.843933,688.568665 386.363953,689.218384 386.975159,690.142395 
	C390.849579,688.538452 393.521881,685.533203 396.332520,682.849976 
	C418.397583,661.785522 436.675964,637.652649 453.291748,612.185669 
	C460.947083,600.452393 467.908417,588.322205 474.087463,575.749451 
	C477.002075,569.818970 476.027588,567.950500 469.586060,567.224304 
	C426.504547,562.367188 389.526794,545.275208 360.787567,512.239746 
	C334.039703,481.493286 322.581299,445.272247 326.029266,404.968384 
	C330.354462,354.410767 355.949982,315.803070 396.643555,286.725067 
	C421.789917,268.756470 450.079895,258.017212 480.619141,254.227402 
	C525.632141,248.641434 568.246216,256.022766 605.495789,283.281097 
	C640.014221,308.540863 659.945068,342.926910 664.335266,385.792450 
	C668.466064,426.125793 656.286316,461.692780 632.271240,493.697510 
	C628.253784,499.051514 628.250793,499.555817 633.170593,503.839386 
	C654.291321,522.228882 668.822144,545.544312 681.844360,569.844360 
	C694.876099,594.162231 704.183228,619.990356 711.105164,647.117676 
M380.174622,517.332214 
	C413.623749,547.042236 453.119263,558.954102 497.249969,556.594360 
	C503.775909,556.245361 510.735626,556.428101 516.788696,553.263550 
	C525.197632,548.867249 533.288513,543.865417 541.668152,539.409912 
	C557.837219,530.812805 571.630737,519.785767 581.422058,503.922272 
	C594.772095,482.292847 604.025085,459.101562 609.827454,434.421844 
	C614.791504,413.307495 616.645569,392.072205 612.638184,370.604492 
	C611.495239,364.481140 609.730774,358.473816 608.251221,352.413300 
	C614.820312,363.574341 616.211792,376.017578 617.140564,388.446442 
	C618.076782,400.973785 616.911682,413.503296 615.237000,426.141602 
	C616.793579,425.596741 616.123047,423.565643 618.432068,423.741516 
	C616.854736,438.666382 612.258728,452.683838 606.859131,466.438385 
	C601.416077,480.303619 593.951050,493.160858 585.055786,506.333832 
	C589.215210,504.895447 591.024536,502.431152 593.057495,500.278870 
	C598.999023,493.988739 602.146545,486.227295 605.489929,478.356812 
	C610.175171,467.327606 615.491760,456.575073 619.065491,445.090088 
	C619.322571,444.263763 619.461853,443.031250 621.144409,443.319519 
	C621.322327,444.301941 621.508911,445.332611 621.845764,447.192780 
	C630.761963,428.477478 635.929016,409.429626 640.210327,390.055023 
	C641.140869,413.021423 631.763489,433.473175 624.798096,453.649536 
	C646.569641,425.932678 646.060913,393.007965 642.325623,358.746002 
	C644.972595,360.669586 644.961365,362.386475 645.381836,363.939301 
	C647.178101,370.573425 646.836975,377.495392 648.145325,384.183289 
	C648.896667,388.024078 651.627441,391.009277 651.350403,395.549591 
	C650.045166,416.934235 646.805054,437.902130 640.027527,458.267609 
	C639.646851,459.411407 638.751648,460.571075 640.062378,461.838562 
	C640.555542,461.393890 641.050964,461.139526 641.247437,460.738586 
	C642.490967,458.200531 643.747070,455.663635 644.855286,453.065002 
	C653.981201,431.665527 658.664124,409.198578 655.255127,386.228210 
	C648.385254,339.938141 623.861633,304.870789 582.870605,282.370850 
	C542.050415,259.964630 498.580383,257.147034 454.013092,268.972992 
	C405.009674,281.976074 368.629944,310.911407 346.755066,356.888458 
	C332.206543,387.466827 329.206238,419.423920 338.743469,452.212555 
	C346.152954,477.685944 360.326843,498.903717 380.174622,517.332214 
M544.617249,716.818787 
	C568.574829,717.661987 592.480469,723.952271 616.515625,715.938660 
	C624.267944,713.353943 632.786804,712.639526 640.869263,710.688049 
	C657.257935,706.730957 673.287537,701.747986 688.086121,693.417542 
	C697.351257,688.202087 698.135071,686.388672 696.542725,676.443848 
	C691.080322,642.328979 683.138489,608.905579 669.684753,576.940674 
	C659.546448,552.852905 647.169800,530.112610 630.088135,510.176727 
	C624.763916,503.962891 624.597290,504.101746 619.074890,509.753052 
	C590.718079,538.772034 557.325500,558.545166 516.916931,565.492432 
	C512.040466,566.330811 510.777283,568.402893 512.054138,573.255493 
	C515.231995,585.332397 517.372009,597.612610 519.297363,609.930420 
	C523.007935,633.669006 524.551819,657.554810 524.073120,681.582520 
	C523.954346,687.542236 525.588928,688.860413 531.311157,687.538269 
	C560.182312,680.867065 589.364258,675.930115 618.688232,671.800110 
	C623.376343,671.139771 624.675049,668.848816 624.348633,664.323669 
	C623.187195,648.221558 621.815369,632.146301 619.732239,616.135071 
	C617.328125,597.656555 615.061462,579.152283 607.780518,561.739136 
	C607.107971,560.130615 606.087708,558.393005 607.519592,556.389221 
	C611.465515,557.257446 613.455322,560.471375 615.389221,563.447021 
	C635.668213,594.649048 648.467102,629.041870 658.024719,664.745117 
	C660.383240,673.555481 659.903809,673.682983 651.137817,675.100769 
	C650.809753,675.153809 650.489136,675.252747 650.165039,675.330200 
	C614.529297,683.839417 578.368103,689.537109 542.242798,695.407898 
	C532.323669,697.019958 532.111511,697.067688 534.175354,706.835754 
	C534.278259,707.322754 534.275818,707.831177 534.362305,708.322693 
	C535.589172,715.290161 536.454590,716.065674 544.617249,716.818787 
M665.447632,729.263672 
	C657.747742,728.155273 650.248230,726.363281 642.209900,727.893738 
	C625.989258,730.981995 609.468079,732.024414 592.993896,731.702881 
	C572.838440,731.309570 552.693542,730.952209 532.537476,731.308411 
	C530.527649,731.343933 528.572815,731.331421 526.922302,732.836365 
	C514.788879,743.899841 500.253418,745.710144 484.855438,743.226807 
	C472.763245,741.276611 461.444366,737.185059 454.039398,726.669006 
	C451.596436,723.199646 449.154541,722.228760 445.138214,721.936646 
	C426.001190,720.544250 406.954987,724.986633 387.802032,722.527405 
	C383.137817,721.928528 379.066315,729.045776 380.983124,733.412231 
	C382.528442,736.932495 385.081268,740.286316 383.642303,744.762634 
	C380.055847,744.506897 378.151306,741.997131 376.316132,739.803040 
	C374.147949,737.210938 372.224731,737.020447 369.031555,738.135315 
	C354.082855,743.354248 338.539154,738.886597 328.519073,726.679932 
	C326.664276,724.420471 324.800049,723.301880 321.820831,723.259338 
	C312.330780,723.123657 302.842133,722.766846 293.358398,722.365845 
	C288.977417,722.180664 284.814545,722.767944 280.606781,724.101807 
	C254.895111,732.252930 228.919327,739.474487 202.687851,745.765747 
	C192.508896,748.206970 182.326828,750.635254 172.557114,752.971130 
	C320.204468,754.714233 468.130920,753.282227 616.072266,751.144531 
	C610.069092,749.640259 603.671814,751.131165 597.907654,747.816101 
	C638.603210,747.221375 679.298767,746.626587 719.972961,746.032166 
	C720.367554,747.552063 718.040649,746.811584 718.498596,748.128479 
	C733.611145,748.128479 748.683167,748.128479 763.755188,748.128479 
	C763.786926,747.784241 763.818604,747.440002 763.850342,747.095703 
	C731.339966,741.175293 698.829590,735.254883 665.447632,729.263672 
M499.421692,605.017944 
	C501.332703,597.741577 503.243744,590.465149 505.098022,583.404907 
	C506.501801,583.355164 505.832001,584.869324 506.849182,584.614746 
	C506.849182,583.364014 506.882721,582.198975 506.844086,581.036255 
	C506.390015,567.379883 505.830566,566.960388 492.405609,567.916382 
	C488.802032,568.172974 486.605133,569.522766 485.265717,572.948364 
	C477.770691,592.116760 467.729370,609.955200 456.093658,626.862427 
	C437.989075,653.169250 418.536316,678.260620 390.774170,695.406982 
	C388.550964,696.780029 387.462860,710.245911 389.311707,712.116760 
	C389.646088,712.455139 390.133301,712.714478 390.596375,712.842896 
	C397.229523,714.683655 403.800537,713.258484 410.400116,712.505737 
	C413.689575,712.130432 414.306732,709.480835 415.675934,707.268921 
	C416.413910,706.076782 417.916534,705.342163 419.111267,704.450806 
	C438.396759,690.063965 456.233948,674.131531 471.406128,655.367310 
	C475.113464,650.782288 478.699982,646.099548 482.342041,641.461731 
	C482.767395,641.820801 483.192749,642.179810 483.618103,642.538879 
	C470.996094,664.025146 452.674164,680.629333 434.801392,697.736511 
	C443.538879,693.513611 451.597504,688.415649 459.252625,682.642273 
	C465.310791,678.073181 470.313599,672.701721 474.086365,666.021118 
	C484.865723,646.933472 492.629272,626.622925 499.421692,605.017944 
M457.534729,714.726135 
	C462.439240,727.213684 473.463318,730.881104 485.030090,733.595337 
	C487.895172,734.267639 491.615601,735.955261 493.758667,734.186951 
	C497.798370,730.853638 502.687042,731.150940 507.052185,729.480530 
	C513.088074,727.170837 518.585876,724.194397 521.964661,718.404419 
	C522.959167,716.700256 523.068054,713.966492 524.454102,713.102966 
	C528.147156,710.801880 526.833984,708.100708 525.841187,705.354126 
	C524.513794,701.681946 522.142456,698.652161 519.277710,696.051514 
	C508.655975,686.408813 495.983673,683.276245 482.166229,685.588196 
	C467.463013,688.048401 457.273376,700.195862 457.534729,714.726135 
M330.375305,666.147156 
	C335.545746,673.251648 340.716187,680.356140 345.886627,687.460632 
	C342.667053,680.426636 339.130127,673.639038 335.150940,667.121521 
	C316.684082,636.874451 298.300507,606.574097 278.939331,576.883301 
	C276.259918,572.774414 274.640167,572.798767 271.712097,576.660400 
	C269.670471,579.353027 271.091766,581.082458 272.603058,583.242004 
	C291.778961,610.642761 310.883789,638.093323 330.375305,666.147156 
M488.114532,668.588196 
	C486.971466,670.456604 483.620850,671.557068 484.960327,674.200378 
	C486.158569,676.565002 489.165924,675.692871 491.409943,675.630066 
	C496.999939,675.473755 502.298309,676.696167 507.533417,678.466309 
	C512.781677,680.241150 513.870056,679.575684 513.747375,674.032654 
	C513.526428,664.052246 513.063416,654.076782 512.657104,644.101074 
	C512.586121,642.358459 513.174194,640.122681 510.808838,639.441833 
	C508.419708,638.754089 507.741302,640.974976 506.816437,642.440979 
	C501.215546,651.319336 495.179962,659.883789 488.114532,668.588196 
M353.348755,712.111023 
	C347.742645,704.824951 342.492218,697.245056 336.223419,690.393799 
	C327.452057,699.941406 327.495728,713.195984 335.958740,721.760803 
	C336.470978,719.913452 333.512665,718.937927 334.943207,716.658447 
	C339.350281,719.617981 343.229584,723.273499 348.090271,725.390686 
	C353.134888,727.588074 358.178680,729.212341 364.253448,725.982178 
	C360.491516,721.187134 357.147522,716.924866 353.348755,712.111023 
M377.299225,703.967102 
	C377.655731,705.313171 376.993378,706.957520 378.469177,708.089478 
	C379.099976,687.827820 366.160278,672.745239 352.937012,678.579590 
	C359.868927,691.258545 366.786102,703.910583 374.047028,717.191345 
	C376.333557,712.612183 375.438324,708.876648 375.695312,705.261047 
	C375.772430,704.175903 375.771851,704.175842 377.299225,703.967102 
M510.118011,610.086792 
	C509.329437,603.385864 509.801117,596.467712 506.691467,590.001038 
	C502.875122,609.959839 496.473511,629.003540 488.618835,648.496521 
	C492.355225,647.559204 493.387085,645.561340 494.518646,643.820740 
	C498.963043,636.983887 503.182434,629.998169 507.725922,623.229187 
	C510.298309,619.396667 511.306732,615.449707 510.118011,610.086792 
M637.449402,637.963379 
	C633.886047,628.341125 631.401794,618.276123 625.771851,609.431946 
	C627.854919,626.050903 628.759216,642.848999 636.390442,658.241333 
	C637.359619,658.020020 636.222046,655.849243 638.322021,655.969910 
	C640.727112,658.381836 641.179382,661.927063 642.269104,665.157227 
	C642.725525,666.510376 643.195557,667.779419 644.919922,667.470398 
	C646.531860,667.181519 647.053650,665.824158 646.875732,664.450562 
	C646.665894,662.830261 646.182861,661.216248 645.609985,659.677063 
	C643.004150,652.675842 640.325073,645.701965 637.449402,637.963379 
M426.500000,764.923279 
	C457.781555,764.703125 489.074860,765.033813 520.321594,762.899475 
	C471.986359,762.736206 423.660706,763.541565 375.324585,763.578674 
	C391.986023,766.431396 408.787354,764.096680 426.500000,764.923279 
M805.500305,758.861572 
	C812.260803,758.861572 819.021362,758.861572 825.781860,758.861572 
	C820.281799,756.603088 814.761658,755.497803 809.216064,754.540161 
	C807.991577,754.328674 805.847168,753.718567 805.556213,754.909729 
	C804.515930,759.169373 801.213562,757.798157 798.764587,757.857544 
	C786.059814,758.165771 773.351929,758.299683 760.685120,759.418762 
	C775.310730,760.320679 789.885376,758.357971 805.500305,758.861572 
M630.467590,453.025238 
	C630.362000,452.920288 630.256348,452.731140 630.150818,452.731201 
	C630.012939,452.731293 629.817017,452.847595 629.745850,452.971313 
	C627.674438,456.569916 625.273987,460.028442 623.640015,463.817230 
	C621.535461,468.697266 617.067017,472.263702 616.137573,477.742279 
	C622.747253,470.739746 626.936035,462.326172 630.467590,453.025238 
M301.500000,763.005737 
	C291.872345,763.005737 282.244690,763.005737 272.617065,763.005737 
	C272.618835,763.161194 272.620636,763.316711 272.622437,763.472168 
	C290.560760,763.472168 308.499054,763.472168 326.437378,763.472168 
	C326.437012,763.317139 326.436615,763.162109 326.436249,763.007080 
	C318.457489,763.007080 310.478760,763.007080 301.500000,763.005737 
M693.230408,715.107483 
	C691.540588,713.454529 689.866882,714.254883 688.334595,715.282837 
	C686.507080,716.508789 685.941040,718.388000 686.384460,720.480835 
	C686.704834,721.992737 687.990234,722.506653 689.366333,722.606323 
	C691.814514,722.783630 692.237854,720.804626 692.796692,719.112183 
	C693.150757,718.039978 693.266174,716.888916 693.230408,715.107483 
M709.236694,725.806213 
	C713.076172,720.908447 710.039124,716.099792 708.954956,711.245117 
	C707.574158,716.085144 705.946411,720.900391 709.236694,725.806213 
M253.672668,724.854919 
	C253.557404,725.101074 252.475098,725.158142 253.518295,725.622253 
	C253.651871,725.681641 253.846420,725.633423 254.005829,725.601135 
	C259.986328,724.388977 265.965973,723.172729 272.561493,721.831909 
	C265.438721,719.695435 259.932068,722.901794 253.672668,724.854919 
M444.732147,709.221985 
	C443.995178,710.164795 442.402954,710.693665 443.172882,712.374451 
	C449.303253,713.595825 450.101166,712.929443 449.198700,707.335999 
	C447.529144,706.852966 446.497711,708.134277 444.732147,709.221985 
z"/>
<path fill="#000000" opacity="1.000000" stroke="none" 
	d="
M441.999634,791.729614 
	C477.957581,791.271484 513.378845,789.802551 548.792297,788.029663 
	C564.748718,787.230896 580.722351,786.760254 596.691956,786.261230 
	C599.051331,786.187439 601.560486,786.356628 603.504761,788.802185 
	C486.413452,794.705750 369.399200,797.612549 252.442261,786.957886 
	C315.420074,789.977661 378.427002,792.200195 441.999634,791.729614 
z"/>
<path fill="#000000" opacity="1.000000" stroke="none" 
	d="
M479.203247,536.194397 
	C475.965515,535.087585 472.522919,535.254272 470.541565,531.996826 
	C472.491577,530.004211 474.773590,530.796448 476.771149,530.870544 
	C497.412445,531.635742 517.260071,528.433350 535.869568,519.112549 
	C543.966187,515.057251 551.408569,510.038208 557.302124,503.029236 
	C560.659546,499.036438 563.329224,494.646576 564.313171,489.414490 
	C564.771423,486.977875 565.449768,484.625763 568.634644,485.163788 
	C571.359192,485.624054 572.381348,487.727509 572.517334,490.275146 
	C572.700745,493.713043 571.581848,496.850311 569.982056,499.810547 
	C564.260071,510.398529 555.842346,518.310791 545.206116,523.720459 
	C524.585754,534.208252 502.921112,539.611633 479.203247,536.194397 
z"/>
<path fill="#000000" opacity="1.000000" stroke="none" 
	d="
M490.010468,481.267578 
	C495.073334,474.759888 501.379639,472.356201 509.105743,473.786896 
	C514.416992,474.770416 519.285889,479.250977 520.088745,484.082001 
	C521.117981,490.275055 518.740723,495.168030 513.723633,498.722687 
	C507.856232,502.879852 497.808563,502.291229 492.282349,497.646027 
	C487.237885,493.405792 486.431061,488.179596 490.010468,481.267578 
z"/>
<path fill="#000000" opacity="1.000000" stroke="none" 
	d="
M391.972412,521.080811 
	C389.314545,519.036255 386.867859,517.291809 384.602844,515.336853 
	C383.048340,513.995178 380.213013,512.409546 381.857300,510.229126 
	C383.775391,507.685791 385.579987,510.724976 387.196320,511.776276 
	C389.140991,513.041016 390.830292,514.690491 392.706238,516.070007 
	C419.692719,535.914734 449.848969,547.603210 483.358063,548.480347 
	C493.185455,548.737610 503.129456,544.254517 513.036926,542.018616 
	C514.718201,541.639099 516.325195,540.189514 518.494812,541.531677 
	C515.135193,546.081055 508.865967,544.662415 505.109222,547.997070 
	C505.908020,550.467896 509.192596,549.044983 509.995758,552.584595 
	C466.856567,555.894592 427.555206,546.393982 391.972412,521.080811 
z"/>
<path fill="#000000" opacity="1.000000" stroke="none" 
	d="
M433.177155,498.908997 
	C442.081177,494.383972 451.853546,498.370178 454.797546,507.391418 
	C455.545502,509.683350 455.536407,511.968689 454.487366,514.182617 
	C452.264191,518.874695 448.353149,521.041626 443.351990,521.266418 
	C437.241302,521.541077 432.267700,519.360657 429.212860,513.816284 
	C426.730835,509.311584 427.916199,505.151520 430.794525,501.284027 
	C431.383331,500.492889 432.161987,499.843048 433.177155,498.908997 
z"/>
</svg>