<svg version="1.1" id="Layer_1" xmlns="http://www.w3.org/2000/svg" xmlns:xlink="http://www.w3.org/1999/xlink" x="0px" y="0px"
	 width="100%" viewBox="0 0 560 736" enable-background="new 0 0 560 736" xml:space="preserve">
<path fill="#000000" opacity="1.000000" stroke="none" 
	d="
M210.468658,737.000000 
	C207.379654,732.639221 211.198318,733.045349 213.329285,732.897888 
	C219.625748,732.462158 225.944458,732.178467 232.255615,732.155579 
	C253.192291,732.079773 274.140350,730.854065 295.061798,732.650085 
	C296.025055,732.732788 296.979095,732.923096 298.433563,733.135925 
	C296.481384,735.950134 293.991089,735.451172 291.619751,735.525879 
	C280.332092,735.881409 269.046692,736.307251 257.380249,736.854004 
	C241.645767,737.000000 226.291550,737.000000 210.468658,737.000000 
z"/>
<path fill="#000000" opacity="1.000000" stroke="none" 
	d="
M319.950684,409.020844 
	C322.511597,408.048187 324.250946,408.891876 325.881714,411.094177 
	C342.011200,432.876495 349.271362,457.107727 346.790436,484.246918 
	C346.054382,492.298401 344.476746,500.032959 341.355286,507.469543 
	C340.837830,508.702362 340.334351,509.944672 341.217316,511.262817 
	C344.875000,516.723328 343.097046,522.199158 340.966553,527.501343 
	C337.624237,535.819275 332.419128,542.928101 325.861725,549.012817 
	C322.923248,551.739563 321.569672,554.830627 320.995178,558.946106 
	C317.753845,582.166931 313.802704,605.290039 310.662506,628.523315 
	C308.412811,645.168335 307.004028,661.928772 305.316406,678.647400 
	C304.112823,690.570862 303.358551,702.548279 301.805664,714.423340 
	C301.220764,718.896179 302.339417,720.025269 306.527405,719.955383 
	C329.693054,719.568909 352.847900,720.321594 375.997101,721.036133 
	C382.024536,721.222229 388.184784,721.150330 395.197662,723.254822 
	C391.678864,724.873657 389.082367,724.853271 386.513214,724.971863 
	C361.871185,726.109070 337.214233,726.348877 312.549835,726.301208 
	C241.385666,726.163635 170.221390,726.078613 99.057213,725.944824 
	C96.732010,725.940430 94.407700,725.626343 92.082336,725.465942 
	C90.871696,725.382446 89.681648,725.285706 89.649223,723.643127 
	C89.620697,722.197571 90.593788,721.474243 91.773521,721.256775 
	C93.399033,720.957031 95.076073,720.865845 96.734413,720.826111 
	C113.390381,720.426880 130.067017,721.242371 146.706924,719.994507 
	C148.665558,719.847656 151.561996,720.759888 151.585327,717.331360 
	C151.609711,713.748962 148.700928,714.288452 146.460373,714.279968 
	C134.621231,714.234802 123.004196,712.226868 111.458305,710.866394 
	C110.351868,707.825928 112.084610,705.978088 113.197372,704.026489 
	C126.950836,679.906006 143.482620,657.779480 161.668228,636.861145 
	C177.086685,619.125732 193.361725,602.175659 209.517258,585.119507 
	C211.683075,582.833008 213.574921,579.884155 217.683075,579.414978 
	C217.678070,583.268127 215.145828,585.190430 213.294479,587.251038 
	C204.943268,596.545776 196.501343,605.763245 187.923965,614.849854 
	C163.046295,641.204346 140.165955,669.113098 121.166061,700.064270 
	C120.237640,701.576660 118.827393,702.914124 118.889526,705.012573 
	C121.419388,707.054749 124.551910,706.699463 127.442406,707.013794 
	C133.891266,707.715149 140.368134,708.158813 146.833313,708.710754 
	C149.439682,708.933167 150.923187,708.107666 152.031052,705.351013 
	C157.298401,692.244873 171.922791,684.083252 185.955170,686.054688 
	C195.876022,687.448425 201.555984,695.360168 200.824142,706.899780 
	C200.563385,711.011719 200.049866,715.103149 198.772629,719.234192 
	C202.228058,720.256409 204.153976,720.207642 204.859772,715.971558 
	C206.896988,703.744568 212.110260,692.464661 216.167358,680.847473 
	C220.173935,669.375000 224.322189,657.957458 227.091995,646.097229 
	C227.538101,644.187012 227.927231,642.070190 230.621033,641.779053 
	C232.702927,643.036987 232.755432,645.348755 233.308212,647.364258 
	C237.537186,662.783203 239.686783,678.645081 243.250427,694.205933 
	C244.962784,701.683044 247.093964,709.034485 250.273331,716.044861 
	C251.116623,717.904297 251.973190,719.796875 254.425507,719.801270 
	C267.213776,719.824158 280.002136,719.811890 292.650116,719.811890 
	C293.545410,717.096924 292.616394,715.251282 292.055786,713.393921 
	C280.218170,674.177002 267.814301,635.143127 254.200806,596.501099 
	C253.592300,594.773865 253.023987,593.031189 252.488129,591.280029 
	C251.939331,589.486450 251.344055,587.456665 253.503601,586.442749 
	C255.925766,585.305298 256.742981,587.556763 257.467773,589.102356 
	C259.516815,593.471802 261.628876,597.842407 263.239777,602.381592 
	C273.986481,632.663574 283.383820,663.389526 293.175812,693.985413 
	C294.286499,697.455811 295.345367,700.942871 297.076904,704.461548 
	C299.664490,655.356140 307.677460,606.985291 316.179871,557.706421 
	C311.185150,559.574036 307.563507,562.985229 303.297211,562.230042 
	C296.199036,560.973572 290.452209,563.842834 284.388153,566.578918 
	C273.033203,571.702271 261.085785,574.289917 248.558258,574.464905 
	C244.171448,574.526184 239.013535,573.593750 236.124756,578.922363 
	C239.384308,584.419434 244.190994,588.665710 247.835983,593.807190 
	C249.280273,595.844482 250.730118,597.878357 252.139633,599.939636 
	C255.649323,605.072205 255.552856,609.962036 251.847229,615.148865 
	C247.009476,621.920349 242.784103,629.128296 237.972610,635.919922 
	C234.942551,640.197021 232.751236,640.249817 229.082458,636.480164 
	C221.811676,629.009338 216.706924,619.989136 211.429306,611.108276 
	C210.482437,609.515015 210.684280,607.900269 211.437851,606.325073 
	C216.856216,594.999451 224.080688,584.886780 232.039154,574.840088 
	C229.347046,574.362915 226.318924,573.917542 223.331100,573.282532 
	C195.358261,567.337830 171.562271,554.284363 153.562134,531.689209 
	C140.128586,514.826477 136.882919,494.968231 137.913681,474.185730 
	C139.007858,452.124420 145.509674,431.702179 157.823746,413.219574 
	C168.169403,397.691467 181.707825,386.304016 199.981979,381.554626 
	C207.520218,379.595459 211.671219,374.672852 215.422409,368.501038 
	C224.808929,353.057373 237.468369,341.007385 253.809952,333.056702 
	C257.167603,331.423126 260.653473,329.648529 264.878967,331.478424 
	C264.228333,334.252808 261.818665,334.627533 260.048615,335.483002 
	C243.660583,343.403442 229.655212,354.039642 220.199387,369.956085 
	C219.519638,371.100311 218.813477,372.230652 218.185165,373.402588 
	C217.967850,373.807922 217.949921,374.320190 217.672867,375.498047 
	C227.115112,373.510742 236.210953,373.590820 244.065323,366.401947 
	C255.670837,355.779785 269.078400,347.554382 285.196228,345.118744 
	C288.049225,344.687622 288.042969,344.646149 292.680084,345.935272 
	C275.362061,353.116089 258.503723,359.169769 244.250824,372.703430 
	C248.408249,372.703430 251.342972,372.918579 254.236877,372.665955 
	C266.311829,371.611725 277.329559,374.765350 287.714813,380.694366 
	C291.620728,382.924255 295.546509,385.125031 299.530426,387.210846 
	C302.623108,388.830109 302.876923,390.982300 301.241058,393.787872 
	C299.406158,396.934906 297.566101,394.786713 295.859863,393.775757 
	C286.538696,388.252747 277.154480,382.923523 266.673004,379.771484 
	C259.617950,377.649872 252.452454,378.617828 245.323608,378.390198 
	C228.063751,377.839111 211.566833,381.780975 195.558121,387.616364 
	C173.734741,395.571320 161.297623,412.872314 152.753708,433.295013 
	C143.291214,455.913422 141.313507,479.397949 147.282532,503.251221 
	C151.277954,519.217529 161.052979,531.558350 173.628143,541.756653 
	C201.575195,564.421265 233.243881,572.677307 268.614471,565.523560 
	C275.104340,564.210999 281.340515,561.637207 287.685913,559.620850 
	C289.790619,558.952087 291.289551,557.484741 291.238861,555.281860 
	C291.067719,547.848694 294.915558,542.225464 299.458466,537.051147 
	C308.849945,526.354187 319.206360,516.731934 331.977631,510.106262 
	C334.309082,508.896790 335.357513,507.050842 336.041870,504.749542 
	C343.761658,478.790771 341.572815,453.795563 328.751129,429.839813 
	C325.915253,424.541382 322.758789,419.428772 318.978424,414.757935 
	C317.189514,412.547638 317.372040,410.981812 319.823273,409.243530 
	C319.987946,408.996918 319.950684,409.020844 319.950684,409.020844 
M161.989304,719.869629 
	C170.154968,719.875916 178.320633,719.881470 186.486298,719.889038 
	C188.670883,719.891113 190.765381,719.830811 192.471222,718.042603 
	C197.779114,712.478516 195.836441,697.252258 189.245148,693.233887 
	C178.755295,686.838562 159.722565,694.438477 156.535324,706.295105 
	C154.894913,712.397461 156.841934,718.155579 161.989304,719.869629 
M334.801086,529.240723 
	C336.335419,525.743286 338.184143,522.287292 337.352264,518.276794 
	C336.634064,514.814392 334.939178,513.304932 331.372528,515.453125 
	C318.510651,523.199829 307.607422,533.062134 299.119781,545.462036 
	C297.133118,548.364502 295.491241,552.018433 298.470642,555.089111 
	C301.440277,558.149719 305.185822,557.183655 308.658905,555.438416 
	C320.027100,549.726135 328.707520,541.298584 334.801086,529.240723 
z"/>
<path fill="#000000" opacity="1.000000" stroke="none" 
	d="
M502.158630,188.010574 
	C493.845673,195.262421 493.232635,204.176849 494.072662,214.139236 
	C495.072968,226.002075 494.074219,237.829941 486.823730,248.138367 
	C475.464447,264.288513 459.214172,271.134766 440.190369,272.165619 
	C427.974182,272.827606 415.847626,271.821075 404.652069,266.137299 
	C401.690735,264.633911 400.411133,266.661133 398.774963,268.249573 
	C385.656586,280.985016 370.385712,289.876038 352.186737,292.620422 
	C330.637024,295.870056 310.904205,292.644104 296.412811,274.140686 
	C295.183594,272.571136 293.610107,271.066132 292.991943,269.259033 
	C290.503601,261.984985 284.973907,258.010345 278.736206,254.129166 
	C265.551086,245.925217 254.994446,235.169785 247.233459,221.392731 
	C236.087326,201.606430 236.558319,182.212402 246.366989,162.251846 
	C252.296341,150.185715 260.239563,139.988266 271.652100,132.144257 
	C267.707153,124.414116 265.162811,116.507835 264.282257,107.913406 
	C261.871124,84.379509 274.076019,67.101768 297.308167,62.708439 
	C302.142822,61.794178 305.071625,59.766418 307.789398,55.673519 
	C322.712219,33.199890 343.154022,18.154490 369.782715,12.764121 
	C396.566223,7.342410 418.125366,19.134089 429.322662,44.909069 
	C431.521118,49.969666 433.478851,50.552059 438.419189,48.716656 
	C456.237000,42.097061 477.302551,46.715462 488.090851,59.478622 
	C502.716309,76.781380 504.437805,105.325714 487.518311,122.556572 
	C486.952759,123.132507 486.505157,123.824226 485.723358,124.816261 
	C488.759735,126.845665 491.883942,128.362900 494.513794,130.643646 
	C509.521240,143.659134 513.889404,164.595856 505.150177,182.398041 
	C504.270264,184.190521 503.272278,185.925049 502.158630,188.010574 
M487.789520,113.241272 
	C491.946777,106.086693 493.517609,98.356239 492.691040,90.169167 
	C491.293121,76.322678 482.802673,58.163326 465.734131,53.989670 
	C458.859131,52.308575 451.845947,51.610535 444.911987,52.590195 
	C439.509613,53.353466 432.660522,53.071716 432.719910,61.873127 
	C429.049561,60.365948 428.002747,57.407356 426.582184,54.911911 
	C422.629303,47.967995 419.382385,40.588654 414.278473,34.356564 
	C403.766296,21.520714 390.219543,15.445136 373.708038,17.950315 
	C347.619659,21.908535 327.120331,35.245354 312.426666,57.069523 
	C307.722900,64.055893 302.113312,68.181305 293.676575,69.503311 
	C282.772064,71.212013 275.150665,77.665871 271.938354,88.440521 
	C267.848267,102.159348 270.140320,115.143913 277.644867,127.162704 
	C280.689941,132.039444 280.935486,132.139328 275.611450,134.688354 
	C272.097412,136.370804 269.135742,138.749847 266.420197,141.480087 
	C257.400848,150.548080 251.644943,161.588791 247.665573,173.548615 
	C243.973450,184.645126 244.079010,195.910278 248.599869,206.766434 
	C255.425598,223.157440 265.946564,236.690933 280.991516,246.411652 
	C283.749817,248.193832 286.202881,251.491943 290.298798,249.114365 
	C291.067078,248.668411 292.119110,249.302567 292.378815,250.065384 
	C293.858429,254.411835 298.116913,256.343658 300.623291,259.376984 
	C300.638000,261.616241 297.635376,260.676605 297.904297,263.031250 
	C298.785522,264.336365 299.751923,265.892273 300.846558,267.352020 
	C301.843597,268.681641 302.937134,269.946014 304.061157,271.172211 
	C320.751007,289.379395 341.527557,289.617798 363.072693,283.621918 
	C375.684845,280.112000 386.735687,273.004578 396.351318,263.955322 
	C400.433990,260.113159 404.422699,258.796265 410.279114,261.101715 
	C427.340576,267.818237 444.833221,267.988647 462.024994,261.482697 
	C473.015320,257.323578 482.427765,250.303162 485.428253,238.543076 
	C488.890686,224.972610 489.819641,210.955566 484.791718,197.262619 
	C484.095490,195.366547 482.815918,193.438919 483.803833,191.217117 
	C485.674988,191.039505 486.895813,192.017227 488.012604,192.926880 
	C490.060455,194.594986 491.368530,194.027359 492.981262,192.152481 
	C508.878723,173.671082 506.073883,142.996353 482.636414,130.773209 
	C482.045959,130.465286 481.425751,130.205505 480.864868,129.851273 
	C477.923065,127.993095 476.819397,126.000984 480.089661,123.290718 
	C483.202484,120.710945 485.343140,117.296127 487.789520,113.241272 
z"/>
<path fill="#000000" opacity="1.000000" stroke="none" 
	d="
M341.790955,357.194031 
	C333.604889,347.934235 333.784241,339.684601 342.138092,329.413696 
	C348.856995,321.152985 360.048889,318.641357 368.760284,323.790985 
	C377.359711,328.874451 378.993988,337.211365 378.173889,346.285492 
	C377.474060,354.028809 371.030487,360.716095 362.485535,363.075867 
	C354.561066,365.264313 347.736755,363.402924 341.790955,357.194031 
M371.919006,344.506226 
	C371.809326,343.012390 371.819824,341.498138 371.570435,340.027985 
	C369.932434,330.372070 358.910797,324.053009 350.807129,328.083527 
	C343.694794,331.621033 339.439941,340.591461 341.968384,346.717987 
	C345.086151,354.272491 355.078156,359.355042 362.560974,357.192596 
	C368.749237,355.404297 371.504974,351.927765 371.919006,344.506226 
z"/>
<path fill="#000000" opacity="1.000000" stroke="none" 
	d="
M266.706940,499.762695 
	C247.910782,509.502747 229.441528,519.063660 210.970444,528.621033 
	C209.788513,529.232605 208.606522,529.847290 207.398788,530.404724 
	C206.333878,530.896301 205.079590,531.499634 204.278137,530.202698 
	C203.428238,528.827332 204.174805,527.615662 205.353622,526.778198 
	C206.843597,525.719727 208.345963,524.645569 209.958221,523.797180 
	C236.313675,509.928925 262.695404,496.110626 289.047516,482.236084 
	C292.724731,480.300018 296.221680,478.020966 299.903229,476.093964 
	C302.853271,474.549866 305.241547,474.155853 305.460205,478.902344 
	C305.586761,481.651062 306.930511,484.322571 307.424347,487.082916 
	C307.750519,488.906128 307.529480,490.999115 305.377136,491.671234 
	C302.982300,492.419098 302.320740,490.318024 301.506531,488.705322 
	C300.762115,487.230927 300.059021,485.735718 298.892548,483.332581 
	C288.170288,488.801605 277.601837,494.192139 266.706940,499.762695 
z"/>
<path fill="#000000" opacity="1.000000" stroke="none" 
	d="
M258.853516,443.136841 
	C262.684753,433.775818 267.528687,431.070435 276.902130,432.916595 
	C282.076233,433.935638 284.848846,437.361237 285.783936,442.418335 
	C286.689362,447.315369 284.363831,452.790283 280.025238,455.213745 
	C273.962189,458.600433 267.763794,458.025970 262.068420,454.519806 
	C258.054352,452.048645 257.443115,447.917114 258.853516,443.136841 
z"/>
<path fill="#000000" opacity="1.000000" stroke="none" 
	d="
M228.277634,451.603333 
	C225.294678,460.238800 215.062042,464.839661 207.043640,461.554047 
	C202.039948,459.503693 200.189529,453.876892 202.578659,447.976837 
	C205.700073,440.268341 217.237778,436.630127 224.332748,441.097534 
	C228.141281,443.495636 228.553406,447.203369 228.277634,451.603333 
z"/>
<path fill="#000000" opacity="1.000000" stroke="none" 
	d="
M320.003754,408.981506 
	C318.127869,409.574951 316.268341,410.325012 314.338074,410.764587 
	C309.687653,411.823608 306.110809,409.997925 303.901825,405.975555 
	C299.601868,398.145721 304.900116,386.042908 313.477539,383.708038 
	C319.720642,382.008575 323.667969,382.997040 326.435852,386.953064 
	C329.456818,391.270782 329.477722,398.037933 326.184937,402.377838 
	C324.494446,404.605896 322.331146,406.475189 320.166077,408.763733 
	C319.950684,409.020844 319.987946,408.996918 320.003754,408.981506 
M308.015167,397.500061 
	C308.532440,402.869598 311.150177,405.900330 314.821533,405.380310 
	C319.085632,404.776306 322.810486,400.290894 322.735504,395.835114 
	C322.667389,391.789734 320.664276,389.146515 316.688599,388.514343 
	C312.308746,387.817963 309.021393,391.081787 308.015167,397.500061 
z"/>
<path fill="#000000" opacity="1.000000" stroke="none" 
	d="
M297.581024,423.883240 
	C299.935974,424.868134 302.515503,425.640350 301.643646,428.399719 
	C300.726959,431.300934 297.984741,430.837769 295.706482,430.292603 
	C282.493866,427.131012 270.041992,429.573914 257.997009,435.229736 
	C256.557739,435.905579 255.240082,437.207520 253.149338,436.055115 
	C252.576263,432.824432 255.026947,431.551239 257.241364,430.227264 
	C269.692444,422.783142 283.181274,421.689636 297.581024,423.883240 
z"/>
<path fill="#000000" opacity="1.000000" stroke="none" 
	d="
M226.154999,435.430176 
	C215.647766,437.166199 205.401779,435.553040 195.312836,437.053467 
	C194.019745,437.245789 192.406235,437.148804 192.060745,435.481873 
	C191.689041,433.688446 193.028641,432.651337 194.502808,432.197723 
	C196.398636,431.614319 198.385025,431.116730 200.354431,431.016907 
	C209.001663,430.578674 217.654846,430.199219 226.310440,430.021118 
	C228.773453,429.970428 232.799545,429.122864 232.951904,432.420837 
	C233.107529,435.789429 229.111191,435.078796 226.154999,435.430176 
z"/>
<path fill="#000000" opacity="1.000000" stroke="none" 
	d="
M116.189247,728.976074 
	C125.382080,729.080688 134.151474,728.145081 143.046036,730.093567 
	C139.631714,733.129333 102.038559,735.101685 97.737434,732.187195 
	C103.577240,728.488953 109.949203,730.163147 116.189247,728.976074 
z"/>
<path fill="#000000" opacity="1.000000" stroke="none" 
	d="
M342.874908,168.050598 
	C336.924561,159.121780 332.610138,150.019409 334.179749,139.262939 
	C337.335297,117.638519 359.987183,103.678192 381.503174,110.189049 
	C391.867981,113.325500 400.244537,119.467339 406.435211,128.404327 
	C414.199432,139.612854 414.215088,151.900024 407.432983,162.755508 
	C400.476746,173.889725 399.462646,186.210739 396.438446,198.180634 
	C394.351532,206.440552 390.550049,213.917969 386.760773,221.417328 
	C385.193329,224.519485 381.236176,224.972794 379.265198,228.486618 
	C377.564911,231.517853 373.219604,230.733398 369.046234,228.962418 
	C360.692749,225.417587 360.592468,218.399780 358.670044,211.440826 
	C356.584900,203.892654 359.399109,195.893677 355.020569,188.494629 
	C351.049225,181.783676 347.609192,174.746796 342.874908,168.050598 
M366.799408,113.339684 
	C356.521484,114.173050 349.125305,119.629898 343.659424,127.992416 
	C336.485779,138.967789 339.658752,149.408859 345.973389,159.300552 
	C352.962036,170.248199 359.025421,181.613663 363.640320,193.754425 
	C364.366364,195.664474 365.348938,197.530548 367.748383,197.587265 
	C372.563141,197.701096 377.397980,198.262985 382.178131,197.125839 
	C391.883331,194.817078 392.205200,194.274338 393.750305,184.402008 
	C394.924286,176.900833 396.201050,169.571747 401.364044,163.197723 
	C406.584229,156.753128 407.193634,148.388870 405.074493,140.765121 
	C401.347687,127.357582 382.781097,111.369118 366.799408,113.339684 
M371.804840,206.750031 
	C377.085999,206.607361 382.381775,207.019714 387.624359,205.823822 
	C391.373291,204.968613 392.759827,202.834412 392.298798,198.416321 
	C382.570831,203.067017 372.568420,202.418259 362.353210,201.882538 
	C364.382690,206.083725 364.861908,206.330215 371.804840,206.750031 
M378.801758,214.425323 
	C386.103821,213.082657 386.103821,213.082657 388.109558,209.498795 
	C380.318176,213.156937 372.368713,210.356720 363.680481,212.219604 
	C368.802795,216.121201 373.530640,214.287430 378.801758,214.425323 
M379.196136,221.860840 
	C381.830292,221.467361 383.819519,220.362717 384.399750,216.831787 
	C378.735229,219.296982 373.050629,219.836441 366.399994,220.809616 
	C370.989410,223.146317 374.672791,222.932861 379.196136,221.860840 
z"/>
<path fill="#000000" opacity="1.000000" stroke="none" 
	d="
M426.931702,175.162933 
	C428.549713,172.626602 430.668427,173.434723 432.380188,174.184647 
	C439.911102,177.483948 447.789734,179.257217 455.920166,180.121872 
	C456.899689,180.226028 457.871033,180.539062 458.810059,180.860687 
	C460.105865,181.304520 461.396149,181.953476 461.256531,183.572372 
	C461.117706,185.182114 459.649506,185.554993 458.386719,185.929840 
	C457.603790,186.162231 456.753143,186.234726 455.930084,186.252991 
	C447.832886,186.432739 440.066132,184.991989 432.887329,181.137238 
	C430.445801,179.826218 427.840271,178.506271 426.931702,175.162933 
z"/>
<path fill="#000000" opacity="1.000000" stroke="none" 
	d="
M444.264160,92.328644 
	C435.077301,98.946388 426.181366,105.358467 417.288696,111.768196 
	C415.170135,108.855820 416.645538,107.641579 417.810303,106.594658 
	C427.863922,97.558105 439.152191,90.234482 450.612244,83.159958 
	C451.441772,82.647873 452.389282,82.169624 453.564453,83.299446 
	C451.540985,87.203598 447.791840,89.415108 444.264160,92.328644 
z"/>
<path fill="#000000" opacity="1.000000" stroke="none" 
	d="
M455.040619,140.263855 
	C446.747925,141.740921 439.086304,144.728104 430.715393,144.210724 
	C432.353607,138.287598 459.595825,131.935501 465.485107,135.860077 
	C463.027039,139.487549 458.772491,138.834641 455.040619,140.263855 
z"/>
<path fill="#000000" opacity="1.000000" stroke="none" 
	d="
M331.220703,81.844994 
	C335.561310,89.957024 341.516083,97.022957 342.571198,107.307838 
	C334.347870,102.334343 323.775330,81.525467 326.165741,76.236748 
	C328.784607,77.109100 329.704681,79.524925 331.220703,81.844994 
z"/>
<path fill="#000000" opacity="1.000000" stroke="none" 
	d="
M320.411316,169.746933 
	C311.796265,173.017319 303.262177,175.169159 294.558777,176.671783 
	C292.834259,176.969513 290.638733,177.990234 289.875793,175.490723 
	C289.077118,172.874100 291.552185,172.582245 293.179779,172.089218 
	C301.785919,169.482330 310.604797,167.782761 319.440125,166.177536 
	C320.749847,165.939606 322.103485,165.842743 323.198303,167.095596 
	C323.406586,168.878601 321.805725,168.983719 320.411316,169.746933 
z"/>
<path fill="#000000" opacity="1.000000" stroke="none" 
	d="
M385.426025,63.831757 
	C383.823975,74.603928 383.206787,85.156563 380.192505,95.172379 
	C377.284027,94.983963 376.989197,93.291008 377.171875,91.893242 
	C378.438721,82.198753 379.827148,72.519478 381.278320,62.850594 
	C381.467316,61.591274 382.051239,60.015202 383.666077,60.058949 
	C385.894470,60.119316 385.445679,61.982170 385.426025,63.831757 
z"/>
<path fill="#000000" opacity="1.000000" stroke="none" 
	d="
M300.262756,129.930450 
	C298.805573,129.045929 297.457336,128.527512 296.653351,127.557800 
	C295.188232,125.790619 296.076782,123.707275 298.050354,124.215050 
	C306.482605,126.384583 315.280640,127.486664 323.011841,131.925446 
	C323.210144,132.039291 323.195038,132.524780 323.475861,133.563126 
	C315.308960,135.316803 307.980499,132.560852 300.262756,129.930450 
z"/>
<path fill="#000000" opacity="1.000000" stroke="none" 
	d="
M389.939178,152.034637 
	C381.825226,149.899368 373.706451,152.343262 365.577667,152.144424 
	C363.002960,152.081451 360.185089,156.868561 357.766235,151.107803 
	C366.344391,164.142456 373.140198,177.363220 373.674774,192.791000 
	C373.213776,192.972778 372.752777,193.154556 372.291779,193.336334 
	C369.972260,188.290375 367.533356,183.295135 365.362122,178.186157 
	C362.361267,171.125092 359.143951,164.165649 355.292542,157.541656 
	C353.015961,153.626236 354.087677,150.627960 356.851898,147.709854 
	C357.080566,147.468460 357.399536,147.008118 357.562988,147.054001 
	C361.482941,148.154419 365.721008,144.612595 369.291138,147.410645 
	C371.608154,149.226562 372.349609,146.436981 374.138184,146.614700 
	C377.863403,146.984863 381.664520,146.753448 385.424103,146.564056 
	C388.331268,146.417587 389.478973,148.394089 390.696686,150.872772 
	C390.428864,151.582367 390.184021,151.808502 389.939178,152.034637 
z"/>
<path fill="#000000" opacity="1.000000" stroke="none" 
	d="
M389.805237,152.358246 
	C390.184021,151.808502 390.428864,151.582367 390.841675,151.171265 
	C393.908386,151.250488 393.565277,153.397781 392.928680,155.025558 
	C388.369446,166.684219 385.409882,178.673401 384.843109,191.217987 
	C384.817657,191.780853 384.220734,192.317902 383.587219,193.369614 
	C379.323730,190.656342 379.504761,186.705429 380.039795,182.849731 
	C381.510040,172.253937 384.800507,162.207886 389.805237,152.358246 
z"/>
</svg>