<svg version="1.1" id="Layer_1" xmlns="http://www.w3.org/2000/svg" xmlns:xlink="http://www.w3.org/1999/xlink" x="0px" y="0px"
	 width="100%" viewBox="0 0 612 408" enable-background="new 0 0 612 408" xml:space="preserve">
<path fill="none" opacity="1.000000" stroke="#000000" stroke-linecap="round" stroke-linejoin="round" stroke-width="3.000000"
	d="
M361.000000,121.000000 
	C359.925842,119.962975 360.218750,118.424744 360.588165,117.536674 
	C363.130981,111.423515 362.767548,104.747513 364.508026,98.502235 
	C365.993500,93.171997 368.813049,88.641579 372.463593,84.468155 
	C382.734558,72.726036 393.083710,61.036320 402.904480,48.922565 
	C408.641266,41.846355 415.726868,38.814266 424.498779,38.468960 
	C433.670898,38.107903 442.853516,36.870922 451.994720,37.164215 
	C462.670197,37.506733 473.334900,37.237896 483.999908,37.503925 
	C490.207703,37.658768 494.955017,40.182789 498.547424,45.467754 
	C515.558289,70.493027 530.319336,96.804878 543.443359,124.027313 
	C552.028625,141.835251 559.079529,160.275299 565.675659,178.937912 
	C571.087219,194.248871 576.425171,209.594376 581.327148,225.054794 
	C585.599426,238.529083 588.353882,252.481354 590.505127,266.499207 
	C590.633911,267.338287 590.545105,268.120941 590.925598,269.031097 
	C594.184631,276.826324 591.554260,283.587189 586.413147,289.423492 
	C583.720947,292.479706 582.734375,296.635040 580.308594,299.327545 
	C570.602661,310.100311 563.740784,322.768982 555.621521,334.583496 
	C554.949707,335.561127 554.205261,336.533691 553.425598,337.435699 
	C553.361023,337.510376 551.347351,338.471985 551.500000,336.500000 
"/>
<path fill="none" opacity="1.000000" stroke="#000000" stroke-linecap="round" stroke-linejoin="round" stroke-width="3.000000"
	d="
M91.500000,81.500000 
	C89.845573,81.536713 88.510948,81.784706 86.925774,82.893929 
	C72.291580,93.134178 58.620949,104.592674 47.664436,118.628357 
	C35.756981,133.882263 28.229784,151.461319 23.866951,170.469467 
	C21.358072,181.400253 19.498079,192.342117 19.593466,203.499207 
	C19.684141,214.105576 21.170609,224.627106 23.501795,234.999603 
	C25.810179,245.270645 28.389072,255.412979 32.939568,265.028595 
	C41.755882,283.658295 54.475597,298.254333 72.879257,308.222900 
	C81.020096,312.632507 89.245087,316.383087 98.020096,318.930786 
	C108.618462,322.007843 119.492424,323.206940 130.493317,321.457916 
	C135.199982,320.709625 139.851913,319.575623 144.484512,318.436951 
	C145.424896,318.205872 146.642624,317.326752 146.928787,316.476044 
	C151.416351,303.135406 160.874832,292.882568 168.563797,281.543274 
	C169.269714,280.502197 169.566910,279.633423 169.500000,278.500000 
"/>
<path fill="none" opacity="1.000000" stroke="#000000" stroke-linecap="round" stroke-linejoin="round" stroke-width="3.000000"
	d="
M238.000000,93.000000 
	C236.469086,93.349930 235.209732,92.754059 234.527603,91.485161 
	C229.252884,81.673027 220.591400,76.231659 210.507233,72.480553 
	C198.340500,67.954773 186.321976,62.522552 173.472824,60.690617 
	C152.527588,57.704395 131.907944,58.693470 112.405449,68.817863 
	C106.390411,71.940468 100.717552,75.494896 95.063942,79.100266 
	C91.701385,81.244614 89.898621,85.167923 87.088928,88.085632 
	C74.557877,101.098480 64.548538,115.878578 58.585476,133.029724 
	C55.061356,143.165909 53.529106,153.838928 52.563679,164.505768 
	C51.487480,176.396500 52.533314,188.288345 54.588665,199.984421 
	C58.297501,221.089752 67.764488,239.190079 84.535675,252.956543 
	C90.644730,257.971100 96.786545,262.954376 103.959061,266.580963 
	C110.868103,270.074341 118.169510,272.250916 125.483566,274.552216 
	C130.279205,276.061096 135.594635,275.615265 140.000000,278.500000 
"/>
<path fill="none" opacity="1.000000" stroke="#000000" stroke-linecap="round" stroke-linejoin="round" stroke-width="3.000000"
	d="
M527.000000,134.000000 
	C527.809448,131.918655 527.620300,130.004349 526.541870,127.977707 
	C524.722656,124.558899 523.225952,120.970055 521.479248,117.510468 
	C520.304626,115.184021 518.454041,113.804222 516.250244,112.163803 
	C509.997345,107.509377 504.558807,101.922340 501.249939,94.105858 
	C496.878601,83.779442 492.272430,73.362137 485.062897,64.449127 
	C483.472900,62.483440 481.817352,61.938511 479.499603,61.973194 
	C464.833740,62.192677 450.165131,62.252865 435.500610,62.532047 
	C427.495605,62.684448 427.226013,63.471020 425.388550,71.474411 
	C423.943542,77.768494 421.508759,83.836189 419.498291,89.999451 
	C413.985077,106.900826 410.462891,124.324074 406.039307,141.510117 
	C403.651611,150.786560 401.602661,160.152847 399.579193,169.517120 
	C399.319946,170.716965 398.582458,171.216141 398.000000,172.000000 
"/>
<path fill="none" opacity="1.000000" stroke="#000000" stroke-linecap="round" stroke-linejoin="round" stroke-width="3.000000"
	d="
M421.500000,60.500000 
	C414.500000,86.166672 407.358185,111.795921 400.571808,137.518951 
	C397.964294,147.402634 396.155853,157.497696 394.020569,167.504379 
	C393.849823,168.304443 393.263367,168.885452 393.917969,170.046265 
	C397.771851,176.880371 392.989990,182.789719 391.358337,188.962555 
	C390.742462,191.292526 388.725159,193.270889 389.000000,196.000000 
"/>
<path fill="none" opacity="1.000000" stroke="#000000" stroke-linecap="round" stroke-linejoin="round" stroke-width="3.000000"
	d="
M410.500000,43.500000 
	C409.834991,50.646790 406.711060,57.130901 404.958466,63.989384 
	C398.592316,88.902046 389.715973,113.124901 384.874481,138.476028 
	C383.158936,147.459183 380.050354,156.181351 377.481506,164.994598 
	C375.896240,170.433258 375.575195,170.512146 370.500000,168.000000 
"/>
<path fill="none" opacity="1.000000" stroke="#000000" stroke-linecap="round" stroke-linejoin="round" stroke-width="3.000000"
	d="
M513.000000,106.500000 
	C514.267639,104.333336 514.283142,102.488914 513.119202,99.945465 
	C507.395996,87.439613 499.746857,76.087082 492.413605,64.554932 
	C490.486298,61.524094 487.728546,58.887810 484.925690,56.590687 
	C482.790039,54.840351 479.846161,53.782494 477.017822,54.564438 
	C470.712524,56.307636 464.329163,55.437210 458.000122,55.425671 
	C446.776154,55.405212 435.669373,56.893211 424.496399,57.424339 
	C422.786713,57.505615 423.051697,59.106289 422.000000,59.500000 
"/>
<path fill="none" opacity="1.000000" stroke="#000000" stroke-linecap="round" stroke-linejoin="round" stroke-width="8.000000"
	d="
M146.000000,100.000000 
	C144.950836,102.068352 142.745773,101.806221 141.006317,102.515503 
	C121.620117,110.420410 109.190880,124.535255 102.932289,144.478745 
	C99.234680,156.261475 96.035408,167.996033 98.000633,180.499893 
	C98.770859,185.400497 99.648170,190.428925 102.631065,194.401581 
	C104.640099,197.077240 105.461639,199.426254 104.500000,202.500000 
"/>
<path fill="none" opacity="1.000000" stroke="#000000" stroke-linecap="round" stroke-linejoin="round" stroke-width="3.000000"
	d="
M72.000000,153.500000 
	C68.875893,161.432907 69.040024,169.800949 69.636009,177.990097 
	C70.489937,189.723724 72.892418,201.161392 77.896286,212.047668 
	C82.470093,221.998276 88.575600,230.447784 96.898254,237.618103 
	C101.716370,241.769104 106.659721,245.593094 111.966644,249.051193 
	C114.450325,250.669601 116.793343,251.216568 119.500000,250.000000 
"/>
<path fill="none" opacity="1.000000" stroke="#000000" stroke-linecap="round" stroke-linejoin="round" stroke-width="8.000000"
	d="
M447.000000,199.000000 
	C444.666656,199.166656 442.256012,199.023285 440.020203,199.580994 
	C437.411987,200.231628 436.032776,201.872742 435.357178,204.968842 
	C432.178009,219.538834 428.544403,234.010956 424.971252,248.492905 
	C423.978821,252.515213 417.291718,255.179871 413.015717,253.215759 
	C406.483368,250.215210 400.899017,252.139908 396.080841,256.587585 
	C393.918549,258.583618 391.873444,259.570007 388.999573,259.535828 
	C381.369476,259.445099 373.735931,259.274231 366.477753,262.449158 
	C363.403290,263.794037 361.461639,260.528290 359.668976,259.260986 
	C353.990753,255.246841 348.774536,250.361588 348.500000,242.500000 
"/>
<path fill="none" opacity="1.000000" stroke="#000000" stroke-linecap="round" stroke-linejoin="round" stroke-width="3.000000"
	d="
M350.000000,73.500000 
	C343.322174,55.318581 329.183838,45.870667 311.506622,40.478336 
	C303.986084,38.184246 296.347595,36.802017 288.504272,37.544987 
	C278.399994,38.502129 268.530609,40.462601 260.006622,46.509338 
	C254.538040,50.388641 248.116989,52.488155 243.313858,57.832718 
	C236.681595,65.212616 232.049347,73.445175 228.500000,82.500000 
"/>
<path fill="none" opacity="1.000000" stroke="#000000" stroke-linecap="round" stroke-linejoin="round" stroke-width="3.000000"
	d="
M579.000000,283.000000 
	C568.689148,288.217407 559.609070,295.416809 549.589050,301.155457 
	C538.860962,307.299561 528.826355,314.656189 518.502319,321.503479 
	C510.990479,326.485626 503.488983,331.483582 496.007416,336.511017 
	C494.028107,337.841095 491.680328,338.846985 491.000000,341.500000 
"/>
<path fill="none" opacity="1.000000" stroke="#000000" stroke-linecap="round" stroke-linejoin="round" stroke-width="3.000000"
	d="
M587.500000,281.000000 
	C582.221497,288.223022 573.949463,291.514923 566.947754,296.425476 
	C548.100647,309.643524 529.006409,322.509369 509.988678,335.483398 
	C508.332031,336.613647 506.619568,337.579712 507.000000,340.000000 
"/>
<path fill="none" opacity="1.000000" stroke="#000000" stroke-linecap="round" stroke-linejoin="round" stroke-width="3.000000"
	d="
M458.500000,98.500000 
	C458.570770,100.176254 458.066711,101.815834 458.965515,103.518211 
	C466.745514,118.253716 473.057251,133.659454 479.431763,149.028305 
	C480.308075,151.141006 481.272186,153.563889 480.260223,155.814926 
	C470.175873,156.709137 460.334351,156.563370 450.500824,156.436554 
	C447.819824,156.401978 444.751343,157.715088 442.500000,155.000000 
"/>
<path fill="none" opacity="1.000000" stroke="#000000" stroke-linecap="round" stroke-linejoin="round" stroke-width="3.000000"
	d="
M294.500000,163.000000 
	C299.627716,167.870636 302.546265,174.306717 306.450165,180.033966 
	C315.732971,193.652313 325.337280,207.026291 335.942810,220.177872 
	C328.748749,225.405792 320.714447,226.271667 312.500000,226.500000 
"/>
<path fill="none" opacity="1.000000" stroke="#000000" stroke-linecap="round" stroke-linejoin="round" stroke-width="3.000000"
	d="
M351.500000,77.500000 
	C354.639221,92.290733 354.798553,107.009315 349.961121,121.487007 
	C347.297394,129.459167 342.072632,135.873032 336.025543,142.084702 
	C340.843048,146.372620 343.059875,152.567734 348.500000,156.000000 
"/>
<path fill="none" opacity="1.000000" stroke="#000000" stroke-linecap="round" stroke-linejoin="round" stroke-width="3.000000"
	d="
M317.000000,66.000000 
	C316.211487,63.223003 314.511261,62.093407 311.538544,61.346600 
	C304.425323,59.559616 297.391998,57.636768 290.000061,57.496891 
	C269.844330,57.115490 257.966827,73.277176 258.000000,89.500000 
"/>
<path fill="none" opacity="1.000000" stroke="#000000" stroke-linecap="round" stroke-linejoin="round" stroke-width="8.000000"
	d="
M301.500000,63.000000 
	C304.003693,62.571297 305.796234,64.460373 308.001831,64.992432 
	C310.802155,65.667976 313.403107,67.596786 316.494293,66.484154 
	C317.831299,66.002914 318.699829,66.996574 319.461487,67.552742 
	C338.642914,81.558777 342.597443,102.257759 327.473083,121.979362 
	C324.164093,126.294167 320.170624,130.003342 316.000854,133.501038 
	C311.622192,137.173981 311.563446,137.454239 314.502563,141.998352 
	C327.005859,161.329559 338.453125,181.341766 351.953644,200.033493 
	C352.973267,201.445206 353.585052,203.280243 353.950012,205.010544 
	C354.834930,209.205551 358.893280,211.638031 362.454529,209.426788 
	C367.631744,206.212204 372.553101,202.572693 377.480530,198.973373 
	C380.547577,196.733002 389.205505,195.940964 392.475159,198.038727 
	C394.236572,199.168839 395.903564,199.990997 398.000000,199.250000 
"/>
<path fill="none" opacity="1.000000" stroke="#000000" stroke-linecap="round" stroke-linejoin="round" stroke-width="8.000000"
	d="
M299.000000,119.500000 
	C299.188690,118.022018 300.501465,117.570770 301.517212,117.032478 
	C310.365112,112.343513 313.882141,105.731445 314.632477,95.509727 
	C315.433197,84.602119 309.698792,78.469406 300.985901,74.027672 
	C293.719208,70.323181 287.180328,73.436577 283.540588,82.516273 
	C278.907501,94.073898 282.036774,104.547493 288.447235,114.533867 
	C289.988159,116.934372 292.811340,115.877304 294.500000,117.500000 
"/>
<path fill="none" opacity="1.000000" stroke="#000000" stroke-linecap="round" stroke-linejoin="round" stroke-width="3.000000"
	d="
M204.500000,190.500000 
	C207.723160,184.169922 211.652969,178.308929 213.162750,171.033768 
	C215.517731,159.685791 214.860580,148.774170 210.955307,138.016220 
	C208.982193,132.580872 206.619461,127.336327 202.603348,122.906311 
	C201.187210,121.344208 200.031006,120.377518 198.000000,120.500000 
"/>
<path fill="none" opacity="1.000000" stroke="#000000" stroke-linecap="round" stroke-linejoin="round" stroke-width="3.000000"
	d="
M563.000000,283.000000 
	C556.991455,288.877533 549.815735,293.210876 542.976440,297.966095 
	C527.718506,308.574554 512.336670,319.004913 496.995972,329.494141 
	C494.957764,330.887726 493.268097,332.560150 490.535187,333.160217 
	C486.789886,333.982544 486.040100,337.997711 484.516632,341.008423 
	C483.790344,342.443695 483.884705,344.520233 480.741669,344.535645 
	C474.511536,332.992981 465.259399,322.918121 460.388153,310.042297 
	C458.338501,304.624603 456.784515,298.919708 453.504913,293.996735 
	C451.989563,291.722076 453.058777,289.607086 454.000000,287.500000 
"/>
<path fill="none" opacity="1.000000" stroke="#000000" stroke-linecap="round" stroke-linejoin="round" stroke-width="3.000000"
	d="
M202.000000,190.500000 
	C199.043091,185.654480 193.041702,184.645294 189.459030,180.535721 
	C188.072906,178.945755 186.225555,177.757904 185.155121,176.861496 
	C179.915756,182.068848 174.815384,187.138046 169.334427,192.585480 
	C169.204056,196.026260 171.604904,199.345795 175.021957,201.971436 
	C177.562347,203.923447 177.079483,207.118469 178.982971,209.711823 
	C165.437500,217.458328 151.644547,221.255463 136.511612,216.463333 
	C130.237656,214.476562 124.286865,211.639603 118.510780,208.480301 
	C117.025368,207.667801 115.647026,206.843460 114.000000,208.000000 
"/>
<path fill="none" opacity="1.000000" stroke="#000000" stroke-linecap="round" stroke-linejoin="round" stroke-width="3.000000"
	d="
M105.500000,197.500000 
	C109.277313,198.337738 111.453117,200.169586 112.138329,204.477997 
	C113.418037,212.524414 119.584999,216.591629 126.514717,219.464508 
	C134.169510,222.638000 142.484192,222.295868 150.466019,223.693985 
	C158.085693,225.028671 164.843307,223.898071 171.499588,220.499191 
	C175.049057,218.686737 178.845245,217.206650 181.000000,213.500000 
"/>
<path fill="none" opacity="1.000000" stroke="#000000" stroke-linecap="round" stroke-linejoin="round" stroke-width="3.000000"
	d="
M454.500000,95.000000 
	C464.127411,99.507431 467.524872,108.962845 471.326324,117.576645 
	C477.542877,131.662994 482.648193,146.239746 488.359558,160.963470 
	C487.293396,162.712112 484.990936,162.704849 482.994446,162.955841 
	C472.289978,164.301483 461.592743,164.044586 451.013947,161.930267 
	C447.591766,161.246307 444.288025,161.756989 441.019318,162.157532 
	C439.408051,162.354996 438.000000,162.418076 436.500000,162.000000 
"/>
<path fill="none" opacity="1.000000" stroke="#000000" stroke-linecap="round" stroke-linejoin="round" stroke-width="3.000000"
	d="
M75.000000,191.500000 
	C80.556152,211.772141 90.875488,228.572662 109.465973,239.557587 
	C114.232162,242.373886 119.268021,244.939209 120.672722,251.462814 
	C121.540596,255.493286 127.402451,257.624359 130.991653,255.981766 
	C133.037827,255.045334 135.005890,255.544342 136.998993,256.004364 
	C146.251266,258.139923 155.500000,259.280334 164.750000,256.000000 
"/>
<path fill="none" opacity="1.000000" stroke="#000000" stroke-linecap="round" stroke-linejoin="round" stroke-width="3.000000"
	d="
M297.000000,158.000000 
	C301.887054,162.668030 305.663757,168.288651 308.877106,174.068314 
	C316.618164,187.991623 326.892761,200.074417 336.010773,212.992386 
	C337.917236,215.693390 340.087585,218.222992 341.000000,221.500000 
"/>
<path fill="none" opacity="1.000000" stroke="#000000" stroke-linecap="round" stroke-linejoin="round" stroke-width="3.000000"
	d="
M581.500000,294.500000 
	C576.352905,295.835175 571.925110,298.848389 568.112366,302.130493 
	C556.584839,312.053711 543.820068,320.207520 531.498535,328.997925 
	C528.675293,331.012054 525.759338,332.905396 523.031189,335.039886 
	C521.660522,336.112274 519.946655,337.229645 520.500000,339.500000 
"/>
<path fill="none" opacity="1.000000" stroke="#000000" stroke-linecap="round" stroke-linejoin="round" stroke-width="3.000000"
	d="
M519.000000,278.500000 
	C509.833313,262.833344 500.621490,247.192795 491.532776,231.481033 
	C489.348083,227.704361 487.078644,224.577225 481.992188,225.454742 
	C480.251801,225.755020 478.877014,225.658569 477.393799,227.410065 
	C469.164917,237.127502 457.752075,243.314484 449.003540,252.503357 
	C448.040558,253.514755 446.965851,254.198120 445.500000,254.000000 
"/>
<path fill="none" opacity="1.000000" stroke="#000000" stroke-linecap="round" stroke-linejoin="round" stroke-width="3.000000"
	d="
M421.500000,359.000000 
	C401.720459,365.732086 382.183685,373.067261 363.529205,382.557404 
	C362.797516,382.929565 362.183167,382.899323 361.500000,383.000000 
"/>
<path fill="none" opacity="1.000000" stroke="#000000" stroke-linecap="round" stroke-linejoin="round" stroke-width="3.000000"
	d="
M146.500000,102.000000 
	C151.622253,103.543686 157.039032,103.741875 161.932846,102.275848 
	C166.357162,100.950478 170.321274,101.449326 173.941284,103.126717 
	C182.140823,106.926094 190.655853,110.935783 195.779861,118.646294 
	C198.666702,122.990372 200.073944,128.442978 202.981415,133.011826 
	C205.697205,137.279526 206.727829,142.208649 207.954834,147.011536 
	C209.164337,151.745850 209.229065,156.645309 208.960358,161.497803 
	C208.694809,166.293030 207.483688,170.926636 206.038620,175.512177 
	C205.177826,178.243652 202.981583,180.451431 203.000000,183.500000 
"/>
<path fill="none" opacity="1.000000" stroke="#000000" stroke-linecap="round" stroke-linejoin="round" stroke-width="8.000000"
	d="
M235.000000,131.000000 
	C239.203476,146.462189 241.043350,162.101196 237.916138,177.983490 
	C237.289551,181.165802 237.722870,184.944687 234.500000,187.250000 
"/>
<path fill="none" opacity="1.000000" stroke="#000000" stroke-linecap="round" stroke-linejoin="round" stroke-width="3.000000"
	d="
M312.500000,358.000000 
	C298.570129,364.408417 283.579285,368.246155 270.005981,375.511200 
	C265.467957,377.940155 261.000000,380.500000 256.500000,383.000000 
"/>
<path fill="none" opacity="1.000000" stroke="#000000" stroke-linecap="round" stroke-linejoin="round" stroke-width="3.000000"
	d="
M144.500000,71.500000 
	C130.691345,72.142548 119.889641,79.809204 109.071274,87.105675 
	C103.614975,90.785698 98.854012,95.481926 94.916862,100.940033 
	C93.705826,102.618912 93.038948,104.045021 93.500000,106.000000 
"/>
<path fill="none" opacity="1.000000" stroke="#000000" stroke-linecap="round" stroke-linejoin="round" stroke-width="3.000000"
	d="
M551.500000,283.000000 
	C544.292725,286.699097 538.247620,292.118317 531.572754,296.608124 
	C521.790283,303.188202 512.505249,310.507141 502.994751,317.492828 
	C501.449524,318.627869 499.640259,319.473602 499.000000,321.500000 
"/>
<path fill="none" opacity="1.000000" stroke="#000000" stroke-linecap="round" stroke-linejoin="round" stroke-width="3.000000"
	d="
M339.500000,286.500000 
	C336.869720,281.938690 337.788635,277.787231 340.365051,273.420380 
	C341.356812,271.739410 342.332214,270.359863 344.015228,270.097656 
	C345.848083,269.812073 346.657837,271.266602 347.638519,272.917725 
	C349.301239,275.717041 351.733765,278.096008 354.026703,280.474274 
	C356.556885,283.098633 356.870605,285.269043 354.592224,288.563782 
	C344.196014,303.597382 333.520020,318.420898 322.493591,332.995148 
	C321.709076,334.032074 320.839081,335.004852 319.998962,335.999115 
	C316.780365,339.808167 314.910492,339.595581 312.516174,334.991577 
	C310.109192,330.363220 307.854797,325.655670 305.473602,321.013550 
	C305.166412,320.414642 304.500000,320.000000 303.959564,319.459595 
	C304.726868,318.226868 304.868164,316.368164 307.000000,316.500000 
"/>
<path fill="none" opacity="1.000000" stroke="#000000" stroke-linecap="round" stroke-linejoin="round" stroke-width="3.000000"
	d="
M365.000031,286.000031 
	C357.500031,295.833344 350.105774,305.749817 342.464386,315.472015 
	C336.980682,322.449127 331.192963,329.188873 325.465271,335.970673 
	C324.783295,336.778168 324.347931,337.472504 324.500000,338.500000 
"/>
<path fill="none" opacity="1.000000" stroke="#000000" stroke-linecap="round" stroke-linejoin="round" stroke-width="3.000000"
	d="
M393.500000,360.000000 
	C380.818085,364.457062 367.770752,367.922333 355.527710,373.560150 
	C350.526825,375.863007 345.833344,378.833344 341.000000,381.500000 
"/>
<path fill="none" opacity="1.000000" stroke="#000000" stroke-linecap="round" stroke-linejoin="round" stroke-width="3.000000"
	d="
M374.500000,358.500000 
	C358.146271,364.129272 341.863159,369.934418 326.507202,378.013672 
	C325.351471,378.621765 323.785614,378.809418 323.500000,380.500000 
"/>
<path fill="none" opacity="1.000000" stroke="#000000" stroke-linecap="round" stroke-linejoin="round" stroke-width="3.000000"
	d="
M377.000000,286.000000 
	C374.134125,291.907318 369.008270,296.014923 364.935638,300.946838 
	C355.302643,312.612305 345.325043,323.992981 335.529633,335.525146 
	C335.130829,335.994659 335.166656,336.833344 335.000000,337.500000 
"/>
<path fill="none" opacity="1.000000" stroke="#000000" stroke-linecap="round" stroke-linejoin="round" stroke-width="3.000000"
	d="
M385.500000,285.500000 
	C382.177979,291.940033 377.004059,296.974823 372.462646,302.469147 
	C363.422089,313.406708 353.952881,323.998322 345.179382,335.141235 
	C343.412445,337.385345 341.529144,338.463898 339.507477,338.357544 
	C333.428497,338.037903 327.484711,338.907440 321.501953,339.519043 
	C320.537384,339.617676 320.033264,339.100159 319.500000,338.500000 
"/>
<path fill="none" opacity="1.000000" stroke="#000000" stroke-linecap="round" stroke-linejoin="round" stroke-width="3.000000"
	d="
M499.000000,359.000000 
	C489.066162,364.417328 478.255707,367.818268 467.986450,372.470062 
	C461.053589,375.610565 454.125824,378.741241 447.500000,382.500000 
"/>
<path fill="none" opacity="1.000000" stroke="#000000" stroke-linecap="round" stroke-linejoin="round" stroke-width="3.000000"
	d="
M402.000000,284.500000 
	C398.719208,282.990967 395.821655,282.526031 394.461700,286.988312 
	C394.233276,287.737762 393.584930,288.423401 392.987488,288.986755 
	C379.865936,301.360535 370.330750,316.871613 357.520905,329.521179 
	C355.577942,331.439850 353.374176,333.332855 353.500000,336.500000 
"/>
<path fill="none" opacity="1.000000" stroke="#000000" stroke-linecap="round" stroke-linejoin="round" stroke-width="3.000000"
	d="
M411.500000,284.000000 
	C406.417816,282.794342 403.516418,283.974518 399.661682,288.725525 
	C389.009308,301.854797 379.403442,315.883148 367.558624,328.057037 
	C365.502228,330.170532 363.172089,332.336945 362.500000,335.500000 
"/>
<path fill="none" opacity="1.000000" stroke="#000000" stroke-linecap="round" stroke-linejoin="round" stroke-width="3.000000"
	d="
M332.000000,359.000000 
	C315.763550,365.088196 299.467194,371.043182 284.509552,380.015900 
	C283.602631,380.559937 282.833344,381.333344 282.000000,382.000000 
"/>
<path fill="none" opacity="1.000000" stroke="#000000" stroke-linecap="round" stroke-linejoin="round" stroke-width="3.000000"
	d="
M487.500000,228.000000 
	C486.531433,229.182388 486.029968,230.609802 485.354004,231.924957 
	C482.792023,236.909378 482.843842,243.379242 475.111420,245.421844 
	C471.175873,246.461472 467.977692,251.356247 464.019806,254.029327 
	C456.473083,259.126190 449.516876,265.072876 441.530945,269.555115 
	C440.145813,270.332581 438.904083,271.671021 438.059753,273.036926 
	C436.692993,275.247894 435.058502,275.879089 432.489685,275.592560 
	C430.237732,275.341400 428.694733,276.565918 427.640686,278.951721 
	C426.280212,282.031128 424.391998,284.409027 419.930389,282.679596 
	C417.060028,281.566986 413.834534,282.459900 411.448853,285.459320 
	C398.389526,301.878021 385.174164,318.172729 371.982819,334.486115 
	C371.117584,335.556152 370.131470,336.596588 368.499573,336.507782 
	C360.635529,336.079773 352.878326,338.224060 345.000000,337.500000 
"/>
<path fill="none" opacity="1.000000" stroke="#000000" stroke-linecap="round" stroke-linejoin="round" stroke-width="3.000000"
	d="
M286.500000,282.500000 
	C277.738953,298.181671 269.354462,314.090546 258.531342,328.523499 
	C257.791412,329.510223 257.500000,330.833313 257.000000,332.000000 
"/>
<path fill="none" opacity="1.000000" stroke="#000000" stroke-linecap="round" stroke-linejoin="round" stroke-width="3.000000"
	d="
M436.500000,361.500000 
	C419.667938,367.902130 402.760040,374.129730 387.000000,383.000000 
"/>
<path fill="none" opacity="1.000000" stroke="#000000" stroke-linecap="round" stroke-linejoin="round" stroke-width="3.000000"
	d="
M246.000000,361.000000 
	C234.239822,366.575562 221.635147,370.097931 209.966156,375.932312 
	C205.549454,378.140594 201.117798,380.266388 197.000000,383.000000 
"/>
<path fill="none" opacity="1.000000" stroke="#000000" stroke-linecap="round" stroke-linejoin="round" stroke-width="3.000000"
	d="
M352.500000,358.000000 
	C335.721436,364.341644 319.566040,372.071350 303.500000,380.000000 
"/>
<path fill="none" opacity="1.000000" stroke="#000000" stroke-linecap="round" stroke-linejoin="round" stroke-width="3.000000"
	d="
M564.000000,357.000000 
	C553.186707,362.512207 541.545288,366.044891 530.505188,371.011566 
	C525.496948,373.264709 520.172913,375.029907 516.500000,379.500000 
"/>
<path fill="none" opacity="1.000000" stroke="#000000" stroke-linecap="round" stroke-linejoin="round" stroke-width="3.000000"
	d="
M541.500000,359.500000 
	C527.551758,364.673615 514.056763,370.910095 500.506805,377.015076 
	C498.181824,378.062622 495.867126,379.179901 494.000000,381.000000 
"/>
<path fill="none" opacity="1.000000" stroke="#000000" stroke-linecap="round" stroke-linejoin="round" stroke-width="3.000000"
	d="
M518.000000,359.000000 
	C507.120667,365.162537 495.280548,369.217926 484.003540,374.507568 
	C479.482056,376.628448 475.000000,378.833344 470.500000,381.000000 
"/>
<path fill="none" opacity="1.000000" stroke="#000000" stroke-linecap="round" stroke-linejoin="round" stroke-width="3.000000"
	d="
M165.000000,361.500000 
	C160.318878,365.324097 154.288727,366.057770 148.976974,368.448853 
	C138.633820,373.104767 127.626282,376.384552 118.500000,383.500000 
"/>
<path fill="none" opacity="1.000000" stroke="#000000" stroke-linecap="round" stroke-linejoin="round" stroke-width="3.000000"
	d="
M590.500000,281.000000 
	C584.205078,279.936920 577.948486,279.493835 571.491333,279.837952 
	C562.525696,280.315765 553.500305,279.643250 544.499695,279.525574 
	C543.168762,279.508179 541.346497,279.330505 540.574951,280.077454 
	C532.441040,287.951752 522.724243,293.846222 513.300110,299.676971 
	C501.527008,306.961090 496.114410,317.852203 491.037994,329.516541 
	C490.730713,330.222595 489.764679,331.166656 491.000000,332.000000 
"/>
<path fill="none" opacity="1.000000" stroke="#000000" stroke-linecap="round" stroke-linejoin="round" stroke-width="3.000000"
	d="
M475.000000,361.000000 
	C466.166656,364.666687 457.300323,368.256317 448.510345,372.024139 
	C441.365723,375.086731 434.318726,378.374298 428.000000,383.000000 
"/>
<path fill="none" opacity="1.000000" stroke="#000000" stroke-linecap="round" stroke-linejoin="round" stroke-width="3.000000"
	d="
M201.500000,363.000000 
	C185.473816,368.821808 169.350327,374.414917 154.500000,383.000000 
"/>
<path fill="none" opacity="1.000000" stroke="#000000" stroke-linecap="round" stroke-linejoin="round" stroke-width="3.000000"
	d="
M267.000000,359.500000 
	C262.816193,363.115601 257.319305,363.807251 252.473846,365.940582 
	C241.612473,370.722565 230.470230,374.895508 220.500000,381.500000 
"/>
<path fill="none" opacity="1.000000" stroke="#000000" stroke-linecap="round" stroke-linejoin="round" stroke-width="3.000000"
	d="
M455.000000,361.500031 
	C442.333344,366.666687 429.634338,371.756409 417.023621,377.056274 
	C414.016907,378.319885 411.763885,381.065277 408.500000,382.000000 
"/>
<path fill="none" opacity="1.000000" stroke="#000000" stroke-linecap="round" stroke-linejoin="round" stroke-width="3.000000"
	d="
M342.000000,224.000000 
	C328.029724,235.403214 307.820984,235.311356 295.997986,228.998657 
	C296.086792,227.613419 297.167633,226.889542 298.000000,226.000000 
"/>
<path fill="none" opacity="1.000000" stroke="#000000" stroke-linecap="round" stroke-linejoin="round" stroke-width="3.000000"
	d="
M121.500000,365.000000 
	C107.608780,369.572693 93.600288,373.827179 80.484116,380.468628 
	C78.933441,381.253815 77.025429,381.422791 76.500000,383.500000 
"/>
<path fill="none" opacity="1.000000" stroke="#000000" stroke-linecap="round" stroke-linejoin="round" stroke-width="6.000000"
	d="
M118.500000,85.500000 
	C93.844933,101.348587 78.563080,123.492615 73.500000,152.500000 
"/>
<path fill="none" opacity="1.000000" stroke="#000000" stroke-linecap="round" stroke-linejoin="round" stroke-width="3.000000"
	d="
M283.500000,362.000000 
	C272.333344,367.000000 261.084564,371.827759 250.042755,377.089722 
	C245.959381,379.035675 240.951904,379.398407 238.000000,383.500000 
"/>
<path fill="none" opacity="1.000000" stroke="#000000" stroke-linecap="round" stroke-linejoin="round" stroke-width="3.000000"
	d="
M263.500000,86.500000 
	C262.936615,99.146629 264.883820,111.125435 271.895355,122.067062 
	C273.911255,125.212975 274.666656,129.166672 276.000000,132.750000 
"/>
<path fill="none" opacity="1.000000" stroke="#000000" stroke-linecap="round" stroke-linejoin="round" stroke-width="3.000000"
	d="
M294.000000,284.500000 
	C292.276367,291.825470 287.495819,297.589478 283.961823,303.978882 
	C279.393860,312.237640 273.322388,319.572083 268.933838,327.965424 
	C268.489624,328.815002 267.847931,329.472504 268.000000,330.500000 
"/>
<path fill="none" opacity="1.000000" stroke="#000000" stroke-linecap="round" stroke-linejoin="round" stroke-width="3.000000"
	d="
M303.000000,285.000000 
	C300.115509,292.941803 294.774658,299.537262 290.870178,306.931458 
	C288.216461,311.956970 284.237244,316.268677 281.036194,321.024353 
	C279.128845,323.858002 277.045410,326.736023 277.500000,330.500000 
"/>
<path fill="none" opacity="1.000000" stroke="#000000" stroke-linecap="round" stroke-linejoin="round" stroke-width="3.000000"
	d="
M222.000000,362.000000 
	C207.788177,367.317627 193.581833,372.620422 180.411682,380.349518 
	C179.265823,381.021942 178.551590,382.506927 177.000000,382.500000 
"/>
<path fill="none" opacity="1.000000" stroke="#000000" stroke-linecap="round" stroke-linejoin="round" stroke-width="6.000000"
	d="
M149.500000,71.500000 
	C162.333328,74.333328 175.195831,77.044205 187.979202,80.087341 
	C191.118698,80.834709 193.924957,82.887436 197.020493,83.939720 
	C200.307877,85.057220 203.348129,86.658104 206.882401,87.496010 
	C211.128082,88.502571 216.042450,91.946388 216.870651,97.519226 
	C217.197205,99.716507 218.562531,101.168869 219.640060,102.374863 
	C222.458282,105.529129 224.632248,109.072090 226.969315,112.520798 
	C227.935913,113.947144 228.796494,115.131332 230.428070,116.118835 
	C234.539795,118.607475 235.035812,123.288780 235.895935,127.521149 
	C236.092026,128.485992 236.031113,130.886429 233.500000,129.750000 
"/>
<path fill="none" opacity="1.000000" stroke="#000000" stroke-linecap="round" stroke-linejoin="round" stroke-width="3.000000"
	d="
M180.000000,363.000000 
	C170.000000,367.333344 160.081314,371.870361 149.963745,375.909180 
	C145.301865,377.770172 141.036865,380.116089 137.000000,383.000000 
"/>
<path fill="none" opacity="1.000000" stroke="#000000" stroke-linecap="round" stroke-linejoin="round" stroke-width="3.000000"
	d="
M255.000000,50.500000 
	C254.724442,53.734669 252.309845,55.711678 250.477554,57.981892 
	C243.985596,66.025482 241.981079,75.739632 240.680664,85.524010 
	C240.201355,89.130394 237.019272,92.459549 239.416809,96.548775 
	C240.417358,98.255295 240.499985,100.500000 240.999985,102.500000 
"/>
<path fill="none" opacity="1.000000" stroke="#000000" stroke-linecap="round" stroke-linejoin="round" stroke-width="3.000000"
	d="
M310.000000,284.500000 
	C307.007660,293.075165 301.578583,300.305420 296.976257,307.985779 
	C293.935028,313.060944 290.657593,317.994263 287.506592,323.004150 
	C286.745758,324.213837 286.248016,325.520325 286.500000,327.000000 
"/>
<path fill="none" opacity="1.000000" stroke="#000000" stroke-linecap="round" stroke-linejoin="round" stroke-width="3.000000"
	d="
M130.999985,277.000000 
	C122.833321,288.500000 114.785980,300.088165 106.405548,311.430206 
	C104.594795,313.880859 103.660446,316.829193 101.500000,319.000000 
"/>
<path fill="none" opacity="1.000000" stroke="#000000" stroke-linecap="round" stroke-linejoin="round" stroke-width="3.000000"
	d="
M218.500000,308.000000 
	C222.242722,314.119598 225.510239,320.590729 231.987823,324.520050 
	C238.955490,328.746643 245.855896,332.533447 254.496811,332.683502 
	C260.679871,332.790894 266.827271,334.348206 273.002075,332.506958 
	C277.254486,331.238922 281.568542,330.696747 285.662292,328.274231 
	C288.787354,326.424927 292.782684,325.747070 296.033630,323.549744 
	C298.474060,321.900208 301.090179,321.349030 300.846588,316.980682 
	C300.685028,314.082611 303.754944,310.953125 305.514984,308.008942 
	C310.391144,299.852081 314.844727,291.495789 318.000000,282.500000 
"/>
<path fill="none" opacity="1.000000" stroke="#000000" stroke-linecap="round" stroke-linejoin="round" stroke-width="3.000000"
	d="
M149.000000,279.500000 
	C148.240677,284.587921 143.850204,287.401886 141.480469,291.488678 
	C135.491592,301.816772 126.617294,310.276245 122.000000,321.500000 
"/>
<path fill="none" opacity="1.000000" stroke="#000000" stroke-linecap="round" stroke-linejoin="round" stroke-width="3.000000"
	d="
M178.500000,275.000000 
	C176.654099,273.374390 174.706085,275.185822 173.590286,275.697052 
	C164.706665,279.767181 155.705826,279.025879 146.480255,277.630554 
	C144.063965,277.265076 141.716888,276.956238 139.239166,280.307129 
	C131.011261,291.434601 122.650040,302.456360 115.010956,314.007233 
	C113.596985,316.145294 111.691093,318.105713 112.000000,321.000000 
"/>
<path fill="none" opacity="1.000000" stroke="#000000" stroke-linecap="round" stroke-linejoin="round" stroke-width="8.000000"
	d="
M575.500000,250.500000 
	C566.817078,247.342758 557.824585,249.822372 548.988525,249.150757 
	C541.544189,248.584915 534.000000,249.333313 526.500000,249.499985 
"/>
<path fill="none" opacity="1.000000" stroke="#000000" stroke-linecap="round" stroke-linejoin="round" stroke-width="3.000000"
	d="
M141.500000,365.500000 
	C129.184021,369.596283 116.771721,373.439728 105.013702,379.028839 
	C103.270149,379.857605 101.305527,380.398102 100.000000,382.000000 
"/>
<path fill="none" opacity="1.000000" stroke="#000000" stroke-linecap="round" stroke-linejoin="round" stroke-width="3.000000"
	d="
M258.500000,93.500000 
	C258.106323,106.998466 262.004120,119.213661 270.115967,129.912079 
	C271.998840,132.395294 274.390167,134.275635 275.727264,137.402832 
	C276.589783,139.420090 276.467773,140.737030 275.438232,141.947479 
	C273.651215,144.048553 271.790710,145.978683 272.000000,149.000000 
"/>
<path fill="none" opacity="1.000000" stroke="#000000" stroke-linecap="round" stroke-linejoin="round" stroke-width="3.000000"
	d="
M576.500000,359.500000 
	C564.213135,365.595490 551.256531,370.311829 539.491211,377.485626 
	C538.222900,378.258942 536.833313,378.833313 535.500000,379.499969 
"/>
<path fill="none" opacity="1.000000" stroke="#000000" stroke-linecap="round" stroke-linejoin="round" stroke-width="3.000000"
	d="
M266.000000,158.500000 
	C261.136810,160.555405 260.375885,165.498444 258.584442,169.537445 
	C255.487534,176.519608 254.024612,184.051102 252.603241,191.519653 
	C252.172562,193.782593 251.683746,196.555862 254.000000,198.500000 
"/>
<path fill="none" opacity="1.000000" stroke="#000000" stroke-linecap="round" stroke-linejoin="round" stroke-width="3.000000"
	d="
M158.500000,279.500000 
	C154.940842,287.538116 149.022430,294.078918 144.537598,301.522644 
	C140.917191,307.531677 135.689148,312.624817 134.000000,319.750000 
"/>
<path fill="none" opacity="1.000000" stroke="#000000" stroke-linecap="round" stroke-linejoin="round" stroke-width="3.000000"
	d="
M123.500000,275.500000 
	C118.642258,283.458405 112.095978,290.112793 106.513565,297.510254 
	C102.277046,303.124207 96.667747,307.731201 94.000000,314.500000 
"/>
<path fill="none" opacity="1.000000" stroke="#000000" stroke-linecap="round" stroke-linejoin="round" stroke-width="3.000000"
	d="
M277.000000,134.000000 
	C278.359161,135.948578 281.965820,136.860931 281.320435,139.455338 
	C280.394501,143.177597 277.821259,146.854965 274.407104,148.276962 
	C270.282928,149.994690 267.836426,153.704788 267.359558,156.560043 
	C266.093323,164.142227 261.217712,170.466919 260.609070,178.008804 
	C260.174316,183.395996 257.965210,188.495300 258.414429,194.006973 
	C258.505615,195.125458 257.500000,196.333344 257.000000,197.500000 
"/>
<path fill="none" opacity="1.000000" stroke="#000000" stroke-linecap="round" stroke-linejoin="round" stroke-width="3.000000"
	d="
M569.500000,308.000000 
	C559.065247,315.832947 548.471497,323.482422 539.049133,332.551056 
	C536.677734,334.833435 532.994995,335.828339 532.000000,339.500000 
"/>
<path fill="none" opacity="1.000000" stroke="#000000" stroke-linecap="round" stroke-linejoin="round" stroke-width="3.000000"
	d="
M114.000000,272.000000 
	C108.780106,281.205658 100.194809,287.599945 93.971107,295.978546 
	C90.354507,300.847351 85.941780,305.116760 83.000000,310.500000 
"/>
<path fill="none" opacity="1.000000" stroke="#000000" stroke-linecap="round" stroke-linejoin="round" stroke-width="3.000000"
	d="
M233.500000,188.000000 
	C228.857681,192.323151 228.818054,198.659988 225.999863,203.985687 
	C238.255310,210.511536 249.245255,218.362473 261.500000,224.000000 
"/>
<path fill="none" opacity="1.000000" stroke="#000000" stroke-linecap="round" stroke-linejoin="round" stroke-width="3.000000"
	d="
M105.500000,269.000000 
	C94.618469,281.350403 84.152184,294.045013 74.000000,307.000000 
"/>
<path fill="none" opacity="1.000000" stroke="#000000" stroke-linecap="round" stroke-linejoin="round" stroke-width="3.000000"
	d="
M93.000000,367.000000 
	C88.240295,369.928253 82.577988,370.090790 77.515259,372.039642 
	C70.122559,374.885437 62.833340,378.000031 55.500008,381.000031 
"/>
<path fill="none" opacity="1.000000" stroke="#000000" stroke-linecap="round" stroke-linejoin="round" stroke-width="3.000000"
	d="
M481.000000,233.000000 
	C472.718994,241.069595 462.829102,247.113480 453.921692,254.404343 
	C450.525970,257.183807 448.186829,261.428802 443.045288,262.275116 
	C441.738434,262.490204 441.211975,266.151489 441.500000,268.500000 
"/>
<path fill="none" opacity="1.000000" stroke="#000000" stroke-linecap="round" stroke-linejoin="round" stroke-width="4.000000"
	d="
M159.000000,75.000000 
	C157.791397,77.026886 155.791443,76.398796 154.000244,76.504059 
	C149.004181,76.797676 144.017120,76.258690 138.987457,76.901978 
	C132.834442,77.688942 127.564857,80.228745 122.500000,83.500000 
"/>
<path fill="none" opacity="1.000000" stroke="#000000" stroke-linecap="round" stroke-linejoin="round" stroke-width="3.000000"
	d="
M91.000000,259.500000 
	C85.166672,265.833344 79.500694,272.332123 73.450584,278.451141 
	C67.950813,284.013519 62.942619,289.968231 58.000000,296.000000 
"/>
<path fill="none" opacity="1.000000" stroke="#000000" stroke-linecap="round" stroke-linejoin="round" stroke-width="3.000000"
	d="
M84.000000,254.000000 
	C72.997910,266.153137 60.628342,277.033783 50.500000,290.000000 
"/>
<path fill="none" opacity="1.000000" stroke="#000000" stroke-linecap="round" stroke-linejoin="round" stroke-width="3.000000"
	d="
M405.500000,298.500000 
	C399.100311,309.478363 390.710571,318.990448 382.956787,328.966400 
	C381.619720,330.686646 380.699432,332.502716 380.000000,334.500000 
"/>
<path fill="none" opacity="1.000000" stroke="#000000" stroke-linecap="round" stroke-linejoin="round" stroke-width="3.000000"
	d="
M98.000000,265.000000 
	C86.937317,276.371948 76.891922,288.619904 67.000000,301.000000 
"/>
<path fill="none" opacity="1.000000" stroke="#000000" stroke-linecap="round" stroke-linejoin="round" stroke-width="3.000000"
	d="
M477.500000,245.500000 
	C475.853149,252.022110 472.369720,258.945068 467.275452,261.563080 
	C454.943634,267.900574 445.702087,277.948273 434.542328,285.562042 
	C433.067291,286.568390 432.166656,286.958344 431.000000,285.500000 
"/>
<path fill="none" opacity="1.000000" stroke="#000000" stroke-linecap="round" stroke-linejoin="round" stroke-width="8.000000"
	d="
M266.500000,235.500000 
	C267.124786,244.422195 274.763580,253.954208 284.014008,256.956879 
	C288.846924,258.525604 293.741180,260.274475 299.000000,259.000000 
"/>
<path fill="none" opacity="1.000000" stroke="#000000" stroke-linecap="round" stroke-linejoin="round" stroke-width="3.000000"
	d="
M78.000000,248.000000 
	C68.000000,258.666656 58.012768,269.345398 47.973732,279.975189 
	C47.236382,280.755920 46.847931,281.472504 47.000000,282.500000 
"/>
<path fill="none" opacity="1.000000" stroke="#000000" stroke-linecap="round" stroke-linejoin="round" stroke-width="3.000000"
	d="
M203.000000,180.000000 
	C195.930908,175.344864 188.861816,170.689728 181.483566,165.830994 
	C175.293823,175.042572 167.873489,182.594009 161.055115,190.949661 
	C163.555222,194.102341 165.328201,197.604492 170.000000,197.000000 
"/>
<path fill="none" opacity="1.000000" stroke="#000000" stroke-linecap="round" stroke-linejoin="round" stroke-width="3.000000"
	d="
M294.500000,62.000000 
	C287.377014,62.173965 280.484406,62.551952 274.413361,67.391327 
	C269.797485,71.070732 267.977631,76.151756 265.500000,81.000000 
"/>
<path fill="none" opacity="1.000000" stroke="#000000" stroke-linecap="round" stroke-linejoin="round" stroke-width="3.000000"
	d="
M198.000000,266.500000 
	C193.582123,267.204163 190.516052,268.343475 189.129028,273.907532 
	C187.897324,278.848328 183.456100,282.971497 180.510834,287.507019 
	C176.603043,293.524719 172.772186,299.592407 168.822571,305.772705 
	C172.176224,306.897980 172.176224,306.897980 180.500000,299.500000 
	C182.654800,299.404694 183.944214,300.463257 184.500000,302.500000 
"/>
<path fill="none" opacity="1.000000" stroke="#000000" stroke-linecap="round" stroke-linejoin="round" stroke-width="3.000000"
	d="
M189.000000,271.500000 
	C184.015137,271.435883 180.687241,273.364624 177.846344,277.903839 
	C171.335159,288.307556 164.626648,298.573730 159.000000,309.500000 
"/>
<path fill="none" opacity="1.000000" stroke="#000000" stroke-linecap="round" stroke-linejoin="round" stroke-width="3.000000"
	d="
M588.500000,361.500000 
	C587.685364,363.883850 585.429016,364.188568 583.503601,365.008453 
	C574.168457,368.983521 564.551758,372.365845 556.000000,378.000000 
"/>
<path fill="none" opacity="1.000000" stroke="#000000" stroke-linecap="round" stroke-linejoin="round" stroke-width="3.000000"
	d="
M70.000000,245.000000 
	C64.136612,253.849030 56.024727,260.699005 48.864410,268.373505 
	C46.213463,271.214783 44.200851,274.669434 41.000000,277.000000 
"/>
<path fill="none" opacity="1.000000" stroke="#000000" stroke-linecap="round" stroke-linejoin="round" stroke-width="3.000000"
	d="
M229.000000,294.500000 
	C231.946869,291.541077 234.377502,288.641113 235.221191,284.040558 
	C236.385712,277.690735 242.488495,274.114685 246.029434,269.020447 
	C246.480927,268.370880 247.320267,267.981354 248.002380,267.503387 
	C250.280014,265.907471 250.125687,261.634338 253.500427,261.622620 
	C257.176910,261.609802 258.507477,265.495422 260.976868,267.528107 
	C272.070251,276.659637 284.032745,283.216034 298.995667,283.649933 
	C309.721893,283.960968 319.517059,281.565460 329.005280,277.010986 
	C330.432068,276.326111 331.716614,275.149872 333.500000,275.500000 
"/>
<path fill="none" opacity="1.000000" stroke="#000000" stroke-linecap="round" stroke-linejoin="round" stroke-width="10.000000"
	d="
M293.500000,162.500000 
	C288.483521,161.963104 286.244965,165.442322 283.990601,168.994034 
	C275.155304,182.913956 275.391266,205.003510 286.515808,219.487854 
	C287.227570,220.414566 288.190948,221.909988 288.996185,221.883682 
	C296.142120,221.650208 301.482086,227.509918 308.499908,227.478790 
	C308.833984,227.477310 309.166656,227.166656 309.500000,227.000000 
"/>
<path fill="none" opacity="1.000000" stroke="#000000" stroke-linecap="round" stroke-linejoin="round" stroke-width="4.000000"
	d="
M72.000000,152.750000 
	C75.250053,152.745071 74.487991,155.187149 74.474159,156.999802 
	C74.420738,164.001465 72.659447,170.952057 73.964966,178.006485 
	C74.358170,180.131226 74.333336,182.333328 74.500000,184.500000 
"/>
<path fill="none" opacity="1.000000" stroke="#000000" stroke-linecap="round" stroke-linejoin="round" stroke-width="3.000000"
	d="
M70.500000,368.000000 
	C60.994762,371.041595 51.502182,374.090698 42.443787,378.381317 
	C41.230724,378.955872 40.881340,379.548004 40.500000,380.500000 
"/>
<path fill="none" opacity="1.000000" stroke="#000000" stroke-linecap="round" stroke-linejoin="round" stroke-width="3.000000"
	d="
M466.500000,263.000000 
	C466.846161,268.255432 462.364990,271.455505 460.953796,275.985596 
	C460.180786,278.467010 458.242828,280.378998 457.304901,282.928223 
	C456.644379,284.723572 455.290222,286.969116 451.983856,286.694183 
	C449.602356,286.496155 448.588593,289.463074 447.750946,292.000519 
	C440.392609,288.784210 433.152893,292.881592 425.981171,291.074707 
	C424.020294,290.580719 422.936188,292.782227 422.078094,294.052734 
	C417.085236,301.445007 412.088287,308.857361 407.603973,316.560547 
	C405.381012,320.379181 401.881653,322.907440 399.380127,326.414490 
	C397.550079,328.980194 394.141724,326.967133 391.500000,327.500000 
"/>
<path fill="none" opacity="1.000000" stroke="#000000" stroke-linecap="round" stroke-linejoin="round" stroke-width="8.000000"
	d="
M394.500000,200.000000 
	C394.886383,202.508209 393.582092,204.325760 391.994873,205.995117 
	C388.177368,210.010193 384.474457,214.148102 380.467682,217.966080 
	C374.104370,224.029495 375.260864,227.945786 379.178467,233.882233 
	C383.912781,241.056274 388.880280,248.257095 395.500000,254.000000 
"/>
<path fill="none" opacity="1.000000" stroke="#000000" stroke-linecap="round" stroke-linejoin="round" stroke-width="3.000000"
	d="
M315.500000,90.500000 
	C317.705353,91.439583 319.007141,92.945244 319.018677,95.499916 
	C319.048218,102.048523 317.679443,108.056458 313.028442,113.026611 
	C311.553650,114.602608 309.954987,114.961052 308.000000,114.500000 
"/>
<path fill="none" opacity="1.000000" stroke="#000000" stroke-linecap="round" stroke-linejoin="round" stroke-width="3.000000"
	d="
M478.000000,226.500000 
	C472.835083,224.486069 467.270081,224.587021 462.006287,224.730698 
	C455.748962,224.901505 448.784912,232.697449 448.107941,239.510727 
	C447.467255,245.958694 444.673309,251.748108 443.360382,257.970551 
	C443.071747,259.338409 443.662872,260.333344 443.500000,261.500000 
"/>
<path fill="none" opacity="1.000000" stroke="#000000" stroke-linecap="round" stroke-linejoin="round" stroke-width="7.000000"
	d="
M496.000000,198.500000 
	C499.877228,207.582443 500.967346,217.750137 506.948273,226.037338 
	C508.942657,228.800812 510.235229,232.060257 512.029968,234.981567 
	C513.561218,237.473923 514.766968,239.834503 514.616699,243.005524 
	C514.455200,246.415558 516.871948,249.419052 518.744385,251.808517 
	C520.534851,254.093460 523.553650,252.021011 525.500000,250.000000 
"/>
<path fill="none" opacity="1.000000" stroke="#000000" stroke-linecap="round" stroke-linejoin="round" stroke-width="3.000000"
	d="
M324.500000,280.500000 
	C321.419464,290.322418 316.754456,299.323303 310.500000,307.500000 
"/>
<path fill="none" opacity="1.000000" stroke="#000000" stroke-linecap="round" stroke-linejoin="round" stroke-width="3.000000"
	d="
M232.000000,252.000000 
	C230.103210,252.460236 229.135727,251.135193 227.985703,250.014664 
	C224.692947,246.806366 221.400085,243.592621 217.986435,240.515045 
	C210.322205,233.605316 209.086075,233.162476 200.025726,236.079910 
	C195.491699,237.539902 194.130280,242.014374 192.030746,245.904541 
	C197.723755,247.062622 201.525742,244.892929 202.997650,239.999298 
	C203.347092,238.837463 203.666672,237.666672 204.000000,236.500000 
"/>
<path fill="none" opacity="1.000000" stroke="#000000" stroke-linecap="round" stroke-linejoin="round" stroke-width="3.000000"
	d="
M386.500000,193.000000 
	C384.619629,190.943115 382.100189,190.377335 379.496124,189.911392 
	C371.907410,195.757828 366.661743,206.028992 354.500000,203.000000 
"/>
<path fill="none" opacity="1.000000" stroke="#000000" stroke-linecap="round" stroke-linejoin="round" stroke-width="3.000000"
	d="
M207.500000,238.000000 
	C214.867630,246.860672 224.505295,253.306427 232.491989,262.069794 
	C236.151154,257.889465 240.938019,255.189285 241.097382,249.002502 
	C241.167206,246.291107 243.561417,246.004868 245.998444,245.940781 
	C252.386017,245.772812 254.850494,241.988647 253.036819,235.988876 
	C251.331467,230.347412 254.283340,228.428009 259.015594,227.053741 
	C260.245239,226.696655 261.666656,227.000000 263.000000,227.000000 
"/>
<path fill="none" opacity="1.000000" stroke="#000000" stroke-linecap="round" stroke-linejoin="round" stroke-width="9.000000"
	d="
M487.500000,199.500000 
	C478.833344,199.957428 470.166656,200.360046 461.500000,199.500000 
"/>
<path fill="none" opacity="1.000000" stroke="#000000" stroke-linecap="round" stroke-linejoin="round" stroke-width="3.000000"
	d="
M514.000000,112.000000 
	C512.456665,114.455475 512.299194,116.528862 514.376587,119.099739 
	C515.993713,121.101051 516.561768,123.977440 517.485168,126.505409 
	C518.796692,130.095932 521.249207,133.968109 524.520569,134.174667 
	C529.626160,134.497086 531.457275,137.713333 532.880676,141.050888 
	C537.370911,151.579559 541.207275,162.385437 545.580383,172.966782 
	C546.818970,175.963699 546.753967,178.256088 544.500000,180.500000 
"/>
<path fill="none" opacity="1.000000" stroke="#000000" stroke-linecap="round" stroke-linejoin="round" stroke-width="3.000000"
	d="
M172.000000,307.500000 
	C178.017715,315.916809 185.335480,323.120209 192.707199,330.074036 
	C199.549362,324.510651 204.773575,317.766937 210.485001,311.486359 
	C212.140411,309.665955 213.073669,307.539398 213.582016,305.016541 
	C214.837891,298.783966 218.676666,295.147095 223.500000,295.000000 
"/>
<path fill="none" opacity="1.000000" stroke="#000000" stroke-linecap="round" stroke-linejoin="round" stroke-width="3.000000"
	d="
M48.000000,370.000000 
	C40.952095,374.030060 32.502792,374.350525 25.500000,378.500000 
"/>
<path fill="none" opacity="1.000000" stroke="#000000" stroke-linecap="round" stroke-linejoin="round" stroke-width="4.000000"
	d="
M558.500000,237.000000 
	C553.810852,237.463181 549.206665,238.167297 544.456116,236.636261 
	C542.040344,235.857681 539.166687,236.500000 536.500000,236.500000 
"/>
<path fill="none" opacity="1.000000" stroke="#000000" stroke-linecap="round" stroke-linejoin="round" stroke-width="3.000000"
	d="
M193.000000,282.500000 
	C192.833328,281.500000 192.175476,280.197388 192.576187,279.546936 
	C196.460144,273.242859 197.862686,265.438812 204.366562,259.734741 
	C212.197601,267.610413 219.848801,275.305206 227.500015,283.000000 
"/>
<path fill="none" opacity="1.000000" stroke="#000000" stroke-linecap="round" stroke-linejoin="round" stroke-width="3.000000"
	d="
M467.500000,226.500000 
	C467.845306,228.569992 465.812012,229.669815 464.886475,230.344177 
	C459.390259,234.348831 454.641815,239.382477 448.500000,242.500000 
"/>
<path fill="none" opacity="1.000000" stroke="#000000" stroke-linecap="round" stroke-linejoin="round" stroke-width="4.000000"
	d="
M561.000000,324.500000 
	C558.935486,323.050232 557.962952,324.895782 557.035034,326.028717 
	C552.377441,331.715637 544.623840,333.678284 540.402588,339.934296 
	C539.960327,340.589752 538.129761,340.605804 537.006287,340.453583 
	C531.679443,339.731964 526.307007,340.282043 520.997681,340.228119 
	C510.505524,340.121582 499.997986,341.304016 489.502075,342.029816 
	C487.819794,342.146149 486.540344,344.535034 484.500000,343.000000 
"/>
<path fill="none" opacity="1.000000" stroke="#000000" stroke-linecap="round" stroke-linejoin="round" stroke-width="3.000000"
	d="
M375.500000,111.500000 
	C369.701355,114.067078 366.268951,119.993423 360.079437,122.220734 
	C358.704437,122.715523 358.123413,125.940781 357.539368,128.011108 
	C355.792114,134.205032 354.578918,140.553253 352.011444,146.504929 
	C351.523010,147.637161 350.960754,148.833328 352.000000,150.000000 
"/>
<path fill="none" opacity="1.000000" stroke="#000000" stroke-linecap="round" stroke-linejoin="round" stroke-width="3.000000"
	d="
M458.000000,274.000000 
	C454.762299,277.639191 450.305817,279.647766 446.574646,282.594513 
	C444.111237,284.539978 440.675049,286.040039 440.500000,290.000000 
"/>
<path fill="none" opacity="1.000000" stroke="#000000" stroke-linecap="round" stroke-linejoin="round" stroke-width="3.000000"
	d="
M228.000000,201.000000 
	C236.278275,200.147064 241.008774,206.982407 247.487076,210.027496 
	C251.648483,211.983536 255.257324,214.849518 259.032288,217.453171 
	C264.659271,221.334198 266.206635,234.890701 256.985840,238.968002 
	C256.428223,239.214584 255.666672,239.000000 255.000000,239.000000 
"/>
<path fill="none" opacity="1.000000" stroke="#000000" stroke-linecap="round" stroke-linejoin="round" stroke-width="3.000000"
	d="
M595.000000,367.500000 
	C589.649963,369.964355 584.627686,373.113770 579.016052,375.046539 
	C577.934204,375.419128 576.330200,375.663513 576.500000,377.500000 
"/>
<path fill="none" opacity="1.000000" stroke="#000000" stroke-linecap="round" stroke-linejoin="round" stroke-width="4.000000"
	d="
M554.500000,229.999985 
	C548.166687,230.499985 541.833313,230.999985 535.500000,231.499985 
"/>
<path fill="none" opacity="1.000000" stroke="#000000" stroke-linecap="round" stroke-linejoin="round" stroke-width="8.000000"
	d="
M454.000000,90.000000 
	C455.934814,95.770714 450.255768,99.012093 449.261871,103.952095 
	C448.591125,107.286095 447.204712,110.474274 447.500000,114.000000 
"/>
<path fill="none" opacity="1.000000" stroke="#000000" stroke-linecap="round" stroke-linejoin="round" stroke-width="3.000000"
	d="
M364.000000,257.000000 
	C360.911957,253.706207 357.920197,250.350830 355.479706,246.512909 
	C350.859070,239.246429 342.884888,241.561600 340.058533,247.030243 
	C338.075226,250.867691 334.274109,251.740814 330.972656,253.447098 
	C329.803436,254.051376 328.607513,253.040329 327.500000,252.500000 
"/>
<path fill="none" opacity="1.000000" stroke="#000000" stroke-linecap="round" stroke-linejoin="round" stroke-width="3.000000"
	d="
M369.500000,137.500000 
	C363.988953,141.053421 359.782745,146.264709 354.373260,149.806412 
	C351.919373,151.413025 350.342529,153.176010 349.000092,155.500061 
	C348.250885,156.797119 348.583282,157.708099 349.415405,159.052368 
	C352.994568,164.834442 356.920044,170.414642 360.112488,177.942627 
	C363.264740,172.608749 369.618805,171.737595 370.595520,165.514999 
	C370.743225,164.574036 372.166656,163.833328 373.000000,162.999985 
"/>
<path fill="none" opacity="1.000000" stroke="#000000" stroke-linecap="round" stroke-linejoin="round" stroke-width="3.000000"
	d="
M524.500000,135.000000 
	C521.819702,140.897629 526.241272,145.265686 528.164917,149.932007 
	C531.145569,157.162369 533.949036,164.492493 537.260742,171.611298 
	C538.475281,174.221909 539.540283,177.136887 541.617676,178.580688 
	C544.962463,180.905350 546.264465,183.904175 547.635986,187.447357 
	C549.224121,191.550125 550.987122,195.688568 555.420654,198.143265 
	C558.026184,199.585861 559.272766,202.978256 558.403748,205.972061 
	C556.555115,212.341003 559.759827,217.179626 562.500000,222.250000 
"/>
<path fill="none" opacity="1.000000" stroke="#000000" stroke-linecap="round" stroke-linejoin="round" stroke-width="3.000000"
	d="
M370.000000,130.000000 
	C365.833313,133.500000 361.610168,136.936310 357.540649,140.545837 
	C356.551514,141.423203 355.633423,141.566910 354.500000,141.500000 
"/>
<path fill="none" opacity="1.000000" stroke="#000000" stroke-linecap="round" stroke-linejoin="round" stroke-width="3.000000"
	d="
M373.500000,119.500000 
	C369.318146,123.923531 365.120880,128.328323 359.500000,131.000000 
"/>
<path fill="none" opacity="1.000000" stroke="#000000" stroke-linecap="round" stroke-linejoin="round" stroke-width="9.000000"
	d="
M340.500000,244.500000 
	C335.287354,241.867844 331.411591,245.859955 329.311340,248.727982 
	C326.336090,252.790817 322.305328,254.045044 318.425629,255.263092 
	C314.961395,256.350677 311.780487,257.707245 309.064423,259.832336 
	C305.866486,262.334412 303.053162,261.830017 300.000000,260.000000 
"/>
<path fill="none" opacity="1.000000" stroke="#000000" stroke-linecap="round" stroke-linejoin="round" stroke-width="3.000000"
	d="
M551.500000,223.499985 
	C546.500000,223.999985 541.500000,224.499985 536.500000,224.999985 
"/>
<path fill="none" opacity="1.000000" stroke="#000000" stroke-linecap="round" stroke-linejoin="round" stroke-width="3.000000"
	d="
M457.499969,291.500000 
	C459.833313,296.500000 462.166656,301.500000 464.499969,306.500000 
"/>
<path fill="none" opacity="1.000000" stroke="#000000" stroke-linecap="round" stroke-linejoin="round" stroke-width="3.000000"
	d="
M251.500000,233.500000 
	C244.851974,235.072678 243.829269,240.470566 243.000000,246.000000 
"/>
<path fill="none" opacity="1.000000" stroke="#000000" stroke-linecap="round" stroke-linejoin="round" stroke-width="3.000000"
	d="
M368.000000,153.000000 
	C363.166656,156.833344 358.333344,160.666672 353.500000,164.500000 
"/>
<path fill="none" opacity="1.000000" stroke="#000000" stroke-linecap="round" stroke-linejoin="round" stroke-width="3.000000"
	d="
M366.000000,148.000000 
	C361.521057,151.668732 355.860138,154.001328 353.000000,159.500000 
"/>
<path fill="none" opacity="1.000000" stroke="#000000" stroke-linecap="round" stroke-linejoin="round" stroke-width="3.000000"
	d="
M526.500000,280.500000 
	C524.147095,285.809875 518.833130,287.561737 514.504639,290.506775 
	C509.691254,293.781677 506.019135,297.846100 505.500000,304.000000 
"/>
<path fill="none" opacity="1.000000" stroke="#000000" stroke-linecap="round" stroke-linejoin="round" stroke-width="3.000000"
	d="
M462.000000,112.500015 
	C457.500000,116.666679 453.000000,120.833351 448.500000,125.000015 
"/>
<path fill="none" opacity="1.000000" stroke="#000000" stroke-linecap="round" stroke-linejoin="round" stroke-width="3.000000"
	d="
M405.500000,223.000000 
	C400.833344,223.000000 396.166656,223.000000 391.500000,223.000000 
"/>
<path fill="none" opacity="1.000000" stroke="#000000" stroke-linecap="round" stroke-linejoin="round" stroke-width="8.000000"
	d="
M560.500000,231.000000 
	C563.668457,230.580673 565.405823,233.105026 566.336731,235.077072 
	C568.212341,239.049973 569.989380,243.334961 568.500000,248.000000 
"/>
<path fill="none" opacity="1.000000" stroke="#000000" stroke-linecap="round" stroke-linejoin="round" stroke-width="3.000000"
	d="
M488.500000,200.000000 
	C492.676880,203.215317 494.132141,208.915588 499.000000,211.500000 
"/>
<path fill="none" opacity="1.000000" stroke="#000000" stroke-linecap="round" stroke-linejoin="round" stroke-width="3.000000"
	d="
M545.500000,210.500000 
	C542.131714,211.922165 538.485168,211.384521 534.990479,211.940018 
	C533.850769,212.121185 533.709290,212.709320 533.500000,213.500000 
"/>
<path fill="none" opacity="1.000000" stroke="#000000" stroke-linecap="round" stroke-linejoin="round" stroke-width="3.000000"
	d="
M406.000000,313.000000 
	C403.765656,314.942780 400.796722,315.384460 398.344635,317.301239 
	C393.858917,320.807648 391.309692,325.714783 388.809540,330.173584 
	C385.492859,336.088593 380.531921,334.539825 375.988678,335.443054 
	C374.898254,335.659821 373.666656,335.166656 372.500000,335.000000 
"/>
<path fill="none" opacity="1.000000" stroke="#000000" stroke-linecap="round" stroke-linejoin="round" stroke-width="3.000000"
	d="
M403.500000,230.000000 
	C399.166656,231.186768 394.833344,229.784180 390.500000,230.000000 
"/>
<path fill="none" opacity="1.000000" stroke="#000000" stroke-linecap="round" stroke-linejoin="round" stroke-width="3.000000"
	d="
M457.000000,106.500000 
	C455.162781,111.036812 452.391479,114.406013 447.469177,114.427727 
	C447.509308,120.199959 450.175720,125.952255 443.670563,130.732132 
	C440.845428,132.808029 442.436157,137.873138 441.584564,141.519745 
	C441.227722,143.047653 441.443665,144.666382 440.000000,145.750000 
"/>
<path fill="none" opacity="1.000000" stroke="#000000" stroke-linecap="round" stroke-linejoin="round" stroke-width="3.000000"
	d="
M340.000000,272.500000 
	C336.789764,272.386353 334.285278,272.549347 333.780701,276.975006 
	C333.509796,279.350891 331.546570,281.764191 330.124939,284.076813 
	C327.681152,288.052155 327.328857,292.453522 330.500000,296.500000 
"/>
<path fill="none" opacity="1.000000" stroke="#000000" stroke-linecap="round" stroke-linejoin="round" stroke-width="4.000000"
	d="
M540.000000,280.500000 
	C538.719055,279.180817 537.056335,279.633942 535.501770,279.481659 
	C531.008484,279.041504 526.409485,280.656708 521.952942,278.602081 
	C521.112610,278.214661 519.577637,277.947784 518.433350,279.449219 
	C515.769531,282.944641 512.971313,286.276123 513.000000,291.000000 
"/>
<path fill="none" opacity="1.000000" stroke="#000000" stroke-linecap="round" stroke-linejoin="round" stroke-width="3.000000"
	d="
M306.000000,116.500000 
	C305.090393,121.846916 299.715118,121.891083 296.493347,124.491776 
	C296.210083,124.720451 295.833344,124.833336 295.500000,125.000000 
"/>
<path fill="none" opacity="1.000000" stroke="#000000" stroke-linecap="round" stroke-linejoin="round" stroke-width="3.000000"
	d="
M368.500000,159.500000 
	C364.500000,162.666672 360.500000,165.833328 356.500000,169.000000 
"/>
<path fill="none" opacity="1.000000" stroke="#000000" stroke-linecap="round" stroke-linejoin="round" stroke-width="3.000000"
	d="
M237.000000,188.500000 
	C238.644440,190.962692 237.234467,193.232483 236.470413,195.489990 
	C235.845963,197.335022 234.366089,198.875549 234.500000,201.000000 
"/>
<path fill="none" opacity="1.000000" stroke="#000000" stroke-linecap="round" stroke-linejoin="round" stroke-width="4.000000"
	d="
M394.000000,285.000000 
	C389.370026,283.806366 384.666840,284.866394 379.996460,284.552551 
	C372.342865,284.038239 364.666656,285.759613 357.000000,284.500000 
"/>
<path fill="none" opacity="1.000000" stroke="#000000" stroke-linecap="round" stroke-linejoin="round" stroke-width="3.000000"
	d="
M421.500000,294.000000 
	C414.561920,294.891998 407.928925,299.872375 406.500000,306.500000 
"/>
<path fill="none" opacity="1.000000" stroke="#000000" stroke-linecap="round" stroke-linejoin="round" stroke-width="3.000000"
	d="
M563.500000,223.000000 
	C567.985962,227.485641 568.295471,228.847427 566.000000,234.000000 
"/>
<path fill="none" opacity="1.000000" stroke="#000000" stroke-linecap="round" stroke-linejoin="round" stroke-width="4.000000"
	d="
M551.500000,196.000000 
	C548.703125,200.949219 551.363892,204.534027 554.500000,208.000000 
"/>
<path fill="none" opacity="1.000000" stroke="#000000" stroke-linecap="round" stroke-linejoin="round" stroke-width="3.000000"
	d="
M483.500000,68.999992 
	C479.500000,69.166664 475.500000,69.333328 471.500000,69.499992 
"/>
<path fill="none" opacity="1.000000" stroke="#000000" stroke-linecap="round" stroke-linejoin="round" stroke-width="4.000000"
	d="
M448.500000,200.000000 
	C452.500000,203.581833 456.500000,203.479034 460.500000,200.000000 
"/>
<path fill="none" opacity="1.000000" stroke="#000000" stroke-linecap="round" stroke-linejoin="round" stroke-width="4.000000"
	d="
M235.500000,280.500000 
	C231.204086,280.072998 228.280563,281.296906 226.879166,285.963715 
	C225.781158,289.620270 224.113663,292.953491 223.844360,296.989624 
	C223.430374,303.194122 218.553741,308.028381 213.500000,308.500000 
"/>
<path fill="none" opacity="1.000000" stroke="#000000" stroke-linecap="round" stroke-linejoin="round" stroke-width="3.000000"
	d="
M374.000000,105.000000 
	C370.037262,107.065750 367.529602,111.265617 363.000000,112.500000 
"/>
<path fill="none" opacity="1.000000" stroke="#000000" stroke-linecap="round" stroke-linejoin="round" stroke-width="3.000000"
	d="
M158.500000,311.500000 
	C155.219284,313.511658 152.441360,316.696503 148.000000,316.000000 
"/>
<path fill="none" opacity="1.000000" stroke="#000000" stroke-linecap="round" stroke-linejoin="round" stroke-width="3.000000"
	d="
M422.500000,284.000000 
	C420.500000,286.500000 418.513031,289.010590 416.493774,291.494934 
	C415.648468,292.535004 414.579651,293.475128 415.500000,295.000000 
"/>
<path fill="none" opacity="1.000000" stroke="#000000" stroke-linecap="round" stroke-linejoin="round" stroke-width="3.000000"
	d="
M459.500000,286.000000 
	C463.062225,288.636078 463.428986,293.250305 466.000000,296.500000 
"/>
<path fill="none" opacity="1.000000" stroke="#000000" stroke-linecap="round" stroke-linejoin="round" stroke-width="3.000000"
	d="
M192.500000,247.000000 
	C191.358917,251.417877 187.585220,252.927139 183.983337,254.460892 
	C180.056625,256.132996 176.018021,257.550812 171.992233,258.978088 
	C170.040466,259.670074 168.009933,260.112000 166.500000,258.000000 
"/>
<path fill="none" opacity="1.000000" stroke="#000000" stroke-linecap="round" stroke-linejoin="round" stroke-width="3.000000"
	d="
M224.000000,302.500000 
	C225.666672,306.166656 227.333328,309.833344 229.000000,313.500000 
"/>
<path fill="none" opacity="1.000000" stroke="#000000" stroke-linecap="round" stroke-linejoin="round" stroke-width="3.000000"
	d="
M542.500000,205.499985 
	C538.833313,205.999985 535.166687,206.499985 531.500000,206.999985 
"/>
<path fill="none" opacity="1.000000" stroke="#000000" stroke-linecap="round" stroke-linejoin="round" stroke-width="3.000000"
	d="
M464.000000,278.500000 
	C464.270447,282.664886 467.428406,285.454742 469.000000,289.000000 
"/>
<path fill="none" opacity="1.000000" stroke="#000000" stroke-linecap="round" stroke-linejoin="round" stroke-width="3.000000"
	d="
M393.500000,216.500000 
	C397.833344,216.392075 402.166656,217.682190 406.500000,216.500000 
"/>
<path fill="none" opacity="1.000000" stroke="#000000" stroke-linecap="round" stroke-linejoin="round" stroke-width="3.000000"
	d="
M229.000000,296.500000 
	C231.198181,299.487396 231.143539,303.375916 233.000000,306.500000 
"/>
<path fill="none" opacity="1.000000" stroke="#000000" stroke-linecap="round" stroke-linejoin="round" stroke-width="3.000000"
	d="
M408.500000,210.000000 
	C405.166656,210.000000 401.833344,210.000000 398.500000,210.000000 
"/>
<path fill="none" opacity="1.000000" stroke="#000000" stroke-linecap="round" stroke-linejoin="round" stroke-width="3.000000"
	d="
M458.500000,197.000000 
	C454.946808,195.134735 451.622375,195.557205 448.500000,198.000000 
"/>
<path fill="none" opacity="1.000000" stroke="#000000" stroke-linecap="round" stroke-linejoin="round" stroke-width="3.000000"
	d="
M192.000000,245.000000 
	C190.333328,244.500641 188.682205,244.024704 186.997116,244.994995 
	C181.820358,247.975830 176.378174,250.219971 170.528000,251.617218 
	C168.845352,252.019104 167.500015,253.833344 166.000015,255.000015 
"/>
<path fill="none" opacity="1.000000" stroke="#000000" stroke-linecap="round" stroke-linejoin="round" stroke-width="3.000000"
	d="
M199.000000,277.000000 
	C192.085739,283.473511 187.295120,291.636261 181.500000,299.000000 
"/>
<path fill="none" opacity="1.000000" stroke="#000000" stroke-linecap="round" stroke-linejoin="round" stroke-width="3.000000"
	d="
M46.499996,262.500000 
	C44.166664,264.833344 41.833328,267.166656 39.499996,269.500000 
"/>
<path fill="none" opacity="1.000000" stroke="#000000" stroke-linecap="round" stroke-linejoin="round" stroke-width="3.000000"
	d="
M241.000000,247.500000 
	C237.820877,247.133453 234.692413,247.659576 233.109039,250.559540 
	C231.756485,253.036713 232.154297,255.869141 234.500000,258.000000 
"/>
<path fill="none" opacity="1.000000" stroke="#000000" stroke-linecap="round" stroke-linejoin="round" stroke-width="3.000000"
	d="
M206.500000,263.000000 
	C204.318649,266.657990 202.511978,270.503052 200.195984,274.125305 
	C197.802170,277.869293 201.780655,279.731598 204.500000,281.500000 
"/>
<path fill="none" opacity="1.000000" stroke="#000000" stroke-linecap="round" stroke-linejoin="round" stroke-width="3.000000"
	d="
M467.000000,272.500000 
	C467.680328,276.204620 471.380249,278.063934 472.500000,281.500000 
"/>
<path fill="none" opacity="1.000000" stroke="#000000" stroke-linecap="round" stroke-linejoin="round" stroke-width="3.000000"
	d="
M414.000000,304.000000 
	C410.484222,303.509277 408.871277,307.179138 405.542633,307.749054 
	C402.870667,308.206543 400.756866,310.980103 401.500000,314.500000 
"/>
<path fill="none" opacity="1.000000" stroke="#000000" stroke-linecap="round" stroke-linejoin="round" stroke-width="3.000000"
	d="
M434.500000,276.500000 
	C434.540802,280.687073 431.623260,283.392181 429.507019,286.504791 
	C428.567657,287.886475 426.497986,288.415161 426.500000,290.500000 
"/>
<path fill="none" opacity="1.000000" stroke="#000000" stroke-linecap="round" stroke-linejoin="round" stroke-width="3.000000"
	d="
M177.500000,204.000000 
	C181.329834,203.007004 182.503937,207.325455 185.500000,208.000000 
"/>
<path fill="none" opacity="1.000000" stroke="#000000" stroke-linecap="round" stroke-linejoin="round" stroke-width="3.000000"
	d="
M237.000000,235.000000 
	C233.881348,236.816788 231.531647,239.512360 229.000000,242.000000 
"/>
<path fill="none" opacity="1.000000" stroke="#000000" stroke-linecap="round" stroke-linejoin="round" stroke-width="3.000000"
	d="
M484.500000,74.500000 
	C481.742584,73.214882 479.160156,74.728989 476.500000,75.000000 
"/>
<path fill="none" opacity="1.000000" stroke="#000000" stroke-linecap="round" stroke-linejoin="round" stroke-width="4.000000"
	d="
M551.500000,338.000000 
	C548.499023,340.328369 545.231750,341.325500 541.500000,340.000000 
"/>
<path fill="none" opacity="1.000000" stroke="#000000" stroke-linecap="round" stroke-linejoin="round" stroke-width="3.000000"
	d="
M240.000000,286.500000 
	C240.666656,289.166656 241.333328,291.833344 242.000000,294.500000 
"/>
<path fill="none" opacity="1.000000" stroke="#000000" stroke-linecap="round" stroke-linejoin="round" stroke-width="3.000000"
	d="
M472.000000,265.500000 
	C472.042297,268.383087 473.965179,270.513916 475.000000,273.000000 
"/>
<path fill="none" opacity="1.000000" stroke="#000000" stroke-linecap="round" stroke-linejoin="round" stroke-width="3.000000"
	d="
M438.000000,148.000000 
	C434.942230,150.912064 435.931427,154.980408 435.000000,158.500000 
"/>
<path fill="none" opacity="1.000000" stroke="#000000" stroke-linecap="round" stroke-linejoin="round" stroke-width="3.000000"
	d="
M290.500000,117.000000 
	C289.560913,119.928200 291.464355,122.098396 292.500000,124.500000 
"/>
<path fill="none" opacity="1.000000" stroke="#000000" stroke-linecap="round" stroke-linejoin="round" stroke-width="3.000000"
	d="
M132.000000,238.000000 
	C130.366562,240.273315 129.679214,242.735840 130.500000,245.500000 
"/>
<path fill="none" opacity="1.000000" stroke="#000000" stroke-linecap="round" stroke-linejoin="round" stroke-width="3.000000"
	d="
M601.000000,372.000000 
	C599.538513,374.518616 595.239136,372.938019 594.500000,376.500000 
"/>
<path fill="none" opacity="1.000000" stroke="#000000" stroke-linecap="round" stroke-linejoin="round" stroke-width="3.000000"
	d="
M389.500000,237.000000 
	C393.166656,237.000000 396.833344,237.000000 400.500000,237.000000 
"/>
<path fill="none" opacity="1.000000" stroke="#000000" stroke-linecap="round" stroke-linejoin="round" stroke-width="3.000000"
	d="
M313.500000,310.500000 
	C310.842468,311.616028 309.261597,313.906586 307.094940,315.870148 
	C308.512329,318.095032 309.756165,320.047516 311.000000,322.000000 
"/>
<path fill="none" opacity="1.000000" stroke="#000000" stroke-linecap="round" stroke-linejoin="round" stroke-width="3.000000"
	d="
M209.500000,96.000000 
	C211.961517,96.700912 213.382538,99.829643 216.500000,99.000000 
"/>
<path fill="none" opacity="1.000000" stroke="#000000" stroke-linecap="round" stroke-linejoin="round" stroke-width="3.000000"
	d="
M229.500000,234.000000 
	C226.901535,235.180466 224.882416,236.992935 223.500000,239.500000 
"/>
<path fill="none" opacity="1.000000" stroke="#000000" stroke-linecap="round" stroke-linejoin="round" stroke-width="3.000000"
	d="
M374.500000,97.500000 
	C371.833160,98.699768 369.455688,100.304649 367.500000,102.500000 
"/>
<path fill="none" opacity="1.000000" stroke="#000000" stroke-linecap="round" stroke-linejoin="round" stroke-width="3.000000"
	d="
M442.000000,147.500000 
	C444.379761,154.414444 442.669128,156.695267 436.000000,155.500000 
"/>
<path fill="none" opacity="1.000000" stroke="#000000" stroke-linecap="round" stroke-linejoin="round" stroke-width="3.000000"
	d="
M235.000000,292.500000 
	C235.666672,294.833344 236.333328,297.166656 237.000000,299.500000 
"/>
<path fill="none" opacity="1.000000" stroke="#000000" stroke-linecap="round" stroke-linejoin="round" stroke-width="3.000000"
	d="
M127.500000,249.500000 
	C125.226143,250.249664 122.581139,248.401321 120.500000,250.500000 
"/>
<path fill="none" opacity="1.000000" stroke="#000000" stroke-linecap="round" stroke-linejoin="round" stroke-width="3.000000"
	d="
M548.500000,216.000015 
	C544.166687,216.666687 539.833313,217.333344 535.500000,218.000015 
"/>
<path fill="none" opacity="1.000000" stroke="#000000" stroke-linecap="round" stroke-linejoin="round" stroke-width="3.000000"
	d="
M247.000000,273.000000 
	C249.531464,274.459839 248.880493,277.388489 250.000000,279.500000 
"/>
<path fill="none" opacity="1.000000" stroke="#000000" stroke-linecap="round" stroke-linejoin="round" stroke-width="3.000000"
	d="
M328.500000,294.500000 
	C325.066315,296.254028 322.038879,298.160400 325.500000,302.500000 
"/>
<path fill="none" opacity="1.000000" stroke="#000000" stroke-linecap="round" stroke-linejoin="round" stroke-width="3.000000"
	d="
M324.000000,300.500000 
	C318.503021,303.162933 318.391815,303.607727 321.500000,310.500000 
"/>
<path fill="none" opacity="1.000000" stroke="#000000" stroke-linecap="round" stroke-linejoin="round" stroke-width="2.000000"
	d="
M539.000000,157.000000 
	C537.015564,158.517715 534.512695,156.665894 532.500000,158.000000 
"/>
<path fill="none" opacity="1.000000" stroke="#000000" stroke-linecap="round" stroke-linejoin="round" stroke-width="2.000000"
	d="
M440.500000,124.500000 
	C440.968170,126.652153 441.562988,128.751526 443.000000,130.500000 
"/>
<path fill="none" opacity="1.000000" stroke="#000000" stroke-linecap="round" stroke-linejoin="round" stroke-width="3.000000"
	d="
M515.500000,240.500000 
	C518.186951,241.098389 518.928223,243.447952 520.000000,245.500000 
"/>
<path fill="none" opacity="1.000000" stroke="#000000" stroke-linecap="round" stroke-linejoin="round" stroke-width="3.000000"
	d="
M169.000000,307.500000 
	C167.500534,309.524719 164.697342,309.314484 163.000000,311.000000 
"/>
<path fill="none" opacity="1.000000" stroke="#000000" stroke-linecap="round" stroke-linejoin="round" stroke-width="3.000000"
	d="
M318.500000,305.500000 
	C313.041748,309.290222 312.832092,311.386627 317.500000,315.500000 
"/>
<path fill="none" opacity="1.000000" stroke="#000000" stroke-linecap="round" stroke-linejoin="round" stroke-width="3.000000"
	d="
M527.500000,146.000000 
	C529.333313,146.000000 531.166687,146.000000 533.000000,146.000000 
"/>
<path fill="none" opacity="1.000000" stroke="#000000" stroke-linecap="round" stroke-linejoin="round" stroke-width="3.000000"
	d="
M337.000000,282.000000 
	C334.146332,283.916809 332.297516,286.101562 335.000000,289.500000 
"/>
<path fill="none" opacity="1.000000" stroke="#000000" stroke-linecap="round" stroke-linejoin="round" stroke-width="3.000000"
	d="
M175.500000,251.000000 
	C175.833344,252.833328 176.166672,254.666672 176.500000,256.500000 
"/>
<path fill="none" opacity="1.000000" stroke="#000000" stroke-linecap="round" stroke-linejoin="round" stroke-width="3.000000"
	d="
M446.500000,115.000000 
	C444.531738,115.365059 443.343994,116.510658 443.000000,118.500000 
"/>
<path fill="none" opacity="1.000000" stroke="#000000" stroke-linecap="round" stroke-linejoin="round" stroke-width="3.000000"
	d="
M281.000000,234.000000 
	C279.166656,235.166672 277.333344,236.333344 275.500000,237.500000 
"/>
<path fill="none" opacity="1.000000" stroke="#000000" stroke-linecap="round" stroke-linejoin="round" stroke-width="3.000000"
	d="
M262.000000,237.000000 
	C263.432465,238.234192 263.973785,240.359543 266.000000,241.000000 
"/>
<path fill="none" opacity="1.000000" stroke="#000000" stroke-linecap="round" stroke-linejoin="round" stroke-width="3.000000"
	d="
M541.000000,163.500000 
	C539.166077,164.664383 536.665222,163.160889 535.000000,165.000000 
"/>
<path fill="none" opacity="1.000000" stroke="#000000" stroke-linecap="round" stroke-linejoin="round" stroke-width="3.000000"
	d="
M296.000000,155.500000 
	C297.638000,158.268219 294.830261,159.554535 294.000000,161.500000 
"/>
<path fill="none" opacity="1.000000" stroke="#000000" stroke-linecap="round" stroke-linejoin="round" stroke-width="3.000000"
	d="
M524.000000,124.500000 
	C522.071228,125.521667 520.001404,124.849876 518.000000,125.000000 
"/>
<path fill="none" opacity="1.000000" stroke="#000000" stroke-linecap="round" stroke-linejoin="round" stroke-width="1.000000"
	d="
M493.000000,68.999992 
	C492.500000,69.333328 492.000000,69.666664 491.500000,69.999992 
"/>
</svg>