<svg version="1.1" id="Layer_1" xmlns="http://www.w3.org/2000/svg" xmlns:xlink="http://www.w3.org/1999/xlink" x="0px" y="0px"
	 width="100%" viewBox="0 0 640 640" enable-background="new 0 0 640 640" xml:space="preserve">
<path fill="#000000" opacity="1.000000" stroke="none" 
	d="
M391.324127,326.279968 
	C378.125183,346.927094 365.126343,367.273895 352.092316,387.598114 
	C348.539398,393.138245 346.736633,393.342499 342.104645,388.758759 
	C334.882019,381.611389 327.621490,374.498077 320.571960,367.182465 
	C318.217743,364.739380 316.137787,364.021912 313.234161,365.989960 
	C311.867676,366.916138 310.282623,367.524811 308.782532,368.248108 
	C302.927277,371.071411 301.291260,370.321259 299.960388,363.781189 
	C298.867035,358.408112 298.837219,352.690369 296.959259,347.637024 
	C294.505249,341.033569 294.645660,334.237762 293.679321,327.530029 
	C293.122009,323.661621 291.506500,320.873779 288.154633,318.619324 
	C281.111023,313.881866 274.351227,308.722961 267.463867,303.752380 
	C265.557892,302.376831 263.378754,301.104370 263.836060,298.294220 
	C264.331543,295.249481 267.139069,295.331848 269.294281,294.847961 
	C305.339325,286.755585 341.399902,278.732391 377.450989,270.666748 
	C392.878937,267.215057 408.292114,263.697388 423.714508,260.220734 
	C425.980988,259.709808 428.441589,258.860840 430.177673,261.137756 
	C432.020172,263.554260 430.139771,265.532745 428.912109,267.456207 
	C416.458038,286.969513 403.981323,306.468323 391.324127,326.279968 
M392.930542,287.493469 
	C363.388763,304.779541 333.847015,322.065613 304.881226,339.014679 
	C319.022705,353.340240 332.747955,367.244171 346.928680,381.609497 
	C369.324066,346.564545 391.756866,311.461029 414.189667,276.357513 
	C413.918915,276.122955 413.648132,275.888397 413.377380,275.653839 
	C406.775330,279.482452 400.173309,283.311096 392.930542,287.493469 
M380.261261,279.731720 
	C382.935333,278.457581 385.609375,277.183441 388.283447,275.909302 
	C388.234863,275.753418 388.186279,275.597534 388.137695,275.441620 
	C351.004761,283.714325 313.871826,291.987030 276.738861,300.259735 
	C276.698120,300.736511 276.657349,301.213287 276.616608,301.690033 
	C281.826843,305.474609 287.173645,309.088654 292.194397,313.109833 
	C295.051941,315.398499 297.407379,315.534729 300.759064,314.069946 
	C326.980164,302.610413 353.294739,291.364777 380.261261,279.731720 
M347.035004,301.657288 
	C333.431274,307.520233 319.840973,313.414581 306.218323,319.233307 
	C299.097565,322.274841 298.436279,324.135101 302.581909,331.693024 
	C323.898865,319.208557 345.199371,306.733704 366.499878,294.258881 
	C366.359650,294.019409 366.219421,293.779938 366.079193,293.540436 
	C359.959778,296.138184 353.840393,298.735901 347.035004,301.657288 
z"/>
<path fill="#000000" opacity="1.000000" stroke="none" 
	d="
M363.215210,618.547546 
	C361.471954,620.332458 360.324585,619.849548 359.841431,617.911255 
	C359.498260,616.534302 359.509918,615.068787 358.959106,613.341614 
	C359.389679,619.427307 355.380219,620.401489 351.163208,620.149231 
	C342.428284,619.626587 333.681213,620.106323 324.900299,619.274170 
	C321.026398,618.906982 316.116577,618.243286 311.812988,619.752319 
	C309.852814,620.439575 307.899506,620.109619 306.248383,618.881409 
	C300.762390,626.493530 295.031830,624.404541 289.672913,612.992615 
	C286.962555,614.646973 289.612061,617.917847 287.371094,619.845581 
	C284.025238,619.633484 280.367126,619.257751 277.326660,621.884827 
	C276.470856,622.624329 275.161377,622.697632 274.733887,621.662048 
	C273.224945,618.006775 273.264343,614.005249 274.446930,610.455750 
	C275.444580,607.461365 278.781342,608.071899 281.425690,608.377380 
	C288.715057,609.219727 296.004791,608.590698 303.275513,608.198303 
	C304.628204,608.125305 305.893066,606.424805 307.500488,605.255676 
	C310.075989,608.797302 313.550568,608.541321 317.513916,608.307190 
	C321.644714,608.063171 325.786011,608.856995 330.078339,608.357910 
	C333.695587,607.937195 335.875397,610.893982 335.838318,614.992249 
	C338.087311,608.423767 338.899902,608.032471 345.674438,608.407776 
	C350.776428,608.690491 355.919189,608.809143 361.014648,608.507996 
	C369.194031,608.024475 368.324005,609.766846 368.303375,616.549194 
	C368.300385,617.524902 368.368347,618.569702 367.408722,619.248657 
	C365.170166,617.840027 365.170166,617.840027 364.346802,612.819092 
	C362.917694,614.802917 363.798309,616.671143 363.215210,618.547546 
z"/>
<path fill="#000000" opacity="1.000000" stroke="none" 
	d="
M214.217712,421.121765 
	C212.376511,421.526917 210.643784,421.942383 210.107712,420.022064 
	C209.544434,418.004333 211.467255,417.664490 212.783539,417.108490 
	C214.285110,416.474182 215.993729,416.237335 216.915344,414.934875 
	C217.184402,413.733215 216.553497,413.157990 215.943237,412.613678 
	C214.882355,411.667450 213.926575,410.500244 214.887619,409.193756 
	C216.093445,407.554565 217.675507,408.432037 218.783661,409.435059 
	C220.898270,411.349121 225.322067,411.613068 224.881226,415.184540 
	C224.524719,418.072723 220.556076,418.119904 218.256851,419.526184 
	C217.143295,420.207275 215.805878,420.522369 214.217712,421.121765 
z"/>
<path fill="#000000" opacity="1.000000" stroke="none" 
	d="
M249.369522,421.639648 
	C248.176636,421.275696 247.415756,420.755310 247.470032,419.835968 
	C247.645569,416.862671 250.413071,417.365387 252.037720,417.073029 
	C254.305237,416.665039 256.764099,414.170532 258.987976,416.565613 
	C260.321411,418.001678 259.124512,419.523010 257.518951,419.991882 
	C254.975296,420.734772 252.334152,421.143707 249.369522,421.639648 
z"/>
<path fill="#000000" opacity="1.000000" stroke="none" 
	d="
M271.765503,408.887238 
	C273.199921,408.407227 274.429382,407.959137 275.148956,409.270447 
	C275.788696,410.436279 275.271332,411.490723 274.280640,412.303467 
	C274.153473,412.407745 274.033997,412.528717 273.891357,412.605713 
	C271.204132,414.056427 268.878845,416.487488 265.444824,415.912231 
	C264.988220,415.835724 264.238281,414.872253 264.337677,414.522125 
	C265.340973,410.988403 269.099640,410.909943 271.765503,408.887238 
z"/>
<path fill="#000000" opacity="1.000000" stroke="none" 
	d="
M163.647369,405.689453 
	C165.921844,407.539764 167.905106,409.274933 169.799713,411.102020 
	C170.758041,412.026276 171.751328,413.184174 170.525558,414.507507 
	C169.355347,415.770844 168.012329,415.076508 166.994186,414.206360 
	C165.242386,412.709259 163.466797,411.183960 162.006409,409.418091 
	C160.623764,407.746277 160.403259,406.022614 163.647369,405.689453 
z"/>
<path fill="#000000" opacity="1.000000" stroke="none" 
	d="
M210.739914,405.235291 
	C206.156860,404.516907 205.010986,400.784119 203.507904,397.573914 
	C202.679703,395.805115 203.776093,394.616486 205.803574,395.099762 
	C208.042831,395.633545 211.565475,402.528809 210.739914,405.235291 
z"/>
<path fill="#000000" opacity="1.000000" stroke="none" 
	d="
M148.029938,348.765228 
	C148.601898,345.969879 149.148956,343.547150 149.843491,341.167450 
	C150.232086,339.835968 150.989059,338.631500 152.685303,339.179871 
	C154.061600,339.624878 154.194839,340.822052 153.899185,342.044098 
	C153.354279,344.296417 152.956024,346.615173 152.115799,348.756836 
	C151.186417,351.125732 149.716644,352.095428 148.029938,348.765228 
z"/>
<path fill="#000000" opacity="1.000000" stroke="none" 
	d="
M197.272430,419.700806 
	C200.007767,420.356476 204.306885,418.051575 204.292557,421.579926 
	C204.278870,424.948212 199.845047,423.835724 197.222977,424.068542 
	C195.508392,424.220764 193.043823,424.516663 192.830246,422.034424 
	C192.588043,419.219940 195.160446,419.940338 197.272430,419.700806 
z"/>
<path fill="#000000" opacity="1.000000" stroke="none" 
	d="
M159.439743,399.310181 
	C159.527878,401.233582 159.004044,402.331604 157.195984,401.894714 
	C155.312698,401.439758 151.445068,393.804230 152.343811,392.186127 
	C153.558273,389.999634 155.112640,390.628204 156.120865,392.307861 
	C157.385498,394.414673 158.305008,396.728699 159.439743,399.310181 
z"/>
<path fill="#000000" opacity="1.000000" stroke="none" 
	d="
M244.845459,390.569397 
	C247.272507,395.334106 243.482391,397.855652 241.418228,400.948700 
	C240.967651,401.623840 239.856400,401.480865 239.115356,401.019989 
	C238.347260,400.542328 237.870209,399.579620 238.369278,398.887817 
	C240.407013,396.062958 240.450058,391.770905 244.845459,390.569397 
z"/>
<path fill="#000000" opacity="1.000000" stroke="none" 
	d="
M242.909958,366.283325 
	C242.754654,368.956238 241.456375,369.563995 239.653732,368.276489 
	C237.520691,366.752991 235.585724,364.945801 233.614059,363.205811 
	C232.793411,362.481659 232.573486,361.458740 233.188309,360.532135 
	C233.974960,359.346588 235.206787,359.426849 236.249405,360.059814 
	C238.789444,361.601990 241.154480,363.379852 242.909958,366.283325 
z"/>
<path fill="#000000" opacity="1.000000" stroke="none" 
	d="
M232.652710,405.284058 
	C233.769867,405.156891 234.935806,404.907257 235.272446,405.325317 
	C237.176025,407.689484 234.948700,409.014099 233.519363,410.016632 
	C231.421753,411.487885 229.915268,414.966431 226.570358,413.222321 
	C225.127304,412.469910 225.929932,410.863647 227.016373,409.910217 
	C228.748642,408.390106 230.547684,406.946136 232.652710,405.284058 
z"/>
<path fill="#000000" opacity="1.000000" stroke="none" 
	d="
M148.280853,381.449615 
	C148.224106,378.588226 145.675568,374.683624 149.279785,374.065308 
	C152.564270,373.501862 151.564270,377.918488 152.349686,380.187927 
	C152.455353,380.493225 152.444824,380.836731 152.526169,381.152802 
	C152.970764,382.880249 153.913544,385.143494 151.376068,385.590424 
	C149.064545,385.997528 148.858093,383.537079 148.280853,381.449615 
z"/>
<path fill="#000000" opacity="1.000000" stroke="none" 
	d="
M206.611084,364.534271 
	C208.037491,363.396698 209.287094,362.049164 210.714264,363.439819 
	C212.151260,364.840088 210.919754,366.065002 209.916580,367.216339 
	C208.627289,368.696014 207.451569,370.274017 206.188553,371.777405 
	C205.427704,372.683044 204.526901,373.523468 203.248566,372.808533 
	C201.708481,371.947235 201.980759,370.572906 202.746109,369.423065 
	C203.827911,367.797791 205.131134,366.319946 206.611084,364.534271 
z"/>
<path fill="#000000" opacity="1.000000" stroke="none" 
	d="
M234.185516,421.298370 
	C232.128723,420.674072 230.107346,420.556519 229.808151,417.618317 
	C233.670364,415.663879 237.340195,417.864044 241.012161,418.428467 
	C241.739517,418.540283 242.266678,419.687775 241.798203,420.490570 
	C241.425888,421.128540 240.607285,421.917114 239.983871,421.919678 
	C238.182800,421.927002 236.380264,421.571106 234.185516,421.298370 
z"/>
<path fill="#000000" opacity="1.000000" stroke="none" 
	d="
M147.285202,367.664093 
	C146.936523,364.432922 146.726227,361.485443 146.842194,358.550842 
	C146.905609,356.946228 148.016937,355.274506 149.693924,356.602600 
	C152.286331,358.655640 150.852386,361.809479 150.803726,364.483978 
	C150.769913,366.343414 150.761444,368.799805 147.285202,367.664093 
z"/>
<path fill="#000000" opacity="1.000000" stroke="none" 
	d="
M243.898926,379.239441 
	C243.790070,378.008606 243.685745,377.190491 243.641541,376.369110 
	C243.570816,375.054688 243.337982,373.520721 245.141632,373.238312 
	C246.877258,372.966583 247.387802,374.433899 247.648544,375.709167 
	C248.007675,377.465393 248.245972,379.274994 248.261124,381.064087 
	C248.274048,382.590515 248.709061,384.825928 246.310715,384.851562 
	C244.056671,384.875610 244.280304,382.695984 244.027222,381.128601 
	C243.948868,380.643402 243.960205,380.143738 243.898926,379.239441 
z"/>
<path fill="#000000" opacity="1.000000" stroke="none" 
	d="
M179.336517,421.072723 
	C177.395950,420.003845 174.516312,419.692139 175.799072,417.002350 
	C176.869476,414.757812 178.961761,416.380280 180.601837,416.845734 
	C181.548889,417.114471 182.516281,417.373901 183.397751,417.797333 
	C184.879761,418.509247 187.638397,418.446838 186.796417,420.996033 
	C186.051910,423.250061 183.779739,422.215576 182.072830,421.895172 
	C181.269501,421.744354 180.495148,421.439148 179.336517,421.072723 
z"/>
<path fill="#000000" opacity="1.000000" stroke="none" 
	d="
M225.453384,361.124542 
	C222.939163,361.482178 220.826767,361.749359 218.718231,362.044067 
	C217.461655,362.219696 216.348633,362.046448 215.982697,360.643158 
	C215.618134,359.245148 216.513382,358.320618 217.675476,358.068298 
	C220.070435,357.548309 222.574554,356.816040 224.940704,357.062897 
	C227.778641,357.359009 228.869308,358.947968 225.453384,361.124542 
z"/>
<path fill="#000000" opacity="1.000000" stroke="none" 
	d="
M201.981476,378.273010 
	C204.171295,381.486267 203.119644,384.876617 203.445908,388.090698 
	C203.604553,389.653442 202.338974,390.531067 200.764069,389.551941 
	C198.061539,387.871796 198.660767,380.223572 201.981476,378.273010 
z"/>
</svg>