<svg version="1.1" id="Layer_1" xmlns="http://www.w3.org/2000/svg" xmlns:xlink="http://www.w3.org/1999/xlink" x="0px" y="0px"
	 width="100%" viewBox="0 0 560 736" enable-background="new 0 0 560 736" xml:space="preserve">
<path fill="#000000" opacity="1.000000" stroke="none" 
	d="
M304.005676,495.001526 
	C284.558044,476.147430 267.342590,455.836182 251.353790,434.439728 
	C249.540710,432.013489 247.695740,427.695831 242.568787,431.936218 
	C233.328247,408.716034 225.290115,385.368744 216.868027,361.715790 
	C213.935028,362.576630 211.258209,363.383667 208.569321,364.148315 
	C166.926590,375.989899 122.794640,359.650299 97.667999,327.321960 
	C88.454613,315.467926 84.564529,301.620087 84.059181,286.794189 
	C83.162254,260.480194 89.528725,236.312988 105.711113,215.132019 
	C111.005043,208.202881 117.305374,202.317520 124.616974,197.230591 
	C117.936775,194.863190 112.730141,195.936386 108.180649,200.286316 
	C103.394630,204.862427 99.689705,210.342651 95.214981,216.898560 
	C94.464493,211.569580 97.354668,208.832977 98.199280,204.917877 
	C91.910561,209.282822 89.455437,216.125748 85.638451,221.851852 
	C82.968460,220.055634 84.098404,218.460007 84.557884,216.985733 
	C87.208366,208.481537 92.555336,201.811127 100.049782,197.429245 
	C108.538910,192.465775 116.664604,186.957870 125.074875,181.894119 
	C134.594437,176.162445 144.767761,173.951889 155.735443,176.608963 
	C158.648987,177.314804 161.609711,178.086105 163.420532,180.830139 
	C164.648560,182.691025 166.375916,181.996078 167.948059,181.715210 
	C217.937790,172.784637 268.463837,210.973022 275.864624,262.138214 
	C279.890411,289.970337 271.523499,314.490692 253.152420,335.623749 
	C245.319885,344.633881 236.255188,352.173859 225.466324,357.459534 
	C222.754059,358.788300 221.943741,360.380463 223.073654,363.429871 
	C225.331161,369.522552 228.367294,374.367279 234.483627,377.776398 
	C242.149384,382.049072 248.985489,387.803284 256.218475,392.862579 
	C259.364075,395.062866 260.324768,397.809601 259.143951,401.511963 
	C257.626862,406.268890 256.297821,411.087494 254.966690,415.901398 
	C254.054337,419.200897 252.712372,421.015533 249.291382,417.699005 
	C259.444214,433.842590 270.294952,449.151001 282.852509,463.092010 
	C299.811371,481.919159 317.912781,499.642120 337.034210,516.297241 
	C342.416016,520.984802 342.430450,521.010254 347.340912,516.179810 
	C374.413452,489.548096 401.470795,462.900940 428.555756,436.281921 
	C429.922913,434.938293 431.074707,433.774200 430.327057,431.563385 
	C427.433838,423.008240 430.852020,415.705811 436.729126,410.317169 
	C450.269958,397.901733 465.317230,387.381836 481.806885,379.158081 
	C485.190674,377.470490 489.040344,375.605316 493.359131,377.389587 
	C493.825500,382.079712 490.694458,384.845337 488.091339,387.723877 
	C480.927887,395.645142 472.978546,402.775208 464.949829,409.789032 
	C461.567657,412.743683 460.155975,415.926758 461.338928,420.289520 
	C461.771545,421.885040 462.012634,423.560303 462.114838,425.213196 
	C462.866791,437.373260 452.120850,444.293854 440.599609,438.371765 
	C435.752533,435.880341 433.390625,437.527252 430.382690,440.519897 
	C412.663422,458.149139 394.917480,475.751770 377.127655,493.309814 
	C367.287170,503.022064 357.401794,512.690552 347.422699,522.259888 
	C342.261963,527.208618 341.270660,527.344727 335.376221,523.339600 
	C323.724030,515.422241 314.294464,504.990234 304.005676,495.001526 
M113.209808,212.708282 
	C95.236008,234.135315 88.745338,259.093414 90.100189,286.620300 
	C90.813744,301.117828 95.346779,314.143433 104.681709,325.119293 
	C122.362656,345.908295 144.854401,358.009064 172.114899,361.124146 
	C205.593399,364.949860 241.928589,351.423828 260.874542,316.135376 
	C270.182495,298.798523 272.014099,280.528687 269.003754,261.862915 
	C265.209442,238.335968 252.690674,219.645782 233.722305,205.155777 
	C210.960175,187.767731 185.587967,182.924240 157.496643,188.479462 
	C158.016830,189.081039 158.267181,189.465561 158.606064,189.741241 
	C159.182495,190.210205 159.500092,190.711411 158.560715,192.620728 
	C141.567017,193.053360 125.658943,198.307007 113.209808,212.708282 
M437.901703,415.463379 
	C436.182953,417.946930 434.676941,420.547058 434.468842,423.634155 
	C434.345825,425.459351 434.320099,427.955048 436.336792,428.302765 
	C439.421204,428.834625 441.136292,431.142334 443.554443,432.475098 
	C446.809875,434.269379 450.421509,435.743164 453.965363,433.932861 
	C457.328278,432.214905 456.408691,428.528442 456.736908,425.434418 
	C457.111115,421.906860 455.383301,419.576263 452.444580,417.446533 
	C462.166748,403.975891 476.537994,395.546234 487.325897,382.526337 
	C476.288269,385.529633 446.899078,405.153839 437.901703,415.463379 
M133.436874,192.537399 
	C141.880219,190.305099 149.983444,187.159302 158.448349,184.001099 
	C151.191040,176.915421 130.771896,180.290833 121.591301,190.103149 
	C125.221107,190.868011 128.941010,191.651855 133.436874,192.537399 
z"/>
<path fill="#000000" opacity="1.000000" stroke="none" 
	d="
M227.045776,611.874268 
	C219.014999,602.318848 218.654129,592.840271 222.753860,581.238647 
	C231.339798,556.941589 237.250977,531.779785 240.383377,506.142303 
	C243.083282,484.044800 245.729507,461.905975 245.685959,439.571747 
	C245.682449,437.773346 245.346405,435.916046 246.596893,433.410248 
	C252.192078,440.383789 257.335999,447.139801 259.291809,455.660461 
	C264.069153,476.473328 266.101807,497.573090 266.637512,518.942871 
	C267.273590,544.315979 264.825104,569.428223 261.949280,594.525330 
	C260.141418,610.302124 251.727264,623.407349 243.508621,637.528931 
	C237.744415,628.545410 232.493713,620.362244 227.045776,611.874268 
z"/>
<path fill="#000000" opacity="1.000000" stroke="none" 
	d="
M286.259033,121.000038 
	C286.259308,234.142593 286.259308,346.785156 286.259308,460.661957 
	C280.553589,456.912201 279.769379,452.951050 279.782166,448.407562 
	C279.883362,412.421600 279.902557,376.435333 279.925110,340.449188 
	C279.979889,253.149734 279.993103,165.850250 280.098053,78.550850 
	C280.116852,62.895294 280.494873,47.240166 280.707306,31.584843 
	C280.709564,31.418264 280.700073,31.249731 280.721649,31.085476 
	C281.033661,28.713531 280.349335,25.087667 283.606354,25.083374 
	C287.229218,25.078596 286.056000,28.814154 286.065643,31.033909 
	C286.194946,60.855671 286.213043,90.677910 286.259033,121.000038 
z"/>
<path fill="#000000" opacity="1.000000" stroke="none" 
	d="
M286.266907,513.000000 
	C286.220886,582.110168 286.175415,650.720398 286.108734,719.330566 
	C286.105988,722.147339 286.365753,725.009155 285.358002,727.739807 
	C284.853363,729.107239 283.859009,730.039246 282.392548,730.021729 
	C280.647308,730.000977 280.338226,728.518127 280.190582,727.193176 
	C280.006836,725.543945 279.971588,723.871643 279.971893,722.209351 
	C279.985718,647.438782 279.991516,572.668274 280.069397,497.897736 
	C280.075745,491.791199 280.582428,485.685211 280.877197,479.120453 
	C285.104156,480.675262 286.257843,483.476196 286.261353,487.020477 
	C286.269775,495.513641 286.263855,504.006836 286.266907,513.000000 
z"/>
<path fill="#000000" opacity="1.000000" stroke="none" 
	d="
M271.824036,516.658569 
	C276.286407,537.610657 279.083588,558.349243 278.669250,579.443298 
	C278.620819,581.908813 278.651398,584.319031 277.020630,586.642151 
	C273.638214,562.236267 266.458344,538.256775 269.958893,513.097717 
	C271.826660,513.500488 271.052155,515.293884 271.824036,516.658569 
z"/>
<path fill="#000000" opacity="1.000000" stroke="none" 
	d="
M276.161438,163.081787 
	C272.885651,169.263550 269.652618,174.954895 269.092651,181.893448 
	C268.394562,190.544067 269.872406,198.390015 275.025177,205.466782 
	C277.746704,209.204529 278.067627,213.363586 276.995636,217.826813 
	C259.402313,206.412292 259.189209,170.088745 276.652435,156.580872 
	C278.876282,158.788315 277.142883,160.762497 276.161438,163.081787 
z"/>
<path fill="#000000" opacity="1.000000" stroke="none" 
	d="
M258.042969,385.159576 
	C264.135284,379.119141 269.980011,373.332947 276.730377,367.967743 
	C278.404358,370.926758 277.065216,372.700836 275.575836,374.143555 
	C270.695190,378.871216 265.688263,383.468811 260.712402,388.097626 
	C259.861481,388.889191 258.873352,389.815674 257.674225,388.890961 
	C256.237335,387.782898 256.983978,386.558167 258.042969,385.159576 
z"/>
<path fill="#000000" opacity="1.000000" stroke="none" 
	d="
M205.129364,332.260773 
	C192.875473,338.553802 180.609436,343.588043 167.056778,344.755463 
	C164.022903,345.016815 161.057693,345.058868 158.204178,343.919403 
	C156.730621,343.330963 155.525040,342.316406 155.976257,340.509430 
	C156.375046,338.912476 157.808990,338.696289 159.183762,338.757050 
	C188.301941,340.044098 210.824814,325.048431 232.856766,308.886383 
	C236.244400,306.401276 238.675858,302.947235 241.252502,299.678070 
	C242.483902,298.115753 243.556030,296.417755 245.969635,295.948242 
	C248.330826,298.503906 246.458420,300.544708 245.075317,302.422455 
	C238.445190,311.423676 229.796021,318.175537 220.359833,323.938141 
	C215.533325,326.885681 210.440704,329.397400 205.129364,332.260773 
z"/>
<path fill="#000000" opacity="1.000000" stroke="none" 
	d="
M186.231659,235.184799 
	C193.809998,230.648712 198.764023,232.411774 201.692444,240.272369 
	C203.832321,246.016327 203.512451,251.683243 201.248978,257.301788 
	C199.980026,260.451721 197.809937,262.733765 194.361237,263.127930 
	C190.829987,263.531555 188.209595,261.583954 186.591949,258.665649 
	C182.394424,251.093079 181.434967,243.328476 186.231659,235.184799 
z"/>
<path fill="#000000" opacity="1.000000" stroke="none" 
	d="
M143.258606,259.451263 
	C143.749237,257.114441 143.726776,255.095062 144.943954,253.350418 
	C149.435226,246.912704 156.400558,247.274597 159.939041,254.261490 
	C163.384628,261.064941 163.897369,268.073639 159.865479,274.740143 
	C156.177704,280.837769 151.399673,280.805695 147.351212,274.961090 
	C144.220978,270.442139 143.039291,265.312805 143.258606,259.451263 
z"/>
<path fill="#000000" opacity="1.000000" stroke="none" 
	d="
M181.411194,208.289856 
	C185.700897,205.841843 190.042618,204.785492 194.493057,204.058212 
	C197.050552,203.640259 199.503159,204.033264 201.741928,205.244797 
	C203.677582,206.292313 205.771881,207.774689 204.618561,210.274872 
	C203.546448,212.599014 201.454727,211.204956 199.823029,210.577484 
	C194.074951,208.367081 188.752777,209.877121 183.443268,212.201492 
	C181.593582,213.011185 179.899490,214.889786 177.280807,213.569595 
	C176.946167,210.666412 179.229446,209.724518 181.411194,208.289856 
z"/>
<path fill="#000000" opacity="1.000000" stroke="none" 
	d="
M123.916977,237.600174 
	C125.089638,230.305679 134.100967,222.621689 140.769730,222.747284 
	C142.729202,222.784195 144.660538,223.108994 144.807816,225.456955 
	C144.937744,227.528366 143.282974,228.393448 141.470856,228.297211 
	C135.140488,227.961060 131.439789,231.786270 128.049347,236.334778 
	C127.141304,237.552994 126.395638,240.022644 123.916977,237.600174 
z"/>
</svg>