<svg version="1.1" id="Layer_1" xmlns="http://www.w3.org/2000/svg" xmlns:xlink="http://www.w3.org/1999/xlink" x="0px" y="0px"
	 width="100%" viewBox="0 0 736 704" enable-background="new 0 0 736 704" xml:space="preserve">
<path fill="#000000" opacity="1.000000" stroke="none" 
	d="
M520.788940,483.020569 
	C501.540253,485.621735 482.722260,488.080658 463.927460,490.705231 
	C438.708405,494.226837 413.508148,497.882812 388.297363,501.463623 
	C384.960358,501.937592 382.192719,502.909485 379.613617,505.586792 
	C373.127350,512.320068 357.408264,511.948090 350.075500,505.118011 
	C347.512909,502.731079 344.859131,501.354218 341.389618,500.785889 
	C305.402802,494.890869 269.220306,490.368225 233.125671,485.233887 
	C214.003281,482.513794 194.847107,480.031616 175.720398,477.341003 
	C168.996490,476.395172 168.254440,474.160522 170.450729,467.872406 
	C176.598450,450.270874 182.330917,432.524017 188.195389,414.823975 
	C191.653137,404.387909 194.868713,393.867004 198.562408,383.515991 
	C200.082336,379.256653 199.605133,376.457001 195.777145,373.726807 
	C190.355576,369.860016 186.223099,364.838959 185.775970,357.760864 
	C185.318207,350.514435 188.580597,345.223541 194.878403,341.857208 
	C199.008850,339.649414 203.399338,337.983795 208.133301,337.685272 
	C212.028366,337.439697 214.073135,335.576752 214.980164,331.743164 
	C216.089249,327.055573 217.675598,322.477753 219.133972,317.877319 
	C219.794113,315.794922 220.595947,313.335999 222.982208,313.045349 
	C226.920197,312.565765 228.334579,310.276917 228.884796,306.807098 
	C229.035904,305.854034 229.398468,304.413727 230.054993,304.142090 
	C236.695908,301.394714 236.372787,295.004822 237.700790,289.596741 
	C238.762329,285.273743 240.575790,283.776672 245.399780,284.453430 
	C282.146881,289.608551 316.226074,301.453796 346.355255,323.595184 
	C346.733032,323.872833 347.234039,323.982697 347.969971,324.294983 
	C348.607513,322.242004 347.518036,320.685577 346.847534,319.159912 
	C335.939117,294.337860 321.375946,272.009399 301.616058,253.263931 
	C296.145691,248.074387 290.214203,243.478561 283.188538,240.572601 
	C278.613647,238.680344 273.712280,237.397491 269.512939,241.083466 
	C265.025543,245.022293 265.564453,250.299103 266.968231,255.474121 
	C267.761871,258.399902 269.412903,260.924500 271.076416,263.436279 
	C271.783752,264.504333 272.750793,265.860291 271.244446,266.960022 
	C269.861511,267.969666 268.638794,267.076508 267.852539,265.932953 
	C263.802551,260.042816 260.713531,253.796234 262.065063,246.348618 
	C263.711182,237.277847 270.973907,232.898743 280.433502,235.268814 
	C288.404205,237.265839 294.992157,241.852432 300.998749,247.191376 
	C322.280487,266.107727 337.507660,289.353027 349.484558,314.986847 
	C353.295624,323.143585 354.518738,332.814911 362.504730,338.711884 
	C363.152191,339.189941 363.735779,339.754578 364.752380,340.623840 
	C369.533112,335.288147 374.579651,330.489288 379.954468,326.043243 
	C381.440704,324.813873 381.533356,322.819489 382.054871,321.064758 
	C390.119568,293.928101 403.477997,270.501099 428.441010,255.288116 
	C434.696289,251.476028 441.523224,248.670990 447.562195,244.460007 
	C453.491455,240.325470 458.051605,235.156693 459.715088,227.966385 
	C462.462341,216.091492 456.154602,207.840820 443.960815,207.385086 
	C432.568176,206.959290 423.315552,211.931229 415.356415,219.554016 
	C412.122711,222.651108 409.375610,226.257446 406.421478,229.644608 
	C405.326416,230.900223 404.228333,232.639862 402.373291,231.192825 
	C400.841003,229.997543 401.726196,228.383392 402.716919,227.217163 
	C413.702454,214.285614 425.179871,202.530777 444.327545,203.533463 
	C459.192474,204.311874 467.850952,215.591736 463.582306,229.916565 
	C460.813354,239.208725 454.457703,245.627350 446.263580,250.393524 
	C436.923706,255.826126 427.058319,260.306427 418.722961,267.478760 
	C405.382507,278.957855 390.606812,302.858307 387.055786,319.824860 
	C388.648285,320.617889 389.345306,319.001465 390.426025,318.519379 
	C391.174927,318.185364 391.852386,317.653595 392.497955,317.131317 
	C400.853973,310.371460 412.491211,308.794067 419.956848,301.268768 
	C427.468109,293.697510 434.523407,285.693634 443.174561,279.405121 
	C461.841553,265.836029 482.195709,257.105133 505.890137,258.760559 
	C513.724548,259.307892 521.023743,261.051666 525.812988,268.265869 
	C529.777588,274.237885 529.170227,280.150452 526.435669,286.304413 
	C522.108765,296.041901 514.253418,302.353058 505.739532,308.098114 
	C504.170258,309.157013 501.509186,309.545044 501.613525,311.958618 
	C501.727966,314.607605 504.460052,313.578766 505.998383,314.206512 
	C508.523926,315.237122 509.174072,317.504120 509.873199,319.708435 
	C513.346191,330.659088 516.917175,341.583130 520.104858,352.617249 
	C521.130005,356.165802 522.792053,358.001312 526.472351,358.385437 
	C530.810181,358.838104 534.921875,360.164032 538.734192,362.396179 
	C548.634827,368.193115 551.173096,377.641174 545.322937,387.529572 
	C544.315308,389.232758 543.235229,391.227966 541.645203,392.193237 
	C534.943176,396.261902 535.792847,401.204681 538.047852,407.746094 
	C544.228760,425.675507 549.544189,443.903259 555.199951,462.013641 
	C555.795288,463.920105 556.318604,465.851044 556.973328,467.736603 
	C560.031128,476.544006 559.371216,477.646667 549.919556,478.985382 
	C540.360840,480.339233 530.793457,481.632385 520.788940,483.020569 
M362.670593,415.500061 
	C362.668793,393.511536 362.609741,371.522705 362.724915,349.534790 
	C362.742889,346.103607 361.674927,343.463440 359.398529,341.016113 
	C353.473846,334.646454 346.945984,328.977509 339.848328,323.976562 
	C313.902466,305.695160 284.816528,295.289520 253.790848,289.761414 
	C242.941086,287.828217 242.791794,287.752289 239.914032,298.407104 
	C229.673111,336.323792 219.632233,374.294769 209.275818,412.179657 
	C207.910965,417.172424 209.121155,418.835022 214.044159,419.701904 
	C236.393494,423.637299 258.138245,429.914032 279.386047,437.817535 
	C303.724152,446.870514 326.517090,458.763031 346.637634,475.434937 
	C351.681854,479.614624 356.817383,483.695312 361.436188,488.416168 
	C361.847656,488.192230 362.259155,487.968323 362.670654,487.744385 
	C362.670654,463.996307 362.670654,440.248199 362.670593,415.500061 
M499.441101,336.025482 
	C495.647736,322.045837 491.701233,308.104858 488.154602,294.062897 
	C487.095215,289.868561 485.228668,288.720062 481.124420,289.503326 
	C467.535980,292.096771 454.025940,294.987762 440.886536,299.365112 
	C415.193054,307.924713 391.153625,319.359650 371.681458,338.894318 
	C368.220001,342.366852 366.897125,346.011993 366.882141,350.866547 
	C366.744781,395.357147 367.558044,439.850830 366.545898,484.338867 
	C366.509888,485.921631 366.107117,487.677643 367.997925,488.907349 
	C410.792297,447.799316 464.332336,429.959656 521.467163,419.090790 
	C514.047852,391.134369 506.840546,363.977020 499.441101,336.025482 
M434.799652,297.024017 
	C450.917389,291.600128 467.441620,287.849823 484.176544,284.935791 
	C487.763672,284.311157 490.025024,285.410950 490.799194,289.070892 
	C492.227295,295.822113 494.089966,302.309479 501.406891,305.906555 
	C510.084229,300.692993 518.448853,294.488556 522.729736,284.307007 
	C526.872131,274.454895 523.135864,266.584747 512.943604,263.855957 
	C507.974365,262.525513 502.780884,262.175751 497.595917,262.482941 
	C477.977142,263.645203 460.926453,271.468658 445.365906,282.916199 
	C439.408051,287.299286 433.907959,292.276581 428.922211,298.178162 
	C431.169708,298.878418 432.533417,297.551514 434.799652,297.024017 
M514.389404,377.245850 
	C517.841187,390.269592 521.293213,403.293304 524.744568,416.317139 
	C526.194458,421.788605 525.733154,422.365295 519.982239,423.456970 
	C480.495880,430.952362 442.415253,442.430450 407.721252,463.389801 
	C400.593048,467.696106 393.305054,471.814789 387.519135,478.016357 
	C397.669647,472.243713 408.040741,466.972473 419.024475,463.089355 
	C448.785889,452.567627 479.670715,448.244843 511.053528,446.734222 
	C518.767944,446.362885 526.467468,445.681824 534.659058,445.109222 
	C525.586182,412.780823 516.757874,381.323944 507.929626,349.867065 
	C507.635132,349.946045 507.340637,350.025055 507.046112,350.104034 
	C509.418518,358.890106 511.790924,367.676178 514.389404,377.245850 
M290.817291,446.741150 
	C264.695465,435.528595 237.399521,428.235107 209.662827,422.404572 
	C203.489700,421.106903 203.252548,420.926025 204.822693,414.817902 
	C210.126175,394.186646 215.561447,373.589203 220.973770,352.986023 
	C222.178680,348.399384 223.495697,343.842194 224.761093,339.271423 
	C224.458237,339.193756 224.155380,339.116089 223.852524,339.038391 
	C214.145554,373.750336 204.438583,408.462280 194.437729,444.225128 
	C243.967865,447.360168 293.158173,449.576385 337.570312,474.142029 
	C323.551056,462.771484 307.945312,454.209198 290.817291,446.741150 
M274.434479,456.220184 
	C261.857269,453.753387 249.175354,452.101990 236.389267,451.193848 
	C222.948044,450.239166 209.509125,449.243469 196.078751,448.148743 
	C190.648132,447.706055 189.862244,446.386108 191.342072,441.024933 
	C193.688171,432.525452 196.082153,424.039185 198.422684,415.538177 
	C201.442337,404.570526 204.429291,393.593872 207.430313,382.621094 
	C206.350708,383.098663 205.990967,383.811737 205.751541,384.563110 
	C198.831070,406.282135 191.918320,428.003571 185.014877,449.727997 
	C182.917969,456.326721 183.118378,456.633820 189.864288,457.520844 
	C190.523712,457.607574 191.190125,457.653107 191.854874,457.685425 
	C213.791962,458.751526 235.737457,459.669861 257.663971,460.920837 
	C275.976929,461.965637 294.004486,464.787537 311.556244,470.396881 
	C321.805267,473.672363 331.670837,477.839905 341.433044,482.307251 
	C321.306488,468.726227 298.843933,461.119507 274.434479,456.220184 
M541.325500,442.123077 
	C537.214355,429.065918 533.103149,416.008759 528.681580,401.965759 
	C527.076782,404.329651 527.648804,405.422516 527.934265,406.468445 
	C531.218140,418.499115 534.476929,430.536987 537.847473,442.543457 
	C539.005432,446.668610 538.009277,448.913147 533.385925,449.181427 
	C523.913086,449.731079 514.459778,450.658234 504.982971,451.092072 
	C478.420166,452.308075 452.386139,456.614227 426.971863,464.398468 
	C415.151917,468.018860 404.010315,473.265930 393.586304,479.949280 
	C394.953247,479.801361 396.147766,479.279297 397.344055,478.761353 
	C415.024414,471.106903 433.395172,465.947083 452.531647,463.623199 
	C475.705902,460.808990 499.069733,461.314270 522.311340,459.701874 
	C529.862976,459.177979 537.534363,459.328278 545.128601,457.305786 
	C544.744873,451.959808 542.707397,447.530701 541.325500,442.123077 
M187.491455,466.942230 
	C209.044067,468.836121 230.635284,470.073914 252.251785,470.975189 
	C270.074799,471.718292 287.737732,473.878906 305.172089,477.749084 
	C317.058258,480.387604 328.748169,483.786133 340.535553,486.922089 
	C339.785828,486.176910 338.959961,485.651703 338.087738,485.220276 
	C315.296356,473.947052 291.237061,467.257568 265.866974,465.427338 
	C237.863007,463.407135 209.700836,463.909943 181.777771,460.029022 
	C180.583435,461.956909 179.524506,463.781342 180.120102,466.074707 
	C182.254929,467.106476 184.467743,466.649445 187.491455,466.942230 
M497.244629,464.992035 
	C478.311432,465.860718 459.310883,465.720215 440.575256,469.328888 
	C422.996185,472.714813 406.349182,478.651215 390.225494,486.854492 
	C390.793762,487.077881 391.087708,487.312744 391.328705,487.267242 
	C392.308655,487.082092 393.295624,486.879791 394.238770,486.561554 
	C428.558807,474.980255 464.173218,472.027710 500.025696,470.848206 
	C515.011719,470.355164 529.914062,468.830261 544.859741,467.854553 
	C546.828613,467.726013 548.604553,467.413269 548.057556,464.661530 
	C547.653259,462.627686 546.872742,461.125854 544.460571,461.527039 
	C529.139282,464.075012 513.610046,463.770996 497.244629,464.992035 
M467.176178,476.928894 
	C440.716339,478.344177 414.989960,483.366608 390.136292,492.719238 
	C435.705566,486.376221 481.274841,480.033234 526.844116,473.690216 
	C522.004272,473.488495 517.217468,473.859680 512.425720,474.150116 
	C497.649719,475.045776 482.871857,475.910583 467.176178,476.928894 
M238.492004,474.230499 
	C227.744980,473.617523 216.997955,473.004517 206.250916,472.391541 
	C206.222641,472.644714 206.194366,472.897919 206.166092,473.151093 
	C249.035522,479.109528 291.904938,485.067932 334.774353,491.026367 
	C304.045959,479.035614 271.960510,475.362305 238.492004,474.230499 
M199.956711,372.108002 
	C202.131119,372.602325 202.426086,370.840179 202.866089,369.512238 
	C205.573547,361.341431 208.225647,353.152039 210.836182,344.949707 
	C211.165100,343.916290 211.756271,342.725433 210.648697,341.728210 
	C205.922638,341.455627 200.233795,343.050507 196.137009,345.787476 
	C190.656677,349.448792 188.515350,354.668945 190.429001,360.859528 
	C191.900620,365.620117 195.346375,369.013824 199.956711,372.108002 
M544.157715,378.947601 
	C546.164062,370.049713 534.810974,361.502594 523.666809,363.377625 
	C526.235352,373.645203 530.096191,383.407623 533.856750,393.894226 
	C539.316345,390.018707 542.857483,385.738922 544.157715,378.947601 
M521.556152,384.545685 
	C523.406921,389.221191 523.860840,394.402313 527.308533,398.531067 
	C525.544250,392.951691 523.780029,387.372284 522.015747,381.792908 
	C521.785156,381.852173 521.554626,381.911407 521.324097,381.970673 
	C521.358337,382.617493 521.392578,383.264343 521.556152,384.545685 
z"/>
<path fill="#000000" opacity="1.000000" stroke="none" 
	d="
M342.540222,265.433472 
	C330.469513,252.328461 332.089844,235.257477 338.488495,225.975418 
	C346.829193,213.876160 362.681763,208.800797 375.415283,214.550491 
	C389.829071,221.058884 397.312744,236.497635 393.171753,251.256439 
	C391.711243,256.461884 389.494873,261.374329 385.487427,265.063293 
	C379.104828,270.938690 376.539154,278.061279 377.303162,286.581024 
	C377.791351,292.024719 377.407837,296.978149 372.090790,300.537750 
	C369.824646,302.054840 367.783997,303.556366 365.070862,303.887848 
	C357.410553,304.823700 348.969208,297.378448 349.043762,289.723724 
	C349.091949,284.774567 350.459717,279.826385 348.637146,274.886108 
	C347.338318,271.365448 345.340820,268.373779 342.540222,265.433472 
M389.637787,239.003128 
	C388.025330,228.507462 382.362976,220.853317 372.219299,217.937836 
	C362.557617,215.160873 353.061584,216.144653 345.455109,224.094559 
	C335.208069,234.804260 335.032867,250.276016 345.397034,262.526398 
	C349.347839,267.196198 352.736511,271.983368 353.296356,278.272217 
	C353.435303,279.833008 353.640472,281.482788 355.629120,281.493256 
	C358.040222,281.505920 357.950043,279.506866 357.986053,277.870575 
	C358.066589,274.210876 357.928467,270.544281 358.077515,266.888611 
	C358.266510,262.253265 358.086700,257.949402 353.122528,255.493149 
	C352.062531,254.968658 351.286896,253.560181 350.730682,252.392090 
	C349.623047,250.066086 349.753601,247.706436 352.085052,246.207886 
	C354.405701,244.716248 356.689758,245.419556 358.239471,247.541290 
	C359.599152,249.402863 360.575806,251.545135 361.711334,253.569214 
	C363.190186,256.205261 364.574738,256.077271 365.884125,253.439972 
	C366.767975,251.659729 367.438263,249.727280 368.580750,248.132797 
	C370.175842,245.906555 372.587921,244.811325 375.125305,246.263199 
	C377.916565,247.860336 377.268005,250.463272 376.121735,252.865021 
	C375.167297,254.864899 373.640747,256.430573 371.776703,257.579559 
	C370.066223,258.633881 369.115631,259.992188 369.119629,262.034332 
	C369.130341,267.525970 369.079742,273.017792 369.108734,278.509247 
	C369.115814,279.846741 369.227112,281.353180 370.990021,281.545105 
	C372.977448,281.761475 373.558594,280.368988 373.659912,278.719971 
	C374.039124,272.547485 376.981354,267.637482 381.292969,263.472015 
	C388.015930,256.976898 390.421997,248.997330 389.637787,239.003128 
M362.136230,270.503693 
	C362.530090,274.042664 361.254730,277.833435 363.885071,281.097687 
	C364.689148,274.027832 365.656799,266.996857 363.550964,260.005859 
	C361.399475,263.025421 362.465759,266.364807 362.136230,270.503693 
M366.250305,286.066467 
	C362.121887,286.410126 357.816681,285.126099 353.878845,287.844543 
	C360.169739,288.485962 366.440704,289.560303 373.499695,287.955505 
	C371.130066,285.520325 369.018616,286.374054 366.250305,286.066467 
M366.131165,294.068512 
	C367.690765,293.871307 369.352478,294.494659 371.159790,293.366638 
	C365.651672,293.366638 360.500549,293.366638 355.349396,293.366638 
	C355.353668,293.598755 355.357971,293.830902 355.362244,294.063019 
	C358.657837,294.063019 361.953461,294.063019 366.131165,294.068512 
z"/>
<path fill="#000000" opacity="1.000000" stroke="none" 
	d="
M226.818207,220.020279 
	C228.720367,222.487366 230.786743,224.093597 233.513840,224.703049 
	C234.702942,224.968796 235.868713,225.299988 235.897980,226.780212 
	C235.924423,228.117477 235.134598,228.981796 233.838715,229.214355 
	C228.499817,230.172501 225.826172,233.507874 225.129211,238.725159 
	C224.949524,240.070236 224.524689,241.484802 222.768661,241.391342 
	C221.367737,241.316772 220.919434,240.154099 220.696121,238.950043 
	C219.748291,233.839661 216.847107,230.589951 211.698776,229.471573 
	C210.516037,229.214630 209.276718,228.840042 209.165298,227.459686 
	C209.024048,225.709900 210.563919,225.291336 211.816910,224.998184 
	C216.623810,223.873535 219.069641,220.708786 220.139893,216.074249 
	C220.483368,214.586884 220.461395,212.240356 222.661804,212.311325 
	C225.038025,212.387955 224.911407,214.751129 225.377594,216.473587 
	C225.677826,217.582932 226.186447,218.635880 226.818207,220.020279 
M219.739990,228.848267 
	C223.583603,233.763672 224.850372,229.000122 227.094696,227.122208 
	C225.882172,225.050766 224.753632,223.312531 222.338364,222.447311 
	C221.190125,224.397415 217.850616,225.036652 219.739990,228.848267 
z"/>
<path fill="#000000" opacity="1.000000" stroke="none" 
	d="
M193.812531,304.196838 
	C192.440796,300.298004 188.288055,300.310760 186.259247,298.337585 
	C186.109070,296.236786 187.286804,295.781525 188.360596,295.407135 
	C191.413193,294.342712 193.486679,292.406769 194.360733,289.237000 
	C194.666687,288.127472 194.924133,286.858887 196.409683,286.737518 
	C197.877625,286.617584 198.521927,287.726837 198.821304,288.848114 
	C199.763916,292.378357 201.933472,294.583344 205.383652,295.758698 
	C207.216156,296.382996 207.849060,298.485504 206.025284,298.978088 
	C200.968536,300.343903 199.337753,304.452576 197.792664,308.343475 
	C194.630936,308.345154 194.785217,306.014740 193.812531,304.196838 
M199.509552,297.463745 
	C198.598145,295.648438 197.749527,293.630646 195.208878,295.546143 
	C194.029938,296.434998 193.482208,297.414703 194.722992,298.814514 
	C196.776978,301.131653 198.079681,299.800598 199.509552,297.463745 
z"/>
<path fill="#000000" opacity="1.000000" stroke="none" 
	d="
M321.307190,209.376053 
	C317.589630,210.625351 316.629639,214.329483 313.840485,216.609161 
	C310.872620,214.200043 309.732300,210.126450 304.749451,209.004471 
	C308.492828,205.444778 311.870636,203.178604 314.255493,199.249008 
	C314.889191,204.223984 320.829742,204.546310 321.307190,209.376053 
z"/>
<path fill="#000000" opacity="1.000000" stroke="none" 
	d="
M386.658142,209.492401 
	C389.393341,205.133316 391.956726,201.066376 394.644745,197.083527 
	C395.460693,195.874542 396.660065,194.399963 398.289093,195.540939 
	C399.919586,196.682907 398.894196,198.247162 398.090759,199.496216 
	C395.669708,203.260193 393.316315,207.078949 390.683014,210.691589 
	C388.635315,213.500885 387.794952,213.232773 386.658142,209.492401 
z"/>
<path fill="#000000" opacity="1.000000" stroke="none" 
	d="
M361.140015,196.671082 
	C361.163025,193.075439 361.132019,189.934006 361.270325,186.800049 
	C361.321808,185.632599 361.811798,184.474945 363.282288,184.393250 
	C364.219513,184.341187 364.985809,184.930206 365.019592,185.800568 
	C365.263763,192.089615 365.980255,198.416138 364.461029,205.160263 
	C360.302002,203.099319 361.974701,199.648880 361.140015,196.671082 
z"/>
<path fill="#000000" opacity="1.000000" stroke="none" 
	d="
M337.399200,212.411652 
	C334.261536,208.190506 331.386139,204.160355 328.590302,200.075684 
	C327.818909,198.948685 327.311401,197.539444 328.739899,196.563766 
	C330.187347,195.575134 331.322601,196.643082 332.069397,197.729385 
	C334.686646,201.536682 337.306427,205.352646 339.680817,209.311920 
	C340.771057,211.129837 340.775909,212.968155 337.399200,212.411652 
z"/>
<path fill="#000000" opacity="1.000000" stroke="none" 
	d="
M271.327423,205.621979 
	C269.725922,203.691788 267.013824,202.197662 269.706512,199.675323 
	C271.002472,198.461334 271.938934,195.605438 274.371033,197.163254 
	C276.143951,198.298813 278.949493,199.906433 277.492035,202.541595 
	C276.448822,204.427704 275.304993,207.990738 271.327423,205.621979 
z"/>
<path fill="#000000" opacity="1.000000" stroke="none" 
	d="
M538.338745,320.194397 
	C540.506897,317.395050 542.219299,317.812286 544.169067,320.062683 
	C545.831055,321.980896 546.575623,323.586090 544.269531,325.506348 
	C542.630188,326.871521 541.241333,328.978333 538.940613,326.444519 
	C537.286316,324.622650 534.853699,322.942963 538.338745,320.194397 
z"/>
<path fill="#000000" opacity="1.000000" stroke="none" 
	d="
M277.884583,279.032715 
	C276.647125,276.290283 271.658325,274.234253 274.904663,271.649353 
	C277.476562,269.601471 278.793152,274.495819 280.806946,276.119537 
	C281.818817,276.935425 282.630280,278.012115 283.476807,279.017609 
	C284.414612,280.131561 285.797028,281.376404 284.243866,282.796173 
	C282.793243,284.122223 281.490112,282.902649 280.405304,281.886902 
	C279.569427,281.104218 278.863495,280.182709 277.884583,279.032715 
z"/>
<path fill="#000000" opacity="1.000000" stroke="none" 
	d="
M294.491211,430.515778 
	C273.370819,421.298492 251.830841,414.532990 229.881287,409.007263 
	C227.129120,408.314423 226.028275,406.853973 226.611877,403.952728 
	C228.745667,393.344910 231.712326,382.959381 234.786713,372.600250 
	C235.523270,370.118378 237.330368,369.862244 239.542023,370.352844 
	C259.405945,374.759247 278.692810,380.918152 297.237946,389.327698 
	C299.712952,390.450012 301.210419,392.240631 300.978180,395.176910 
	C300.126495,405.944977 299.333344,416.717712 298.470490,427.484833 
	C298.299500,429.618652 297.844604,431.651642 294.491211,430.515778 
z"/>
<path fill="#000000" opacity="1.000000" stroke="none" 
	d="
M319.863373,382.070251 
	C329.911316,388.069733 339.236542,394.481201 348.152802,401.478668 
	C349.744415,402.727783 351.880005,403.942871 350.636932,406.534149 
	C348.657104,407.458557 347.561249,406.226440 346.451141,405.310150 
	C316.912811,380.929108 282.485260,366.856079 245.831589,357.407257 
	C243.530777,356.814117 238.940353,357.122070 239.841599,353.937164 
	C240.829330,350.446594 244.738098,353.034668 247.198196,353.679962 
	C272.396027,360.289398 296.939667,368.618408 319.863373,382.070251 
z"/>
<path fill="#000000" opacity="1.000000" stroke="none" 
	d="
M275.905243,355.176575 
	C264.303925,351.573669 253.074738,348.095764 241.489838,344.507660 
	C244.002396,340.610535 246.492630,342.423431 248.432556,342.899841 
	C271.804321,348.639130 294.259979,356.818878 315.442017,368.366058 
	C327.177551,374.763519 338.147339,382.262299 348.466522,390.730621 
	C349.905090,391.911133 352.125366,392.764771 350.620361,396.816620 
	C327.910339,378.735718 303.437805,364.510590 275.905243,355.176575 
z"/>
<path fill="#000000" opacity="1.000000" stroke="none" 
	d="
M342.067505,373.895142 
	C345.433197,377.389404 350.685883,378.765076 351.894562,383.974213 
	C349.231506,385.414673 348.211639,383.621582 347.049255,382.677094 
	C318.978210,359.867126 286.974518,345.281036 251.913513,337.059448 
	C250.291702,336.679138 248.652634,336.345856 247.066956,335.846619 
	C245.837265,335.459442 244.215073,335.091583 244.689987,333.276062 
	C245.130829,331.590790 246.726120,331.647736 248.015091,331.943817 
	C252.229736,332.912048 256.431915,333.949463 260.601593,335.095978 
	C289.938080,343.162781 317.431549,355.119751 342.067505,373.895142 
z"/>
<path fill="#000000" opacity="1.000000" stroke="none" 
	d="
M310.382385,346.655823 
	C290.324524,335.686340 268.810150,329.771973 246.755920,324.876648 
	C248.414597,321.198303 250.329483,322.056396 252.045700,322.380890 
	C287.420929,329.069519 319.184113,343.680084 347.405640,365.995514 
	C349.054901,367.299683 351.642883,368.312927 350.424316,372.582275 
	C337.192505,363.329620 324.773132,353.742065 310.382385,346.655823 
z"/>
<path fill="#000000" opacity="1.000000" stroke="none" 
	d="
M309.542450,330.391785 
	C332.583038,341.672333 350.413300,354.192108 351.312439,359.694366 
	C349.694397,361.027130 348.517670,359.817078 347.404663,358.900726 
	C320.073578,336.399017 288.366119,323.299286 254.201889,315.468048 
	C253.392487,315.282501 252.547348,315.214417 251.767181,314.949371 
	C250.755264,314.605591 249.973419,313.892090 250.212585,312.732574 
	C250.460480,311.530609 251.483078,311.268494 252.547165,311.446686 
	C254.843140,311.831268 257.147797,312.201263 259.411377,312.736115 
	C276.626740,316.803833 293.240173,322.597443 309.542450,330.391785 
z"/>
<path fill="#000000" opacity="1.000000" stroke="none" 
	d="
M348.783600,348.389313 
	C322.002930,326.682709 291.809906,313.108917 258.581970,305.925354 
	C256.435608,305.461334 252.264587,305.974335 252.855545,302.734436 
	C253.487579,299.269257 257.083496,301.403687 259.207489,301.914276 
	C291.562073,309.692505 322.060883,321.519775 347.977936,343.168762 
	C349.121979,344.124359 350.559418,344.962646 351.231293,346.197693 
	C352.391815,348.330811 351.605499,349.404694 348.783600,348.389313 
z"/>
<path fill="#000000" opacity="1.000000" stroke="none" 
	d="
M343.277649,452.680908 
	C346.382019,455.751007 350.927734,457.248749 350.813477,462.710449 
	C337.090057,452.010223 322.907318,442.210632 307.588470,434.149597 
	C306.579529,433.618652 306.009857,432.429596 307.201965,430.255280 
	C320.437500,435.494141 331.809875,443.820557 343.277649,452.680908 
z"/>
<path fill="#000000" opacity="1.000000" stroke="none" 
	d="
M334.208527,426.797546 
	C325.295471,421.031433 316.659424,415.495422 308.075897,409.879120 
	C307.791504,409.693024 308.039856,408.692719 308.039856,408.066376 
	C316.111115,408.206635 349.509308,431.230103 350.995544,438.640930 
	C344.454803,435.226929 339.841278,430.541504 334.208527,426.797546 
z"/>
<path fill="#000000" opacity="1.000000" stroke="none" 
	d="
M347.029633,448.061646 
	C334.459961,437.573761 320.453125,429.864044 307.133179,421.131561 
	C306.929993,420.998383 307.157227,420.208679 307.182770,419.740356 
	C314.407806,418.741791 350.466644,443.285126 351.109406,449.617676 
	C349.305359,450.723022 348.469482,449.024445 347.029633,448.061646 
z"/>
<path fill="#000000" opacity="1.000000" stroke="none" 
	d="
M337.304077,417.712952 
	C327.641144,411.550476 318.262451,405.609741 308.934753,399.589966 
	C308.650848,399.406769 308.898834,398.399384 308.898834,397.781097 
	C317.306274,397.458313 351.326416,421.066742 350.494446,427.175323 
	C345.461151,424.872437 342.043060,420.625458 337.304077,417.712952 
z"/>
<path fill="#000000" opacity="1.000000" stroke="none" 
	d="
M426.005310,322.343933 
	C428.184875,334.186066 430.144806,345.650116 432.505249,357.031036 
	C433.320862,360.963531 432.754059,363.227600 428.683319,364.690399 
	C412.634766,370.457336 397.758331,378.564545 383.511292,387.880432 
	C382.039917,388.842560 380.558655,390.651978 378.631012,389.732239 
	C376.505005,388.717773 376.884155,386.342987 376.818817,384.390289 
	C376.457306,373.586060 376.247894,362.775360 375.752045,351.977661 
	C375.565765,347.922333 376.974640,345.067780 380.098511,342.535034 
	C391.932556,332.940216 404.800110,325.050476 418.611145,318.680542 
	C423.624146,316.368439 424.514648,316.835175 426.005310,322.343933 
z"/>
<path fill="#000000" opacity="1.000000" stroke="none" 
	d="
M499.248169,398.591675 
	C483.910645,403.588409 468.724976,408.013245 453.781769,413.144165 
	C428.618683,421.784302 404.877136,433.339050 383.380646,449.209229 
	C382.226929,450.060974 381.237122,451.424255 379.191010,450.766785 
	C377.963470,447.822449 380.567596,446.833344 382.207336,445.558990 
	C396.763611,434.246246 412.998657,425.777802 429.589630,417.968567 
	C450.477814,408.136627 472.763306,402.418243 494.880829,396.248901 
	C496.624725,395.762512 499.739624,393.779510 499.248169,398.591675 
z"/>
<path fill="#000000" opacity="1.000000" stroke="none" 
	d="
M390.751953,432.783203 
	C387.845276,434.774994 385.262695,436.600037 382.632843,438.354218 
	C381.465668,439.132782 380.092468,440.820007 378.790405,439.147614 
	C377.328339,437.269714 379.329865,436.145569 380.570190,435.208618 
	C390.420197,427.767395 400.927612,421.360046 411.825928,415.584503 
	C437.005554,402.240601 464.151978,394.329895 491.457062,386.888397 
	C493.063080,386.450745 494.977081,385.519836 496.895874,387.236359 
	C496.718597,390.619720 493.641815,390.443481 491.563965,391.009583 
	C473.421844,395.951843 455.456940,401.383545 437.935516,408.287750 
	C421.452545,414.782745 405.821930,422.826233 390.751953,432.783203 
z"/>
<path fill="#000000" opacity="1.000000" stroke="none" 
	d="
M405.989990,412.036682 
	C398.068817,416.395020 390.848022,421.163483 383.775909,426.178101 
	C382.315887,427.213409 380.488861,429.994110 378.818329,427.775330 
	C377.013885,425.378662 380.159241,424.119110 381.725647,422.975433 
	C398.629791,410.633026 416.868713,400.745636 436.372894,393.108337 
	C453.616364,386.356293 471.265533,380.962494 489.203522,376.452698 
	C491.066345,375.984406 493.006744,375.023468 494.977539,376.981720 
	C494.469666,379.962646 491.846222,379.869720 489.766754,380.430878 
	C469.337280,385.943970 449.036133,391.838440 429.648651,400.474182 
	C421.737518,403.998016 413.872040,407.616608 405.989990,412.036682 
z"/>
<path fill="#000000" opacity="1.000000" stroke="none" 
	d="
M474.945892,363.776794 
	C479.226776,362.742371 483.087402,361.708221 486.990234,360.870544 
	C488.361115,360.576294 490.335907,360.026825 490.778900,362.049561 
	C491.241028,364.159790 489.133545,364.252716 487.792267,364.598114 
	C473.437408,368.294769 459.239502,372.483826 445.269012,377.466278 
	C423.326050,385.291992 402.942657,396.103058 383.716431,409.179382 
	C382.079681,410.292542 382.092407,410.311249 379.101257,410.874756 
	C377.844757,408.020203 380.207397,407.092682 381.835266,405.944580 
	C401.407898,392.140717 422.507721,381.251801 444.968811,372.971710 
	C454.662476,369.398193 464.612793,366.660980 474.945892,363.776794 
z"/>
<path fill="#000000" opacity="1.000000" stroke="none" 
	d="
M403.044434,387.070435 
	C394.995819,392.102203 387.269135,396.960297 379.370239,401.926666 
	C377.981384,398.580627 379.977722,397.795319 381.368347,396.787262 
	C412.021729,374.566589 446.390381,360.753540 482.968018,351.954468 
	C483.774506,351.760437 484.606567,351.663269 485.431274,351.556519 
	C486.613373,351.403534 487.952728,351.249115 488.335114,352.715179 
	C488.797729,354.488983 487.368103,354.985504 486.052643,355.342346 
	C480.757477,356.778687 475.436218,358.120728 470.153107,359.599396 
	C446.840698,366.124023 424.368256,374.714081 403.044434,387.070435 
z"/>
<path fill="#000000" opacity="1.000000" stroke="none" 
	d="
M408.273315,444.313354 
	C398.349304,449.987976 389.383820,456.504089 380.191681,462.695679 
	C378.071014,459.955353 379.908234,458.799072 381.258026,457.771820 
	C393.332214,448.582794 405.992981,440.307831 419.591583,433.524902 
	C420.799194,432.922577 420.824188,432.972687 425.251526,433.223145 
	C420.629791,439.452789 413.614410,440.416962 408.273315,444.313354 
z"/>
<path fill="#000000" opacity="1.000000" stroke="none" 
	d="
M480.944580,347.179810 
	C466.344727,350.411530 452.737549,355.826599 438.114319,359.823120 
	C438.256805,355.308136 440.988403,355.093689 442.949341,354.382935 
	C455.118317,349.972229 467.439941,346.032593 480.103241,343.283173 
	C482.171326,342.834167 485.405853,340.881836 486.224915,343.650360 
	C487.161896,346.817444 483.123444,346.038666 480.944580,347.179810 
z"/>
<path fill="#000000" opacity="1.000000" stroke="none" 
	d="
M456.171997,344.232635 
	C451.082550,345.978058 446.390259,347.658997 441.660553,349.227173 
	C440.225647,349.702911 438.281250,351.192230 437.384583,348.887634 
	C436.584747,346.831909 438.653168,345.983368 440.159454,345.467346 
	C448.794159,342.509155 457.430725,339.544250 466.147705,336.843201 
	C470.898315,335.371216 475.803101,334.390991 480.651733,333.245453 
	C481.903839,332.949646 483.531189,332.391571 484.069580,334.124695 
	C484.708282,336.180603 482.828186,336.624420 481.467285,337.021240 
	C473.177460,339.438385 464.861847,341.766815 456.171997,344.232635 
z"/>
<path fill="#000000" opacity="1.000000" stroke="none" 
	d="
M436.116455,340.922546 
	C436.184906,338.202515 438.194031,337.791687 439.833221,337.202118 
	C452.320587,332.710480 465.031067,328.943817 477.898499,325.703613 
	C478.380615,325.582184 478.872894,325.501404 479.359589,325.397797 
	C480.547974,325.144928 481.828156,325.006042 482.346344,326.365326 
	C483.007324,328.099182 481.613007,328.792725 480.348663,329.172516 
	C476.699097,330.268677 472.975159,331.120605 469.336670,332.249634 
	C460.158234,335.097656 451.030060,338.109131 441.833679,340.896515 
	C440.085052,341.426514 438.219269,342.960266 436.116455,340.922546 
z"/>
<path fill="#000000" opacity="1.000000" stroke="none" 
	d="
M446.075165,325.948425 
	C455.869324,323.074066 465.276215,320.282959 474.720764,317.625610 
	C476.482330,317.129944 479.220001,315.628693 479.932495,318.206848 
	C480.754700,321.181732 477.438293,321.165680 475.558014,321.660675 
	C463.010681,324.963837 450.509399,328.404236 438.315704,332.876740 
	C436.900604,333.395752 435.240662,334.151245 434.425079,332.261658 
	C433.582367,330.309357 435.358154,329.619843 436.716919,329.112183 
	C439.676361,328.006531 442.702179,327.078491 446.075165,325.948425 
z"/>
<path fill="#000000" opacity="1.000000" stroke="none" 
	d="
M440.222961,323.322845 
	C437.642548,323.686127 434.654297,327.037140 433.487671,323.691833 
	C432.431213,320.662506 436.587646,320.562134 438.699219,319.795898 
	C449.977692,315.703278 461.490417,312.356995 473.143188,309.502319 
	C474.815613,309.092590 477.198090,307.722198 477.952850,310.033722 
	C478.845093,312.766266 475.972107,312.954315 474.171234,313.481354 
	C462.989807,316.753998 451.791382,319.968628 440.222961,323.322845 
z"/>
<path fill="#000000" opacity="1.000000" stroke="none" 
	d="
M437.531189,312.478943 
	C450.262665,307.401855 463.081268,304.301239 476.851929,301.646973 
	C476.098389,305.722687 473.811188,305.840820 471.828491,306.390594 
	C459.850403,309.711609 447.783691,312.726410 436.078217,316.984833 
	C434.610107,317.518951 432.308807,319.351776 431.395050,316.770996 
	C430.555481,314.399719 433.269989,314.171265 434.827209,313.457306 
	C435.578094,313.113068 436.384521,312.889954 437.531189,312.478943 
z"/>
</svg>