<svg version="1.1" id="Layer_1" xmlns="http://www.w3.org/2000/svg" xmlns:xlink="http://www.w3.org/1999/xlink" x="0px" y="0px"
	 width="100%" viewBox="0 0 1024 1024" enable-background="new 0 0 1024 1024" xml:space="preserve">
<path fill="#000000" opacity="1.000000" stroke="none" 
	d="
M417.006165,578.035034 
	C414.311157,574.991516 412.742706,572.083923 415.569366,568.538452 
	C425.772827,555.740295 426.612122,541.416138 422.619049,526.233765 
	C421.775848,523.027771 421.262970,519.719299 420.816742,516.428284 
	C420.210449,511.956696 421.354248,511.204376 425.736206,512.049072 
	C432.099945,513.275818 438.553558,511.155182 445.018799,512.357239 
	C447.054596,512.735779 447.975494,509.949249 449.011963,508.294434 
	C457.546844,494.667480 467.900146,482.849640 482.438843,475.383972 
	C499.563141,466.590546 517.840576,460.855957 536.277710,455.592987 
	C538.520203,454.952850 540.766785,454.327057 543.009827,453.688812 
	C549.199829,451.927368 550.973511,445.914917 545.995789,441.556702 
	C536.105591,432.897400 529.864502,422.209045 526.339111,409.728241 
	C525.807800,407.847107 524.676025,406.831177 522.649963,406.166351 
	C512.811829,402.938324 505.661377,391.084778 507.518768,380.805664 
	C508.291229,376.530640 507.688446,373.014893 505.920807,368.965820 
	C499.266266,353.722717 495.498810,338.010773 501.466461,321.485626 
	C502.728333,317.991425 504.139923,314.409912 507.176147,312.261108 
	C512.198730,308.706512 515.177429,303.707275 518.622681,298.836487 
	C527.637512,286.091522 541.289917,280.708313 555.805237,277.275055 
	C572.017944,273.440277 588.445862,272.700195 603.826904,279.798859 
	C616.408936,285.605682 626.864502,295.383575 636.464966,304.927917 
	C647.688477,316.085754 647.544556,332.249451 646.825928,347.381500 
	C646.415833,356.020172 644.797974,364.592834 641.328064,372.642883 
	C640.517212,374.524109 640.977478,376.186310 641.366455,377.970917 
	C644.315613,391.500458 637.193909,403.057983 623.770081,406.203033 
	C621.448608,406.746918 620.878967,408.220001 620.407837,409.970551 
	C618.520020,416.985901 614.751953,422.994446 611.068665,429.181793 
	C607.200256,435.680145 608.864502,443.059479 610.671875,449.967468 
	C611.239136,452.135681 614.164185,452.172852 616.224121,452.769073 
	C637.363220,458.887421 658.251587,465.673126 677.777954,476.053864 
	C693.849243,484.597839 705.194336,497.386566 712.420349,514.062927 
	C722.188354,536.605591 728.544495,560.238586 735.151550,583.799133 
	C736.016479,586.883423 736.191040,589.788147 732.582092,591.398132 
	C730.148132,592.483948 730.559448,594.314026 731.036194,596.437195 
	C734.570496,612.178528 738.202026,627.900024 740.768494,643.843445 
	C742.051147,651.812012 742.339844,659.681885 740.319763,667.608582 
	C735.025330,688.383911 715.720581,696.250671 697.676819,684.783020 
	C694.486084,682.755188 691.608398,680.234680 688.357666,677.768311 
	C688.357666,682.764709 688.475525,687.514893 688.316772,692.255859 
	C688.208557,695.489441 689.502075,696.706055 692.717468,696.680847 
	C707.048462,696.568665 721.380493,696.580383 735.712158,696.576782 
	C751.199280,696.572876 766.686462,696.606079 782.173584,696.614929 
	C797.672241,696.623718 813.170898,696.619568 828.669556,696.630310 
	C830.001038,696.631226 831.337341,696.645142 832.662537,696.756958 
	C833.720032,696.846130 834.631348,697.320374 834.733276,698.519714 
	C834.836243,699.730957 833.988953,700.453674 832.969421,700.570679 
	C830.499878,700.854126 828.006653,701.071960 825.523010,701.071472 
	C730.031982,701.053894 634.541016,700.997437 539.049988,700.971436 
	C483.055267,700.956238 427.060547,700.974365 371.065857,701.015381 
	C367.774292,701.017822 364.425537,700.585754 361.264771,701.573120 
	C360.459076,703.149963 361.580688,704.234192 361.874817,705.474426 
	C363.188446,711.013489 362.838165,716.170593 357.885040,719.920288 
	C344.869629,729.773438 331.764191,739.507996 318.780579,749.402527 
	C316.246552,751.333557 313.634949,752.165955 310.487000,752.156189 
	C282.989655,752.071106 255.492096,752.075256 227.994659,752.024536 
	C226.206863,752.021240 224.047363,752.485107 222.929398,750.691772 
	C221.677094,748.682983 224.001907,747.942627 224.865250,746.669128 
	C227.280197,743.107117 225.630539,735.898315 221.507828,732.953369 
	C223.464066,730.305420 223.590073,726.926147 225.730957,724.037048 
	C227.784988,721.265076 227.779312,717.344604 225.131012,714.366211 
	C223.074188,712.053101 223.821854,710.581726 226.042160,709.150818 
	C230.045334,706.570740 234.022781,703.950806 238.947311,700.736328 
	C235.570389,700.736328 233.321014,700.731079 231.071686,700.737244 
	C218.409424,700.771912 205.747040,700.847351 193.085083,700.800293 
	C191.404297,700.794006 188.849594,701.118042 188.889908,698.486206 
	C188.926697,696.084045 191.306534,696.652893 192.826385,696.646667 
	C208.981232,696.580383 225.136932,696.511475 241.291000,696.631042 
	C244.912323,696.657837 248.071472,696.072083 251.204681,694.090149 
	C257.678436,689.994995 264.443237,686.361694 270.947021,682.311523 
	C274.458099,680.125000 278.308929,680.170837 282.059357,680.176453 
	C304.717804,680.210022 327.376221,680.418091 350.033997,680.636414 
	C355.094208,680.685120 358.667114,685.776245 357.938995,691.611267 
	C357.758606,693.056946 356.712677,694.394531 357.429260,696.074341 
	C359.933289,697.062866 362.618134,696.649292 365.236633,696.637207 
	C397.061707,696.490662 428.886536,696.287903 460.711578,696.129395 
	C464.868378,696.108643 469.026917,696.219971 473.182922,696.334106 
	C475.592377,696.400208 476.854584,695.583862 476.915802,692.910522 
	C477.106537,684.585205 477.403625,676.260498 477.813446,667.943115 
	C477.959137,664.986328 476.732117,663.321350 474.101959,662.202942 
	C468.125366,659.661682 462.161194,657.078796 456.295258,654.295166 
	C453.614136,653.022888 452.088165,653.666931 450.533966,656.049866 
	C446.426453,662.347534 441.713287,668.126892 435.874542,672.983765 
	C426.890930,680.456787 416.928375,682.862061 406.106262,678.175964 
	C395.165985,673.438660 389.764496,664.382385 388.817383,652.672791 
	C388.134247,644.226868 389.684845,636.108215 392.927887,628.272705 
	C398.286407,615.325928 404.611420,602.852234 411.120514,590.460632 
	C413.207275,586.488037 415.067444,582.396484 417.006165,578.035034 
M452.119751,512.651184 
	C452.867218,514.390991 454.648743,514.181213 455.975403,514.398010 
	C467.689423,516.311951 479.037415,519.532410 490.114807,523.731995 
	C509.243286,530.983826 527.526611,539.695679 541.946533,554.778809 
	C544.257568,557.196106 545.610107,556.146362 547.709778,554.491394 
	C583.333191,526.413818 623.582031,513.204468 669.072388,517.006226 
	C670.042236,517.087280 671.117371,517.171814 671.997681,516.852844 
	C677.032532,515.028259 677.683655,517.562988 677.401062,521.775208 
	C676.198181,539.704651 675.158264,557.644958 674.023987,575.579102 
	C673.907166,577.426941 673.920654,579.028259 675.085083,580.746704 
	C680.079956,588.117981 686.221130,594.772827 689.119080,603.597656 
	C703.369324,600.931702 716.355408,596.027039 728.479248,588.797058 
	C730.512085,587.584778 731.523254,586.242065 730.749146,583.514343 
	C724.477112,561.414246 718.209717,539.333252 709.528625,517.999634 
	C702.152527,499.872955 689.806885,486.645355 672.296387,478.017029 
	C657.305542,470.630280 641.643127,465.059937 625.737366,460.061035 
	C618.935791,457.923401 618.988647,457.755157 616.615906,464.060211 
	C610.385620,480.615845 594.213562,491.508820 576.485352,490.769348 
	C559.965332,490.080231 545.861511,480.509338 541.776611,462.379822 
	C540.918579,458.571808 538.733154,459.292358 536.134277,460.021637 
	C523.457397,463.578888 511.006134,467.813873 498.710785,472.499603 
	C478.559479,480.179199 462.416138,492.624451 452.119751,512.651184 
M552.323425,361.101501 
	C540.583191,360.047028 533.282166,352.726166 527.803833,343.147522 
	C525.759705,344.347137 525.493286,346.044922 524.924255,347.593384 
	C521.331421,357.370300 522.773682,367.252716 524.042114,377.188446 
	C524.325073,379.404755 526.863220,382.785919 523.871094,383.864868 
	C520.440613,385.101837 520.941589,380.801605 519.865906,378.868378 
	C518.913147,377.156097 517.780640,375.778503 515.814453,375.544983 
	C514.013672,375.331116 513.247498,376.794800 512.532593,378.141663 
	C509.041595,384.718719 514.852966,399.891876 522.363708,400.573425 
	C523.346436,398.854492 521.003296,395.555878 524.257324,395.180298 
	C527.666626,394.786804 527.017395,398.245361 527.715820,400.253937 
	C529.628784,405.755524 531.133362,411.421570 533.372009,416.783569 
	C544.754822,444.047913 575.088501,459.873383 603.425476,431.151703 
	C610.735229,423.742645 614.345642,414.562286 617.288940,404.971008 
	C618.037292,402.532379 618.986816,401.502747 621.763062,401.554352 
	C632.442017,401.752899 641.300232,387.358093 636.668518,377.635559 
	C635.755310,375.718597 634.618958,374.275818 632.241577,374.190765 
	C629.965271,374.109314 628.262207,375.048431 627.375977,377.007965 
	C626.215759,379.573303 625.367126,382.279968 624.392395,384.928741 
	C623.686890,386.845917 622.901672,389.022797 620.541077,388.953278 
	C617.876343,388.874817 616.377686,386.762512 615.976501,384.351074 
	C615.376709,380.746002 614.927490,377.070007 614.924866,373.423767 
	C614.921936,369.383759 613.571289,367.767090 609.277039,367.089050 
	C592.021484,364.364563 580.529480,354.095245 573.794434,338.266357 
	C572.984985,336.364044 571.512390,333.938385 574.338196,332.179596 
	C576.750061,332.771240 576.777222,334.869110 577.436096,336.469971 
	C582.708313,349.280609 591.739075,357.883820 605.213867,361.708130 
	C618.674072,365.528320 618.654724,365.596436 620.351440,379.803619 
	C623.971130,371.605652 625.494873,370.404449 634.759827,369.642181 
	C637.306885,369.432587 637.540649,367.830902 638.170227,366.109192 
	C642.696411,353.732880 643.071899,340.872284 641.400757,328.108917 
	C639.693359,315.069580 634.968140,303.458832 620.728760,298.946960 
	C618.681458,298.298248 617.724487,296.466766 616.549011,294.832275 
	C612.116028,288.668030 606.164673,284.490417 598.925842,282.361084 
	C579.763611,276.724396 560.996643,278.605133 542.759705,286.156769 
	C533.898315,289.826141 525.119385,294.558472 520.933716,303.533142 
	C517.207642,311.522369 511.125671,317.570526 506.499908,324.755249 
	C505.082642,326.956512 504.209229,329.029297 503.935364,331.587891 
	C502.633759,343.749359 507.130798,354.849304 510.108734,366.230255 
	C510.150177,366.388733 510.251648,366.530731 510.316986,366.683868 
	C511.341309,369.084656 512.530640,371.414001 515.740601,370.640228 
	C518.859619,369.888458 517.823059,367.165985 517.761597,365.230591 
	C517.492798,356.770081 518.034485,348.508148 523.039856,341.268127 
	C524.941833,338.516968 525.773132,335.879364 525.048157,332.425446 
	C524.547424,330.039551 523.500854,326.823517 526.792236,325.144897 
	C528.948486,326.129181 528.964844,327.888336 529.119751,329.513580 
	C530.502380,344.021301 537.347534,353.798096 552.331238,356.790253 
	C555.207764,357.364685 556.201416,358.955383 552.323425,361.101501 
M481.552338,660.891968 
	C499.631775,668.763367 517.711243,676.634766 536.230896,684.697876 
	C536.350891,683.135315 536.518982,682.327148 536.458313,681.536438 
	C534.356018,654.154907 531.958313,626.795532 530.632629,599.357361 
	C530.086548,588.054321 529.211548,576.767395 528.582886,565.467773 
	C528.342346,561.143433 527.002502,558.309265 522.393677,556.528564 
	C495.832886,546.266235 469.753357,534.826965 443.562256,523.661987 
	C437.801178,521.206055 431.866272,519.157959 425.111328,516.578308 
	C428.059448,535.266113 430.860901,553.024170 433.728516,571.201416 
	C442.494049,568.368774 450.808868,566.090942 459.623840,566.633850 
	C463.129547,566.849731 466.048492,567.772522 466.807129,571.478577 
	C467.564270,575.177551 465.185150,577.462830 462.135315,578.863953 
	C459.386047,580.127075 456.454498,580.993347 453.603302,582.034607 
	C458.886719,581.443665 463.990906,582.291687 469.050720,583.008484 
	C472.450684,583.490173 476.491302,585.132080 476.012787,588.898010 
	C475.295624,594.541870 477.593170,601.670227 470.333832,605.145508 
	C469.320343,605.630798 468.740845,606.413330 469.010040,607.539062 
	C470.466858,613.630554 466.084473,616.003601 461.900330,618.035828 
	C456.975067,620.428162 451.782440,622.293091 446.635559,624.196899 
	C443.958252,625.187317 443.002411,626.539246 443.857544,629.463135 
	C444.881287,632.963440 445.702911,636.579102 446.072174,640.199890 
	C446.503998,644.434143 448.762268,646.567078 452.505157,648.141785 
	C462.018158,652.143921 471.398499,656.461365 481.552338,660.891968 
M661.996704,653.384949 
	C665.127869,650.231934 663.597717,646.389771 664.102356,642.179260 
	C661.440613,642.179260 659.307678,642.232544 657.178162,642.168884 
	C651.487610,641.998779 643.758118,642.613892 641.498352,637.910034 
	C638.919006,632.541016 634.630249,630.184326 631.106201,626.485840 
	C630.531860,625.882996 630.464417,624.584900 630.530090,623.633484 
	C630.630981,622.170288 629.995667,621.192078 629.223083,620.037598 
	C626.491272,615.955322 627.427185,612.006042 631.761963,609.600464 
	C634.341980,608.168640 637.147949,607.143921 639.862915,605.931396 
	C635.989319,599.042847 637.009521,596.602295 644.465088,593.804504 
	C650.778442,591.435120 657.371704,590.483154 664.002258,589.995178 
	C667.719971,589.721619 668.617798,588.150696 668.819519,584.690369 
	C669.506836,572.900330 670.719849,561.140869 671.409607,549.350952 
	C671.947754,540.151428 673.276855,530.972778 672.874268,521.595520 
	C672.040833,521.640076 671.525208,521.557373 671.088867,521.706665 
	C635.968445,533.719666 600.869324,545.795410 565.715698,557.710266 
	C562.274292,558.876648 560.937683,560.582458 561.154480,564.185669 
	C561.934143,577.145447 562.602295,590.113525 563.154358,603.085205 
	C564.272705,629.364441 565.285950,655.648132 566.351624,681.929688 
	C566.397400,683.058594 566.117371,684.301636 568.090088,685.766235 
	C598.780762,675.212646 630.035278,664.465088 661.996704,653.384949 
M566.904541,696.668030 
	C574.566040,696.660889 582.227539,696.650024 589.889038,696.647400 
	C619.191345,696.637207 648.494019,696.550476 677.795471,696.702759 
	C682.423157,696.726868 684.592590,695.659729 684.013123,690.572205 
	C683.525330,686.290039 683.821106,681.921814 683.697510,677.593689 
	C683.636658,675.464294 684.162842,673.191467 682.717590,671.303528 
	C678.103027,665.275330 673.447876,659.278320 668.600342,652.999756 
	C667.504395,655.495239 666.280396,656.913269 663.934021,657.682007 
	C650.649109,662.034424 637.386353,666.467896 624.216980,671.157043 
	C602.747742,678.801270 580.771729,685.001526 559.787292,694.047607 
	C554.129700,696.486389 547.881592,696.581116 542.399170,693.372375 
	C527.101562,684.418823 510.401245,678.563171 494.378723,671.220154 
	C490.695129,669.532043 487.138031,667.215881 482.512634,666.905029 
	C482.121674,675.114502 481.925415,683.072815 481.292114,690.996277 
	C480.950226,695.273499 482.433380,696.231934 486.581818,696.227783 
	C513.054138,696.201416 539.526794,696.478882 566.904541,696.668030 
M681.338135,636.748535 
	C678.772949,641.336853 674.137146,642.741394 669.613525,643.950806 
	C669.613525,644.842712 669.420288,645.452759 669.641418,645.795288 
	C677.869263,658.540283 686.201477,671.304443 698.819763,680.216919 
	C716.353760,692.601501 734.029663,683.026062 736.813965,662.197083 
	C738.686401,648.190002 734.571655,634.801147 732.077637,621.280579 
	C730.498230,612.718689 728.299011,604.271179 726.271606,595.302429 
	C714.543884,600.982239 703.276184,605.397095 691.285828,607.724609 
	C689.950928,607.983704 688.801392,608.711426 688.597900,610.305542 
	C688.394653,611.896912 689.383545,612.771362 690.537231,613.504089 
	C691.517090,614.126465 692.557678,614.653748 693.575317,615.215881 
	C703.776245,620.851501 713.878052,626.652771 723.208008,633.676941 
	C724.591675,634.718750 726.588135,636.152283 724.778442,638.117310 
	C723.334534,639.685181 721.801758,638.222290 720.418030,637.258118 
	C715.915710,634.120972 711.462341,630.897827 706.811646,627.993652 
	C700.957031,624.337708 694.926514,620.963562 688.474182,617.175659 
	C686.440796,624.171997 685.485474,630.684753 681.338135,636.748535 
M415.944122,590.388062 
	C409.150085,603.721497 402.083405,616.932068 396.726044,630.938293 
	C394.026062,637.997070 392.751648,645.339905 393.283630,652.947632 
	C394.433990,669.398682 409.767700,680.212891 424.681244,674.583191 
	C435.820801,670.377991 442.154694,660.941040 448.951447,650.870667 
	C443.303040,649.458557 442.653656,645.411743 441.910980,641.426147 
	C441.180298,637.504944 440.339020,633.598816 439.783264,629.652710 
	C439.494751,627.604126 438.802277,626.033142 436.716461,625.658325 
	C430.961975,624.624329 428.165436,620.441711 425.593475,615.805908 
	C424.518005,613.867371 424.136841,611.409302 421.743591,609.718140 
	C416.587280,614.912903 412.097961,620.414001 407.935638,626.200684 
	C406.975128,627.536011 406.029144,629.484985 404.079071,628.208435 
	C401.856171,626.753296 403.332733,624.997742 404.429565,623.534973 
	C408.622528,617.942932 412.968170,612.477173 417.897278,607.500610 
	C419.292328,606.092102 421.010834,604.756836 420.562592,602.444702 
	C419.288269,595.871155 419.387909,589.259583 420.432648,581.230469 
	C418.603607,584.972412 417.441833,587.349243 415.944122,590.388062 
M596.803833,442.392029 
	C583.334167,452.174103 568.885437,453.762909 552.944641,446.162964 
	C552.944641,450.858002 553.117310,454.170135 552.877197,457.452026 
	C552.741882,459.300873 553.102051,462.162445 550.609802,462.418579 
	C547.619629,462.725830 548.747559,459.546753 547.954773,457.951935 
	C547.836304,457.713654 547.415649,457.625610 547.097351,457.446991 
	C544.884033,457.872284 545.285095,459.455994 545.671387,460.908356 
	C547.007812,465.933380 548.859802,470.697693 552.315857,474.737335 
	C567.239258,492.180634 596.808289,489.582428 609.031921,469.705688 
	C610.952820,466.582001 612.844543,463.406952 613.550049,459.749512 
	C613.930725,457.775574 613.430359,455.189575 610.941833,456.809509 
	C605.833496,460.134827 606.200134,456.190369 605.879517,453.425751 
	C605.259338,448.078674 604.936279,442.697144 604.448364,436.827271 
	C601.676025,438.862579 599.539185,440.431305 596.803833,442.392029 
M554.963928,588.835327 
	C548.355347,591.687988 541.686523,591.044312 535.250793,588.779541 
	C533.820740,590.652222 534.313232,592.372803 534.427124,593.962646 
	C535.984558,615.696228 537.674072,637.420776 539.124268,659.161255 
	C539.345337,662.475952 540.656311,664.409424 543.529175,665.651489 
	C547.877991,667.531860 552.255981,667.442627 556.682556,666.004517 
	C559.763977,665.003357 561.211670,663.040344 561.043762,659.653137 
	C559.922913,637.045227 558.901611,614.432373 557.824585,591.822266 
	C557.756042,590.383667 557.980957,588.625427 554.963928,588.835327 
M683.951843,605.799866 
	C683.329041,597.752319 681.835571,595.600708 674.644958,594.650024 
	C664.233704,593.273376 654.077209,594.833374 644.286072,598.621033 
	C643.403503,598.962402 642.444702,599.578918 643.035767,601.064270 
	C645.202393,602.464478 647.745056,601.819580 650.167236,601.852661 
	C656.322693,601.936951 662.480591,601.864014 668.635010,601.983643 
	C670.149536,602.013123 671.825256,602.608826 671.910828,604.434448 
	C672.002197,606.383545 670.263855,606.738159 668.763367,606.908020 
	C667.114502,607.094543 665.440552,607.132019 663.778564,607.117249 
	C655.191772,607.040955 646.945374,608.990784 638.767700,611.311768 
	C636.246948,612.027222 633.699463,612.845886 632.608826,616.089355 
	C637.025574,617.825134 641.272400,616.758362 645.451294,616.330322 
	C652.237549,615.634949 659.014465,614.812378 665.847412,614.983459 
	C667.857971,615.033813 670.933289,614.517761 670.831665,617.562500 
	C670.742249,620.241516 667.802063,619.559570 665.965454,619.623291 
	C657.818359,619.906433 649.665466,620.067627 641.586792,621.290283 
	C639.392700,621.622314 636.974060,621.619019 635.549377,623.892944 
	C636.959656,626.581543 639.349548,626.653809 641.644836,626.755920 
	C648.790405,627.073792 655.942322,627.259277 663.084839,627.629456 
	C665.029724,627.730286 668.290039,626.669617 668.187195,629.830261 
	C668.098633,632.551941 664.926270,632.022888 662.894836,632.082886 
	C658.237732,632.220581 653.570862,632.050476 648.915588,632.218079 
	C647.109436,632.283142 644.751038,631.752747 644.044556,634.520508 
	C645.309753,636.489319 647.355225,636.488586 649.297302,636.868408 
	C655.393250,638.060608 661.593628,637.407898 667.711365,638.010376 
	C674.229431,638.652222 676.547058,637.448303 679.449890,631.494629 
	C683.273010,623.653503 684.378723,615.333618 683.951843,605.799866 
M446.999390,619.628662 
	C452.929718,616.561340 460.361816,616.055481 464.748108,609.954651 
	C462.896179,607.805969 461.283295,608.615845 459.732880,609.085266 
	C455.272339,610.435913 450.842163,611.892639 446.355347,613.147766 
	C444.592255,613.640930 442.069244,615.222839 441.223785,612.416077 
	C440.433014,609.790955 443.222839,609.350403 445.028076,608.779846 
	C452.332977,606.471191 459.678802,604.292419 467.002075,602.041321 
	C469.053741,601.410645 471.217224,600.816589 470.865875,597.830627 
	C467.909668,596.604675 465.120300,597.297485 462.375977,597.793457 
	C455.658234,599.007324 448.960846,600.333252 442.251190,601.592468 
	C440.554504,601.910828 438.244781,603.252441 437.519958,600.765747 
	C436.678619,597.879333 439.551331,597.808960 441.332764,597.373474 
	C449.589020,595.355225 457.956024,593.906128 466.366364,592.677429 
	C468.546814,592.359009 471.168610,592.510254 472.236145,589.106750 
	C468.049194,586.248596 463.270508,586.191833 458.556274,586.544067 
	C451.760254,587.051941 444.923981,587.370728 438.262207,589.074646 
	C436.781555,589.453247 435.098602,589.484070 434.472595,587.649658 
	C433.941437,586.093323 435.137604,585.170410 436.284882,584.457703 
	C437.696136,583.580933 439.116394,582.638062 440.660126,582.069702 
	C446.282227,579.999756 451.960297,578.082153 457.611176,576.089905 
	C459.588776,575.392761 461.773529,574.877930 461.978271,571.968445 
	C461.234406,571.661011 460.655426,571.235779 460.053650,571.200562 
	C448.762421,570.540283 438.223969,572.919250 428.631866,579.074463 
	C425.387817,581.156189 424.131958,584.170654 423.992340,587.939453 
	C423.697998,595.884949 424.900665,603.532654 427.967987,610.882996 
	C432.120209,620.832947 435.673065,622.590088 446.999390,619.628662 
M296.490692,710.703430 
	C298.487427,710.701294 300.484222,710.690491 302.480927,710.698730 
	C306.777130,710.716431 310.989746,711.115112 314.837372,708.122681 
	C322.844452,701.895386 331.116150,696.008484 339.275360,689.976562 
	C341.431458,688.382568 343.573669,686.769714 346.862091,684.314575 
	C329.120117,684.314575 312.964355,684.953247 296.884491,684.122437 
	C282.769409,683.393127 269.849091,685.231750 258.587616,694.334473 
	C257.822235,694.953125 256.828033,695.279419 255.994888,695.825073 
	C248.543182,700.705933 240.294861,704.310608 233.325974,710.707947 
	C254.048615,710.707947 274.771240,710.707947 296.490692,710.703430 
M298.494019,747.854187 
	C301.988525,747.858093 305.505981,747.609680 308.972229,747.924561 
	C314.247375,748.403687 315.053925,745.391968 315.073547,741.181885 
	C315.093781,736.845764 313.860352,734.282104 308.838104,734.319458 
	C288.870819,734.468201 268.899231,734.215271 248.935104,734.509338 
	C242.577454,734.603027 236.186813,734.883179 228.856995,734.309631 
	C230.731323,739.224243 229.697556,743.183777 230.097244,747.848999 
	C252.668594,747.848999 275.082520,747.848999 298.494019,747.854187 
M262.500000,714.298096 
	C252.054260,714.298096 241.608536,714.298096 231.062256,714.298096 
	C231.062256,718.384949 231.062256,721.772583 231.062256,725.358215 
	C232.125748,725.477051 232.929977,725.644531 233.734406,725.645447 
	C257.898834,725.672913 282.063324,725.666443 306.227722,725.718018 
	C309.568756,725.725098 312.166321,725.384949 311.969818,720.954956 
	C311.789795,716.897827 310.351288,714.897888 305.977539,714.880371 
	C291.817810,714.823608 277.659088,714.513611 262.500000,714.298096 
M345.565094,724.035706 
	C348.881256,721.536255 352.270508,719.126953 355.494904,716.514221 
	C359.400604,713.349426 359.670227,709.183472 356.165802,705.327637 
	C354.709320,706.294922 353.159851,707.227722 351.713867,708.300110 
	C342.778137,714.927307 333.885925,721.613281 324.939453,728.225891 
	C317.229858,733.924316 317.206421,733.892639 320.206879,743.785889 
	C328.521179,737.325439 336.773346,730.913330 345.565094,724.035706 
M333.781250,709.268311 
	C339.340515,705.054443 344.981323,700.942627 350.428619,696.588684 
	C353.729706,693.950134 354.956055,690.655029 352.286560,686.745667 
	C349.866516,686.968079 348.456390,688.505859 346.884003,689.634888 
	C337.840088,696.128357 328.852844,702.700623 319.841583,709.239624 
	C313.854828,713.583923 313.851196,713.578918 317.198273,721.472229 
	C322.612305,717.481934 327.904114,713.581726 333.781250,709.268311 
M597.068359,534.488098 
	C609.060730,529.875122 621.512390,526.888550 634.044434,524.250671 
	C638.248901,523.365601 642.659241,521.856445 646.861633,523.104004 
	C651.666565,524.530396 655.291443,522.319275 659.202576,520.665955 
	C618.580994,520.328491 582.267517,532.493408 550.777588,558.532471 
	C555.286377,556.952698 559.795105,555.372864 564.584229,553.694885 
	C562.259705,550.385681 564.998535,549.489563 566.957886,548.415771 
	C576.446350,543.215271 586.057434,538.263611 597.068359,534.488098 
M525.476868,548.716736 
	C528.467468,549.596558 525.754395,553.312134 528.272339,554.384277 
	C531.427734,555.727844 534.614868,556.996704 538.657227,558.654053 
	C524.792358,539.330200 471.203766,516.903381 437.767456,516.855408 
	C443.094116,518.563599 446.976410,521.969971 451.705353,521.519592 
	C455.995178,521.111023 459.920532,521.720520 463.958496,522.759033 
	C485.531464,528.307373 506.002563,536.464844 525.476868,548.716736 
M539.499023,563.491028 
	C537.242920,563.494385 535.348633,561.452942 531.763306,562.351807 
	C534.844177,566.456116 530.238037,572.446899 536.287903,575.258301 
	C542.542847,578.165039 549.282043,578.235291 554.913147,574.321655 
	C559.092590,571.416931 556.080139,566.424805 556.580261,561.882324 
	C550.737610,562.912598 545.674683,565.121155 539.499023,563.491028 
M286.500000,730.710205 
	C293.995667,730.709595 301.493774,730.594360 308.985901,730.756958 
	C312.685577,730.837219 315.761017,729.757751 318.690033,727.558228 
	C326.410889,721.760376 334.263092,716.137695 342.013275,710.378418 
	C344.702942,708.379700 347.246490,706.184448 350.385193,703.652771 
	C347.837372,703.531128 346.731781,704.656372 345.593109,705.506165 
	C337.053925,711.878967 328.449249,718.173401 320.110382,724.801025 
	C316.298492,727.830688 312.559021,729.506592 307.472382,729.451660 
	C282.822937,729.185547 258.168976,729.319580 233.516724,729.366394 
	C231.970596,729.369324 230.264389,728.800293 227.913391,730.708435 
	C247.745682,730.708435 266.622833,730.708435 286.500000,730.710205 
M562.436768,684.506042 
	C561.831177,682.508972 562.536438,680.211853 560.937256,678.088440 
	C554.421631,681.375183 547.698303,681.290710 540.979614,678.390747 
	C540.077881,686.777344 541.594788,689.334717 547.913330,690.911072 
	C554.737549,692.613525 560.416931,690.402100 562.436768,684.506042 
M629.640137,529.232910 
	C608.887207,533.647156 589.151123,540.763367 570.825989,551.650024 
	C593.664429,543.824219 616.502930,535.998352 639.341370,528.172546 
	C639.280762,527.943176 639.220154,527.713745 639.159546,527.484375 
	C636.255066,528.000977 633.350586,528.517517 629.640137,529.232910 
M517.206909,549.952148 
	C518.520630,550.510498 519.834290,551.068787 521.148010,551.627136 
	C503.825378,540.121155 484.903687,532.479309 464.599579,528.159851 
	C481.918976,535.326294 499.238342,542.492737 517.206909,549.952148 
M535.178894,579.498901 
	C532.612732,581.998047 534.447388,583.498840 536.538208,584.600586 
	C542.981262,587.995789 549.374512,586.971008 555.589478,583.904785 
	C557.688293,582.869263 558.159546,581.137512 556.649780,578.834351 
	C549.725037,581.352966 542.823425,582.662292 535.178894,579.498901 
M546.726196,675.813232 
	C555.281433,677.809570 562.055847,674.681824 560.927185,669.256592 
	C549.747131,671.809875 553.385742,672.339661 539.970032,669.206543 
	C539.423584,673.834351 542.927185,674.529358 546.726196,675.813232 
M427.913116,564.203735 
	C427.583862,562.224548 428.326935,559.999878 426.737610,558.139526 
	C419.661926,567.024414 418.225525,572.500305 422.478607,574.887085 
	C424.274414,571.589966 426.071075,568.291260 427.913116,564.203735 
z"/>
<path fill="#000000" opacity="1.000000" stroke="none" 
	d="
M548.882141,707.780396 
	C555.209839,709.013611 561.003906,710.517090 566.200317,713.690491 
	C567.951904,714.760010 569.523743,714.726257 571.344238,713.788635 
	C588.475220,704.965210 606.593628,705.400146 624.954102,708.164062 
	C631.393494,709.133362 637.632629,710.866943 643.833618,712.815063 
	C646.883057,713.773132 648.952515,715.420776 650.325867,718.432861 
	C655.573608,729.941284 661.067322,741.337219 666.404114,752.805359 
	C668.881958,758.130066 668.209229,759.224182 662.250305,759.235474 
	C635.274353,759.286499 608.298218,759.269287 581.322144,759.251404 
	C578.311584,759.249390 575.462097,759.474365 572.593140,760.771362 
	C567.672241,762.995667 562.418457,762.824341 557.500549,760.845459 
	C554.279053,759.549133 551.115234,759.275024 547.770874,759.277588 
	C521.294250,759.297852 494.817657,759.294617 468.341125,759.254761 
	C461.281555,759.244141 460.897522,758.789612 464.516785,752.940308 
	C472.400421,740.199402 481.189453,728.070740 490.211304,716.112671 
	C491.616791,714.249695 493.644440,713.493530 495.727936,712.928467 
	C513.007568,708.241882 530.421387,704.833069 548.882141,707.780396 
M564.364685,741.781616 
	C564.816589,736.984436 565.363159,732.193970 565.700562,727.388733 
	C566.382874,717.671021 565.807556,716.896790 556.446899,713.895996 
	C555.813599,713.692932 555.169983,713.521851 554.528992,713.343689 
	C540.879211,709.549683 527.148376,710.443665 513.492371,713.034119 
	C494.277588,716.678955 494.306244,716.823242 483.113342,732.618347 
	C481.766083,734.519592 480.365356,736.383301 479.035858,738.296692 
	C476.631287,741.757446 474.261780,745.242554 471.435059,749.362610 
	C479.502960,747.788086 486.466888,746.295044 493.479919,745.087463 
	C509.412628,742.343750 525.386292,740.057617 541.593506,742.679749 
	C548.862671,743.855713 555.400574,747.189941 562.042725,750.061768 
	C563.828857,747.605042 563.478455,744.966003 564.364685,741.781616 
M656.734802,741.638550 
	C653.426086,734.729431 650.065735,727.844238 646.840088,720.896484 
	C645.868225,718.803345 644.590881,717.194214 642.351562,716.543945 
	C622.946594,710.908447 603.460205,707.687622 583.359070,713.230713 
	C575.129150,715.500183 569.102966,718.562622 569.458740,728.762573 
	C569.700989,735.708984 568.197815,742.716248 567.416870,750.258606 
	C598.550232,733.649414 629.124817,743.583862 659.820068,749.494202 
	C659.661560,746.524658 657.839355,744.616333 656.734802,741.638550 
M634.390991,754.286865 
	C617.070435,754.286865 599.749817,754.286865 582.429260,754.286865 
	C582.431030,754.417175 582.432800,754.547424 582.434570,754.677734 
	C607.890076,754.677734 633.345642,754.677734 658.801147,754.677734 
	C631.319946,747.610840 603.893982,739.494690 575.773438,751.143738 
	C586.883362,749.401062 598.120850,749.584717 609.345398,749.744629 
	C620.472534,749.903137 631.704895,749.036560 643.397278,751.792847 
	C640.655029,755.446594 637.784363,753.936646 634.390991,754.286865 
M512.013855,746.540039 
	C498.260284,748.444397 484.481415,750.220642 471.209991,754.684814 
	C480.857727,753.619141 491.021210,757.663147 500.159332,751.515198 
	C501.162445,750.840393 502.725281,750.913818 504.042236,750.802429 
	C515.315857,749.849304 526.614197,749.788940 537.911987,750.089600 
	C542.586304,750.213989 547.248047,751.200989 552.803772,750.323120 
	C539.327026,744.674744 526.203552,744.658752 512.013855,746.540039 
M508.130554,755.391907 
	C520.510376,755.391907 532.890137,755.391907 545.269958,755.391907 
	C545.270813,755.107178 545.271606,754.822388 545.272400,754.537659 
	C532.584167,754.537659 519.895874,754.537659 507.207642,754.537659 
	C507.343231,754.779236 507.478851,755.020752 508.130554,755.391907 
M566.103333,757.966675 
	C567.238525,757.651978 568.698914,758.367188 569.780273,756.560486 
	C566.221497,756.602234 562.965088,755.789062 559.659485,757.591248 
	C561.549500,757.725525 563.439514,757.859741 566.103333,757.966675 
z"/>
<path fill="#000000" opacity="1.000000" stroke="none" 
	d="
M353.022583,763.054565 
	C358.935394,755.396179 364.697937,748.069458 370.278992,740.606995 
	C372.230835,737.997192 374.393372,736.660278 377.782928,736.673950 
	C402.417725,736.773071 427.053101,736.696167 451.688232,736.734375 
	C457.593719,736.743591 458.454315,738.093323 455.435455,743.135803 
	C446.547211,757.982056 437.458862,772.708374 428.521881,787.525696 
	C426.965210,790.106628 424.892853,791.096680 421.940277,791.089600 
	C394.642059,791.024292 367.343628,791.049805 340.045441,790.979675 
	C338.153229,790.974792 335.748718,791.425415 334.747223,789.160339 
	C333.825806,787.076294 335.818848,785.860657 336.868500,784.458557 
	C342.154327,777.397949 347.485626,770.371399 353.022583,763.054565 
M432.498779,740.897156 
	C415.354095,740.725647 398.208008,740.633362 381.065887,740.321350 
	C377.264801,740.252197 374.573975,741.182556 372.174713,744.407104 
	C362.338379,757.627014 352.221893,770.638489 342.217773,783.733765 
	C341.630066,784.503052 340.853577,785.273438 341.655792,786.440125 
	C342.087555,786.528809 342.569336,786.713989 343.051239,786.714355 
	C368.860626,786.735840 394.670166,786.701416 420.479187,786.800903 
	C423.650696,786.813110 425.309174,785.226685 426.776245,782.804810 
	C434.537567,769.992188 442.359100,757.216125 450.127655,744.407898 
	C450.690704,743.479614 451.623901,742.551575 450.770844,740.903870 
	C445.121185,740.903870 439.309357,740.903870 432.498779,740.897156 
z"/>
<path fill="#000000" opacity="1.000000" stroke="none" 
	d="
M370.174194,353.655975 
	C354.625946,321.750732 376.737030,286.888824 411.552582,287.799194 
	C435.425598,288.423431 455.079071,308.680725 454.944122,332.523895 
	C454.802826,357.485870 435.456573,377.244446 410.934998,377.395233 
	C392.866821,377.506348 379.329193,369.680084 370.174194,353.655975 
M374.935089,311.474426 
	C366.149231,327.512604 366.750549,343.284210 377.716827,357.836090 
	C388.519043,372.170227 403.832123,375.607697 420.634186,371.997742 
	C437.658875,368.339996 450.264679,351.867767 450.696442,334.159515 
	C451.155365,315.338348 439.967438,299.392792 422.457581,293.912109 
	C404.486023,288.286896 385.463684,295.116669 374.935089,311.474426 
z"/>
<path fill="#000000" opacity="1.000000" stroke="none" 
	d="
M680.798584,745.945923 
	C684.780762,739.651794 690.383911,735.335693 695.203918,730.304199 
	C701.534119,723.696228 708.059387,717.273438 714.565002,710.835938 
	C716.902222,708.523193 719.763184,707.289307 722.505615,709.889526 
	C725.481018,712.710815 724.236084,715.549377 721.695435,718.105408 
	C711.254150,728.609985 700.931458,739.234924 690.353943,749.600037 
	C687.070557,752.817444 683.056824,755.218628 678.070923,755.781860 
	C676.635620,751.689636 679.825684,749.305237 680.798584,745.945923 
M703.561584,728.061584 
	C698.155701,733.495850 692.749817,738.930115 687.343933,744.364441 
	C687.475159,744.478271 687.606323,744.592041 687.737549,744.705872 
	C696.795715,735.784302 705.853882,726.862732 715.794434,717.072083 
	C710.425842,720.142639 707.667114,724.337769 703.561584,728.061584 
z"/>
<path fill="#000000" opacity="1.000000" stroke="none" 
	d="
M461.860291,382.936584 
	C457.890991,385.423065 454.284180,385.367981 450.907959,382.676208 
	C448.069000,380.412781 446.933563,377.391083 447.760284,373.800140 
	C448.595184,370.173615 451.076782,368.110657 454.574768,367.300171 
	C458.682495,366.348419 461.804443,368.146545 463.892365,371.494781 
	C466.442566,375.584381 465.673798,379.416321 461.860291,382.936584 
M461.244232,377.050842 
	C460.540405,371.994019 457.266937,369.797821 453.818024,372.109741 
	C452.198822,373.195129 451.257019,374.773468 451.678131,376.744415 
	C452.081207,378.631073 453.332977,380.037201 455.249725,380.470764 
	C457.808289,381.049469 459.744263,380.010101 461.244232,377.050842 
z"/>
<path fill="#000000" opacity="1.000000" stroke="none" 
	d="
M475.685974,384.299347 
	C479.525085,383.135468 482.222168,384.198914 484.099762,387.248779 
	C485.465607,389.467377 485.191010,391.674408 483.722931,393.732758 
	C481.970154,396.190338 479.462708,396.753632 476.694916,396.119202 
	C474.260681,395.561218 472.568634,393.966400 472.037201,391.502411 
	C471.370300,388.410675 472.510254,386.014282 475.685974,384.299347 
M475.932007,389.146423 
	C475.422363,391.598419 476.858673,392.505249 478.894043,392.329773 
	C480.413147,392.198761 481.132660,390.789185 480.530273,389.408508 
	C479.603302,387.284058 478.019318,387.105255 475.932007,389.146423 
z"/>
<path fill="#000000" opacity="1.000000" stroke="none" 
	d="
M556.804810,349.186157 
	C563.597900,356.202332 571.500610,359.897980 580.978210,360.047272 
	C581.974304,360.062958 582.979675,360.073090 583.962341,360.214264 
	C585.296204,360.405884 586.828003,360.694550 586.809937,362.394806 
	C586.792847,364.005432 585.311401,364.506989 583.995728,364.733429 
	C582.701050,364.956329 581.347473,365.009125 580.033691,364.923187 
	C563.253052,363.825287 549.011169,351.828491 545.110535,335.548706 
	C544.994568,335.064636 544.784180,334.572723 544.803711,334.092072 
	C544.878845,332.243805 543.601868,329.507477 546.268921,329.003601 
	C548.869995,328.512207 548.592163,331.496735 548.831604,333.010101 
	C549.802063,339.144440 552.550354,344.317352 556.804810,349.186157 
z"/>
<path fill="#000000" opacity="1.000000" stroke="none" 
	d="
M563.741699,403.520325 
	C563.363098,405.401398 563.217712,406.905548 562.801758,408.330688 
	C561.972778,411.171143 562.620483,412.859863 565.871948,413.010223 
	C567.445557,413.083008 569.100769,413.566895 568.864746,415.524994 
	C568.624329,417.519470 566.752625,417.275208 565.296631,417.325928 
	C560.025940,417.509491 557.310059,414.693268 558.242554,409.697357 
	C559.459717,403.175629 560.899536,396.704132 561.163696,390.033997 
	C561.224731,388.492035 561.333069,386.233063 563.595337,386.360229 
	C565.961975,386.493256 565.571777,388.722321 565.420166,390.274933 
	C565.001343,394.562622 564.388611,398.831421 563.741699,403.520325 
z"/>
<path fill="#000000" opacity="1.000000" stroke="none" 
	d="
M561.064026,426.946228 
	C567.300781,428.266083 572.975525,428.207916 578.408020,425.365234 
	C579.873535,424.598358 581.665466,423.690460 582.740845,425.719238 
	C583.861206,427.832733 581.969604,428.702972 580.502747,429.370209 
	C574.112915,432.276703 567.485779,433.032166 560.652710,431.184570 
	C559.349365,430.832153 558.000671,430.253204 558.090027,428.609467 
	C558.171021,427.119141 559.416382,426.916870 561.064026,426.946228 
z"/>
<path fill="#000000" opacity="1.000000" stroke="none" 
	d="
M588.890381,370.637085 
	C592.206299,370.752747 594.938232,371.388611 597.430481,372.825775 
	C598.674744,373.543304 599.555786,374.613983 598.710266,376.098358 
	C597.992737,377.358063 596.729492,377.162872 595.624573,376.671539 
	C591.346741,374.769257 586.970703,374.590912 582.488953,375.765198 
	C581.135315,376.119934 579.677734,376.307465 579.166870,374.639618 
	C578.567505,372.682617 580.166077,372.111572 581.573975,371.536469 
	C583.782898,370.634186 586.117859,370.684814 588.890381,370.637085 
z"/>
<path fill="#000000" opacity="1.000000" stroke="none" 
	d="
M537.098755,376.762146 
	C535.262268,377.449493 533.651672,377.868317 533.226379,375.716187 
	C532.915100,374.140594 534.251953,373.348389 535.490234,372.813324 
	C540.254272,370.754608 545.150024,370.382080 550.114685,371.995972 
	C551.513306,372.450653 553.250061,372.991974 552.582214,375.015167 
	C552.049927,376.628082 550.435181,376.491119 549.165527,376.173676 
	C545.192505,375.180389 541.285645,374.879883 537.098755,376.762146 
z"/>
<path fill="#000000" opacity="1.000000" stroke="none" 
	d="
M588.728638,394.908356 
	C586.364014,395.109314 585.197510,394.080566 584.858154,392.235809 
	C584.526855,390.435333 584.363342,388.546173 586.051697,387.231781 
	C587.052612,386.452545 588.246399,386.441772 589.280396,387.189270 
	C590.933533,388.384430 591.299316,390.122620 590.994995,392.029785 
	C590.805176,393.218750 590.202942,394.182800 588.728638,394.908356 
z"/>
<path fill="#000000" opacity="1.000000" stroke="none" 
	d="
M542.817627,394.820435 
	C542.251709,394.214874 541.873718,393.855957 541.704651,393.416687 
	C540.711609,390.836517 540.774231,388.306641 543.754639,387.366791 
	C546.193909,386.597565 547.396790,388.641052 547.575378,390.708130 
	C547.835632,393.719666 546.910828,395.995392 542.817627,394.820435 
z"/>
<path fill="#000000" opacity="1.000000" stroke="none" 
	d="
M610.997437,577.269531 
	C611.283936,582.392395 611.444458,587.053223 611.854858,591.691833 
	C612.089111,594.339722 611.044922,595.681274 608.585083,596.444458 
	C599.522888,599.255676 590.494324,602.175293 581.450928,605.047302 
	C578.463684,605.995911 576.575623,605.172607 576.228882,601.811462 
	C575.185791,591.698181 574.709351,581.552979 574.491272,571.393188 
	C574.440369,569.020264 576.231201,568.385559 578.013184,567.821411 
	C586.742737,565.057434 595.511597,562.412842 604.199402,559.523987 
	C608.486877,558.098328 610.050598,559.662476 610.182556,563.845032 
	C610.318909,568.166809 610.701355,572.480835 610.997437,577.269531 
M606.277954,574.118835 
	C606.156128,572.629761 606.008118,571.142334 605.917114,569.651367 
	C605.559570,563.794861 605.406311,563.599487 599.736877,565.283020 
	C593.694092,567.077515 587.724976,569.118713 581.706421,570.996887 
	C580.015869,571.524353 578.492432,572.087463 578.715515,574.274658 
	C579.586365,582.813171 579.000916,591.478271 580.872925,600.605896 
	C587.412964,598.649658 593.657410,596.552307 600.026184,594.948853 
	C605.194641,593.647583 608.145508,591.447021 606.940308,585.462830 
	C606.260376,582.087036 606.550049,578.516052 606.277954,574.118835 
z"/>
<path fill="#000000" opacity="1.000000" stroke="none" 
	d="
M591.639893,614.711304 
	C588.435791,615.791321 585.610901,616.761780 582.758423,617.643005 
	C581.387634,618.066406 579.598267,618.977417 578.909241,616.986816 
	C578.148438,614.788940 580.116333,614.234497 581.702148,613.712219 
	C588.633728,611.429810 595.570862,609.164490 602.510864,606.907837 
	C611.502014,603.984375 620.488281,601.045349 629.500305,598.187439 
	C631.130432,597.670410 632.907654,596.540771 634.775696,598.529907 
	C634.547546,601.474121 631.838745,601.676819 629.877747,602.324585 
	C617.281189,606.485657 604.636597,610.501465 591.639893,614.711304 
z"/>
<path fill="#000000" opacity="1.000000" stroke="none" 
	d="
M586.993591,627.118042 
	C584.159363,627.345642 580.621399,630.745544 579.605408,627.744934 
	C578.325745,623.965576 583.218567,624.359314 585.513123,623.585266 
	C597.656128,619.488708 609.900330,615.689636 622.134949,611.869263 
	C623.693420,611.382690 626.047607,609.764465 626.735535,612.475037 
	C627.324585,614.796082 624.728943,615.102539 623.045288,615.641113 
	C611.159058,619.442993 599.263916,623.216736 586.993591,627.118042 
z"/>
<path fill="#000000" opacity="1.000000" stroke="none" 
	d="
M608.897522,626.784058 
	C613.392029,625.374390 617.488770,624.028442 621.620544,622.800598 
	C622.870789,622.429016 624.415405,622.106750 624.988586,623.826965 
	C625.533386,625.461853 624.365051,626.304688 623.016113,626.727539 
	C609.569580,630.942444 596.116516,635.136597 582.646729,639.276245 
	C581.944885,639.491943 581.075378,639.162170 580.226379,639.080872 
	C579.397583,635.651794 582.033997,635.383240 583.877319,634.774475 
	C592.064087,632.071106 600.296997,629.507385 608.897522,626.784058 
z"/>
<path fill="#000000" opacity="1.000000" stroke="none" 
	d="
M632.560181,572.493164 
	C639.442810,570.321533 645.937683,568.243469 652.451660,566.226868 
	C654.115479,565.711731 656.326294,564.473328 657.165955,566.906311 
	C657.913391,569.072083 655.535950,569.509399 654.056458,569.994751 
	C642.999268,573.621826 631.916321,577.170837 620.835754,580.726257 
	C619.566650,581.133423 618.035217,581.656128 617.301758,580.107727 
	C616.406006,578.216675 617.994080,577.319275 619.389648,576.825684 
	C623.620667,575.329163 627.911804,574.002502 632.560181,572.493164 
z"/>
<path fill="#000000" opacity="1.000000" stroke="none" 
	d="
M600.814453,652.997314 
	C594.860718,654.750977 589.298950,656.412170 583.721191,658.017517 
	C582.481201,658.374390 580.922852,658.993164 580.221069,657.359375 
	C579.353699,655.340210 581.121704,654.717651 582.500305,654.280518 
	C594.204651,650.568787 605.927856,646.916321 617.655151,643.277649 
	C618.943115,642.877930 620.495117,642.578552 621.107178,644.181641 
	C621.879089,646.203186 620.076721,646.790649 618.732605,647.240540 
	C612.911133,649.189209 607.048462,651.014526 600.814453,652.997314 
z"/>
<path fill="#000000" opacity="1.000000" stroke="none" 
	d="
M647.430054,546.382446 
	C649.536621,545.661743 651.265991,545.056885 653.013550,544.510376 
	C654.443054,544.063293 656.205383,543.365295 656.758484,545.426208 
	C657.262756,547.305420 655.553162,547.894043 654.096130,548.384277 
	C652.676636,548.861755 651.258545,549.343323 649.834656,549.807312 
	C640.179871,552.953247 630.537659,556.138733 620.854370,559.194275 
	C619.263489,559.696289 617.484070,560.950500 615.738953,559.292480 
	C615.433594,556.353943 617.743774,556.144165 619.535889,555.549927 
	C628.700867,552.511230 637.883972,549.526855 647.430054,546.382446 
z"/>
<path fill="#000000" opacity="1.000000" stroke="none" 
	d="
M656.346191,555.563843 
	C657.597107,558.224609 655.645874,558.755066 654.168823,559.229492 
	C642.928894,562.840515 631.660828,566.364380 620.389343,569.876404 
	C619.121277,570.271423 617.644043,570.610229 616.911438,569.009521 
	C616.275024,567.618835 617.253540,566.653748 618.389160,566.313904 
	C630.917114,562.564758 643.053467,557.467407 656.346191,555.563843 
z"/>
<path fill="#000000" opacity="1.000000" stroke="none" 
	d="
M276.725128,690.370178 
	C290.471466,690.469543 303.791718,690.618408 317.111664,690.792603 
	C318.629089,690.812439 320.402832,690.915649 321.023224,692.463196 
	C321.809326,694.424255 320.054657,695.381104 318.752289,696.419067 
	C315.498291,699.012451 312.222992,701.582214 309.045959,704.267700 
	C307.376190,705.679077 305.417633,705.976135 303.438782,705.951843 
	C289.118042,705.776062 274.798218,705.523438 260.478516,705.272034 
	C259.320404,705.251770 258.120178,705.169128 256.732300,703.019592 
	C262.603546,697.972961 268.363739,692.687073 276.725128,690.370178 
M292.484253,701.833313 
	C294.984100,701.851074 297.498230,701.704468 299.980896,701.920105 
	C305.497314,702.399170 309.264801,699.686829 313.010437,695.423035 
	C301.767944,694.245300 291.144318,694.503113 280.528931,694.299072 
	C274.471924,694.182678 270.421112,697.267944 265.405426,701.828674 
	C274.913818,701.828674 283.201843,701.828674 292.484253,701.833313 
z"/>
<path fill="#000000" opacity="1.000000" stroke="none" 
	d="
M280.006897,737.758972 
	C288.636871,737.781860 296.768616,737.760132 304.898865,737.860291 
	C306.594086,737.881226 309.249786,737.363770 309.299072,739.836487 
	C309.357452,742.767151 306.507904,742.047302 304.714569,742.044006 
	C292.778778,742.022217 280.843079,741.895813 268.907684,741.768127 
	C267.432251,741.752319 265.858887,741.720459 265.001556,739.199280 
	C269.584442,736.341187 274.741852,738.351990 280.006897,737.758972 
z"/>
<path fill="#000000" opacity="1.000000" stroke="none" 
	d="
M267.383942,746.986328 
	C255.970840,747.127930 244.999588,747.104309 234.013748,745.832458 
	C234.350693,742.382080 236.348923,742.805176 237.846481,742.798950 
	C247.160187,742.759949 256.474335,742.813293 265.788239,742.851318 
	C267.308136,742.857544 268.938232,742.911316 269.611969,744.575989 
	C270.240753,746.129517 268.948364,746.540344 267.383942,746.986328 
z"/>
<path fill="#000000" opacity="1.000000" stroke="none" 
	d="
M234.430542,737.776123 
	C239.855408,736.535156 244.996429,737.010193 250.122833,737.261780 
	C251.381363,737.323486 253.075714,737.466064 253.107300,739.232117 
	C253.147064,741.454956 251.252136,741.202576 249.821594,741.219666 
	C245.502625,741.270996 241.181503,741.287537 236.863464,741.203125 
	C234.905914,741.164856 232.972855,740.840210 234.430542,737.776123 
z"/>
<path fill="#000000" opacity="1.000000" stroke="none" 
	d="
M270.999817,720.100586 
	C260.364136,720.027588 250.228455,719.961975 240.092819,719.892029 
	C238.929993,719.883972 237.762543,719.909729 236.605835,719.814880 
	C235.273911,719.705627 233.719513,719.582458 233.629303,717.843262 
	C233.530075,715.930176 235.178253,716.036072 236.471146,715.904480 
	C237.129715,715.837402 237.799225,715.869385 238.463760,715.870605 
	C259.069122,715.907349 279.674683,715.911438 300.279510,716.036072 
	C302.377411,716.048767 305.960205,714.989319 305.998535,718.128479 
	C306.039246,721.460327 302.431549,720.124329 300.412964,720.148315 
	C290.776794,720.263000 281.137817,720.143127 270.999817,720.100586 
z"/>
<path fill="#000000" opacity="1.000000" stroke="none" 
	d="
M234.735123,720.973755 
	C255.069244,720.074219 257.794434,720.281006 260.527740,722.784363 
	C260.203552,724.319336 258.934753,724.327209 257.802795,724.331116 
	C250.828903,724.355286 243.852921,724.409180 236.882263,724.250061 
	C235.250107,724.212769 232.065399,724.641663 234.735123,720.973755 
z"/>
<path fill="#000000" opacity="1.000000" stroke="none" 
	d="
M518.537109,732.333862 
	C531.247192,731.317932 543.357788,731.330566 554.705933,736.335327 
	C554.655945,737.253052 554.605957,738.170837 554.555908,739.088623 
	C531.662659,733.345825 509.113434,736.440125 486.650269,741.743713 
	C486.519897,740.824097 486.389526,739.904480 486.259186,738.984863 
	C496.618164,735.803772 507.181122,733.434875 518.537109,732.333862 
z"/>
<path fill="#000000" opacity="1.000000" stroke="none" 
	d="
M523.838867,719.489929 
	C522.357605,726.040222 519.114868,729.843689 512.232849,729.941467 
	C506.020844,730.029602 500.020844,732.940125 493.660583,731.924866 
	C493.527649,724.908447 497.426636,719.439026 503.479279,718.211060 
	C508.842590,717.123047 514.201172,715.862244 519.713501,715.743347 
	C521.978271,715.694458 524.249939,715.821899 523.838867,719.489929 
M518.233093,721.516968 
	C511.862518,718.439392 500.641602,722.018066 499.704742,727.607117 
	C504.648224,726.933044 509.531647,726.221680 514.428650,725.620483 
	C516.567139,725.357971 517.636353,724.121948 518.233093,721.516968 
z"/>
<path fill="#000000" opacity="1.000000" stroke="none" 
	d="
M538.592224,727.416687 
	C534.870728,726.873657 531.291809,728.378906 528.118713,726.109131 
	C531.729919,722.107361 549.863892,723.176941 555.514587,728.028992 
	C549.561035,730.228455 544.304138,727.413696 538.592224,727.416687 
z"/>
<path fill="#000000" opacity="1.000000" stroke="none" 
	d="
M530.457825,717.159302 
	C538.878601,714.590271 546.623169,716.411316 554.562988,718.240845 
	C553.728455,721.532043 552.026855,721.464478 550.651306,721.135132 
	C545.237610,719.838989 539.747131,720.248657 534.278076,720.071350 
	C532.538208,720.014954 530.411682,720.208923 530.457825,717.159302 
z"/>
<path fill="#000000" opacity="1.000000" stroke="none" 
	d="
M583.733887,739.751526 
	C581.150513,739.786377 577.913879,743.061401 577.023926,739.594421 
	C576.266296,736.643250 580.434692,736.605042 582.597229,735.951294 
	C603.043579,729.770447 623.429321,731.354919 643.734192,736.802551 
	C645.288269,737.219482 647.479797,737.611145 646.621887,739.898926 
	C645.845215,741.969971 643.827209,741.161316 642.260620,740.708191 
	C633.911377,738.293579 625.381470,736.857300 616.729797,736.303162 
	C605.692688,735.596252 594.750061,736.210693 583.733887,739.751526 
z"/>
<path fill="#000000" opacity="1.000000" stroke="none" 
	d="
M599.586304,726.316467 
	C612.244934,725.045166 624.276306,726.413940 636.240295,728.747803 
	C637.734375,729.039246 639.593872,729.364319 639.321716,731.276428 
	C638.989746,733.609497 636.902710,733.208496 635.321350,732.812012 
	C626.535400,730.609375 617.608398,730.014832 608.586975,730.078491 
	C601.583740,730.127930 594.643188,730.407959 587.786316,732.084229 
	C585.965149,732.529541 583.640991,733.824219 581.415771,730.668701 
	C587.121643,727.365845 593.300049,727.476074 599.586304,726.316467 
z"/>
<path fill="#000000" opacity="1.000000" stroke="none" 
	d="
M588.359192,725.426453 
	C586.094055,725.925659 584.178711,727.205017 582.484436,725.093079 
	C582.295288,722.720215 584.200745,722.365662 585.691833,722.015808 
	C600.501770,718.541199 615.364685,719.132507 630.228210,721.668213 
	C631.729492,721.924316 633.477112,722.476501 632.813477,724.474915 
	C632.198975,726.325500 630.419556,725.827332 628.948730,725.532471 
	C618.418213,723.421021 607.779358,723.713257 597.146240,724.197998 
	C594.345093,724.325745 591.566895,724.953491 588.359192,725.426453 
z"/>
<path fill="#000000" opacity="1.000000" stroke="none" 
	d="
M610.910461,718.256470 
	C601.184692,717.510010 592.073608,719.389282 582.724243,720.522095 
	C582.560974,716.853088 584.732605,716.376526 586.551453,715.971741 
	C599.921448,712.996582 613.329956,713.385437 626.741211,715.746094 
	C628.116516,715.988159 629.606567,716.324707 629.326599,718.088623 
	C629.006226,720.107483 627.331787,719.951172 625.781738,719.730713 
	C621.005798,719.051270 616.266357,718.012695 610.910461,718.256470 
z"/>
<path fill="#000000" opacity="1.000000" stroke="none" 
	d="
M387.000122,775.087585 
	C380.522369,775.089661 374.544220,775.130432 368.566986,775.073242 
	C367.128540,775.059509 365.207397,775.128296 365.177246,773.076111 
	C365.147614,771.058838 367.021881,770.937378 368.489227,770.937988 
	C384.097412,770.944397 399.705750,770.989502 415.313629,771.085266 
	C416.739685,771.093994 418.368683,771.162292 419.106140,773.741943 
	C414.070892,776.357971 408.611176,774.770996 403.438263,775.037720 
	C398.138733,775.311035 392.813843,775.093262 387.000122,775.087585 
z"/>
<path fill="#000000" opacity="1.000000" stroke="none" 
	d="
M403.000854,763.988342 
	C410.146820,764.524536 416.966187,762.947876 423.522064,765.046814 
	C423.344238,768.346680 421.245361,768.160400 419.498627,768.164734 
	C404.011353,768.202332 388.523895,768.188293 373.036591,768.154907 
	C371.579132,768.151733 369.967926,768.249573 369.013519,765.849915 
	C374.201813,761.971741 380.129913,765.298889 385.548523,764.511169 
	C391.107361,763.703064 396.843079,764.111572 403.000854,763.988342 
z"/>
<path fill="#000000" opacity="1.000000" stroke="none" 
	d="
M420.893188,757.409668 
	C423.713135,757.551392 427.724579,755.887207 427.778076,759.419006 
	C427.824646,762.493469 423.754791,761.215698 421.509491,761.234985 
	C407.561188,761.355347 393.611053,761.316650 379.661957,761.249207 
	C377.795013,761.240173 375.639374,761.928162 374.170837,759.976501 
	C374.195160,757.380615 376.177338,757.566650 377.712860,757.556580 
	C391.974182,757.462952 406.236023,757.448975 420.893188,757.409668 
z"/>
<path fill="#000000" opacity="1.000000" stroke="none" 
	d="
M385.164185,750.738525 
	C394.287689,750.736267 402.934784,750.669617 411.579315,750.788269 
	C413.488251,750.814514 416.690369,749.780762 416.655579,752.957031 
	C416.627014,755.559753 413.653900,754.965698 411.784851,754.978577 
	C402.308380,755.043884 392.830933,755.043640 383.354584,754.968994 
	C381.494507,754.954346 378.592590,755.552246 378.511017,752.906799 
	C378.422791,750.047119 381.386383,751.037537 383.192047,750.760925 
	C383.679840,750.686157 384.188019,750.743958 385.164185,750.738525 
z"/>
<path fill="#000000" opacity="1.000000" stroke="none" 
	d="
M399.591095,777.704529 
	C405.105743,777.942383 410.309967,776.997192 415.193726,778.234131 
	C415.205597,780.817383 414.056152,781.165161 412.879730,781.185364 
	C408.420013,781.261963 403.958466,781.261841 399.497833,781.241638 
	C398.356140,781.236511 396.982086,781.254456 396.846313,779.684509 
	C396.712585,778.138428 397.959076,777.882629 399.591095,777.704529 
z"/>
<path fill="#000000" opacity="1.000000" stroke="none" 
	d="
M427.827698,750.787537 
	C429.661865,750.927612 431.277863,750.570923 432.132141,752.237793 
	C430.419464,755.020447 425.826752,756.273560 423.509338,754.557617 
	C422.140137,753.543823 421.968750,752.258362 423.588593,751.484558 
	C424.719421,750.944458 426.133789,750.998169 427.827698,750.787537 
z"/>
<path fill="#000000" opacity="1.000000" stroke="none" 
	d="
M411.537842,360.174927 
	C404.827362,360.035492 401.063232,356.791321 401.104706,350.587677 
	C401.144531,344.629669 398.984253,339.697266 396.068817,334.755280 
	C392.260773,328.300171 393.204895,321.946289 397.650299,316.139191 
	C401.300903,311.370453 408.865112,309.542755 415.424286,311.556458 
	C426.085419,314.829498 429.917511,326.640839 423.178558,336.703369 
	C420.662262,340.460602 418.706207,344.037201 419.433380,348.606201 
	C420.410004,354.742493 416.331116,357.509979 411.537842,360.174927 
M399.779663,320.518555 
	C394.880676,329.120544 401.777069,335.102814 404.468903,342.551758 
	C405.143738,339.783752 404.343842,337.754059 403.699707,335.705078 
	C400.397430,325.200348 401.150940,324.295837 412.170563,324.718262 
	C416.425903,324.881348 417.821686,326.796509 416.859680,330.820770 
	C416.014679,334.355743 414.910919,337.857544 415.283997,341.705261 
	C416.204132,338.581909 418.693024,336.522736 420.246887,333.839722 
	C423.819489,327.670807 422.635681,320.876678 417.299469,316.981995 
	C411.696960,312.892944 405.083893,314.007568 399.779663,320.518555 
M407.680420,334.109436 
	C408.352295,336.582336 409.024170,339.055237 410.028473,342.751740 
	C411.029846,337.661346 411.776215,333.867218 412.575165,329.805756 
	C410.362823,329.289093 408.669830,328.754852 406.718811,330.069397 
	C406.958588,331.178528 407.198029,332.286163 407.680420,334.109436 
z"/>
<path fill="#000000" opacity="1.000000" stroke="none" 
	d="
M428.090698,309.379639 
	C426.484955,311.362396 425.346527,313.477997 422.436859,313.715363 
	C420.662476,310.512360 423.063263,308.978912 425.044952,307.554718 
	C426.623840,306.420013 428.225464,306.342163 428.090698,309.379639 
z"/>
<path fill="#000000" opacity="1.000000" stroke="none" 
	d="
M411.979340,304.217804 
	C411.941681,306.194916 412.307709,308.065033 410.073059,308.510468 
	C409.150330,308.694366 408.540283,307.952545 408.296326,307.133881 
	C407.768219,305.361816 407.399841,303.296478 408.836182,302.020264 
	C411.052429,300.051056 411.425507,302.300232 411.979340,304.217804 
z"/>
<path fill="#000000" opacity="1.000000" stroke="none" 
	d="
M394.827454,312.888062 
	C394.071320,312.236481 393.592377,311.797302 393.158691,311.317230 
	C392.258820,310.321136 391.431244,309.217682 392.308014,307.863800 
	C392.944336,306.881104 393.987854,306.957947 394.882904,307.548340 
	C396.394318,308.545258 397.911011,309.727325 397.927582,311.678375 
	C397.943878,313.594727 396.505707,313.484863 394.827454,312.888062 
z"/>
<path fill="#000000" opacity="1.000000" stroke="none" 
	d="
M286.022888,700.229004 
	C282.541718,700.196655 279.553314,700.213318 276.569305,700.106750 
	C275.356262,700.063477 274.201630,699.580261 274.184418,698.113586 
	C274.167633,696.687561 275.260986,695.997803 276.469025,695.956543 
	C285.093933,695.662170 293.722809,695.530151 302.337219,696.208130 
	C303.505798,696.300110 304.719269,696.812317 304.746735,698.261047 
	C304.782043,700.124817 303.280518,700.286255 301.952515,700.292847 
	C296.807739,700.318481 291.662506,700.257324 286.022888,700.229004 
z"/>
</svg>