<svg version="1.1" id="Layer_1" xmlns="http://www.w3.org/2000/svg" xmlns:xlink="http://www.w3.org/1999/xlink" x="0px" y="0px"
	 width="100%" viewBox="0 0 238 250" enable-background="new 0 0 238 250" xml:space="preserve">
<path fill="none" opacity="1.000000" stroke="#000000" stroke-linecap="round" stroke-linejoin="round" stroke-width="3.000000"
	d="
M142.000000,168.500000 
	C142.962753,167.139877 143.012711,165.593658 143.011398,163.999985 
	C142.994202,143.333328 143.002457,122.666664 142.985733,102.000015 
	C142.985321,101.488861 142.772507,100.977882 142.548203,99.970055 
	C108.000000,100.127213 73.500000,99.634132 38.874374,100.658531 
	C37.689056,102.155586 38.007439,104.114967 38.006428,106.000000 
	C37.995975,125.500000 37.993671,145.000000 38.004021,164.500000 
	C38.006962,170.041382 38.282303,169.972900 43.999268,170.052551 
	C65.999031,170.359039 88.007172,169.300369 110.001701,170.467941 
	C111.488663,170.546860 112.998978,170.038132 114.500206,170.026199 
	C117.844627,169.999573 119.717781,171.292450 118.500000,175.000000 
"/>
<path fill="none" opacity="1.000000" stroke="#000000" stroke-linecap="round" stroke-linejoin="round" stroke-width="3.000000"
	d="
M167.500000,95.500000 
	C163.191269,105.038811 160.459763,114.899200 165.091690,124.957779 
	C170.289841,136.245972 179.840363,141.837677 192.003189,142.965668 
	C202.666519,143.954575 211.988739,141.455978 219.567612,133.061035 
	C233.165817,117.998627 228.749924,95.361221 211.545914,84.924309 
	C206.503082,81.865036 200.972214,81.222237 195.500000,80.000000 
"/>
<path fill="none" opacity="1.000000" stroke="#000000" stroke-linecap="round" stroke-linejoin="round" stroke-width="3.000000"
	d="
M202.500000,176.500000 
	C176.505829,175.423462 150.499878,176.146851 124.499855,176.032013 
	C93.667122,175.895828 62.833324,176.008011 32.000019,175.980270 
	C30.133884,175.978592 28.112516,176.547836 26.500000,175.000000 
"/>
<path fill="none" opacity="1.000000" stroke="#000000" stroke-linecap="round" stroke-linejoin="round" stroke-width="2.000000"
	d="
M220.500000,77.000000 
	C213.321243,76.646645 205.903503,74.990219 199.058517,77.650581 
	C191.236801,80.690567 182.976273,82.567673 175.500000,86.500000 
"/>
<path fill="none" opacity="1.000000" stroke="#000000" stroke-linecap="round" stroke-linejoin="round" stroke-width="3.000000"
	d="
M173.500000,110.500000 
	C176.087051,120.179054 182.609711,125.819214 192.000824,128.497086 
	C198.609497,130.381546 205.123123,130.234100 211.500000,127.500000 
"/>
<path fill="none" opacity="1.000000" stroke="#000000" stroke-linecap="round" stroke-linejoin="round" stroke-width="2.000000"
	d="
M77.500000,102.500000 
	C65.500000,102.500000 53.500000,102.500000 41.500000,102.500000 
"/>
<path fill="none" opacity="1.000000" stroke="#000000" stroke-linecap="round" stroke-linejoin="round" stroke-width="2.000000"
	d="
M151.000000,124.000000 
	C155.492020,134.888779 156.000992,146.538803 157.512680,157.998322 
	C157.580353,158.511383 157.833328,159.000000 158.000000,159.500000 
"/>
<path fill="none" opacity="1.000000" stroke="#000000" stroke-linecap="round" stroke-linejoin="round" stroke-width="2.000000"
	d="
M230.500000,85.500000 
	C224.026413,83.122086 217.442520,81.626549 210.500000,83.000000 
"/>
<path fill="none" opacity="1.000000" stroke="#000000" stroke-linecap="round" stroke-linejoin="round" stroke-width="2.000000"
	d="
M149.000000,125.000000 
	C147.341080,128.718063 146.372040,132.496124 147.516129,136.772263 
	C151.454529,135.131302 149.808212,131.042160 152.000000,129.000000 
"/>
<path fill="none" opacity="1.000000" stroke="#000000" stroke-linecap="round" stroke-linejoin="round" stroke-width="2.000000"
	d="
M166.500000,141.000000 
	C164.758362,147.551331 162.067993,153.753128 159.500000,160.000000 
"/>
<path fill="none" opacity="1.000000" stroke="#000000" stroke-linecap="round" stroke-linejoin="round" stroke-width="5.000000"
	d="
M119.000000,170.750000 
	C121.900375,169.304504 125.097664,169.767578 127.980331,170.148743 
	C132.388626,170.731689 136.666672,169.955505 141.000000,170.000000 
"/>
<path fill="none" opacity="1.000000" stroke="#000000" stroke-linecap="round" stroke-linejoin="round" stroke-width="3.000000"
	d="
M17.500000,175.000000 
	C14.778016,177.168091 11.345753,175.074509 8.500000,176.500000 
"/>
<path fill="none" opacity="1.000000" stroke="#000000" stroke-linecap="round" stroke-linejoin="round" stroke-width="2.000000"
	d="
M152.000000,140.000000 
	C149.166672,139.234543 146.333328,139.177994 143.500000,140.000000 
"/>
<path fill="none" opacity="1.000000" stroke="#000000" stroke-linecap="round" stroke-linejoin="round" stroke-width="2.000000"
	d="
M172.500000,136.000000 
	C168.730713,140.291840 163.952164,141.443771 158.500000,140.500000 
"/>
<path fill="none" opacity="1.000000" stroke="#000000" stroke-linecap="round" stroke-linejoin="round" stroke-width="3.000000"
	d="
M83.500000,135.500000 
	C84.938560,134.114899 82.659416,131.614487 85.149689,130.428482 
	C87.380821,130.842407 88.765503,132.305481 89.500000,134.500000 
"/>
<path fill="none" opacity="1.000000" stroke="#000000" stroke-linecap="round" stroke-linejoin="round" stroke-width="2.000000"
	d="
M163.000000,141.500000 
	C162.157104,143.572586 159.084122,143.136292 158.500000,145.500000 
"/>
<path fill="none" opacity="1.000000" stroke="#000000" stroke-linecap="round" stroke-linejoin="round" stroke-width="2.000000"
	d="
M38.500000,171.000000 
	C36.778065,172.191422 37.762951,173.984360 37.500000,175.500000 
"/>
<path fill="none" opacity="1.000000" stroke="#000000" stroke-linecap="round" stroke-linejoin="round" stroke-width="2.000000"
	d="
M158.500000,160.500000 
	C158.500000,161.833328 158.500000,163.166672 158.500000,164.500000 
"/>
<path fill="none" opacity="1.000000" stroke="#000000" stroke-linecap="round" stroke-linejoin="round" stroke-width="2.000000"
	d="
M142.500000,172.000000 
	C142.500000,173.166672 142.500000,174.333328 142.500000,175.500000 
"/>
</svg>