<svg version="1.1" id="Layer_1" xmlns="http://www.w3.org/2000/svg" xmlns:xlink="http://www.w3.org/1999/xlink" x="0px" y="0px"
	 width="100%" viewBox="0 0 1024 1024" enable-background="new 0 0 1024 1024" xml:space="preserve">
<path fill="#000000" opacity="1.000000" stroke="none" 
	d="
M448.517456,379.339050 
	C467.818817,377.285736 486.666107,375.052429 505.567230,373.457336 
	C521.372498,372.123505 530.971252,379.287567 533.371765,394.917938 
	C536.527283,415.464752 538.673523,436.167053 541.223450,456.806274 
	C543.772827,477.440857 546.241577,498.085480 548.829712,518.715149 
	C550.348572,530.821777 551.520874,542.904480 548.191345,554.907410 
	C547.614441,556.987244 547.127136,559.204163 546.026306,561.008789 
	C536.902771,575.965820 527.177307,589.421753 507.828888,593.227539 
	C480.690033,598.565796 453.653595,601.783630 425.984528,599.383362 
	C411.907196,598.162231 403.354614,591.028748 399.023010,577.957825 
	C395.543030,567.456604 393.204681,556.694885 392.949036,545.674377 
	C392.438324,523.658936 389.194244,501.909149 387.264984,480.033203 
	C385.610779,461.275543 384.363647,442.512238 387.445709,423.736206 
	C389.265900,412.647583 394.449188,404.003815 403.586792,397.266327 
	C416.943817,387.417755 431.791840,381.730560 448.517456,379.339050 
M469.633667,392.270966 
	C450.502167,393.407990 431.618286,395.802612 413.001343,400.778290 
	C400.304260,404.171783 394.260498,411.980194 392.139038,424.421051 
	C388.591736,445.223969 390.782074,465.891876 392.780975,486.577240 
	C394.363983,502.959015 396.510223,519.296082 397.224976,535.745544 
	C397.724670,547.245972 398.191864,558.801514 401.526062,569.817871 
	C407.760010,590.415405 411.610535,593.118835 430.463959,594.942383 
	C449.172272,596.751892 467.710449,595.198853 486.171295,592.479309 
	C498.853516,590.611023 511.390503,587.976013 523.132019,582.424255 
	C528.893494,579.700134 531.755920,575.444641 531.740662,569.079895 
	C531.725830,562.919617 531.937622,556.759155 531.973511,550.598328 
	C532.134644,522.924500 529.245422,495.438477 526.571350,467.956146 
	C524.477478,446.437439 521.935730,424.963379 518.144226,403.645813 
	C517.125061,397.915741 514.302429,395.393402 508.919861,394.294617 
	C496.227692,391.703644 483.418304,392.116760 469.633667,392.270966 
M521.210388,397.420929 
	C524.651550,407.406372 525.905334,417.865936 527.126770,428.230804 
	C531.819580,468.055115 536.250732,507.907532 536.565186,548.097412 
	C536.610291,553.862122 535.869751,559.740112 536.575378,566.160950 
	C540.367981,562.608459 541.407776,559.325562 540.849548,554.873901 
	C537.247070,526.148254 535.268250,497.261383 532.632324,468.438660 
	C530.784119,448.229523 528.728394,428.037354 525.916138,407.931274 
	C525.305115,403.562592 523.789246,399.548096 521.473877,395.848938 
	C521.049133,395.170258 520.819458,395.937073 520.883484,396.423828 
	C520.904785,396.585968 520.983765,396.740540 521.210388,397.420929 
M476.591309,381.305725 
	C453.938263,382.371277 431.844177,386.614258 423.964905,391.442291 
	C425.150208,391.130981 426.253510,390.821655 427.366364,390.551819 
	C450.569916,384.925323 474.339905,383.309479 497.945953,380.492279 
	C511.083496,378.924438 520.697998,383.594666 526.721558,395.425140 
	C527.659058,397.266510 528.419983,399.197845 529.262573,401.087555 
	C529.366882,399.337158 529.042358,397.729065 528.743896,396.116180 
	C526.314331,382.987091 520.557556,378.106934 507.264099,378.136475 
	C504.114655,378.143463 500.957458,378.527985 497.819153,378.876740 
	C491.045105,379.629395 484.280945,380.471588 476.591309,381.305725 
M544.210815,541.398621 
	C544.210815,543.173340 544.210815,544.948120 544.210815,546.722839 
	C544.625671,546.694397 545.040588,546.665955 545.455444,546.637512 
	C545.967773,516.177795 538.650879,486.421783 536.033997,456.243317 
	C538.743713,484.340851 541.453430,512.438416 544.210815,541.398621 
M498.530823,387.838013 
	C505.037842,388.669525 511.487976,389.783112 517.770142,391.655792 
	C508.830597,381.322540 497.567535,386.402374 486.990204,387.037506 
	C490.541718,387.126190 494.123901,387.110504 498.530823,387.838013 
z"/>
<path fill="#000000" opacity="1.000000" stroke="none" 
	d="
M636.387939,518.283203 
	C635.706726,521.971008 635.084839,525.235962 634.467834,528.501892 
	C634.179016,530.030640 633.834229,531.620483 631.808655,531.434753 
	C629.860840,531.256226 629.789795,529.504639 629.413147,528.083008 
	C628.871948,526.040466 629.710571,524.143555 630.049377,522.193176 
	C631.728638,512.528076 633.377930,502.856232 633.644897,493.021576 
	C633.677734,491.811218 634.226074,490.365173 632.532288,489.024109 
	C629.955627,495.580078 629.755676,502.417419 628.295776,508.955963 
	C627.643738,511.876068 627.252380,514.853699 626.716553,517.800537 
	C626.233398,520.457703 625.829529,523.033325 622.324951,523.600586 
	C619.940063,523.986572 620.315735,526.380005 620.017029,528.091309 
	C615.755371,552.505005 611.771729,576.970825 607.159607,601.317749 
	C605.596802,609.567566 603.962158,618.080994 601.026978,625.767334 
	C598.938843,631.235413 594.710632,636.401978 591.880310,641.967896 
	C590.522339,644.638428 589.222961,647.338989 587.856934,650.005310 
	C587.314026,651.065063 586.587708,652.101685 585.232666,651.964233 
	C583.612244,651.799866 583.119385,650.507935 582.962524,649.109070 
	C581.490784,635.983826 580.618408,623.163879 581.999573,609.632141 
	C584.180298,588.266174 589.531738,567.646179 592.734558,546.580750 
	C593.908447,538.860107 597.009583,531.217041 596.927429,523.563354 
	C596.722717,504.496399 603.444946,486.742828 605.891235,468.227570 
	C606.518311,463.480896 607.728149,459.511017 613.824280,461.164825 
	C616.050842,456.879730 615.741943,452.422760 616.576782,448.232788 
	C617.207214,445.068878 618.663025,444.147583 621.719482,444.372284 
	C633.458130,445.235260 633.735962,445.500702 632.127747,457.151947 
	C631.672974,460.446747 629.975586,463.709808 634.593506,466.046570 
	C636.548828,467.036011 635.248718,470.371460 634.780640,472.618713 
	C634.036194,476.192322 632.870117,479.489929 637.676514,481.669006 
	C640.663757,483.023376 640.526428,486.699249 640.449158,489.732147 
	C640.206421,499.260162 638.434448,508.576996 636.387939,518.283203 
M607.352173,565.969849 
	C605.519104,567.222168 603.403320,567.888855 601.276550,568.008301 
	C598.602844,568.158386 596.822754,566.480042 596.389465,563.928589 
	C595.931885,561.234314 597.640747,560.199890 600.149841,559.739136 
	C603.234680,559.172607 606.316833,559.580627 609.608704,559.498779 
	C611.392639,549.049622 613.092896,538.721802 614.955322,528.423340 
	C615.463013,525.616028 616.184082,523.299133 612.115540,522.561584 
	C605.012207,521.273865 602.487732,521.845459 601.614990,526.202271 
	C596.880737,549.835693 592.270203,573.494019 587.619873,597.144226 
	C587.358948,598.471313 587.009705,600.033997 588.536499,600.675110 
	C592.222900,602.223022 596.129822,603.107971 600.096863,603.508423 
	C601.686523,603.668823 602.317200,602.169922 602.552795,600.818420 
	C604.606934,589.035706 606.621826,577.246155 608.619080,565.453613 
	C608.698242,564.986206 608.360046,564.877075 608.043335,565.206848 
	C607.928467,565.326538 607.827087,565.459106 607.352173,565.969849 
M601.523315,515.057861 
	C604.198792,516.744141 604.738159,516.339722 605.552795,511.879608 
	C607.555542,500.914734 609.705811,489.972565 611.438416,478.964874 
	C612.074280,474.925018 613.694214,470.858826 612.112610,466.548767 
	C607.383911,482.230072 604.991699,498.404266 601.523315,515.057861 
M625.619141,488.998352 
	C624.090698,498.309662 622.562317,507.620972 621.033875,516.932251 
	C621.359619,516.985474 621.685364,517.038635 622.011108,517.091797 
	C624.795593,501.458740 627.580017,485.825714 630.364502,470.192688 
	C629.871033,470.098846 629.377563,470.005005 628.884155,469.911163 
	C627.864441,475.991608 626.844788,482.072083 625.619141,488.998352 
M618.440674,493.866821 
	C617.388672,501.251129 616.336670,508.635437 615.284607,516.019775 
	C615.597839,516.062195 615.911011,516.104614 616.224182,516.147034 
	C618.928650,500.046265 621.633179,483.945496 624.337646,467.844727 
	C624.070984,467.796997 623.804321,467.749298 623.537659,467.701569 
	C621.893433,476.139099 620.249146,484.576599 618.440674,493.866821 
M586.696289,627.869202 
	C584.851196,630.820618 585.053711,634.142517 587.524170,639.938904 
	C589.294006,636.280396 590.982300,632.790649 592.600830,629.444885 
	C590.714478,627.793396 588.939392,628.300110 586.696289,627.869202 
M611.734497,507.407318 
	C611.860413,504.638184 613.214233,501.989929 612.413879,498.316193 
	C611.386963,504.825470 610.484314,510.546967 609.581665,516.268494 
	C609.842957,516.314148 610.104309,516.359863 610.365662,516.405518 
	C610.799927,513.687500 611.234131,510.969482 611.734497,507.407318 
M592.474060,623.689453 
	C593.766235,623.544189 595.230164,624.194946 597.263855,622.631104 
	C593.003540,622.241394 589.710999,621.940247 586.418457,621.639099 
	C586.348938,621.973877 586.279419,622.308655 586.209900,622.643494 
	C588.047974,622.980103 589.886108,623.316711 592.474060,623.689453 
z"/>
<path fill="#000000" opacity="1.000000" stroke="none" 
	d="
M419.535126,492.482117 
	C420.455444,494.260803 421.212891,495.721130 422.639038,498.470612 
	C422.818848,491.785492 423.398346,486.463470 422.089508,481.198669 
	C421.715088,479.692505 420.892487,478.210205 422.584229,477.253265 
	C423.980530,476.463470 425.689636,475.665314 427.289764,476.587860 
	C429.169525,477.671600 428.323700,479.259003 427.946747,480.954376 
	C426.739838,486.382141 428.483490,491.825653 428.195587,497.295197 
	C428.003845,500.938904 428.245819,504.604614 428.262146,508.260590 
	C428.270020,510.021729 427.916992,511.654633 425.867859,512.094849 
	C423.782013,512.543030 422.849396,511.074463 422.136688,509.519989 
	C419.527863,503.829895 416.971802,498.115570 413.469238,492.667877 
	C414.457611,498.747772 415.404388,504.834930 416.464386,510.902313 
	C416.720245,512.367065 417.537537,513.813477 415.940308,514.962952 
	C414.986176,515.649597 413.904755,516.271057 412.706665,515.743103 
	C410.676971,514.848755 411.558594,513.048950 411.338684,511.464508 
	C410.108978,502.605927 409.879761,493.571808 407.169159,484.967834 
	C406.613251,483.203339 405.103333,481.620697 407.697052,480.491394 
	C409.911285,479.527283 412.377228,478.939117 413.879822,481.540863 
	C415.871338,484.989044 417.555817,488.614532 419.535126,492.482117 
z"/>
<path fill="#000000" opacity="1.000000" stroke="none" 
	d="
M442.393799,519.309204 
	C461.335419,516.004761 479.853180,512.803650 498.370453,509.599854 
	C499.190002,509.458069 499.999298,509.231537 500.823822,509.149536 
	C502.569031,508.975983 504.440186,509.054291 504.675385,511.235626 
	C504.893433,513.257751 502.913605,513.503418 501.545593,513.756775 
	C493.371552,515.270569 485.175598,516.666199 476.984711,518.088318 
	C457.820648,521.415710 438.668243,524.814453 419.474152,527.958740 
	C417.083557,528.350281 412.979523,530.767212 412.291260,526.711548 
	C411.707703,523.273010 416.008148,523.974060 418.380615,523.531738 
	C426.226990,522.068909 434.104401,520.772339 442.393799,519.309204 
z"/>
<path fill="#000000" opacity="1.000000" stroke="none" 
	d="
M478.006989,505.186035 
	C466.626251,505.501007 466.732635,508.200378 466.798981,495.062988 
	C466.831757,488.576324 466.929321,482.086975 466.782349,475.603699 
	C466.704834,472.184540 468.163177,470.450836 471.390167,469.581635 
	C474.421173,468.765167 477.602814,468.394653 480.413971,466.797241 
	C481.999939,465.895996 483.457214,466.256744 483.966003,468.082184 
	C484.469696,469.889313 484.540894,471.873322 482.247742,472.639587 
	C481.355560,472.937714 480.276337,472.622742 479.293762,472.712402 
	C472.127106,473.366272 470.126495,476.111908 471.475342,483.226501 
	C472.080902,486.420593 474.181305,485.692322 476.016327,484.892822 
	C480.052521,483.134308 481.209991,485.125946 481.222443,488.662415 
	C481.231110,491.124237 480.384094,492.719269 477.584778,491.199402 
	C475.711670,490.182434 473.504883,489.339966 472.204681,491.302399 
	C470.595367,493.731445 470.853851,496.913116 471.909058,499.464722 
	C472.828857,501.688843 475.434509,500.533600 477.336914,500.535126 
	C477.968964,500.535614 478.633942,500.246368 479.226776,499.968079 
	C480.556946,499.343658 481.872559,498.202393 483.331085,499.466461 
	C484.463348,500.447693 484.369751,501.889709 484.010437,503.192749 
	C483.425903,505.312683 481.652405,505.192657 479.957550,505.142395 
	C479.459473,505.127625 478.960114,505.155579 478.006989,505.186035 
z"/>
<path fill="#000000" opacity="1.000000" stroke="none" 
	d="
M497.715759,501.359131 
	C495.107269,501.307892 492.950989,501.198792 490.795319,501.209930 
	C489.387268,501.217224 488.025421,501.171478 487.647827,499.510071 
	C487.337555,498.144867 487.803802,496.871063 488.702759,495.804810 
	C489.750549,494.562073 490.940125,494.717163 492.268097,495.411987 
	C493.423615,496.016541 494.636169,496.709869 495.890808,496.886780 
	C498.636993,497.274078 500.921112,496.214752 501.867126,493.514191 
	C502.895935,490.577179 500.587921,489.345673 498.509399,488.282623 
	C496.600494,487.306335 494.325348,486.907654 492.630524,485.677307 
	C487.588348,482.017151 487.400299,473.813477 492.531036,469.506622 
	C495.642487,466.894867 499.471741,465.116302 503.057281,463.103668 
	C504.239563,462.440063 505.493103,463.042694 505.880280,464.303986 
	C506.498383,466.317535 507.603760,468.394531 506.580688,470.543671 
	C505.883270,472.008759 504.706299,471.874817 503.213989,471.362274 
	C499.273468,470.008911 494.805664,472.107880 493.755768,475.871429 
	C492.561188,480.153564 495.554535,481.827026 498.857422,483.043579 
	C502.374451,484.338959 505.655579,485.865173 506.917877,489.808014 
	C508.759155,495.559357 505.222595,500.216095 497.715759,501.359131 
z"/>
<path fill="#000000" opacity="1.000000" stroke="none" 
	d="
M443.988922,478.984283 
	C446.332092,484.568939 447.832611,490.296539 447.319519,496.445587 
	C447.092224,499.169373 446.512360,501.729980 444.793152,503.878754 
	C441.682251,507.766907 436.641479,507.561096 433.815277,503.499725 
	C430.557556,498.818420 430.203003,483.635803 433.237976,478.782257 
	C435.496948,475.169708 438.648560,475.127533 443.703064,478.822815 
	C444.000244,478.999390 443.988922,478.984283 443.988922,478.984283 
M436.202301,491.500122 
	C436.330933,493.966522 436.316101,496.452332 436.645416,498.891632 
	C436.824951,500.221649 437.814545,501.286743 439.292633,501.502655 
	C440.441437,501.670502 441.028961,500.905762 441.548096,499.972321 
	C444.011230,495.543579 442.090912,485.401917 437.853821,481.655273 
	C435.471558,484.334320 436.539825,487.606171 436.202301,491.500122 
z"/>
<path fill="#000000" opacity="1.000000" stroke="none" 
	d="
M444.007446,479.005463 
	C442.842896,473.390503 442.916229,473.495331 448.699524,473.186462 
	C452.320557,472.993073 456.020996,472.629669 459.347961,470.886780 
	C460.599274,470.231293 461.846649,469.627197 462.895325,471.010925 
	C463.810638,472.218658 464.470062,473.651886 463.844452,475.199463 
	C463.273621,476.611481 462.100311,477.113831 460.587982,476.790375 
	C457.590485,476.149323 457.096619,478.038391 457.313782,480.275696 
	C457.923645,486.559021 458.644440,492.831818 459.366638,499.103607 
	C459.439056,499.732483 459.675079,500.456421 460.085052,500.910767 
	C461.219818,502.168488 463.728394,503.105469 461.784637,505.195526 
	C460.040802,507.070648 457.332794,506.686859 455.175415,506.012573 
	C452.581940,505.202026 454.252350,503.161407 454.332825,501.443237 
	C454.675964,494.118347 452.964844,486.937988 452.391876,479.667786 
	C452.257568,477.963318 450.815308,477.799561 449.321808,478.169769 
	C447.752533,478.558777 446.379059,479.890411 444.282776,479.086182 
	C443.988922,478.984283 444.000244,478.999390 444.007446,479.005463 
z"/>
<path fill="#000000" opacity="1.000000" stroke="none" 
	d="
M599.178955,554.874634 
	C596.600891,551.302551 598.910461,548.192383 600.046082,545.567505 
	C600.903442,543.586060 603.968567,545.217163 605.993774,545.726318 
	C607.998657,546.230286 610.149475,547.097778 609.275330,549.700745 
	C608.537537,551.897644 609.415283,555.470276 605.246704,555.428955 
	C603.307129,555.409729 601.331543,556.447998 599.178955,554.874634 
z"/>
<path fill="#000000" opacity="1.000000" stroke="none" 
	d="
M593.646606,576.171814 
	C593.535339,573.591492 594.270203,571.785645 596.064636,570.588867 
	C596.848022,570.066406 598.048523,569.387817 598.742310,569.642944 
	C602.463501,571.011414 600.799011,575.430237 603.114807,577.910034 
	C604.036743,578.897217 601.846497,580.313416 600.226501,580.259338 
	C597.458496,580.166931 593.797119,581.485657 593.646606,576.171814 
z"/>
</svg>