<svg version="1.1" id="Layer_1" xmlns="http://www.w3.org/2000/svg" xmlns:xlink="http://www.w3.org/1999/xlink" x="0px" y="0px"
	 width="100%" viewBox="0 0 880 576" enable-background="new 0 0 880 576" xml:space="preserve">
<path fill="#000000" opacity="1.000000" stroke="none" 
	d="
M357.224731,316.241272 
	C361.640167,312.020477 366.701050,310.314270 372.326019,309.612030 
	C382.044220,308.398773 391.726990,306.902161 401.424561,305.523865 
	C404.285706,305.117218 406.120026,303.628082 407.409698,300.925507 
	C411.929016,291.455353 416.658325,282.085236 421.328003,272.687134 
	C425.349762,264.593079 432.092834,260.322205 440.933075,260.317291 
	C449.980743,260.312286 456.778290,264.718903 460.855225,273.006775 
	C465.414032,282.274384 470.110962,291.475220 474.567200,300.791504 
	C475.934570,303.650208 477.873596,305.171997 480.958038,305.584290 
	C490.999420,306.926514 501.043762,308.257385 511.061401,309.762756 
	C520.160950,311.130219 526.910950,315.711548 529.928711,324.742126 
	C532.865417,333.530182 530.542358,341.193634 524.170593,347.597168 
	C517.355225,354.446564 510.537781,361.333191 503.239807,367.647064 
	C499.390137,370.977570 498.632843,374.427124 499.482513,379.009552 
	C501.297760,388.799255 502.865295,398.634613 504.613251,408.437164 
	C506.144897,417.026733 503.022827,423.859802 496.493805,429.131500 
	C489.766388,434.563324 481.870544,435.098206 474.346283,431.703918 
	C464.492828,427.258850 455.020844,421.938171 445.543365,416.706787 
	C442.434479,414.990753 440.002319,414.829285 436.835114,416.571320 
	C427.350983,421.787933 417.845215,427.017395 408.046265,431.596405 
	C394.871521,437.752930 380.742584,430.271454 377.467773,416.183563 
	C376.391266,411.552612 377.468506,407.257843 378.162689,402.867493 
	C379.588257,393.851410 381.077789,384.841064 382.813599,375.881165 
	C383.331177,373.209686 382.622375,371.538513 380.759827,369.773346 
	C373.503693,362.896576 366.340607,355.921082 359.179932,348.944275 
	C348.785767,338.817017 348.062225,327.929565 357.224731,316.241272 
M458.287567,294.106964 
	C455.832092,289.191681 453.298798,284.313324 450.944977,279.349823 
	C448.945435,275.133392 446.218628,272.237457 441.130768,272.189209 
	C435.814423,272.138794 433.048096,275.186584 430.928925,279.551666 
	C425.766357,290.185486 420.398346,300.719635 415.245453,311.358063 
	C413.897675,314.140656 412.144592,315.852539 408.955170,316.279633 
	C396.931091,317.889648 384.924194,319.629059 372.915863,321.354919 
	C368.350372,322.011078 364.804596,323.907745 363.186371,328.699951 
	C361.594788,333.413239 363.601074,336.732910 366.726471,339.799286 
	C375.167084,348.080414 383.449402,356.534851 392.156494,364.526123 
	C395.384979,367.489166 395.781189,370.551331 395.119568,374.322510 
	C393.485077,383.639557 391.861694,392.958527 390.251129,402.279724 
	C389.826660,404.736572 389.594574,407.233582 389.045807,409.660522 
	C388.084473,413.911835 389.609314,417.244965 392.818909,419.788269 
	C396.149475,422.427429 399.978088,422.450012 403.640900,420.579437 
	C414.612122,414.976471 425.565002,409.332001 436.407013,403.484894 
	C439.695282,401.711487 442.401489,401.701447 445.704163,403.495270 
	C456.382324,409.295013 467.199768,414.839905 477.999603,420.413025 
	C481.824158,422.386627 485.804901,422.597046 489.265381,419.782562 
	C492.559448,417.103455 493.861755,413.606567 493.026886,409.139740 
	C490.799774,397.223511 488.916992,385.243378 486.803772,373.305206 
	C486.205170,369.923523 486.894775,367.366669 489.545502,364.874329 
	C498.400787,356.548004 507.049438,347.999512 515.683716,339.441742 
	C518.648865,336.502808 520.346619,333.102509 518.866699,328.644623 
	C517.343689,324.056976 513.952759,322.071472 509.588318,321.426514 
	C497.427582,319.629547 485.253082,317.922363 473.071503,316.272278 
	C470.139557,315.875092 468.260437,314.482452 467.000397,311.805603 
	C464.306183,306.082123 461.431183,300.443726 458.287567,294.106964 
z"/>
<path fill="#000000" opacity="1.000000" stroke="none" 
	d="
M387.050232,235.399872 
	C389.797699,228.312500 395.022766,225.044983 401.844421,223.667068 
	C412.123260,221.590820 422.223541,220.221603 432.870270,222.341614 
	C440.785156,223.917664 449.131500,222.676178 457.220947,221.466827 
	C467.409363,219.943695 476.977417,222.832718 486.396301,225.906784 
	C491.029236,227.418839 493.713318,231.598114 495.054443,236.295807 
	C498.429688,248.118469 501.682037,259.976196 505.018005,271.810150 
	C505.737610,274.362854 505.568756,276.483795 503.706848,278.710541 
	C500.153534,282.960205 498.318207,288.249298 495.793610,293.120483 
	C494.749023,295.135956 494.062836,297.944794 490.982941,297.179443 
	C487.672363,296.356750 483.555573,297.589478 481.516022,293.181976 
	C477.880646,285.325836 473.906128,277.627136 470.108582,269.845398 
	C465.114746,259.612213 457.368530,253.047531 445.899445,251.101562 
	C432.388794,248.809189 418.857635,255.767624 412.510681,268.560333 
	C408.588867,276.465118 404.470367,284.289978 400.972687,292.380890 
	C398.848999,297.293518 394.631195,296.519745 390.941406,297.163391 
	C387.611603,297.744232 387.091919,294.559753 385.980988,292.465942 
	C383.254517,287.327179 381.241882,281.760284 377.253387,277.382751 
	C375.365753,275.310974 376.413116,273.256012 376.952850,271.287628 
	C380.204742,259.427826 383.581573,247.602295 387.050232,235.399872 
z"/>
<path fill="#000000" opacity="1.000000" stroke="none" 
	d="
M530.865540,382.281189 
	C537.671326,385.849091 544.195679,389.187531 550.638367,392.676483 
	C554.877563,394.972107 558.922180,395.050476 562.722900,391.970276 
	C566.322021,389.053467 567.155701,385.282440 566.197144,380.760773 
	C564.854736,374.428375 563.915466,368.011078 562.768677,361.636414 
	C562.138855,358.135529 562.797180,355.392609 565.750732,352.838440 
	C570.782166,348.487457 575.316223,343.565002 580.120361,338.946289 
	C583.299072,335.890259 584.533936,332.152588 583.349976,328.030945 
	C582.209778,324.061981 579.267761,321.710052 575.035400,321.078400 
	C567.643860,319.975281 560.280396,318.673553 552.875244,317.677551 
	C550.029846,317.294830 548.548828,315.854950 547.376770,313.380920 
	C544.311523,306.910217 541.071655,300.520416 537.808350,294.145996 
	C535.930298,290.477600 533.001526,288.273560 528.696045,288.206970 
	C524.415161,288.140747 521.451050,290.178619 519.368042,293.782532 
	C514.742432,301.785553 514.731445,301.779205 504.945190,298.612610 
	C506.289948,288.127136 514.832397,278.314056 524.005493,276.717224 
	C535.059631,274.792938 543.566284,279.453644 549.016663,290.414062 
	C551.018860,294.440399 553.186890,298.393616 554.984558,302.508942 
	C556.171143,305.225372 557.760010,306.681854 560.842896,307.026337 
	C566.278931,307.633728 571.659973,308.721558 577.072937,309.549957 
	C585.831665,310.890350 591.714111,315.830933 594.362122,324.153961 
	C596.978333,332.376709 595.377014,340.002838 589.344849,346.356750 
	C585.446838,350.462646 581.341919,354.378601 577.214539,358.257111 
	C575.472717,359.893890 574.758667,361.546722 575.241821,363.980133 
	C576.243469,369.024719 576.894653,374.137939 577.841187,379.194641 
	C579.482971,387.965027 577.258057,395.524506 570.323975,401.157013 
	C563.247009,406.905579 555.203308,407.795532 546.895508,403.924255 
	C542.220947,401.745972 537.629578,399.338684 533.203430,396.695007 
	C529.996948,394.779755 527.127686,394.317078 524.003967,396.619720 
	C523.077942,397.302338 521.992676,397.990234 520.895813,398.175842 
	C518.279053,398.618439 515.899170,403.214478 513.219788,399.620544 
	C509.947052,395.230682 511.590881,389.518768 516.487915,387.330750 
	C521.036804,385.298218 524.777222,380.877625 530.865540,382.281189 
z"/>
<path fill="#000000" opacity="1.000000" stroke="none" 
	d="
M363.720734,386.254822 
	C371.319397,390.258911 371.820221,392.010681 367.971832,400.988770 
	C364.643494,400.692200 361.813232,398.797852 359.116669,397.113403 
	C355.077789,394.590454 351.638336,394.690338 347.657745,397.258240 
	C343.757965,399.773926 339.476013,401.713928 335.298981,403.779572 
	C326.987823,407.889679 319.018402,406.875671 311.899689,401.247375 
	C304.896118,395.710144 302.509308,388.198212 304.162476,379.407806 
	C304.990295,375.006134 305.714661,370.584930 306.544891,366.183716 
	C307.243652,362.479431 306.525085,359.425903 303.471832,356.830658 
	C300.180389,354.033020 297.242218,350.822174 294.117920,347.824951 
	C287.407654,341.387634 284.889069,333.647827 287.476379,324.668121 
	C290.105499,315.543488 296.684937,310.742188 305.849823,309.247162 
	C311.091095,308.392273 316.334198,307.509155 321.606750,306.901733 
	C324.270447,306.594879 325.741730,305.330627 326.829071,302.995972 
	C329.148102,298.016663 331.539551,293.062622 334.125793,288.218079 
	C338.233734,280.523224 344.720123,276.324554 353.496704,276.384613 
	C362.405029,276.445557 369.152344,280.501617 373.174744,288.557007 
	C374.777130,291.766083 376.968689,294.796753 377.297302,298.814972 
	C375.246521,299.281219 373.333191,299.728516 371.414215,300.149872 
	C367.940521,300.912476 365.339355,300.214661 363.949310,296.442535 
	C362.161774,291.591858 359.108978,288.121857 353.340393,288.194366 
	C347.766327,288.264435 345.218353,291.923706 343.117737,296.364319 
	C340.627472,301.628662 337.575500,306.657471 335.461731,312.060181 
	C333.793884,316.323212 330.833893,317.716339 326.812653,318.204620 
	C321.204224,318.885590 315.607086,319.659241 310.004181,320.386017 
	C301.968842,321.428345 298.164337,325.028259 298.313599,331.350677 
	C298.385040,334.376923 299.647095,336.753052 301.780365,338.819733 
	C306.564972,343.454865 311.048370,348.439301 316.131134,352.714783 
	C319.518555,355.564209 319.811615,358.733826 319.156738,362.464020 
	C318.009674,368.997559 316.766632,375.514252 315.595886,382.043732 
	C314.851746,386.194031 316.176208,389.733032 319.471741,392.210327 
	C322.543762,394.519653 326.039337,395.334717 329.760742,393.362152 
	C335.201752,390.478058 340.856873,387.951904 346.090149,384.735291 
	C350.968658,381.736694 355.451538,380.864532 360.274628,384.503418 
	C361.188538,385.192963 362.347656,385.557465 363.720734,386.254822 
z"/>
<path fill="#000000" opacity="1.000000" stroke="none" 
	d="
M413.404694,195.192978 
	C408.413025,179.847488 413.726196,165.525284 426.740021,158.417877 
	C439.030579,151.705475 454.675507,154.423950 463.426514,165.106354 
	C471.305145,174.723831 472.795441,185.616272 467.714844,196.864014 
	C462.671539,208.029175 453.316956,214.079636 441.223816,214.063858 
	C428.347290,214.047058 418.762573,207.746948 413.404694,195.192978 
z"/>
<path fill="#000000" opacity="1.000000" stroke="none" 
	d="
M354.762695,248.648956 
	C359.401154,248.737335 363.423340,247.203751 367.637756,247.672394 
	C371.266235,248.075882 373.237000,249.188934 371.753601,253.422699 
	C369.962311,258.535156 369.270966,264.022980 366.802887,269.081268 
	C360.713135,267.883240 355.183136,265.820557 348.951263,266.985535 
	C338.156342,269.003387 329.573212,274.218506 325.533203,284.267365 
	C321.441528,294.444794 315.633728,300.357758 304.112610,300.029785 
	C300.502563,299.927002 296.836456,301.792725 293.205261,302.754944 
	C292.142303,300.949188 292.986145,299.432587 293.425079,297.850555 
	C296.576935,286.490631 299.914246,275.175385 302.741241,263.734375 
	C304.802032,255.394287 309.992645,251.555054 318.120850,249.559631 
	C330.218903,246.589661 342.261139,249.552628 354.762695,248.648956 
z"/>
<path fill="#000000" opacity="1.000000" stroke="none" 
	d="
M563.066162,249.656525 
	C572.614563,250.745071 577.440491,255.906952 579.498047,264.850708 
	C582.103027,276.174194 585.573547,287.299408 588.717468,298.497040 
	C589.079163,299.785370 589.594055,301.003906 588.823975,303.019867 
	C581.360657,299.935577 573.372498,299.112671 565.418457,298.076935 
	C563.544678,297.832916 562.745605,296.256989 561.995789,294.739990 
	C560.225769,291.159119 558.538269,287.534576 556.670715,284.005341 
	C549.328613,270.130249 534.683411,263.713043 519.620728,268.105103 
	C515.599365,269.277649 513.901184,268.495178 513.135376,264.398193 
	C512.197815,259.382233 509.913940,254.658630 509.506989,249.532318 
	C514.359680,245.775299 519.445862,248.215805 524.110352,248.925232 
	C531.007080,249.974167 537.816833,249.809982 544.444397,248.441895 
	C550.788086,247.132385 556.638672,248.415833 563.066162,249.656525 
z"/>
<path fill="#000000" opacity="1.000000" stroke="none" 
	d="
M517.494751,236.589447 
	C509.417267,229.343719 506.812897,220.622116 509.618042,210.651840 
	C512.273071,201.215149 518.838867,195.548859 528.456604,193.502365 
	C541.050232,190.822632 553.480652,198.419876 556.948730,210.906799 
	C560.503357,223.705170 553.346497,237.157074 540.750793,241.128403 
	C532.371948,243.770218 524.692383,242.210449 517.494751,236.589447 
z"/>
<path fill="#000000" opacity="1.000000" stroke="none" 
	d="
M345.539917,193.161987 
	C359.392578,191.836365 371.808197,201.297318 373.279724,213.867065 
	C374.915344,227.838379 365.438507,240.371521 351.859222,242.195816 
	C339.358398,243.875229 326.574921,234.583755 324.686829,222.445953 
	C322.392517,207.696594 330.668213,195.888657 345.539917,193.161987 
z"/>
</svg>