<svg version="1.1" id="Layer_1" xmlns="http://www.w3.org/2000/svg" xmlns:xlink="http://www.w3.org/1999/xlink" x="0px" y="0px"
	 width="100%" viewBox="0 0 626 229" enable-background="new 0 0 626 229" xml:space="preserve">
<path fill="none" opacity="1.000000" stroke="#000000" stroke-linecap="round" stroke-linejoin="round" stroke-width="3.000000"
	d="
M589.000000,108.500000 
	C588.763184,96.078705 587.625671,83.734077 585.388245,71.520477 
	C585.079468,69.834854 584.386719,67.354187 581.993347,67.052681 
	C578.652039,66.631744 578.754028,70.452705 578.739807,71.503235 
	C578.622925,80.161461 578.000854,88.837395 578.955383,97.504913 
	C579.632202,103.650558 580.705566,109.764809 580.564392,116.001457 
	C580.520264,117.952339 578.992615,118.922638 578.829041,121.233315 
	C572.454651,116.907562 564.951721,115.936989 560.402649,109.569565 
	C557.721191,105.816376 553.429382,105.215248 548.837280,106.541512 
	C547.576660,109.752228 549.463501,112.145325 551.555237,113.935455 
	C557.655884,119.156441 561.497498,125.261971 562.735535,133.464447 
	C563.373169,137.689178 565.891785,141.509247 569.846863,144.690414 
	C578.557678,151.696762 583.259399,160.811035 579.524902,172.507950 
	C579.331726,173.112946 579.500000,173.833328 579.500000,174.500000 
"/>
<path fill="none" opacity="1.000000" stroke="#000000" stroke-linecap="round" stroke-linejoin="round" stroke-width="4.000000"
	d="
M344.500000,105.000000 
	C334.545654,100.280602 327.657684,92.302650 321.452545,83.533577 
	C320.110626,81.637131 318.239960,80.084724 316.485962,78.515701 
	C311.645721,74.185944 308.178131,74.480339 303.201416,79.820389 
	C305.759796,83.815979 308.414764,87.886162 310.992737,92.004555 
	C316.284119,100.457825 317.421173,109.435760 314.524567,119.007439 
	C312.102570,127.010887 312.815582,134.833679 318.107971,141.413147 
	C321.921692,146.154297 323.387573,151.246078 322.936523,156.995026 
	C322.614868,161.095047 323.348572,164.325714 327.500000,166.000000 
"/>
<path fill="none" opacity="1.000000" stroke="#000000" stroke-linecap="round" stroke-linejoin="round" stroke-width="5.000000"
	d="
M56.500000,105.500000 
	C63.563164,103.789879 68.671516,98.987206 74.009293,94.511086 
	C84.332436,85.854347 92.895020,75.837486 97.418518,62.971352 
	C99.454971,57.179066 100.343483,50.979385 97.945076,45.022110 
	C95.157486,38.098133 87.431320,34.037178 79.997940,34.983826 
	C71.073158,36.120403 62.883900,39.344803 55.021633,43.521484 
	C52.498646,41.501690 50.147640,39.272236 47.475132,37.538326 
	C33.564671,28.513313 22.880600,32.357479 18.160192,48.048191 
	C14.757978,59.357208 17.274059,70.561409 22.543104,80.978195 
	C27.231936,90.247902 34.113266,97.817360 42.289749,104.796448 
	C37.572998,116.170532 35.503345,128.900146 26.511784,138.511017 
	C20.807333,144.608383 17.337761,151.897614 15.500000,160.000000 
"/>
<path fill="none" opacity="1.000000" stroke="#000000" stroke-linecap="round" stroke-linejoin="round" stroke-width="4.000000"
	d="
M177.000000,177.000000 
	C176.179092,164.439133 180.309525,154.252716 190.976013,146.964890 
	C197.383957,142.586685 199.576309,135.745346 200.449097,128.493866 
	C201.372528,120.821648 202.217072,113.248421 207.444824,106.954170 
	C208.854675,105.256683 209.613205,102.809624 207.457550,101.052071 
	C205.178772,99.194145 202.822510,99.947083 201.030411,102.026215 
	C199.708878,103.559395 197.892120,105.221436 197.632431,107.019135 
	C196.428024,115.355652 190.244568,117.596031 183.506210,119.521744 
	C172.772568,122.589233 165.137253,128.710083 163.500000,140.500000 
"/>
<path fill="none" opacity="1.000000" stroke="#000000" stroke-linecap="round" stroke-linejoin="round" stroke-width="3.000000"
	d="
M497.000000,130.500000 
	C491.780151,129.289612 490.269989,125.985008 492.479492,120.990929 
	C494.511200,116.398834 497.303436,112.324684 500.503082,108.502571 
	C506.677460,101.126999 511.151123,92.730713 514.920959,83.965996 
	C515.890991,81.710678 516.860718,79.101830 515.328735,75.994583 
	C510.668427,75.791260 507.683624,78.890625 505.055359,82.046104 
	C499.783844,88.374985 495.027069,95.104424 490.468719,101.979256 
	C485.939240,108.810562 481.447113,115.711235 475.042542,121.405724 
	C471.955475,118.525169 472.253571,114.800217 471.526123,111.494255 
	C470.003021,104.572327 467.547760,98.219757 460.945709,94.599007 
	C459.885071,94.017334 458.609772,93.347374 456.997009,93.391754 
	C452.736755,93.508987 451.259125,95.499741 453.004974,99.497826 
	C453.302856,100.179970 453.524261,100.973518 454.021637,101.478691 
	C460.210754,107.765244 459.223328,115.100449 456.962555,122.488541 
	C454.616425,130.155655 453.402344,137.757111 456.494812,145.502075 
	C458.094849,149.509201 461.880341,152.214645 463.000000,156.500000 
"/>
<path fill="none" opacity="1.000000" stroke="#000000" stroke-linecap="round" stroke-linejoin="round" stroke-width="4.000000"
	d="
M158.000000,84.500000 
	C156.018707,83.039169 154.185684,81.874985 152.445221,84.969185 
	C151.595078,86.480576 150.166794,87.666786 148.831482,89.193016 
	C147.401459,88.339279 145.927673,87.459404 144.234985,86.448845 
	C137.970581,90.783218 137.558975,98.005974 136.651520,104.521103 
	C134.803253,117.790733 137.421555,130.272614 146.016159,140.987030 
	C154.383682,151.418350 157.188889,163.421143 156.538513,176.501907 
	C156.490173,177.474258 155.956192,178.646194 157.000000,179.500000 
"/>
<path fill="none" opacity="1.000000" stroke="#000000" stroke-linecap="round" stroke-linejoin="round" stroke-width="5.000000"
	d="
M235.500000,50.500000 
	C229.854080,47.352798 223.681564,45.495640 217.464691,44.164993 
	C214.086304,43.441895 213.526489,41.745575 212.935989,39.013836 
	C211.833420,33.913284 211.476151,28.557154 208.630966,23.898693 
	C204.266754,24.991734 203.232315,29.346640 202.797714,32.047897 
	C201.317673,41.246784 195.205002,42.048042 187.999924,42.028870 
	C185.209427,42.021442 182.139099,41.223072 179.920837,44.103699 
	C180.561325,47.824013 183.447449,49.400352 186.479843,51.037331 
	C192.692215,54.390930 193.553116,57.184505 189.925064,62.952869 
	C188.567688,65.111015 187.007889,67.164886 186.068619,69.527283 
	C185.666992,70.537361 186.177216,71.857895 185.118744,72.987823 
	C190.022736,74.470375 193.301910,71.869637 196.445465,69.912415 
	C202.721954,66.004608 208.460022,65.757477 213.994019,71.006310 
	C216.600510,73.478485 220.757217,73.907227 222.500000,77.500000 
"/>
<path fill="none" opacity="1.000000" stroke="#000000" stroke-linecap="round" stroke-linejoin="round" stroke-width="4.000000"
	d="
M609.000000,178.000000 
	C607.883179,170.378006 610.094910,163.157196 612.086182,156.024063 
	C615.111938,145.185120 618.216370,134.446030 616.513428,122.998001 
	C615.879395,118.735909 614.664734,114.622810 613.693909,110.454834 
	C612.922546,107.142845 611.139709,107.540405 609.000000,107.500000 
"/>
<path fill="none" opacity="1.000000" stroke="#000000" stroke-linecap="round" stroke-linejoin="round" stroke-width="4.000000"
	d="
M567.000000,65.000000 
	C566.732727,62.808182 567.338318,60.827324 568.503906,59.002499 
	C570.873596,55.292511 572.733582,51.375111 573.360535,46.869968 
	C569.266846,43.059761 562.891968,42.117928 559.023254,37.009972 
	C562.978516,34.293064 567.199219,35.669655 571.023315,35.183094 
	C575.281311,34.641335 577.896851,33.262615 579.054443,29.014839 
	C579.938904,25.769409 580.524292,22.262135 583.810425,19.762508 
	C587.328674,22.549404 586.571533,27.061829 587.224548,30.551546 
	C588.086914,35.159817 590.497009,35.682064 593.997925,35.466503 
	C596.674988,35.301666 599.327332,34.768982 602.001831,34.519424 
	C604.334412,34.301769 606.431030,34.670544 607.140137,37.571262 
	C602.849243,41.555649 597.598145,44.070763 593.203735,47.348064 
	C592.256470,49.810879 593.817017,51.597099 594.580322,53.467213 
	C595.587097,55.933834 597.423096,58.067772 598.379089,60.546635 
	C598.785522,61.600689 599.589661,63.492294 598.430359,64.412239 
	C597.166077,65.415466 595.746216,64.590210 594.468323,63.538456 
	C592.078430,61.571407 589.564819,59.735085 586.980408,58.029728 
	C584.741516,56.552399 582.600708,55.749279 579.940613,57.927452 
	C575.351624,61.685013 570.789917,65.714928 564.500000,66.500000 
"/>
<path fill="none" opacity="1.000000" stroke="#000000" stroke-linecap="round" stroke-linejoin="round" stroke-width="4.000000"
	d="
M306.500000,25.500000 
	C304.712372,22.050566 302.008484,18.869785 298.068481,20.202484 
	C293.742798,21.665632 292.524017,25.931610 292.434418,30.498714 
	C292.340027,35.312675 293.312164,39.778183 295.511902,43.993790 
	C298.313904,49.363636 302.026276,50.814213 305.500000,48.000000 
	C308.488403,45.578976 309.101227,42.310680 307.000000,40.000004 
	C304.443237,37.188389 302.606537,37.303177 299.000000,40.500000 
"/>
<path fill="none" opacity="1.000000" stroke="#000000" stroke-linecap="round" stroke-linejoin="round" stroke-width="5.000000"
	d="
M376.000000,109.000000 
	C380.483643,108.924110 381.239044,112.513344 381.382050,115.505638 
	C381.840637,125.099113 379.471558,133.740616 372.585815,141.080505 
	C366.926117,147.113495 359.628510,151.371902 354.847290,158.396057 
	C353.173279,160.855392 352.543640,163.612152 351.000000,166.000000 
"/>
<path fill="none" opacity="1.000000" stroke="#000000" stroke-linecap="round" stroke-linejoin="round" stroke-width="4.000000"
	d="
M55.000000,111.500000 
	C61.166767,114.935440 62.894615,120.044586 62.156918,127.016602 
	C61.318047,134.944748 60.557014,142.980576 61.964828,151.006165 
	C63.083324,157.382401 62.554974,163.504349 59.623516,169.559799 
	C57.487659,173.971817 56.971867,179.001862 57.500000,184.000000 
"/>
<path fill="none" opacity="1.000000" stroke="#000000" stroke-linecap="round" stroke-linejoin="round" stroke-width="5.000000"
	d="
M184.000000,229.500000 
	C183.444107,216.648651 183.620132,203.767654 181.682190,190.972412 
	C181.314438,188.544312 181.918182,185.666306 181.969696,182.999420 
	C182.049545,178.864655 179.995758,176.900421 176.006897,177.542862 
	C169.866455,178.531876 163.996857,180.586945 157.470505,179.722809 
	C153.654327,179.217484 150.409912,183.674728 150.071442,189.004532 
	C149.214264,202.502686 147.489075,215.947891 147.500000,229.500000 
"/>
<path fill="none" opacity="1.000000" stroke="#000000" stroke-linecap="round" stroke-linejoin="round" stroke-width="4.000000"
	d="
M179.500000,120.000000 
	C174.014694,112.226692 174.056580,104.064423 177.436554,95.475037 
	C178.820038,91.959274 179.710831,88.206245 180.409805,84.483070 
	C180.752075,82.659805 181.225311,80.343201 178.995743,79.007111 
	C177.065704,77.850517 175.275757,78.568306 173.493378,79.487160 
	C172.699265,79.896553 171.833328,80.166672 171.000000,80.500008 
"/>
<path fill="none" opacity="1.000000" stroke="#000000" stroke-linecap="round" stroke-linejoin="round" stroke-width="3.000000"
	d="
M455.000000,190.500000 
	C453.381317,191.748764 452.638214,189.482742 451.505829,189.573135 
	C449.138336,189.762085 446.293762,188.295013 444.523651,191.015381 
	C442.999237,193.358215 442.527222,196.418869 444.125275,198.398895 
	C447.497711,202.577423 445.742126,205.565384 443.717712,209.608994 
	C441.575958,213.887039 441.206573,219.014725 441.440369,224.002792 
	C441.517975,225.658356 442.329926,227.632645 440.500000,229.000000 
"/>
<path fill="none" opacity="1.000000" stroke="#000000" stroke-linecap="round" stroke-linejoin="round" stroke-width="5.000000"
	d="
M572.000000,188.500000 
	C579.187439,191.675888 586.950012,191.495590 594.506958,191.853668 
	C601.232971,192.172348 608.110962,193.951630 614.818115,190.637863 
	C617.193237,189.464386 620.529480,193.103455 619.957031,195.991486 
	C617.795288,206.896927 617.193848,217.965210 616.395813,229.500000 
	C614.699768,229.500000 613.099854,229.500000 611.500000,229.500000 
"/>
<path fill="none" opacity="1.000000" stroke="#000000" stroke-linecap="round" stroke-linejoin="round" stroke-width="4.000000"
	d="
M41.500000,103.500000 
	C44.305332,102.448891 45.007267,99.639008 46.488377,97.491982 
	C47.972031,95.341270 49.326591,92.780403 52.485424,93.559120 
	C55.752148,94.364441 55.635818,97.448563 55.974754,100.003349 
	C56.603970,104.746193 55.228142,109.215233 53.452900,113.480392 
	C50.297161,121.062309 46.258018,128.468338 50.019794,136.991257 
	C52.467804,142.537628 50.804836,148.000000 50.000000,153.500000 
"/>
<path fill="none" opacity="1.000000" stroke="#000000" stroke-linecap="round" stroke-linejoin="round" stroke-width="4.000000"
	d="
M482.500000,229.000000 
	C484.071594,224.833328 484.810822,220.709900 482.523010,216.487534 
	C480.338104,212.455078 479.505371,208.292801 481.973785,203.984985 
	C482.487579,203.088394 482.653900,201.995529 483.002228,201.000778 
	C484.242401,197.459091 483.580902,194.876205 479.500000,194.000000 
"/>
<path fill="none" opacity="1.000000" stroke="#000000" stroke-linecap="round" stroke-linejoin="round" stroke-width="4.000000"
	d="
M163.000000,115.500000 
	C162.881775,104.756691 165.328888,94.441750 169.192551,84.575401 
	C170.489197,81.264267 170.403641,79.058105 168.394745,76.351990 
	C160.250504,78.646217 157.814194,85.308479 156.577393,92.513283 
	C155.386292,99.451866 154.687683,106.487457 154.083328,113.507172 
	C153.886383,115.794853 154.666672,118.166664 155.000000,120.500000 
"/>
<path fill="none" opacity="1.000000" stroke="#000000" stroke-linecap="round" stroke-linejoin="round" stroke-width="5.000000"
	d="
M233.500000,51.000000 
	C231.073792,54.921638 226.495850,54.555531 222.924881,55.781132 
	C218.877975,57.170071 218.719147,58.939960 219.371063,62.523457 
	C220.082840,66.436005 222.475082,70.307632 220.500000,74.500000 
"/>
<path fill="none" opacity="1.000000" stroke="#000000" stroke-linecap="round" stroke-linejoin="round" stroke-width="4.000000"
	d="
M32.000000,187.000000 
	C40.123337,187.813370 48.056236,186.118073 55.987740,184.918900 
	C63.187584,183.830368 67.120445,186.977783 65.904861,193.983490 
	C65.463287,196.528366 65.562126,199.003693 65.546562,201.500290 
	C65.528801,204.349182 64.343987,205.463455 61.501202,205.542923 
	C54.164284,205.748077 46.834808,206.349091 39.499260,206.408493 
	C36.642735,206.431641 34.171406,207.525284 31.500000,208.000000 
"/>
<path fill="none" opacity="1.000000" stroke="#000000" stroke-linecap="round" stroke-linejoin="round" stroke-width="5.000000"
	d="
M148.000000,89.500000 
	C147.156204,96.190094 144.350342,102.565399 144.965958,109.503021 
	C145.303650,113.308716 145.884521,117.011093 147.500000,120.500000 
"/>
<path fill="none" opacity="1.000000" stroke="#000000" stroke-linecap="round" stroke-linejoin="round" stroke-width="5.000000"
	d="
M576.500000,229.500000 
	C574.166687,229.500000 571.833313,229.500000 568.889404,229.500000 
	C569.300232,216.833328 568.522644,204.169525 569.458862,191.496964 
	C569.601257,189.569305 571.473083,188.861008 571.898132,187.468887 
	C572.926453,184.100983 574.495544,180.674179 572.855225,177.140900 
	C577.513367,172.541382 582.573120,175.889114 586.939880,176.790970 
	C591.937622,177.823090 596.980286,178.938690 602.014160,179.927963 
	C603.763916,180.271820 605.682251,180.223129 607.509460,179.524780 
	C611.420532,178.030060 613.332458,179.305161 613.476074,183.500824 
	C613.552124,185.723251 613.375671,187.955017 614.500000,190.000000 
"/>
<path fill="none" opacity="1.000000" stroke="#000000" stroke-linecap="round" stroke-linejoin="round" stroke-width="3.000000"
	d="
M12.000000,136.000000 
	C6.817661,140.281631 7.184313,140.198715 8.843547,147.535385 
	C9.659165,151.141815 9.780278,155.538879 12.192176,157.794510 
	C16.569307,161.888046 18.370865,167.872711 23.048000,171.437012 
	C28.137974,175.315903 31.185835,180.072464 31.144491,187.140335 
	C26.519955,189.295059 28.309004,193.771561 28.411612,198.002136 
	C28.502968,201.768814 26.218418,205.911560 30.967669,208.558014 
	C31.378321,208.786850 31.684614,210.019226 31.445467,210.471146 
	C29.149485,214.809677 32.411224,219.628738 30.117630,224.060867 
	C29.369295,225.506943 30.000000,227.666672 30.000000,229.500000 
"/>
<path fill="none" opacity="1.000000" stroke="#000000" stroke-linecap="round" stroke-linejoin="round" stroke-width="3.000000"
	d="
M21.000000,123.500000 
	C18.851875,123.977837 16.778349,124.572449 14.988045,125.984848 
	C11.712987,128.568588 10.965658,131.538681 13.513999,134.989670 
	C15.988839,138.341125 16.758764,142.972595 21.000000,145.000000 
"/>
<path fill="none" opacity="1.000000" stroke="#000000" stroke-linecap="round" stroke-linejoin="round" stroke-width="3.000000"
	d="
M36.000000,100.000000 
	C33.212105,100.939117 30.330946,100.292763 27.493443,100.534760 
	C26.412188,106.267143 30.931089,113.045494 37.500000,115.500000 
"/>
<path fill="none" opacity="1.000000" stroke="#000000" stroke-linecap="round" stroke-linejoin="round" stroke-width="3.000000"
	d="
M512.000000,130.500000 
	C515.845520,136.654297 512.784729,144.789078 504.955750,148.404190 
	C503.267853,149.183609 502.127075,150.102951 500.947388,151.454071 
	C498.078979,154.739410 495.237030,158.223999 491.454956,160.422531 
	C486.386719,163.368729 484.450104,168.522415 481.469818,172.979813 
	C480.929443,173.788071 481.226990,174.217529 481.420746,175.019150 
	C482.521545,179.573746 481.465363,184.063690 480.470978,188.493484 
	C479.289276,193.757553 476.475342,195.574066 471.009186,194.455124 
	C466.845276,193.602753 462.617554,193.227646 458.454010,192.183395 
	C455.060211,191.332199 454.467316,189.453659 455.085510,187.021744 
	C456.489014,181.500443 456.781281,175.667618 459.844147,170.412521 
	C456.482086,168.727234 454.839355,170.238770 454.034485,173.010025 
	C453.040314,176.433212 451.859009,179.864227 452.030548,183.498550 
	C452.122589,185.448654 451.682190,187.230103 451.000000,189.000000 
"/>
<path fill="none" opacity="1.000000" stroke="#000000" stroke-linecap="round" stroke-linejoin="round" stroke-width="3.000000"
	d="
M181.000000,190.500000 
	C173.654404,195.733261 167.920044,202.834442 160.561646,208.086365 
	C158.790771,209.350296 156.473602,210.229919 155.500000,212.500000 
"/>
<path fill="none" opacity="1.000000" stroke="#000000" stroke-linecap="round" stroke-linejoin="round" stroke-width="2.000000"
	d="
M618.000000,197.000000 
	C609.849426,197.953766 601.666382,197.319931 593.500000,197.500000 
"/>
<path fill="none" opacity="1.000000" stroke="#000000" stroke-linecap="round" stroke-linejoin="round" stroke-width="6.000000"
	d="
M323.500000,214.000000 
	C313.979523,216.833633 313.061310,218.363998 314.500000,229.000000 
	C314.333344,229.500000 314.488770,229.608261 315.001862,229.509720 
	C317.809448,228.970490 320.876495,230.644791 323.501007,228.501221 
	C326.580292,225.986206 324.114105,222.826569 324.439880,219.993088 
	C324.767273,217.145630 324.128113,214.318680 323.553528,211.489136 
	C322.632080,206.951523 324.762665,202.576675 324.696503,197.997162 
	C324.672882,196.362732 324.414795,194.972427 324.000000,193.500000 
"/>
<path fill="none" opacity="1.000000" stroke="#000000" stroke-linecap="round" stroke-linejoin="round" stroke-width="2.000000"
	d="
M616.000000,216.000000 
	C607.812439,216.856995 599.643921,216.781906 591.500000,215.500000 
"/>
<path fill="none" opacity="1.000000" stroke="#000000" stroke-linecap="round" stroke-linejoin="round" stroke-width="4.000000"
	d="
M63.500000,206.500000 
	C62.727406,214.291824 64.954994,221.822754 65.500000,229.500000 
"/>
<path fill="none" opacity="1.000000" stroke="#000000" stroke-linecap="round" stroke-linejoin="round" stroke-width="2.000000"
	d="
M617.500000,206.500000 
	C609.833313,206.500000 602.166687,206.500000 594.500000,206.500000 
"/>
<path fill="none" opacity="1.000000" stroke="#000000" stroke-linecap="round" stroke-linejoin="round" stroke-width="2.000000"
	d="
M182.500000,210.500000 
	C179.811066,210.656891 178.632935,212.942612 177.026001,214.526382 
	C171.535950,219.937164 165.743942,224.979034 159.500000,229.500000 
"/>
<path fill="none" opacity="1.000000" stroke="#000000" stroke-linecap="round" stroke-linejoin="round" stroke-width="5.000000"
	d="
M85.500000,42.500000 
	C90.957886,45.546158 91.889183,47.602566 90.501465,53.500343 
	C89.687851,56.958164 88.905334,60.425201 87.000000,63.500000 
"/>
<path fill="none" opacity="1.000000" stroke="#000000" stroke-linecap="round" stroke-linejoin="round" stroke-width="2.000000"
	d="
M615.000000,226.000000 
	C607.796509,227.415558 600.664246,225.770203 593.500000,225.500000 
"/>
<path fill="none" opacity="1.000000" stroke="#000000" stroke-linecap="round" stroke-linejoin="round" stroke-width="2.000000"
	d="
M616.000000,219.000000 
	C608.852905,220.009460 601.665344,219.275299 594.500000,219.500000 
"/>
<path fill="none" opacity="1.000000" stroke="#000000" stroke-linecap="round" stroke-linejoin="round" stroke-width="4.000000"
	d="
M347.500000,30.000000 
	C344.024078,30.202780 341.076141,31.379971 340.069977,35.019344 
	C339.639526,36.576328 339.661316,38.536041 342.001892,38.990219 
	C344.652283,39.504505 346.931702,38.168926 348.935791,36.898693 
	C350.819397,35.704800 349.809937,33.914860 349.177643,31.943037 
	C348.177399,28.823544 348.302307,25.336052 348.010193,21.999107 
	C347.791779,19.503635 347.666656,17.000000 347.500000,14.500000 
"/>
<path fill="none" opacity="1.000000" stroke="#000000" stroke-linecap="round" stroke-linejoin="round" stroke-width="3.000000"
	d="
M468.500000,172.500000 
	C468.605957,178.040695 466.585785,183.189743 465.392212,188.475662 
	C465.018280,190.131760 465.633423,191.500000 465.500000,193.000000 
"/>
<path fill="none" opacity="1.000000" stroke="#000000" stroke-linecap="round" stroke-linejoin="round" stroke-width="4.000000"
	d="
M358.000000,103.500000 
	C357.500000,101.000000 356.827393,98.520012 356.534729,95.995972 
	C355.856140,90.144089 352.059753,88.192368 346.468170,90.420097 
	C342.435791,92.026642 340.003510,95.293350 337.000000,98.000000 
"/>
<path fill="none" opacity="1.000000" stroke="#000000" stroke-linecap="round" stroke-linejoin="round" stroke-width="3.000000"
	d="
M176.500015,208.500015 
	C169.833344,214.500015 163.166687,220.500015 156.500015,226.500015 
"/>
<path fill="none" opacity="1.000000" stroke="#000000" stroke-linecap="round" stroke-linejoin="round" stroke-width="2.000000"
	d="
M616.000000,222.000000 
	C609.187988,223.040390 602.331604,222.261642 595.500000,222.500000 
"/>
<path fill="none" opacity="1.000000" stroke="#000000" stroke-linecap="round" stroke-linejoin="round" stroke-width="3.000000"
	d="
M464.500000,172.000000 
	C462.207214,178.474777 461.212799,185.209229 460.500000,192.000000 
"/>
<path fill="none" opacity="1.000000" stroke="#000000" stroke-linecap="round" stroke-linejoin="round" stroke-width="3.000000"
	d="
M473.500031,174.000000 
	C472.500031,180.666672 471.500031,187.333344 470.500031,194.000000 
"/>
<path fill="none" opacity="1.000000" stroke="#000000" stroke-linecap="round" stroke-linejoin="round" stroke-width="2.000000"
	d="
M352.500000,184.500000 
	C352.504272,188.774017 351.812744,192.860474 350.670013,197.046402 
	C349.226990,202.332443 350.376892,208.079712 349.000000,213.500000 
"/>
<path fill="none" opacity="1.000000" stroke="#000000" stroke-linecap="round" stroke-linejoin="round" stroke-width="3.000000"
	d="
M476.500000,144.500000 
	C477.726562,149.688492 476.952759,154.564987 473.962494,158.974564 
	C472.997314,160.397766 472.502930,161.927231 472.000000,163.500000 
"/>
<path fill="none" opacity="1.000000" stroke="#000000" stroke-linecap="round" stroke-linejoin="round" stroke-width="4.000000"
	d="
M339.500000,193.000000 
	C343.333344,194.188248 347.181366,193.173553 350.995728,192.932236 
	C354.558136,192.706848 355.703552,194.444672 355.469238,197.497635 
	C355.072601,202.665482 356.707458,207.997467 354.250702,213.000351 
	C353.582825,214.360397 354.654022,215.343704 354.945709,216.513535 
	C355.834595,220.078354 356.190796,223.676895 354.000000,227.000000 
"/>
<path fill="none" opacity="1.000000" stroke="#000000" stroke-linecap="round" stroke-linejoin="round" stroke-width="2.000000"
	d="
M325.500000,183.500000 
	C326.054413,186.807388 324.283752,190.297089 328.230896,193.348145 
	C329.881836,194.624283 328.381104,199.719650 327.503448,203.000931 
	C326.821198,205.551758 326.642792,208.079361 328.000000,210.500000 
"/>
<path fill="none" opacity="1.000000" stroke="#000000" stroke-linecap="round" stroke-linejoin="round" stroke-width="3.000000"
	d="
M32.500000,115.000000 
	C29.119793,115.187500 25.745016,114.645203 22.444702,116.395744 
	C20.175930,117.599152 19.966524,119.487434 20.608755,120.952316 
	C22.673956,125.662903 24.718662,130.479828 28.750000,134.000000 
"/>
<path fill="none" opacity="1.000000" stroke="#000000" stroke-linecap="round" stroke-linejoin="round" stroke-width="3.000000"
	d="
M329.000000,34.500000 
	C332.619965,34.449368 333.111725,37.098763 332.360504,39.455536 
	C331.594818,41.857632 329.509033,43.540722 326.499115,43.004948 
	C323.647766,42.497402 323.211792,39.916122 323.138336,37.994713 
	C323.005768,34.525848 325.826569,34.346519 328.500000,34.500000 
"/>
<path fill="none" opacity="1.000000" stroke="#000000" stroke-linecap="round" stroke-linejoin="round" stroke-width="4.000000"
	d="
M314.500000,36.500000 
	C310.790527,36.402142 311.850739,39.358898 312.140503,40.974808 
	C312.496643,42.960865 313.690674,44.675396 316.502716,44.594807 
	C319.186310,44.517899 319.854980,42.642899 319.872223,40.998661 
	C319.898804,38.462246 318.778870,36.221119 315.500000,36.500000 
"/>
<path fill="none" opacity="1.000000" stroke="#000000" stroke-linecap="round" stroke-linejoin="round" stroke-width="2.000000"
	d="
M342.500000,194.000000 
	C342.437378,199.705261 343.996368,205.553604 341.000000,211.000000 
"/>
<path fill="none" opacity="1.000000" stroke="#000000" stroke-linecap="round" stroke-linejoin="round" stroke-width="2.000000"
	d="
M478.500000,175.000000 
	C477.500000,180.500000 476.500000,186.000000 475.500000,191.500000 
"/>
<path fill="none" opacity="1.000000" stroke="#000000" stroke-linecap="round" stroke-linejoin="round" stroke-width="4.000000"
	d="
M322.500000,162.999985 
	C321.000061,163.500214 319.500153,164.000443 318.000122,164.500336 
	C316.884613,172.886185 316.884613,172.886185 318.500000,176.000000 
"/>
<path fill="none" opacity="1.000000" stroke="#000000" stroke-linecap="round" stroke-linejoin="round" stroke-width="4.000000"
	d="
M505.500000,104.000000 
	C508.018280,105.005180 509.176086,107.003586 508.436554,109.481056 
	C507.002838,114.284241 507.250000,119.619339 503.071472,123.575478 
	C499.137115,127.300385 496.011871,131.768280 495.757507,137.718414 
	C499.140656,140.588028 502.734497,140.002548 506.980377,135.481583 
	C508.436951,133.930664 509.666656,132.166656 511.000000,130.499985 
"/>
<path fill="none" opacity="1.000000" stroke="#000000" stroke-linecap="round" stroke-linejoin="round" stroke-width="3.000000"
	d="
M339.000000,180.000000 
	C339.912811,182.833328 339.058807,185.667587 339.066467,188.499817 
	C339.085693,195.625763 337.548584,202.525620 336.500000,209.500000 
"/>
<path fill="none" opacity="1.000000" stroke="#000000" stroke-linecap="round" stroke-linejoin="round" stroke-width="2.000000"
	d="
M455.500000,59.500000 
	C459.898987,64.434334 464.148865,69.517799 469.500000,73.500000 
"/>
<path fill="none" opacity="1.000000" stroke="#000000" stroke-linecap="round" stroke-linejoin="round" stroke-width="3.000000"
	d="
M269.500000,78.500000 
	C264.166656,77.500000 258.833344,76.500000 253.500000,75.500000 
"/>
<path fill="none" opacity="1.000000" stroke="#000000" stroke-linecap="round" stroke-linejoin="round" stroke-width="3.000000"
	d="
M174.499985,189.499985 
	C169.499985,193.499985 164.499985,197.499985 159.499985,201.499985 
"/>
<path fill="none" opacity="1.000000" stroke="#000000" stroke-linecap="round" stroke-linejoin="round" stroke-width="3.000000"
	d="
M472.500031,43.499989 
	C474.833344,48.499992 477.166687,53.499992 479.500031,58.499992 
"/>
<path fill="none" opacity="1.000000" stroke="#000000" stroke-linecap="round" stroke-linejoin="round" stroke-width="3.000000"
	d="
M269.500000,97.500000 
	C264.500000,97.078148 259.500000,96.417213 254.500000,97.500000 
"/>
<path fill="none" opacity="1.000000" stroke="#000000" stroke-linecap="round" stroke-linejoin="round" stroke-width="5.000000"
	d="
M600.000000,100.000000 
	C605.924683,99.772392 608.218811,102.298950 608.028320,108.500870 
	C607.885193,113.163139 608.000000,117.833336 608.000000,122.500000 
"/>
<path fill="none" opacity="1.000000" stroke="#000000" stroke-linecap="round" stroke-linejoin="round" stroke-width="3.000000"
	d="
M493.500000,13.500000 
	C493.489044,23.047552 495.807526,32.431477 495.503174,42.000103 
	C495.480255,42.720810 495.331726,43.556618 496.500000,43.500000 
"/>
<path fill="none" opacity="1.000000" stroke="#000000" stroke-linecap="round" stroke-linejoin="round" stroke-width="3.000000"
	d="
M274.500000,118.500000 
	C269.674652,120.888992 264.896179,123.359985 260.500000,126.500000 
"/>
<path fill="none" opacity="1.000000" stroke="#000000" stroke-linecap="round" stroke-linejoin="round" stroke-width="2.000000"
	d="
M461.000000,155.500000 
	C458.771790,159.917587 459.408447,164.846741 458.500000,169.500000 
"/>
<path fill="none" opacity="1.000000" stroke="#000000" stroke-linecap="round" stroke-linejoin="round" stroke-width="4.000000"
	d="
M589.000000,95.000000 
	C594.776550,93.910408 600.178101,96.269333 599.192200,99.916809 
	C598.307312,103.190742 599.534973,106.005783 599.052551,109.008438 
	C598.765381,110.795647 599.000000,112.666664 599.000000,114.500000 
"/>
<path fill="none" opacity="1.000000" stroke="#000000" stroke-linecap="round" stroke-linejoin="round" stroke-width="2.000000"
	d="
M570.000000,213.000000 
	C574.573486,212.838669 578.888611,215.002716 583.500000,214.500000 
"/>
<path fill="none" opacity="1.000000" stroke="#000000" stroke-linecap="round" stroke-linejoin="round" stroke-width="8.000000"
	d="
M350.500000,166.000000 
	C347.211121,164.022125 343.519806,164.172821 340.015625,164.621826 
	C337.487671,164.945755 334.976288,165.235168 332.507141,164.940323 
	C328.130066,164.417633 325.840881,167.041199 325.678070,170.508362 
	C325.447174,175.425797 323.254974,176.634674 319.000000,176.000000 
"/>
<path fill="none" opacity="1.000000" stroke="#000000" stroke-linecap="round" stroke-linejoin="round" stroke-width="2.000000"
	d="
M391.500000,60.500000 
	C386.814331,62.991062 382.739166,66.364006 378.500000,69.500000 
"/>
<path fill="none" opacity="1.000000" stroke="#000000" stroke-linecap="round" stroke-linejoin="round" stroke-width="4.000000"
	d="
M352.000000,166.000000 
	C360.772797,168.383316 362.667877,174.447525 357.000000,182.000000 
	C349.183075,178.557480 349.183075,178.557480 350.000000,173.500000 
"/>
<path fill="none" opacity="1.000000" stroke="#000000" stroke-linecap="round" stroke-linejoin="round" stroke-width="2.000000"
	d="
M343.000000,213.500000 
	C341.070587,217.495132 341.536072,221.777664 341.500000,226.000000 
"/>
<path fill="none" opacity="1.000000" stroke="#000000" stroke-linecap="round" stroke-linejoin="round" stroke-width="2.000000"
	d="
M345.000000,180.500000 
	C344.000000,184.666672 343.000000,188.833328 342.000000,193.000000 
"/>
<path fill="none" opacity="1.000000" stroke="#000000" stroke-linecap="round" stroke-linejoin="round" stroke-width="2.000000"
	d="
M363.500000,37.500000 
	C362.844482,41.725941 359.609619,45.092094 359.500000,49.500000 
"/>
<path fill="none" opacity="1.000000" stroke="#000000" stroke-linecap="round" stroke-linejoin="round" stroke-width="3.000000"
	d="
M368.000000,111.500000 
	C367.666687,107.833336 367.462585,104.149200 366.969940,100.504059 
	C366.213959,94.910385 363.006012,92.620094 357.500000,93.500000 
"/>
<path fill="none" opacity="1.000000" stroke="#000000" stroke-linecap="round" stroke-linejoin="round" stroke-width="2.000000"
	d="
M354.500000,173.500000 
	C352.497620,173.619827 350.796661,172.783920 348.938324,172.194427 
	C345.285645,171.035751 341.274506,170.980331 337.500000,172.500000 
"/>
<path fill="none" opacity="1.000000" stroke="#000000" stroke-linecap="round" stroke-linejoin="round" stroke-width="3.000000"
	d="
M338.000000,213.000000 
	C336.717010,217.333328 336.168549,221.666672 338.000000,226.000000 
"/>
<path fill="none" opacity="1.000000" stroke="#000000" stroke-linecap="round" stroke-linejoin="round" stroke-width="3.000000"
	d="
M349.500000,214.500000 
	C350.637695,218.591309 348.837555,223.152664 351.500000,227.000000 
"/>
<path fill="none" opacity="1.000000" stroke="#000000" stroke-linecap="round" stroke-linejoin="round" stroke-width="5.000000"
	d="
M368.000000,100.000000 
	C373.148407,101.465569 374.666626,103.125008 374.949646,108.502647 
	C375.143127,112.179474 375.386414,115.929070 374.000000,119.500000 
"/>
<path fill="none" opacity="1.000000" stroke="#000000" stroke-linecap="round" stroke-linejoin="round" stroke-width="2.000000"
	d="
M375.499969,47.499985 
	C372.833313,51.166653 370.166656,54.833321 367.499969,58.499985 
"/>
<path fill="none" opacity="1.000000" stroke="#000000" stroke-linecap="round" stroke-linejoin="round" stroke-width="2.000000"
	d="
M168.500000,183.500000 
	C164.764557,186.072098 161.603088,189.433411 157.500000,191.500000 
"/>
<path fill="none" opacity="1.000000" stroke="#000000" stroke-linecap="round" stroke-linejoin="round" stroke-width="2.000000"
	d="
M171.500015,206.500015 
	C167.833344,209.500015 164.166687,212.500015 160.500015,215.500015 
"/>
<path fill="none" opacity="1.000000" stroke="#000000" stroke-linecap="round" stroke-linejoin="round" stroke-width="2.000000"
	d="
M170.500000,187.500015 
	C166.833344,190.166672 163.166672,192.833344 159.500000,195.500015 
"/>
<path fill="none" opacity="1.000000" stroke="#000000" stroke-linecap="round" stroke-linejoin="round" stroke-width="2.000000"
	d="
M400.500000,77.500000 
	C396.562744,78.089172 393.065918,79.889572 389.500000,81.500000 
"/>
<path fill="none" opacity="1.000000" stroke="#000000" stroke-linecap="round" stroke-linejoin="round" stroke-width="2.000000"
	d="
M183.000000,221.500000 
	C178.754822,223.188629 176.939148,228.065964 172.500000,229.500000 
"/>
<path fill="none" opacity="1.000000" stroke="#000000" stroke-linecap="round" stroke-linejoin="round" stroke-width="3.000000"
	d="
M336.000000,224.499985 
	C332.666656,224.833328 329.333344,225.166656 326.000000,225.499985 
"/>
<path fill="none" opacity="1.000000" stroke="#000000" stroke-linecap="round" stroke-linejoin="round" stroke-width="3.000000"
	d="
M357.000000,182.500000 
	C356.881317,185.782028 357.583954,189.236969 355.000000,192.000000 
"/>
<path fill="none" opacity="1.000000" stroke="#000000" stroke-linecap="round" stroke-linejoin="round" stroke-width="5.000000"
	d="
M325.000000,177.000000 
	C327.048798,179.358658 329.930786,178.765610 332.503845,178.944992 
	C336.327271,179.211533 340.203613,178.618164 343.997009,179.512741 
	C345.916382,179.965347 347.386749,178.880356 349.000000,178.250000 
"/>
<path fill="none" opacity="1.000000" stroke="#000000" stroke-linecap="round" stroke-linejoin="round" stroke-width="2.000000"
	d="
M175.500000,222.500000 
	C172.125732,224.352127 170.214233,228.084961 166.500000,229.500000 
"/>
<path fill="none" opacity="1.000000" stroke="#000000" stroke-linecap="round" stroke-linejoin="round" stroke-width="3.000000"
	d="
M499.500000,140.500000 
	C499.471527,143.496902 497.751221,146.891861 501.500000,149.000000 
"/>
<path fill="none" opacity="1.000000" stroke="#000000" stroke-linecap="round" stroke-linejoin="round" stroke-width="3.000000"
	d="
M493.000000,27.999998 
	C490.166656,29.166664 487.333344,30.333332 484.500000,31.499998 
"/>
<path fill="none" opacity="1.000000" stroke="#000000" stroke-linecap="round" stroke-linejoin="round" stroke-width="2.000000"
	d="
M163.500000,181.000000 
	C162.450104,184.548828 159.008484,185.521957 156.500000,187.500000 
"/>
<path fill="none" opacity="1.000000" stroke="#000000" stroke-linecap="round" stroke-linejoin="round" stroke-width="3.000000"
	d="
M339.000000,229.500000 
	C338.261169,226.427826 340.669342,226.263092 342.507050,226.065796 
	C344.978577,225.800446 347.500000,226.000000 350.000000,226.000000 
"/>
<path fill="none" opacity="1.000000" stroke="#000000" stroke-linecap="round" stroke-linejoin="round" stroke-width="7.000000"
	d="
M353.500000,214.000000 
	C348.077637,214.321045 343.034332,212.585175 338.013123,210.959457 
	C332.817627,209.277313 328.255127,209.648132 324.500000,214.000000 
"/>
<path fill="none" opacity="1.000000" stroke="#000000" stroke-linecap="round" stroke-linejoin="round" stroke-width="3.000000"
	d="
M502.000000,28.000000 
	C499.830200,29.263214 497.420502,29.406746 495.000000,29.500000 
"/>
<path fill="none" opacity="1.000000" stroke="#000000" stroke-linecap="round" stroke-linejoin="round" stroke-width="2.000000"
	d="
M617.500000,209.500000 
	C615.166687,209.500000 612.833313,209.500000 610.500000,209.500000 
"/>
<path fill="none" opacity="1.000000" stroke="#000000" stroke-linecap="round" stroke-linejoin="round" stroke-width="2.000000"
	d="
M576.500000,226.500000 
	C574.016235,227.219666 571.927429,225.174667 569.500000,225.500000 
"/>
<path fill="none" opacity="1.000000" stroke="#000000" stroke-linecap="round" stroke-linejoin="round" stroke-width="2.000000"
	d="
M618.000000,203.000000 
	C615.833313,203.166672 613.666687,203.333328 611.500000,203.500000 
"/>
<path fill="none" opacity="1.000000" stroke="#000000" stroke-linecap="round" stroke-linejoin="round" stroke-width="4.000000"
	d="
M507.000000,119.500000 
	C513.976318,120.072624 511.600952,125.074982 511.500000,129.000000 
"/>
<path fill="none" opacity="1.000000" stroke="#000000" stroke-linecap="round" stroke-linejoin="round" stroke-width="2.000000"
	d="
M618.000000,200.000000 
	C616.500000,200.166656 615.000000,200.333328 613.500000,200.500000 
"/>
<path fill="none" opacity="1.000000" stroke="#000000" stroke-linecap="round" stroke-linejoin="round" stroke-width="4.000000"
	d="
M460.000000,170.500000 
	C466.167450,171.829651 472.497192,172.392532 478.516083,174.453003 
	C479.061737,174.639786 479.833344,174.166656 480.500000,174.000000 
"/>
<path fill="none" opacity="1.000000" stroke="#000000" stroke-linecap="round" stroke-linejoin="round" stroke-width="2.000000"
	d="
M570.000000,194.000000 
	C571.500000,194.166672 573.000000,194.333328 574.500000,194.500000 
"/>
<path fill="none" opacity="1.000000" stroke="#000000" stroke-linecap="round" stroke-linejoin="round" stroke-width="2.000000"
	d="
M573.500000,206.500000 
	C572.166687,206.500000 570.833313,206.500000 569.500000,206.500000 
"/>
<path fill="none" opacity="1.000000" stroke="#000000" stroke-linecap="round" stroke-linejoin="round" stroke-width="2.000000"
	d="
M573.500000,216.500000 
	C572.166687,216.500000 570.833313,216.500000 569.500000,216.500000 
"/>
<path fill="none" opacity="1.000000" stroke="#000000" stroke-linecap="round" stroke-linejoin="round" stroke-width="2.000000"
	d="
M570.000000,197.000000 
	C571.166687,197.166672 572.333313,197.333344 573.500000,197.500000 
"/>
<path fill="none" opacity="1.000000" stroke="#000000" stroke-linecap="round" stroke-linejoin="round" stroke-width="2.000000"
	d="
M617.000000,212.000015 
	C615.833313,212.166687 614.666687,212.333344 613.500000,212.500015 
"/>
<path fill="none" opacity="1.000000" stroke="#000000" stroke-linecap="round" stroke-linejoin="round" stroke-width="2.000000"
	d="
M328.500000,185.500000 
	C328.666656,186.666672 328.833313,187.833328 329.000000,189.000000 
"/>
<path fill="none" opacity="1.000000" stroke="#000000" stroke-linecap="round" stroke-linejoin="round" stroke-width="2.000000"
	d="
M330.000000,180.000000 
	C329.833313,181.166672 329.666656,182.333328 329.500000,183.500000 
"/>
</svg>