<svg version="1.1" id="Layer_1" xmlns="http://www.w3.org/2000/svg" xmlns:xlink="http://www.w3.org/1999/xlink" x="0px" y="0px"
	 width="100%" viewBox="0 0 720 720" enable-background="new 0 0 720 720" xml:space="preserve">
<path fill="#000000" opacity="1.000000" stroke="none" 
	d="
M446.475342,338.423523 
	C439.586823,350.254089 432.986298,361.816284 424.547119,372.231537 
	C419.700500,378.213043 419.139343,384.462219 423.319214,391.590302 
	C431.151703,404.947357 438.364532,418.673370 445.627319,432.356232 
	C448.633728,438.020111 452.408813,441.739044 459.375793,440.700226 
	C462.971191,440.164185 465.647675,441.768585 466.841888,445.178833 
	C470.536682,455.729919 475.751343,465.245117 482.014923,474.676483 
	C494.139038,492.932373 503.758881,512.833069 515.501343,531.364807 
	C536.098206,563.870056 556.182739,596.690918 576.653931,629.271790 
	C578.371887,632.006042 580.541748,634.197021 582.988770,636.252319 
	C587.956970,640.425293 588.606812,643.382629 585.669678,648.904114 
	C580.147217,659.285767 572.080933,667.350647 562.370483,673.835999 
	C559.374268,675.837219 555.999939,675.796265 552.730225,674.869934 
	C544.224060,672.460022 537.635315,667.506226 534.801697,658.934631 
	C529.994385,644.393127 522.340759,631.304443 514.450928,618.386536 
	C497.173157,590.097900 481.807526,560.636047 462.938110,533.336487 
	C452.063873,517.604065 442.556824,500.826111 428.920563,487.108765 
	C427.407684,485.586884 426.260071,483.677612 423.861023,483.308319 
	C418.912384,482.546600 418.465668,479.003571 419.022919,475.058716 
	C419.580322,471.112488 420.120483,467.135773 421.110352,463.286102 
	C422.250427,458.852264 421.093079,455.109589 418.740204,451.460114 
	C408.267548,435.216125 397.831024,418.948822 387.361237,402.703003 
	C386.087402,400.726410 384.936890,398.854858 381.816986,399.901459 
	C370.252441,403.780975 358.119080,405.081238 346.170135,407.051300 
	C336.017120,408.725250 325.697937,409.685150 315.413879,410.214539 
	C286.493622,411.703156 260.283966,403.556244 234.799164,389.818512 
	C205.989471,374.288483 185.920822,350.688904 167.737320,324.783020 
	C159.892868,313.607117 152.622589,301.968323 147.790985,289.093628 
	C142.477539,274.935028 141.079605,259.977814 139.711975,245.068375 
	C138.692688,233.956329 138.076706,222.818176 139.166519,211.656647 
	C140.694992,196.002670 146.882172,181.785477 152.676102,167.437988 
	C163.912537,139.613281 182.660324,118.606934 207.987579,102.354744 
	C227.414474,89.888748 247.079041,78.634743 269.892365,74.449921 
	C292.424713,70.316650 315.036957,66.011894 338.186493,67.832596 
	C346.724640,68.504105 355.008759,70.267891 362.661774,74.235817 
	C383.837280,85.214821 404.223999,97.432396 423.578552,111.463776 
	C435.192017,119.883118 442.577179,131.345139 449.794830,143.163589 
	C451.878906,146.576111 453.710419,150.185944 456.130585,153.342789 
	C467.691925,168.423401 472.063904,185.957748 474.450684,204.360825 
	C475.862366,215.245926 477.436920,226.060501 477.365997,237.083954 
	C477.140045,272.194366 469.153198,304.998840 449.051331,334.300873 
	C448.204041,335.535889 447.455261,336.838470 446.475342,338.423523 
M419.375397,348.699005 
	C420.209595,345.908875 421.070892,343.411285 424.950836,343.737610 
	C426.893127,343.900970 428.018738,341.923584 428.971710,340.348053 
	C430.953064,337.072174 432.951202,333.800873 434.781464,330.440002 
	C451.580444,299.591797 463.832520,267.475403 464.819427,231.682587 
	C465.511108,206.598373 461.446198,182.691849 451.098083,159.869186 
	C443.171051,142.386292 433.542969,125.897736 417.401154,114.802414 
	C399.297546,102.358620 380.572205,90.804520 361.331604,80.152473 
	C354.836700,76.556740 347.685974,74.810173 340.312439,74.389946 
	C317.581177,73.094475 295.120422,76.143852 272.868134,79.997292 
	C249.844330,83.984344 229.689117,95.036232 210.615219,108.250000 
	C197.157471,117.573074 183.821228,126.937180 174.343262,140.649231 
	C170.279831,146.527939 164.877289,152.056412 162.849411,158.601135 
	C160.912445,164.852524 158.003174,170.516510 155.716141,176.512512 
	C152.228134,185.657150 147.246414,194.414871 146.439789,204.328979 
	C145.198364,219.587189 145.092896,234.858521 146.049484,250.205521 
	C147.104355,267.129120 151.892685,282.728119 158.581726,298.136505 
	C164.320694,311.356415 175.341003,320.678223 182.352585,332.947510 
	C189.664459,345.742249 201.086365,354.903320 212.995193,363.310822 
	C228.342010,374.145447 244.430878,383.073059 263.456848,386.124817 
	C276.001892,388.136993 288.593445,388.714722 301.184845,389.349426 
	C319.482025,390.271759 337.614594,390.073853 355.450623,384.007935 
	C376.182770,376.957031 394.527344,365.557465 413.282898,354.808746 
	C415.571320,353.497223 417.700684,351.799347 419.375397,348.699005 
M519.947388,592.470093 
	C523.595886,582.996460 523.595886,582.996460 527.497375,582.495300 
	C524.320862,590.497498 523.111389,598.493286 524.565918,607.088196 
	C526.643433,602.701965 526.332886,597.339417 531.564392,594.242432 
	C531.054260,600.801697 527.217285,606.780640 531.306824,613.191467 
	C532.982849,609.971130 534.356140,607.129395 535.924622,604.399780 
	C536.778748,602.913269 538.199585,602.389526 539.734192,603.516663 
	C541.250977,604.630798 540.485596,605.887756 539.662720,606.977783 
	C537.436279,609.927002 535.479675,613.021423 534.624817,616.658569 
	C533.892822,619.773193 534.689331,622.147400 538.192017,623.286560 
	C539.281128,621.079468 540.186646,619.124023 541.202271,617.227478 
	C541.907166,615.910889 542.680359,614.347412 544.598694,615.252930 
	C546.511047,616.155701 545.767395,617.700195 545.248840,619.126343 
	C543.977234,622.623474 541.984314,625.897522 541.520264,629.852051 
	C544.755066,629.755371 544.949829,627.069824 546.268311,625.527161 
	C547.171570,624.470276 548.230530,623.550476 549.700256,624.077576 
	C551.404724,624.688843 550.919189,626.163879 550.771545,627.479492 
	C550.345093,631.280334 549.951599,635.084839 549.514343,639.176392 
	C551.069336,637.515076 550.782288,634.902344 553.650513,634.279175 
	C554.244568,634.985168 555.530090,636.657166 555.617920,636.596619 
	C559.967529,633.590271 565.860229,635.876343 570.428406,632.386597 
	C567.279724,626.140991 564.260376,620.036621 561.139648,613.984558 
	C553.555664,599.276978 542.640747,586.683594 534.615234,572.249756 
	C520.605225,547.053040 504.847198,522.907471 489.951508,498.243378 
	C480.822998,483.128479 471.236450,468.290100 461.841400,453.336426 
	C460.293243,450.872314 458.273224,448.101196 455.291473,448.650513 
	C449.933868,449.637482 444.502777,451.084167 440.148346,454.679321 
	C437.921539,456.517822 436.634247,459.027649 437.686890,462.288300 
	C439.452057,460.820526 440.591980,458.276947 443.710297,459.455719 
	C445.028381,463.475708 440.931427,466.259155 440.839111,470.043915 
	C443.934998,470.316071 445.294159,466.159485 449.023560,467.568481 
	C448.826263,473.231293 444.834473,478.248016 445.477661,484.426453 
	C451.343628,474.136261 451.343628,474.136261 455.401581,474.663849 
	C451.102692,482.092285 450.133240,489.841034 452.406342,499.050690 
	C453.278015,493.772461 454.194824,489.712769 455.968536,485.926147 
	C456.631531,484.510712 457.280060,482.421875 459.494110,483.332642 
	C461.770721,484.269104 460.596497,486.069550 460.061890,487.596558 
	C459.595795,488.927826 458.709106,490.167877 459.081421,491.731018 
	C460.427124,491.610718 461.489502,490.079651 463.256683,491.609802 
	C462.886292,497.058105 463.257538,502.767059 466.813599,507.488525 
	C467.630066,506.318512 467.711548,503.637634 470.789917,504.633667 
	C472.100250,508.179962 470.797302,511.950562 471.528351,515.802551 
	C472.224792,513.064819 471.580322,509.918793 476.087524,508.070709 
	C474.892944,515.884460 477.219910,522.262146 479.775513,528.068604 
	C480.047485,526.888977 480.350983,525.034729 482.669617,524.346985 
	C485.476044,527.518127 483.090088,531.645935 484.662140,535.218079 
	C486.472748,532.679260 485.888885,528.313049 490.833405,528.053833 
	C490.437042,534.703369 488.306152,540.649597 489.829590,547.196655 
	C491.543549,543.007385 490.937958,538.115417 495.738342,536.058716 
	C497.723633,540.001038 493.808502,542.942993 494.658508,546.341614 
	C496.074707,547.767517 497.650726,545.444580 498.916718,546.774841 
	C500.254059,550.500549 498.226593,554.239685 498.688568,557.882690 
	C500.904938,558.733887 502.106079,556.074646 504.409943,556.994568 
	C507.246307,563.024109 502.200470,569.797913 505.367615,576.072571 
	C506.972198,572.907898 506.413788,568.595886 511.671753,566.792175 
	C510.400146,574.047791 509.366943,580.739624 512.534302,587.618591 
	C514.308411,583.128784 515.709351,579.034790 517.529724,575.136719 
	C519.214661,571.528687 520.875244,571.578125 523.210693,574.944580 
	C515.496582,580.835083 519.467163,589.348755 518.679749,596.825989 
	C519.035095,595.606384 519.390442,594.386780 519.947388,592.470093 
M410.955872,379.550049 
	C409.806396,376.934662 407.831573,375.263428 405.077667,374.574738 
	C398.607483,372.956665 388.349609,378.063660 385.725464,384.136780 
	C385.320282,385.074524 384.650055,386.232941 385.587402,386.862213 
	C388.708771,388.957794 388.563934,392.681091 390.201019,395.498383 
	C400.997345,414.077515 413.106628,431.821716 424.683075,449.904938 
	C426.122101,452.152771 427.579651,452.754425 429.980560,451.285492 
	C433.669922,449.028168 437.394409,446.785522 441.284821,444.912140 
	C444.727020,443.254669 444.422302,441.399048 442.633331,438.666473 
	C430.477631,420.099152 422.092010,399.504486 410.955872,379.550049 
M337.939972,401.404633 
	C348.973785,399.911774 359.920258,397.937805 370.763794,395.406982 
	C378.298737,393.648407 380.023071,390.589539 377.796265,382.924042 
	C375.719238,382.632965 373.956757,383.685852 372.129852,384.388702 
	C364.527893,387.313416 357.003876,390.452209 349.339691,393.201385 
	C331.176331,399.716705 312.505707,396.886414 293.982056,395.729065 
	C281.275238,394.935150 268.606232,393.535522 255.920319,392.406647 
	C268.635529,399.024078 282.134521,402.561646 296.284546,403.700348 
	C309.969513,404.801605 323.497528,402.894501 337.939972,401.404633 
M467.770660,259.109009 
	C464.710083,275.853821 460.357147,292.300842 453.308533,307.768799 
	C445.681763,324.505432 438.682434,341.776245 424.447906,354.558075 
	C419.525818,358.977814 413.974304,362.583130 408.711243,366.783600 
	C415.311646,371.247559 418.972687,370.810883 422.974945,365.139740 
	C426.236969,360.517456 429.300629,355.754486 432.423462,351.034851 
	C445.924835,330.629852 459.522217,310.459015 465.160767,285.882935 
	C469.237030,268.116364 472.712921,250.515106 471.203217,232.208328 
	C471.366089,241.065170 470.404449,249.779083 467.770660,259.109009 
M560.451965,660.809021 
	C567.199829,659.663513 572.543335,656.288330 576.410706,650.644958 
	C578.034424,648.275574 579.588257,645.832153 577.695862,642.848816 
	C575.866760,639.965210 573.070251,639.098328 569.917236,639.430054 
	C561.504883,640.315186 554.652588,644.055908 550.049561,651.259277 
	C548.055359,654.380127 546.988098,658.097168 543.339539,660.426697 
	C549.098511,663.744568 554.370667,662.726990 560.451965,660.809021 
z"/>
<path fill="#000000" opacity="1.000000" stroke="none" 
	d="
M229.674408,363.437775 
	C213.701828,352.761200 200.082596,340.167816 189.482285,324.482788 
	C179.686996,309.988922 169.726257,295.589539 164.058395,278.788025 
	C161.658371,271.673553 159.754715,264.475311 159.198761,256.952301 
	C158.401794,246.168259 157.572723,235.386185 156.676697,224.609985 
	C155.797546,214.036926 158.519455,204.145676 162.191696,194.418320 
	C165.426025,185.850952 168.492615,177.214600 171.954071,168.739761 
	C179.850540,149.406525 194.492096,135.748215 210.343170,122.959854 
	C231.115829,106.200859 255.954330,98.357735 280.720001,90.637917 
	C292.215302,87.054665 304.445465,85.675797 316.427612,83.859001 
	C325.149750,82.536491 333.509033,85.992172 342.059082,87.094460 
	C346.506714,87.667854 350.948822,88.323303 355.413208,88.717026 
	C360.325867,89.150276 364.571899,90.610680 368.716766,93.618744 
	C376.519653,99.281502 384.856445,104.210312 392.989624,109.415565 
	C397.385651,112.229050 401.456055,115.313942 403.717773,120.262726 
	C404.570831,122.129295 406.281799,123.309677 407.928558,124.452332 
	C413.783905,128.515198 418.438141,133.756607 422.030060,139.809097 
	C429.596222,152.558441 436.917969,165.453537 444.276428,178.325180 
	C448.432312,185.594757 449.319458,193.768341 450.269226,201.847900 
	C451.663818,213.711685 453.239685,225.590271 453.763916,237.505402 
	C454.036255,243.695999 452.267822,249.986176 451.333405,256.218231 
	C448.664062,274.020782 444.876465,291.365173 436.974884,307.882172 
	C430.240417,321.959412 419.759552,332.304626 408.270325,341.942017 
	C397.122253,351.293243 385.089203,359.369049 370.676666,363.050598 
	C370.355225,363.132721 370.021027,363.224060 369.738037,363.388794 
	C359.916962,369.106567 349.075531,370.990356 338.029297,373.049896 
	C321.779236,376.079590 305.667297,378.819702 289.043701,378.167786 
	C268.316956,377.354980 248.396957,373.672455 229.674408,363.437775 
M429.391785,303.015869 
	C436.712006,290.708893 441.497528,277.531830 443.305908,263.277252 
	C444.555878,253.424637 447.825256,243.822723 446.485535,233.654694 
	C445.639252,227.231628 445.088440,220.758545 444.684296,214.290451 
	C443.676056,198.153503 440.710876,182.600876 431.845245,168.691772 
	C427.996399,162.653366 424.449341,156.394897 420.240479,150.618744 
	C406.410461,131.638779 389.527740,116.474037 366.374512,109.834755 
	C355.836670,106.812981 345.157410,104.263245 334.483551,101.748688 
	C330.788727,100.878250 326.928436,100.560562 323.123230,100.333366 
	C303.314880,99.150703 284.523743,104.305008 265.838806,109.873260 
	C259.839294,111.661148 253.320023,112.370735 248.446930,116.947762 
	C245.348602,119.857826 241.658966,121.697624 237.768127,123.248528 
	C226.461441,127.755402 217.065033,135.174957 207.915283,142.950531 
	C195.092422,153.847610 188.657822,169.092117 180.637405,183.244263 
	C178.178482,187.583069 175.941498,192.032532 174.502396,196.872513 
	C167.997055,218.751358 167.108521,241.057480 169.524109,263.567688 
	C170.067886,268.634857 169.957230,273.826508 172.144562,278.723572 
	C182.586731,302.101715 196.206589,323.235352 215.332245,340.510834 
	C229.849808,353.623993 245.109741,363.853424 266.083252,365.446655 
	C285.944275,366.955414 305.496918,367.099731 325.220825,365.201721 
	C331.233917,364.623077 337.080139,363.654663 342.744843,361.627319 
	C348.091644,359.713806 353.731720,358.988342 359.165619,357.527527 
	C389.861053,349.275543 416.278961,335.284332 429.391785,303.015869 
z"/>
<path fill="#000000" opacity="1.000000" stroke="none" 
	d="
M188.226105,249.366638 
	C184.526810,233.724197 188.600784,219.651230 194.526093,205.823669 
	C197.459869,198.977280 203.034729,194.434525 208.261368,189.573242 
	C209.472534,188.446747 211.008270,188.422348 212.478104,189.083282 
	C221.610489,193.189972 225.476059,203.124954 221.655502,212.970428 
	C219.183167,219.341537 216.995880,225.727280 216.023514,232.568817 
	C214.122208,245.946838 216.401764,258.799133 220.742630,271.294739 
	C223.911911,280.417877 227.110031,289.473907 228.745056,299.028290 
	C229.095901,301.078522 229.021637,302.955414 228.474854,304.917755 
	C226.993164,310.235352 223.909653,311.726044 219.207077,308.864929 
	C212.732956,304.925934 207.307571,299.727386 203.027069,293.470978 
	C198.279236,286.531525 195.134995,278.926910 193.518631,270.593353 
	C192.159317,263.585144 190.099731,256.712738 188.226105,249.366638 
M194.587311,224.194687 
	C194.272842,228.496796 192.975143,232.732941 193.472885,237.082031 
	C194.851089,249.124039 196.742111,261.073975 200.311020,272.699158 
	C203.510849,283.122101 209.219238,291.948669 217.321716,299.206635 
	C218.695724,300.437439 220.046341,302.030975 222.642212,301.927979 
	C221.918961,295.395111 220.950150,289.173737 218.569901,283.347534 
	C214.343018,273.001129 211.354324,262.462616 209.984451,251.278168 
	C208.397018,238.317612 208.174316,225.785446 214.130661,213.782654 
	C215.732834,210.554092 215.933517,207.091354 215.788345,203.562698 
	C215.671188,200.714752 214.039108,198.862671 211.683395,197.785172 
	C209.039291,196.575745 207.741592,198.946899 206.428101,200.498398 
	C200.759430,207.194366 196.665146,214.726471 194.587311,224.194687 
z"/>
<path fill="#000000" opacity="1.000000" stroke="none" 
	d="
M240.277771,149.508453 
	C246.598557,154.158707 250.742630,159.868027 248.973343,167.548416 
	C247.114151,175.619125 241.633179,181.404205 233.814072,184.153854 
	C225.003113,187.252289 212.241867,175.010010 213.942947,165.377441 
	C214.519501,162.112579 215.590012,158.975510 217.258286,156.032791 
	C223.044525,145.826294 229.576385,143.852264 240.277771,149.508453 
M224.277039,174.239288 
	C231.175308,179.699356 239.367981,177.232758 242.340271,168.800949 
	C244.366592,163.052734 241.339111,156.109726 235.818176,153.843552 
	C229.680420,151.324188 224.613113,153.522263 221.579712,159.922806 
	C219.149872,165.049759 220.136169,169.571503 224.277039,174.239288 
z"/>
</svg>