<svg version="1.1" id="Layer_1" xmlns="http://www.w3.org/2000/svg" xmlns:xlink="http://www.w3.org/1999/xlink" x="0px" y="0px"
	 width="100%" viewBox="0 0 512 512" enable-background="new 0 0 512 512" xml:space="preserve">
<path fill="none" opacity="1.000000" stroke="#000000" stroke-linecap="round" stroke-linejoin="round" stroke-width="3.000000"
	d="
M424.000000,258.000000 
	C425.159485,236.515274 425.547882,215.007263 426.187714,193.505585 
	C426.559753,181.003433 425.913483,168.388687 427.326111,156.037292 
	C428.474915,145.992874 427.226990,136.008484 428.702148,125.956291 
	C430.090851,116.493423 428.599609,106.646538 429.084351,97.004242 
	C430.056030,77.676941 430.683899,58.344826 430.983154,38.999741 
	C431.088654,32.180378 429.830231,31.001324 423.000000,31.001192 
	C330.333344,30.999416 237.666672,31.000000 145.000000,31.000000 
	C127.000000,31.000000 109.000000,30.997515 91.000000,31.001268 
	C84.169769,31.002691 82.905106,32.180592 83.018860,38.999687 
	C83.294121,55.500652 83.284752,72.019783 84.137901,88.492859 
	C84.682121,99.000923 84.419189,109.528427 85.142807,119.990120 
	C85.996681,132.335037 85.393990,144.690369 86.117790,156.993073 
	C87.264694,176.487534 87.645027,195.986954 88.223114,215.493393 
	C88.509460,225.155457 88.747147,234.830185 89.034119,244.498993 
	C89.167847,249.004913 89.666664,253.500000 90.000000,258.000000 
"/>
<path fill="none" opacity="1.000000" stroke="#000000" stroke-linecap="round" stroke-linejoin="round" stroke-width="3.000000"
	d="
M430.500000,275.500000 
	C435.087036,268.855103 436.100311,261.300262 435.987000,253.500183 
	C435.751984,237.320282 437.069519,221.181793 437.228821,205.002258 
	C437.330353,194.688843 437.642670,184.329834 438.064423,174.002625 
	C439.017090,150.674942 439.470215,127.336716 440.161072,104.004768 
	C440.718628,85.172173 441.358917,66.334229 441.994415,47.499813 
	C442.196869,41.501019 441.984467,35.464962 442.582794,29.508316 
	C443.451813,20.857044 436.147736,11.956012 426.499969,11.961181 
	C313.500000,12.021716 200.499969,12.035896 87.500046,11.944192 
	C76.262314,11.935073 69.024223,23.982386 71.478127,32.006687 
	C72.423599,35.098400 71.724770,38.353100 71.843666,41.505894 
	C72.503136,58.993595 72.413452,76.509399 73.062889,93.997665 
	C73.910683,116.827751 74.367889,139.671967 75.273933,162.489120 
	C75.677994,172.664688 74.897240,182.919754 76.163879,192.979370 
	C77.800797,205.979782 76.032074,219.027786 77.822243,232.024490 
	C78.813530,239.221268 77.859489,246.670105 78.038940,253.999054 
	C78.223755,261.546844 78.822235,269.060974 83.500000,275.500000 
"/>
<path fill="none" opacity="1.000000" stroke="#000000" stroke-linecap="round" stroke-linejoin="round" stroke-width="3.000000"
	d="
M460.500000,489.500000 
	C463.797241,488.611664 467.164185,489.096832 470.500214,489.007843 
	C481.524384,488.713715 489.578156,478.763824 486.797150,468.052673 
	C481.373138,447.161896 475.501984,426.379181 469.960571,405.510468 
	C462.116211,375.969147 454.004181,346.498871 445.997803,317.000580 
	C443.011230,305.996948 440.035187,294.990234 436.986359,284.003784 
	C435.249725,277.745758 431.515808,275.001221 425.000000,275.001129 
	C313.833344,274.999573 202.666580,275.063354 91.500160,274.895874 
	C81.100594,274.880219 78.348633,277.809723 76.147774,286.537262 
	C70.748573,307.947723 64.727173,329.182953 58.987087,350.496521 
	C51.038525,380.010376 42.967094,409.491150 35.019577,439.005280 
	C32.560329,448.138031 30.903419,457.528107 27.855120,466.450500 
	C24.077539,477.507568 32.483177,489.486206 44.501034,489.027069 
	C45.493221,488.989136 46.500004,489.333313 47.500004,489.499969 
"/>
<path fill="none" opacity="1.000000" stroke="#000000" stroke-linecap="round" stroke-linejoin="round" stroke-width="3.000000"
	d="
M79.000000,259.500000 
	C84.139679,258.496765 89.330978,259.012787 94.500000,259.012024 
	C202.833328,258.996124 311.166656,258.996124 419.500000,259.011993 
	C424.669006,259.012756 429.860321,258.496765 435.000000,259.500000 
"/>
<path fill="none" opacity="1.000000" stroke="#000000" stroke-linecap="round" stroke-linejoin="round" stroke-width="3.000000"
	d="
M90.000000,390.000000 
	C87.000000,390.000000 84.000000,390.000000 81.000000,390.000000 
	C73.828987,390.000000 71.466972,387.350952 73.029625,380.506775 
	C78.285011,357.488983 83.903305,334.550415 88.821198,311.461914 
	C89.945641,306.182892 91.514137,300.959351 92.094727,295.510101 
	C92.784904,289.032288 94.461388,287.997772 101.500000,287.997986 
	C202.166672,288.000916 302.833374,287.981384 403.499908,288.090363 
	C406.500671,288.093597 409.414185,287.527008 412.517487,287.803711 
	C419.409332,288.418152 420.711670,288.816376 421.981049,295.003876 
	C426.613922,317.586304 431.555664,340.097168 436.948425,362.512421 
	C438.613373,369.432617 439.994293,376.458618 440.885559,383.514465 
	C441.486176,388.269531 439.411560,389.940887 434.499939,389.992828 
	C431.000305,390.029877 427.500000,390.000000 424.000000,390.000000 
"/>
<path fill="none" opacity="1.000000" stroke="#000000" stroke-linecap="round" stroke-linejoin="round" stroke-width="2.000000"
	d="
M405.500000,15.500000 
	C308.833344,15.500000 212.166672,15.500000 115.500000,15.500000 
"/>
<path fill="none" opacity="1.000000" stroke="#000000" stroke-linecap="round" stroke-linejoin="round" stroke-width="3.000000"
	d="
M132.500000,512.500000 
	C136.732513,511.198914 139.271713,507.599579 142.438156,504.926727 
	C147.586929,500.580475 154.036469,499.900452 160.036316,498.122528 
	C165.472260,496.511749 170.471191,494.293060 174.974899,490.966034 
	C177.445023,489.141266 179.816208,487.783234 183.017868,488.951019 
	C183.900436,489.272980 185.000000,489.000000 186.000000,489.000000 
	C236.666672,489.000000 287.333618,489.091522 337.999817,488.938263 
	C351.338501,488.897888 363.304535,492.434937 373.417480,501.096344 
	C377.096893,504.247650 379.833344,508.500000 383.000000,512.250000 
"/>
<path fill="none" opacity="1.000000" stroke="#000000" stroke-linecap="round" stroke-linejoin="round" stroke-width="4.000000"
	d="
M343.500000,488.000000 
	C341.381134,483.041199 336.640594,484.024231 333.004303,484.137909 
	C304.835541,485.018341 276.666321,484.256042 248.499817,484.475891 
	C231.667511,484.607269 214.833237,484.528900 198.000076,484.477264 
	C194.332916,484.466034 190.666672,484.166656 187.000000,483.999969 
"/>
<path fill="none" opacity="1.000000" stroke="#000000" stroke-linecap="round" stroke-linejoin="round" stroke-width="3.000000"
	d="
M198.000000,474.500000 
	C199.603210,475.301270 201.325592,474.988007 203.000000,474.988647 
	C242.333328,475.003326 281.666656,475.006714 321.000000,474.978790 
	C322.833435,474.977478 324.666656,474.666656 326.500000,474.500000 
"/>
<path fill="none" opacity="1.000000" stroke="#000000" stroke-linecap="round" stroke-linejoin="round" stroke-width="3.000000"
	d="
M91.000000,350.000000 
	C91.000000,357.500000 90.102676,365.131256 91.176727,372.474152 
	C93.858116,390.805817 86.526237,407.153687 81.798080,423.943146 
	C79.257706,432.963898 76.569321,442.002045 74.234573,451.060455 
	C72.077614,459.429108 67.796158,466.119171 62.497089,472.497589 
	C55.842503,480.507629 49.129822,488.469696 42.514057,496.511566 
	C38.664330,501.191132 35.497581,506.279114 34.000000,512.250000 
"/>
<path fill="none" opacity="1.000000" stroke="#000000" stroke-linecap="round" stroke-linejoin="round" stroke-width="3.000000"
	d="
M420.500000,314.000000 
	C422.969208,315.703674 422.985565,318.729218 423.320709,321.026154 
	C424.330475,327.947113 426.628387,334.620789 427.354553,341.515320 
	C428.014404,347.779938 428.534119,354.354309 426.868164,360.464050 
	C423.678864,372.160797 422.640900,383.999359 423.083099,395.996948 
	C423.242401,400.319855 424.482208,404.548035 426.480194,408.509979 
	C432.418732,420.285797 439.041199,431.835999 441.450256,445.009094 
	C444.806763,463.362946 454.573395,478.882233 463.039032,494.979462 
	C466.130005,500.856934 469.666656,506.500000 473.000000,512.250000 
"/>
<path fill="none" opacity="1.000000" stroke="#000000" stroke-linecap="round" stroke-linejoin="round" stroke-width="3.000000"
	d="
M309.000000,373.500000 
	C307.629822,376.833344 309.379242,380.158661 309.027649,383.502899 
	C308.806335,385.608307 310.158508,386.207062 311.999023,385.991577 
	C313.498260,385.816071 315.091553,386.490509 316.939484,385.333099 
	C315.740326,381.421051 314.213989,377.498322 311.422699,374.573792 
	C304.916809,367.757355 300.099152,359.350800 291.586060,354.353394 
	C288.424988,352.497711 285.918060,349.207397 281.997437,349.077118 
	C275.173309,348.850342 268.080292,347.061462 261.593262,349.273468 
	C257.589935,350.638580 254.166031,349.522675 251.079361,348.701660 
	C246.603043,347.510986 242.401443,348.223389 238.569748,349.258270 
	C234.166336,350.447540 230.374863,349.425507 226.530731,348.386322 
	C222.595322,347.322418 219.585312,350.296478 216.002686,349.970459 
	C211.068222,349.521423 209.111023,352.833191 207.521225,356.509186 
	C202.903580,367.186249 197.476944,377.447693 196.228851,389.471863 
	C195.551331,395.999084 194.170471,402.373535 194.958191,409.004974 
	C195.518570,413.722534 197.241623,418.099915 201.580582,419.793549 
	C205.424942,421.294128 209.710846,419.792297 212.976257,416.972504 
	C219.060547,411.718567 223.465027,405.069519 226.878677,397.941895 
	C229.551453,392.361176 232.699570,387.310791 237.553741,383.569733 
	C240.396210,381.379028 243.907211,379.559814 247.454956,382.063843 
	C250.569748,384.262238 252.220001,387.262665 252.120605,391.502838 
	C251.971313,397.871735 250.402313,403.891907 249.035782,410.007996 
	C248.020035,414.553986 245.823990,418.375458 242.477890,421.476135 
	C235.494095,427.947815 230.376709,435.494690 226.819687,444.428192 
	C224.691711,449.772552 220.394424,454.176575 215.954956,457.946960 
	C204.586670,467.601929 193.618851,477.748444 181.515640,486.521576 
	C181.059555,486.852203 180.833344,487.500000 180.500000,488.000000 
"/>
<path fill="none" opacity="1.000000" stroke="#000000" stroke-linecap="round" stroke-linejoin="round" stroke-width="3.000000"
	d="
M267.000000,396.500000 
	C270.317505,403.964844 274.865204,410.529877 280.404572,416.587250 
	C284.538086,421.107330 287.990662,426.344238 290.453156,432.020325 
	C294.213623,440.688324 300.280548,447.691803 306.569763,454.434937 
	C314.616852,463.062866 323.306488,471.063904 332.456482,478.553162 
	C334.202148,479.981995 336.177521,481.419250 337.000000,483.750000 
"/>
<path fill="none" opacity="1.000000" stroke="#000000" stroke-linecap="round" stroke-linejoin="round" stroke-width="3.000000"
	d="
M90.000000,367.500000 
	C88.666664,367.500000 87.331001,367.550568 86.000496,367.489227 
	C83.428322,367.370697 82.342308,366.146027 82.979576,363.495087 
	C83.575043,361.018036 84.176071,358.519867 84.460739,355.995575 
	C84.946495,351.688263 86.223335,348.503387 91.506058,348.923950 
	C92.778122,349.025208 94.058075,348.164978 95.018990,347.015869 
	C100.545616,340.406830 108.507622,337.821899 116.015472,334.535339 
	C118.719017,333.351868 122.625648,335.927612 124.000000,339.500000 
	C125.401764,343.143616 123.700500,347.161774 119.469429,348.395111 
	C114.862808,349.737915 112.258293,352.296753 111.470482,356.995056 
	C110.814331,360.908142 112.001236,364.340210 114.057419,367.462189 
	C115.240852,369.259064 117.023308,368.694427 118.494888,367.493744 
	C121.113045,365.357574 124.210930,352.552032 123.000000,349.000000 
"/>
<path fill="none" opacity="1.000000" stroke="#000000" stroke-linecap="round" stroke-linejoin="round" stroke-width="3.000000"
	d="
M335.000000,192.000015 
	C326.500000,199.000015 317.995819,205.994949 309.501129,213.001373 
	C300.100769,220.754745 290.235443,227.954285 281.500000,236.500000 
"/>
<path fill="none" opacity="1.000000" stroke="#000000" stroke-linecap="round" stroke-linejoin="round" stroke-width="3.000000"
	d="
M378.500000,179.500000 
	C362.672638,194.090302 346.114075,207.827240 329.513214,221.516006 
	C328.246094,222.560852 327.166687,223.833344 326.000000,225.000015 
"/>
<path fill="none" opacity="1.000000" stroke="#000000" stroke-linecap="round" stroke-linejoin="round" stroke-width="3.000000"
	d="
M254.500000,331.500000 
	C248.500000,331.166656 242.488037,330.965363 236.506943,330.423309 
	C234.596558,330.250153 232.939911,329.264648 231.392624,331.423004 
	C230.917664,332.085571 229.127121,332.113220 228.006378,331.954895 
	C220.327560,330.870056 212.650772,332.042908 205.006607,331.795593 
	C201.103989,331.669312 197.490921,330.501099 195.018021,334.511108 
	C192.813324,338.086121 187.594009,338.634247 186.790466,343.968445 
	C186.158279,348.165192 181.542114,350.341888 177.570023,348.817535 
	C175.859085,348.160950 173.970154,348.655060 172.500000,347.500000 
"/>
<path fill="none" opacity="1.000000" stroke="#000000" stroke-linecap="round" stroke-linejoin="round" stroke-width="3.000000"
	d="
M393.000000,348.000000 
	C390.898163,340.646912 389.687012,333.128510 390.110382,325.506134 
	C390.304047,322.019165 388.062836,318.960388 389.213470,315.502472 
	C388.358734,315.115356 387.652893,314.854950 387.004700,314.491638 
	C384.499847,313.087677 380.595154,315.519806 379.193054,312.896820 
	C377.401947,309.546021 377.010101,305.438812 377.033752,301.500214 
	C377.039703,300.509674 376.485657,299.358734 378.048096,297.993317 
	C390.940399,296.700958 404.594727,298.367676 417.899353,297.349670 
	C418.241516,291.721375 416.354797,290.179718 411.995209,290.408569 
	C405.346863,290.757538 398.663727,290.623260 392.000824,290.464783 
	C385.539856,290.311127 387.137268,291.285217 386.000000,296.500000 
"/>
<path fill="none" opacity="1.000000" stroke="#000000" stroke-linecap="round" stroke-linejoin="round" stroke-width="3.000000"
	d="
M406.000000,348.750000 
	C404.075897,347.672424 402.252716,345.647308 399.978058,348.230682 
	C399.635712,348.619507 399.010132,348.940552 398.498291,348.967773 
	C395.967010,349.102509 392.665161,348.021851 393.015472,352.498779 
	C393.403137,357.452667 393.707123,362.533386 398.076874,365.900238 
	C398.671295,366.358307 400.339752,366.408173 401.522369,365.530151 
	C405.599030,362.503448 407.792938,354.878082 406.000000,349.500000 
"/>
<path fill="none" opacity="1.000000" stroke="#000000" stroke-linecap="round" stroke-linejoin="round" stroke-width="5.000000"
	d="
M126.000000,341.000000 
	C127.727058,339.757477 126.799751,337.551514 127.861969,335.910645 
	C128.584259,334.794891 128.000000,332.833344 128.000000,330.820404 
	C124.156799,331.047516 120.327942,331.466766 116.500099,331.457672 
	C109.666405,331.441437 102.834114,331.101318 95.999763,331.020172 
	C90.276512,330.952179 88.729904,331.890350 88.160370,337.516235 
	C87.811638,340.961060 84.947174,344.370514 87.500000,348.000000 
"/>
<path fill="none" opacity="1.000000" stroke="#000000" stroke-linecap="round" stroke-linejoin="round" stroke-width="3.000000"
	d="
M157.000000,314.500000 
	C153.833344,323.833344 150.611328,333.148407 147.525711,342.508484 
	C146.185089,346.575165 144.749069,350.580566 143.141632,354.557251 
	C141.900818,357.627014 139.159454,359.030060 137.500000,361.500000 
"/>
<path fill="none" opacity="1.000000" stroke="#000000" stroke-linecap="round" stroke-linejoin="round" stroke-width="3.000000"
	d="
M399.000000,139.000015 
	C385.666687,150.000015 372.333344,161.000015 359.000000,172.000015 
"/>
<path fill="none" opacity="1.000000" stroke="#000000" stroke-linecap="round" stroke-linejoin="round" stroke-width="3.000000"
	d="
M294.000000,390.500000 
	C302.166656,389.376556 310.333344,390.351654 318.470764,389.903320 
	C319.494293,395.618835 320.307129,400.739655 320.043060,406.002167 
	C319.902893,408.795898 319.348297,411.881012 316.920929,412.788483 
	C314.454346,413.710602 311.471954,413.185547 308.946716,411.063416 
	C303.194153,406.229126 299.133972,399.967926 295.190521,393.876678 
	C289.832794,385.600891 283.395508,378.704163 275.301025,373.052643 
	C260.600922,376.941467 261.888306,378.661072 266.500031,395.500671 
	C262.030212,396.482513 257.498657,395.797119 253.000000,396.000000 
"/>
<path fill="none" opacity="1.000000" stroke="#000000" stroke-linecap="round" stroke-linejoin="round" stroke-width="3.000000"
	d="
M197.500000,385.500000 
	C207.484100,386.620422 217.502518,385.689209 227.499771,386.007111 
	C229.339996,386.065643 231.228180,385.656647 233.000000,386.500000 
"/>
<path fill="none" opacity="1.000000" stroke="#000000" stroke-linecap="round" stroke-linejoin="round" stroke-width="3.000000"
	d="
M197.000000,390.000000 
	C206.333328,390.000000 215.666702,389.986908 224.999969,390.012085 
	C226.674576,390.016602 228.396790,389.698730 230.000000,390.500000 
"/>
<path fill="none" opacity="1.000000" stroke="#000000" stroke-linecap="round" stroke-linejoin="round" stroke-width="3.000000"
	d="
M97.500000,298.000000 
	C94.252327,301.773071 94.717209,306.592926 94.131798,311.017426 
	C93.790337,313.598267 96.346039,313.991821 98.500008,313.997498 
	C101.999985,314.006714 105.508698,314.152985 108.997421,313.954681 
	C112.150154,313.775482 113.045036,315.509308 112.431030,317.982880 
	C111.437836,321.984131 111.864632,326.341156 109.500000,330.000000 
"/>
<path fill="none" opacity="1.000000" stroke="#000000" stroke-linecap="round" stroke-linejoin="round" stroke-width="4.000000"
	d="
M224.500000,350.000000 
	C221.751099,354.369202 223.485641,359.366547 222.665619,364.029114 
	C222.284210,366.197784 224.088547,367.761322 227.005005,367.580902 
	C231.819901,367.283020 236.666672,367.500000 241.500000,367.500000 
"/>
<path fill="none" opacity="1.000000" stroke="#000000" stroke-linecap="round" stroke-linejoin="round" stroke-width="3.000000"
	d="
M226.500000,396.500000 
	C216.349258,395.361511 206.164307,396.311005 196.000000,396.000000 
"/>
<path fill="none" opacity="1.000000" stroke="#000000" stroke-linecap="round" stroke-linejoin="round" stroke-width="3.000000"
	d="
M152.500000,313.500000 
	C156.708878,315.643951 159.165024,310.783173 162.998047,310.752777 
	C164.016663,310.744720 165.651566,309.949432 166.996811,310.044922 
	C172.016571,310.401337 172.644302,309.960480 172.986160,304.999054 
	C173.077591,303.671997 173.122772,302.319244 172.971497,301.003265 
	C172.739563,298.985657 174.578735,297.362915 175.439728,297.669342 
	C179.409698,299.082245 183.076767,296.511932 187.020401,297.410431 
	C193.444809,298.874207 200.026611,297.833771 206.483749,297.302551 
	C208.415970,297.143555 209.832428,297.878082 211.493256,298.061157 
	C218.368759,298.818878 225.137878,297.250031 232.002274,297.375031 
	C238.651230,297.496124 245.406143,297.030609 251.982849,297.351440 
	C256.616028,297.577454 261.277710,296.759216 266.041992,297.809479 
	C273.090240,299.363159 274.270325,297.757233 272.906006,290.500000 
	C267.343109,290.500000 261.668976,290.599701 256.001251,290.452271 
	C253.644867,290.390930 253.857239,292.357239 253.000000,293.500000 
"/>
<path fill="none" opacity="1.000000" stroke="#000000" stroke-linecap="round" stroke-linejoin="round" stroke-width="3.000000"
	d="
M424.000000,386.000000 
	C427.840576,386.000000 431.681152,386.000000 435.992615,386.000000 
	C436.088348,380.171387 433.890564,375.205688 433.371735,370.012817 
	C433.295898,369.253784 431.500000,368.666656 430.500000,368.000000 
"/>
<path fill="none" opacity="1.000000" stroke="#000000" stroke-linecap="round" stroke-linejoin="round" stroke-width="3.000000"
	d="
M306.500000,371.000000 
	C305.001465,375.752960 307.066315,380.751709 305.606598,385.706360 
	C300.551178,386.600800 295.441071,385.282745 290.500000,386.500000 
"/>
<path fill="none" opacity="1.000000" stroke="#000000" stroke-linecap="round" stroke-linejoin="round" stroke-width="2.000000"
	d="
M118.000000,296.500000 
	C118.899902,291.478912 118.272636,290.593689 113.499763,290.514435 
	C109.334244,290.445251 105.143188,290.772156 101.007309,290.415314 
	C97.595940,290.121002 97.395012,292.567780 97.097839,294.514923 
	C96.694611,297.157074 98.499382,298.084595 101.000420,298.015076 
	C108.499260,297.806580 116.001953,297.722748 123.498657,297.461395 
	C125.421562,297.394348 127.052055,297.770935 128.500000,299.000000 
"/>
<path fill="none" opacity="1.000000" stroke="#000000" stroke-linecap="round" stroke-linejoin="round" stroke-width="2.000000"
	d="
M83.500000,368.000000 
	C81.172150,369.968872 80.752518,372.614441 80.418495,375.490540 
	C80.047470,378.685272 79.045815,381.806732 78.271309,385.165741 
	C82.292587,387.159302 86.627884,384.976929 90.500000,386.500000 
"/>
<path fill="none" opacity="1.000000" stroke="#000000" stroke-linecap="round" stroke-linejoin="round" stroke-width="3.000000"
	d="
M417.500000,298.000000 
	C420.370209,301.689667 419.739319,306.360413 420.895721,310.528931 
	C421.672668,313.329468 418.938049,313.915955 416.999664,313.924591 
	C411.658630,313.948486 406.338654,314.019867 400.972717,313.172852 
	C397.217590,312.580078 393.212585,313.638947 389.500000,315.000000 
"/>
<path fill="none" opacity="1.000000" stroke="#000000" stroke-linecap="round" stroke-linejoin="round" stroke-width="2.000000"
	d="
M184.500000,296.500000 
	C184.386978,294.661804 184.835022,292.772583 183.790878,290.500000 
	C178.343109,290.500000 172.668961,290.599731 167.001236,290.452301 
	C164.644867,290.390961 164.857239,292.357239 164.000000,293.500000 
"/>
<path fill="none" opacity="1.000000" stroke="#000000" stroke-linecap="round" stroke-linejoin="round" stroke-width="2.000000"
	d="
M296.000000,292.500000 
	C295.136414,291.871155 294.849457,290.504517 293.500000,290.502930 
	C287.661926,290.496063 281.823822,290.500000 276.163696,290.500000 
	C275.399750,292.833344 275.069885,294.666656 276.000000,296.500000 
"/>
<path fill="none" opacity="1.000000" stroke="#000000" stroke-linecap="round" stroke-linejoin="round" stroke-width="2.000000"
	d="
M363.000000,296.000000 
	C363.014740,291.178192 360.476746,289.826965 355.990662,290.430542 
	C353.207703,290.804962 350.333313,290.490265 347.500000,290.502014 
	C341.561829,290.526642 341.561859,290.531311 341.500000,296.500000 
"/>
<path fill="none" opacity="1.000000" stroke="#000000" stroke-linecap="round" stroke-linejoin="round" stroke-width="2.000000"
	d="
M385.000000,292.500000 
	C384.136414,291.871155 383.849457,290.504517 382.500000,290.502930 
	C376.661926,290.496063 370.823822,290.500000 365.209137,290.500000 
	C364.164978,292.772583 364.613007,294.661804 364.500000,296.500000 
"/>
<path fill="none" opacity="1.000000" stroke="#000000" stroke-linecap="round" stroke-linejoin="round" stroke-width="5.000000"
	d="
M326.500000,333.500000 
	C321.074310,332.176117 315.752441,330.184448 309.998291,330.987671 
	C309.344360,331.078949 308.512329,330.743500 308.022858,331.037994 
	C298.756012,336.613129 289.372803,329.978729 279.977173,331.342834 
	C272.368866,332.447510 264.628113,331.112640 256.995239,330.033783 
	C256.364716,329.944672 255.666672,330.333344 255.000000,330.500000 
"/>
<path fill="none" opacity="1.000000" stroke="#000000" stroke-linecap="round" stroke-linejoin="round" stroke-width="2.000000"
	d="
M207.000000,292.500000 
	C206.136414,291.871155 205.849442,290.504517 204.500000,290.502930 
	C198.661911,290.496033 192.823822,290.500000 187.085526,290.500000 
	C186.658218,292.665009 186.329102,294.332489 185.999985,296.000000 
"/>
<path fill="none" opacity="1.000000" stroke="#000000" stroke-linecap="round" stroke-linejoin="round" stroke-width="2.000000"
	d="
M252.500000,296.500000 
	C252.182648,291.771698 249.770493,289.779999 244.995865,290.471405 
	C240.362976,291.142273 235.536530,289.344757 231.000000,291.500000 
"/>
<path fill="none" opacity="1.000000" stroke="#000000" stroke-linecap="round" stroke-linejoin="round" stroke-width="3.000000"
	d="
M146.500000,313.500000 
	C142.330063,313.584930 138.334106,315.268860 133.974915,314.092987 
	C128.915878,312.728333 123.670792,313.451385 118.496422,313.963867 
	C117.493820,314.063141 116.219597,314.004425 116.062897,315.009796 
	C115.289070,319.974701 112.389893,324.738983 114.500000,330.000000 
"/>
<path fill="none" opacity="1.000000" stroke="#000000" stroke-linecap="round" stroke-linejoin="round" stroke-width="2.000000"
	d="
M318.000000,291.500000 
	C311.934570,289.293640 305.648865,290.647552 299.501923,290.705139 
	C296.856415,290.729889 296.318634,293.868866 297.000000,296.500000 
"/>
<path fill="none" opacity="1.000000" stroke="#000000" stroke-linecap="round" stroke-linejoin="round" stroke-width="2.000000"
	d="
M163.000000,296.500000 
	C163.638062,294.356293 161.155579,293.063629 162.452377,290.328339 
	C155.000626,291.191284 148.445236,289.197510 142.000000,291.500000 
"/>
<path fill="none" opacity="1.000000" stroke="#000000" stroke-linecap="round" stroke-linejoin="round" stroke-width="3.000000"
	d="
M305.500000,298.500000 
	C307.735443,302.238525 306.815674,306.525208 307.304688,310.523895 
	C307.581787,312.789795 305.298187,314.464081 302.500519,313.996887 
	C299.280914,313.459259 297.843750,315.371857 298.623993,317.962646 
	C299.821136,321.937714 297.214050,326.436554 300.500000,330.000000 
"/>
<path fill="none" opacity="1.000000" stroke="#000000" stroke-linecap="round" stroke-linejoin="round" stroke-width="3.000000"
	d="
M137.000000,316.000000 
	C136.651550,317.830444 136.303116,319.660919 135.848404,322.049622 
	C142.029724,321.351654 148.014862,320.675842 154.000000,320.000000 
"/>
<path fill="none" opacity="1.000000" stroke="#000000" stroke-linecap="round" stroke-linejoin="round" stroke-width="3.000000"
	d="
M398.000000,330.000000 
	C402.899811,326.464539 407.399353,326.866150 412.950592,332.052856 
	C417.853271,336.633636 422.333344,341.666656 427.000000,346.500000 
"/>
<path fill="none" opacity="1.000000" stroke="#000000" stroke-linecap="round" stroke-linejoin="round" stroke-width="2.000000"
	d="
M229.000000,291.500000 
	C222.934586,289.293640 216.649628,290.667328 210.501740,290.716583 
	C208.202789,290.735016 207.110916,293.805450 207.500000,296.500000 
"/>
<path fill="none" opacity="1.000000" stroke="#000000" stroke-linecap="round" stroke-linejoin="round" stroke-width="3.000000"
	d="
M304.000000,334.500000 
	C309.469055,340.339600 316.863617,343.559387 323.059845,348.423767 
	C324.483002,349.540955 325.830597,350.542480 327.088623,351.919006 
	C330.282928,355.414124 333.399963,359.079163 337.982666,361.040527 
	C341.708405,362.635040 342.605469,362.311737 342.997803,358.499786 
	C343.014771,358.334869 343.036713,358.156708 342.994690,358.001434 
	C341.309906,351.779266 342.788727,345.158600 340.516174,338.994049 
	C336.891907,329.163086 337.579651,330.667633 328.500000,332.500000 
"/>
<path fill="none" opacity="1.000000" stroke="#000000" stroke-linecap="round" stroke-linejoin="round" stroke-width="4.000000"
	d="
M267.000000,350.000000 
	C268.482452,354.754089 268.684906,359.542847 268.107758,364.512512 
	C267.756897,367.533722 266.145020,367.526886 263.999908,367.511108 
	C259.166840,367.475647 254.333328,367.500000 249.500000,367.500000 
"/>
<path fill="none" opacity="1.000000" stroke="#000000" stroke-linecap="round" stroke-linejoin="round" stroke-width="3.000000"
	d="
M367.000000,318.000000 
	C374.788269,320.684753 382.856750,322.738953 389.500000,328.000000 
"/>
<path fill="none" opacity="1.000000" stroke="#000000" stroke-linecap="round" stroke-linejoin="round" stroke-width="3.000000"
	d="
M310.500000,298.000000 
	C308.096802,302.417175 310.135712,307.004730 310.106293,311.500702 
	C310.096191,313.040253 311.613159,313.822601 313.487610,314.087677 
	C317.954559,314.719360 322.363861,314.828857 326.478485,312.952820 
	C334.018219,309.515198 341.777710,311.302368 349.500946,311.449921 
	C353.446289,311.525330 356.488098,313.363129 359.500000,315.500000 
"/>
<path fill="none" opacity="1.000000" stroke="#000000" stroke-linecap="round" stroke-linejoin="round" stroke-width="2.000000"
	d="
M140.000000,291.500000 
	C133.765823,289.282745 127.323639,291.041779 120.995773,290.554993 
	C120.010109,290.479187 120.348015,292.514679 119.000000,292.500000 
"/>
<path fill="none" opacity="1.000000" stroke="#000000" stroke-linecap="round" stroke-linejoin="round" stroke-width="5.000000"
	d="
M391.500000,330.500000 
	C393.332550,330.755310 395.165100,331.010651 397.058136,331.274384 
	C397.530426,336.803223 400.548584,341.459259 402.500000,346.500000 
"/>
<path fill="none" opacity="1.000000" stroke="#000000" stroke-linecap="round" stroke-linejoin="round" stroke-width="2.000000"
	d="
M340.500000,292.000000 
	C339.833344,291.500000 339.130890,290.526184 338.505524,290.573364 
	C332.343384,291.038361 326.065430,289.293640 320.000000,291.500000 
"/>
<path fill="none" opacity="1.000000" stroke="#000000" stroke-linecap="round" stroke-linejoin="round" stroke-width="3.000000"
	d="
M318.500000,395.500000 
	C313.531952,396.624908 308.495453,395.695709 303.499969,395.999420 
	C301.661560,396.111176 299.771820,395.656647 298.000000,396.500000 
"/>
<path fill="none" opacity="1.000000" stroke="#000000" stroke-linecap="round" stroke-linejoin="round" stroke-width="3.000000"
	d="
M243.000000,298.000000 
	C241.213852,302.221588 241.759460,306.602966 241.942795,311.002380 
	C242.067703,314.000092 244.802078,314.018066 245.972107,313.828156 
	C250.836243,313.038513 255.710052,314.924927 260.500000,313.500000 
"/>
<path fill="none" opacity="1.000000" stroke="#000000" stroke-linecap="round" stroke-linejoin="round" stroke-width="3.000000"
	d="
M288.000000,298.000000 
	C285.604431,302.347229 287.553131,307.012970 287.177246,311.514801 
	C287.030731,313.269867 289.210632,314.445557 291.505890,314.032837 
	C293.450226,313.683258 295.288055,314.054565 295.474030,316.501984 
	C295.815521,320.995056 297.590118,325.500000 295.500000,330.000000 
"/>
<path fill="none" opacity="1.000000" stroke="#000000" stroke-linecap="round" stroke-linejoin="round" stroke-width="2.000000"
	d="
M265.000000,298.500000 
	C263.906067,302.461365 264.756897,306.503021 264.513031,310.500793 
	C264.341919,313.305634 266.648712,314.255096 268.473053,313.871765 
	C273.508850,312.813660 278.543732,314.979034 283.500000,313.500000 
"/>
<path fill="none" opacity="1.000000" stroke="#000000" stroke-linecap="round" stroke-linejoin="round" stroke-width="3.000000"
	d="
M219.500000,350.000000 
	C219.774979,355.702454 221.459595,361.487823 218.500000,367.000000 
"/>
<path fill="none" opacity="1.000000" stroke="#000000" stroke-linecap="round" stroke-linejoin="round" stroke-width="3.000000"
	d="
M243.000000,350.000000 
	C245.602417,355.748108 244.570282,361.389313 242.500000,367.000000 
"/>
<path fill="none" opacity="1.000000" stroke="#000000" stroke-linecap="round" stroke-linejoin="round" stroke-width="3.000000"
	d="
M220.000000,334.000000 
	C223.710175,335.647797 226.781662,338.062012 229.021912,341.658356 
	C229.363098,344.126831 226.292084,345.432861 226.500000,348.000000 
"/>
<path fill="none" opacity="1.000000" stroke="#000000" stroke-linecap="round" stroke-linejoin="round" stroke-width="2.000000"
	d="
M232.000000,332.000000 
	C233.525772,337.449524 233.462036,342.799713 231.000000,348.000000 
"/>
<path fill="none" opacity="1.000000" stroke="#000000" stroke-linecap="round" stroke-linejoin="round" stroke-width="2.000000"
	d="
M237.000000,332.000000 
	C235.133438,337.280212 234.579697,342.601440 236.500000,348.000000 
"/>
<path fill="none" opacity="1.000000" stroke="#000000" stroke-linecap="round" stroke-linejoin="round" stroke-width="3.000000"
	d="
M260.000000,332.000000 
	C258.555176,337.383698 257.869751,342.743652 260.500000,348.000000 
"/>
<path fill="none" opacity="1.000000" stroke="#000000" stroke-linecap="round" stroke-linejoin="round" stroke-width="2.000000"
	d="
M231.000000,314.500000 
	C229.759796,319.632050 228.587875,324.766266 230.500000,330.000000 
"/>
<path fill="none" opacity="1.000000" stroke="#000000" stroke-linecap="round" stroke-linejoin="round" stroke-width="3.000000"
	d="
M188.000000,315.000000 
	C192.002045,319.584839 194.239868,325.194061 197.000000,330.500000 
"/>
<path fill="none" opacity="1.000000" stroke="#000000" stroke-linecap="round" stroke-linejoin="round" stroke-width="2.000000"
	d="
M295.500000,358.500000 
	C295.500000,359.000000 295.500000,359.500000 295.500000,360.000000 
	C295.500000,368.015289 295.640259,368.130798 304.000000,367.000000 
"/>
<path fill="none" opacity="1.000000" stroke="#000000" stroke-linecap="round" stroke-linejoin="round" stroke-width="2.000000"
	d="
M203.000000,314.500000 
	C204.878250,319.732635 204.235931,324.883942 202.500000,330.000000 
"/>
<path fill="none" opacity="1.000000" stroke="#000000" stroke-linecap="round" stroke-linejoin="round" stroke-width="3.000000"
	d="
M172.500000,310.000000 
	C178.945999,312.427612 185.406769,315.513275 192.468124,313.393768 
	C196.477875,312.190247 200.031433,314.358948 204.036377,313.732513 
	C208.426102,313.045868 213.134598,313.056549 217.504257,313.020782 
	C221.598541,312.987305 226.173721,313.446533 230.508209,313.925812 
	C232.795151,314.178680 235.166672,313.666687 237.500000,313.500031 
"/>
<path fill="none" opacity="1.000000" stroke="#000000" stroke-linecap="round" stroke-linejoin="round" stroke-width="3.000000"
	d="
M272.000000,314.500000 
	C273.623199,319.666656 273.604004,324.833344 272.000000,330.000000 
"/>
<path fill="none" opacity="1.000000" stroke="#000000" stroke-linecap="round" stroke-linejoin="round" stroke-width="3.000000"
	d="
M249.000000,314.500000 
	C250.617325,319.666656 250.617325,324.833344 249.000000,330.000000 
"/>
<path fill="none" opacity="1.000000" stroke="#000000" stroke-linecap="round" stroke-linejoin="round" stroke-width="3.000000"
	d="
M226.000000,314.500000 
	C227.774582,319.729279 227.740662,324.900238 225.500000,330.000000 
"/>
<path fill="none" opacity="1.000000" stroke="#000000" stroke-linecap="round" stroke-linejoin="round" stroke-width="2.000000"
	d="
M153.000000,298.000000 
	C151.829773,302.932983 150.077713,307.807770 151.500000,313.000000 
"/>
<path fill="none" opacity="1.000000" stroke="#000000" stroke-linecap="round" stroke-linejoin="round" stroke-width="2.000000"
	d="
M326.500000,348.000000 
	C328.874908,344.949554 326.982849,341.630035 326.842041,338.507111 
	C326.746124,336.379150 326.170624,334.403107 327.618073,332.138641 
	C331.460541,336.988678 328.342285,343.304138 331.500000,348.000000 
"/>
<path fill="none" opacity="1.000000" stroke="#000000" stroke-linecap="round" stroke-linejoin="round" stroke-width="3.000000"
	d="
M184.500000,329.000000 
	C179.300995,327.782135 176.576813,331.711487 175.206039,335.083740 
	C171.806885,343.446167 170.555603,352.415161 170.456818,361.499542 
	C170.442322,362.831543 171.429962,363.208679 172.122482,364.193970 
	C174.978775,362.746613 176.233673,361.012939 175.144974,357.455627 
	C174.423553,355.098419 174.663696,352.232727 176.500000,350.000000 
"/>
<path fill="none" opacity="1.000000" stroke="#000000" stroke-linecap="round" stroke-linejoin="round" stroke-width="2.000000"
	d="
M148.500000,298.000000 
	C150.077179,303.048218 148.409409,307.760742 147.000000,312.500000 
"/>
<path fill="none" opacity="1.000000" stroke="#000000" stroke-linecap="round" stroke-linejoin="round" stroke-width="2.000000"
	d="
M373.000000,298.000000 
	C374.682861,302.693176 375.506195,307.504883 375.000000,312.500000 
"/>
<path fill="none" opacity="1.000000" stroke="#000000" stroke-linecap="round" stroke-linejoin="round" stroke-width="2.000000"
	d="
M94.500000,314.000000 
	C91.596970,318.001251 90.014946,326.438721 91.500000,330.000000 
"/>
<path fill="none" opacity="1.000000" stroke="#000000" stroke-linecap="round" stroke-linejoin="round" stroke-width="3.000000"
	d="
M248.500000,350.000000 
	C246.414627,355.666656 245.799713,361.333344 248.500000,367.000000 
"/>
<path fill="none" opacity="1.000000" stroke="#000000" stroke-linecap="round" stroke-linejoin="round" stroke-width="3.000000"
	d="
M238.500000,298.000000 
	C239.985321,302.890289 239.517075,307.713226 238.000000,312.500000 
"/>
<path fill="none" opacity="1.000000" stroke="#000000" stroke-linecap="round" stroke-linejoin="round" stroke-width="3.000000"
	d="
M320.000000,316.000000 
	C319.333313,317.166656 318.886627,318.560272 317.959930,319.458649 
	C314.827972,322.494812 314.474182,326.057343 315.500000,330.000000 
"/>
<path fill="none" opacity="1.000000" stroke="#000000" stroke-linecap="round" stroke-linejoin="round" stroke-width="3.000000"
	d="
M374.500000,313.500000 
	C369.556854,313.370544 365.095306,316.732727 360.000000,315.500000 
"/>
<path fill="none" opacity="1.000000" stroke="#000000" stroke-linecap="round" stroke-linejoin="round" stroke-width="4.000000"
	d="
M290.500000,367.500000 
	C283.983826,367.517731 277.465668,367.352081 270.989441,368.437073 
	C269.911865,368.617615 268.537018,369.074158 267.500000,368.000000 
"/>
<path fill="none" opacity="1.000000" stroke="#000000" stroke-linecap="round" stroke-linejoin="round" stroke-width="4.000000"
	d="
M204.000000,367.500000 
	C208.500000,367.500000 213.000000,367.500000 217.500000,367.500000 
"/>
<path fill="none" opacity="1.000000" stroke="#000000" stroke-linecap="round" stroke-linejoin="round" stroke-width="5.000000"
	d="
M195.500000,299.000000 
	C195.333328,303.500000 195.166672,308.000000 195.000000,312.500000 
"/>
<path fill="none" opacity="1.000000" stroke="#000000" stroke-linecap="round" stroke-linejoin="round" stroke-width="2.000000"
	d="
M208.000000,314.500000 
	C206.896881,319.636444 205.292114,324.756744 207.500000,330.000000 
"/>
<path fill="none" opacity="1.000000" stroke="#000000" stroke-linecap="round" stroke-linejoin="round" stroke-width="5.000000"
	d="
M340.500000,349.500000 
	C335.870361,348.083282 331.455872,349.570740 327.000000,350.500000 
"/>
<path fill="none" opacity="1.000000" stroke="#000000" stroke-linecap="round" stroke-linejoin="round" stroke-width="2.000000"
	d="
M429.000000,354.500000 
	C430.957581,358.491760 433.596985,362.401703 430.500000,367.000000 
"/>
<path fill="none" opacity="1.000000" stroke="#000000" stroke-linecap="round" stroke-linejoin="round" stroke-width="4.000000"
	d="
M173.500000,298.500000 
	C170.020111,296.630310 165.981674,297.083862 162.511932,297.249634 
	C152.661789,297.720215 142.830750,297.122223 132.998672,297.461487 
	C130.468674,297.548798 128.663177,297.858704 128.446335,300.996277 
	C128.180267,304.846344 126.769867,308.571442 127.000000,312.500000 
"/>
<path fill="none" opacity="1.000000" stroke="#000000" stroke-linecap="round" stroke-linejoin="round" stroke-width="5.000000"
	d="
M397.500031,299.000000 
	C398.166687,303.333344 398.833344,307.666656 399.500031,312.000000 
"/>
<path fill="none" opacity="1.000000" stroke="#000000" stroke-linecap="round" stroke-linejoin="round" stroke-width="5.000000"
	d="
M218.000000,299.500000 
	C217.833328,303.666656 217.666672,307.833344 217.500000,312.000000 
"/>
<path fill="none" opacity="1.000000" stroke="#000000" stroke-linecap="round" stroke-linejoin="round" stroke-width="2.000000"
	d="
M272.500000,350.000000 
	C269.838440,352.000732 271.192169,354.577087 271.501801,356.999756 
	C271.926727,360.324158 270.424500,363.840881 272.500000,367.000000 
"/>
<path fill="none" opacity="1.000000" stroke="#000000" stroke-linecap="round" stroke-linejoin="round" stroke-width="2.000000"
	d="
M254.000000,314.500000 
	C251.661652,320.075897 251.506958,325.585663 254.500000,331.000000 
"/>
<path fill="none" opacity="1.000000" stroke="#000000" stroke-linecap="round" stroke-linejoin="round" stroke-width="5.000000"
	d="
M330.500000,299.000000 
	C330.666656,302.833344 330.833313,306.666656 331.000000,310.500000 
"/>
<path fill="none" opacity="1.000000" stroke="#000000" stroke-linecap="round" stroke-linejoin="round" stroke-width="3.000000"
	d="
M263.000000,386.000000 
	C259.336914,386.245331 255.627487,385.471283 252.000000,386.500000 
"/>
<path fill="none" opacity="1.000000" stroke="#000000" stroke-linecap="round" stroke-linejoin="round" stroke-width="2.000000"
	d="
M292.500000,356.000000 
	C291.742065,359.628082 293.802582,363.512360 291.500000,367.000000 
"/>
<path fill="none" opacity="1.000000" stroke="#000000" stroke-linecap="round" stroke-linejoin="round" stroke-width="3.000000"
	d="
M276.500000,297.500000 
	C282.323486,298.011139 288.266205,297.885773 293.980255,297.602142 
	C298.782715,297.363770 303.575806,298.214539 308.562469,297.367859 
	C315.311310,296.221954 322.497253,297.829468 329.500885,297.947906 
	C334.996490,298.040863 340.498962,297.592499 346.000214,297.516388 
	C355.667664,297.382599 365.342133,297.770599 375.003876,297.051971 
	C375.807983,296.992157 376.666656,297.666656 377.500000,298.000000 
"/>
<path fill="none" opacity="1.000000" stroke="#000000" stroke-linecap="round" stroke-linejoin="round" stroke-width="3.000000"
	d="
M264.000000,389.500000 
	C260.372528,390.528717 256.663086,389.754669 253.000000,390.000000 
"/>
<path fill="none" opacity="1.000000" stroke="#000000" stroke-linecap="round" stroke-linejoin="round" stroke-width="3.000000"
	d="
M182.000000,350.000000 
	C182.086319,354.484344 178.754120,356.809631 176.000000,359.500000 
"/>
<path fill="none" opacity="1.000000" stroke="#000000" stroke-linecap="round" stroke-linejoin="round" stroke-width="2.000000"
	d="
M277.000000,314.500000 
	C274.018829,316.094086 275.350494,319.219635 275.754700,320.940155 
	C276.460175,323.943146 274.240662,327.576141 277.500000,330.000000 
"/>
<path fill="none" opacity="1.000000" stroke="#000000" stroke-linecap="round" stroke-linejoin="round" stroke-width="2.000000"
	d="
M260.500000,298.000000 
	C262.686768,302.763672 262.347504,307.614441 261.000000,312.500000 
"/>
<path fill="none" opacity="1.000000" stroke="#000000" stroke-linecap="round" stroke-linejoin="round" stroke-width="5.000000"
	d="
M353.000031,299.000000 
	C353.333344,303.166656 353.666687,307.333344 354.000031,311.500000 
"/>
<path fill="none" opacity="1.000000" stroke="#000000" stroke-linecap="round" stroke-linejoin="round" stroke-width="3.000000"
	d="
M348.000000,181.000000 
	C345.528473,183.639786 342.807678,185.953613 339.500000,187.500000 
"/>
<path fill="none" opacity="1.000000" stroke="#000000" stroke-linecap="round" stroke-linejoin="round" stroke-width="3.000000"
	d="
M178.000000,333.000000 
	C180.833328,335.000000 183.666656,337.000000 186.500000,339.000000 
"/>
<path fill="none" opacity="1.000000" stroke="#000000" stroke-linecap="round" stroke-linejoin="round" stroke-width="3.000000"
	d="
M135.000000,323.000000 
	C132.255157,324.694885 130.469604,327.212036 129.000000,330.000000 
"/>
<path fill="none" opacity="1.000000" stroke="#000000" stroke-linecap="round" stroke-linejoin="round" stroke-width="3.000000"
	d="
M279.500000,334.000000 
	C274.375519,338.354675 274.240936,339.835083 278.494476,344.505035 
	C279.413849,345.514404 280.947754,346.196503 280.500000,348.000000 
"/>
<path fill="none" opacity="1.000000" stroke="#000000" stroke-linecap="round" stroke-linejoin="round" stroke-width="2.000000"
	d="
M248.500000,368.000000 
	C246.500000,368.805634 244.500000,368.805634 242.500000,368.000000 
"/>
<path fill="none" opacity="1.000000" stroke="#000000" stroke-linecap="round" stroke-linejoin="round" stroke-width="2.000000"
	d="
M283.000000,298.000000 
	C285.298553,302.697815 284.479156,307.610626 284.000000,312.500000 
"/>
<path fill="none" opacity="1.000000" stroke="#000000" stroke-linecap="round" stroke-linejoin="round" stroke-width="2.000000"
	d="
M470.500000,484.500000 
	C466.723419,485.485931 462.653351,483.096985 459.000000,485.500000 
"/>
<path fill="none" opacity="1.000000" stroke="#000000" stroke-linecap="round" stroke-linejoin="round" stroke-width="2.000000"
	d="
M223.500000,368.000000 
	C221.833328,368.793518 220.166672,368.793518 218.500000,368.000000 
"/>
<path fill="none" opacity="1.000000" stroke="#000000" stroke-linecap="round" stroke-linejoin="round" stroke-width="2.000000"
	d="
M296.500000,368.000000 
	C294.833344,368.793518 293.166656,368.793518 291.500000,368.000000 
"/>
<path fill="none" opacity="1.000000" stroke="#000000" stroke-linecap="round" stroke-linejoin="round" stroke-width="2.000000"
	d="
M151.500000,314.000000 
	C150.166672,314.820526 148.833328,314.820526 147.500000,314.000000 
"/>
<path fill="none" opacity="1.000000" stroke="#000000" stroke-linecap="round" stroke-linejoin="round" stroke-width="2.000000"
	d="
M242.500000,314.000000 
	C241.166672,314.820526 239.833328,314.820526 238.500000,314.000000 
"/>
<path fill="none" opacity="1.000000" stroke="#000000" stroke-linecap="round" stroke-linejoin="round" stroke-width="2.000000"
	d="
M310.500000,314.000000 
	C309.166656,314.820526 307.833344,314.820526 306.500000,314.000000 
"/>
<path fill="none" opacity="1.000000" stroke="#000000" stroke-linecap="round" stroke-linejoin="round" stroke-width="2.000000"
	d="
M265.500000,314.000000 
	C264.166656,314.820526 262.833344,314.820526 261.500000,314.000000 
"/>
<path fill="none" opacity="1.000000" stroke="#000000" stroke-linecap="round" stroke-linejoin="round" stroke-width="2.000000"
	d="
M45.000000,484.500000 
	C46.825264,484.755432 48.743809,483.984802 50.500000,485.000000 
"/>
</svg>